<?xml version="1.0" encoding="utf-8"?>
<!-- Generator: Adobe Illustrator 19.0.0, SVG Export Plug-In . SVG Version: 6.00 Build 0)  -->
<svg version="1.1" xmlns="http://www.w3.org/2000/svg" xmlns:xlink="http://www.w3.org/1999/xlink" x="0px" y="0px"
	 viewBox="0 0 123 128" style="enable-background:new 0 0 123 128;" xml:space="preserve">
<style type="text/css">
	.st0{display:none;}
	.st1{display:inline;}
	.st2{fill-rule:evenodd;clip-rule:evenodd;}
	.st3{display:inline;fill:#DF4834;}
</style>
<g id="Layer_1" class="st0">
	<g id="XMLID_638_" class="st1">
		<g id="XMLID_263_">
			<path id="XMLID_264_" class="st2" d="M124.5,108l-19.2-19.8c5-8.7,8-18.7,8-29.6C113.4,26.2,88,0,56.7,0C25.4,0,0,26.2,0,58.6
				c0,32.4,25.4,58.6,56.7,58.6c12.6,0,24.1-4.4,33.5-11.6l18.3,18.9c4.4,4.6,11.6,4.6,16,0C129,120,129,112.6,124.5,108z
				 M56.7,101.6c-23,0-41.6-19.2-41.6-43c0-23.7,18.6-43,41.6-43c23,0,41.6,19.2,41.6,43C98.3,82.4,79.6,101.6,56.7,101.6z"/>
		</g>
	</g>
</g>
<g id="Layer_2" class="st0">
	<g id="XMLID_2_" class="st1">
		<g id="XMLID_76_">
			<path id="XMLID_77_" d="M91,53.4h-8.1v-19C82.9,15.4,67.3,0,48,0C28.7,0,13.1,15.4,13.1,34.4v19h-8c-2.8,0-5.1,2.2-5.1,4.9v57.4
				c0,6.8,5.7,12.4,12.6,12.4h70.9c6.9,0,12.5-5.5,12.5-12.4V58.3C96,55.5,93.8,53.4,91,53.4z M23.1,34.4C23.1,20.9,34.3,9.9,48,9.9
				c13.7,0,24.9,11,24.9,24.5v19H23.1V34.4z M86,115.6c0,1.4-1.1,2.5-2.5,2.5H12.6c-1.4,0-2.6-1.1-2.6-2.5V63.3H86V115.6z M48,105.5
				c2.8,0,5-2.2,5-4.9V82.8c0-2.7-2.2-4.9-5-4.9c-2.8,0-5,2.2-5,4.9v17.8C43,103.3,45.2,105.5,48,105.5z"/>
		</g>
	</g>
</g>
<g id="Layer_3" class="st0">
	<path id="XMLID_29_" class="st1" d="M113.8,14.2v99.6H14.2V14.2H113.8L113.8,14.2z M113.8,0H14.2C6.4,0,0,6.4,0,14.2v99.6
		c0,7.8,6.4,14.2,14.2,14.2h99.6c7.8,0,14.2-6.4,14.2-14.2V14.2C128,6.4,121.6,0,113.8,0L113.8,0L113.8,0z"/>
</g>
<g id="Layer_4" class="st0">
	<path class="st1" d="M34.8,50.5l-10,10l32,32L128,21.4l-10-10L56.9,72.6L34.8,50.5L34.8,50.5z M113.8,113.8H14.2V14.2h71.1V0H14.2
		C6.4,0,0,6.4,0,14.2v99.6c0,7.8,6.4,14.2,14.2,14.2h99.6c7.8,0,14.2-6.4,14.2-14.2V56.9h-14.2V113.8L113.8,113.8z"/>
</g>
<g id="Layer_5" class="st0">
	<path id="XMLID_49_" class="st1" d="M14.8,128h26.4V64h20.4L64,41.5H41.1v-14c0-5,2.1-5.4,4.6-5.4h17.9V0.1L42.5,0
		C18.9,0,14.8,16.4,14.8,26.8v14.6H0V64h14.8V128z"/>
</g>
<g id="Layer_6" class="st0">
	<path id="XMLID_65_" class="st1" d="M21.7,127.2c0.1,0.9,1.3,1.1,1.8,0.4c0.7-1,10.3-12.5,13.5-24.1c0.9-3.3,5.3-20.2,5.3-20.2
		c2.6,4.9,10.2,9.2,18.3,9.2C84.7,92.5,101,71,101,42.1C101,20.3,82.2,0,53.6,0C18,0,0,25,0,45.9C0,58.6,4.9,69.8,15.3,74
		c1.7,0.7,3.3,0,3.8-1.8c0.3-1.3,1.2-4.5,1.5-5.9c0.5-1.8,0.3-2.5-1.1-4.1c-3-3.5-4.9-8-4.9-14.4c0-18.6,14.2-35.2,36.9-35.2
		c20.1,0,31.2,12.1,31.2,28.2c0,21.2-9.6,39.1-23.8,39.1c-7.9,0-13.7-6.4-11.8-14.2c2.3-9.3,6.6-19.4,6.6-26.1c0-6-3.3-11-10.1-11
		c-8,0-14.5,8.1-14.5,19c0,6.9,2.4,11.6,2.4,11.6s-8.2,34.1-9.6,40.1C19,111.1,21.5,125.7,21.7,127.2"/>
</g>
<g id="Layer_7" class="st0">
	<path id="XMLID_93_" class="st1" d="M144.9,2.4c-5.9,3.7-12.5,6.4-19.4,7.9C119.9,3.9,112,0,103.2,0C86.3,0,72.6,14.5,72.6,32.3
		c0,2.5,0.3,5,0.8,7.4C48,38.3,25.5,25.5,10.4,5.9c-2.6,4.8-4.1,10.3-4.1,16.3c0,11.2,5.4,21.1,13.6,26.9c-5-0.2-9.7-1.6-13.8-4v0.4
		c0,15.6,10.5,28.7,24.5,31.7c-2.6,0.7-5.3,1.1-8.1,1.1c-2,0-3.9-0.2-5.7-0.6c3.9,12.8,15.2,22.2,28.6,22.4
		c-10.5,8.7-23.6,13.8-38,13.8c-2.5,0-4.9-0.2-7.3-0.5c13.5,9.2,29.6,14.5,46.9,14.5c56.2,0,87-49.2,87-91.9c0-1.4,0-2.8-0.1-4.2
		c6-4.6,11.2-10.2,15.2-16.7c-5.5,2.6-11.4,4.3-17.6,5.1C137.8,16.2,142.6,9.9,144.9,2.4"/>
</g>
<g id="Layer_8" class="st0">
	<g id="XMLID_121_" class="st1">
		<g id="XMLID_162_">
			<path id="XMLID_163_" d="M17.1,93.9c-9.4,0-17.1,7.6-17.1,17c0,9.4,7.6,17,17.1,17c9.4,0,17.1-7.6,17.1-17
				C34.1,101.5,26.5,93.9,17.1,93.9z M0,43.5V68c16,0,31,6.2,42.3,17.5c11.3,11.3,17.5,26.4,17.5,42.4h24.6
				C84.5,81.4,46.6,43.5,0,43.5z M0.1,0v24.5c57,0,103.3,46.4,103.3,103.5H128C128,57.4,70.6,0,0.1,0z"/>
		</g>
	</g>
</g>
<g id="Layer_9" class="st0">
	<path id="XMLID_143_" class="st1" d="M40.6,128h46.6c22.3,0,40.5-18.2,40.6-40.4l0.2-32.7l-0.4-1.8l-1.1-2.2l-1.8-1.4
		c-2.4-1.8-14.3,0.1-17.5-2.8c-2.3-2.1-2.6-5.9-3.3-10.9c-1.3-9.9-2.1-10.4-3.6-13.7C94.7,10.2,79.4,1.2,68.9,0H40.6
		C18.2,0,0,18.2,0,40.4v47.2C0,109.8,18.2,128,40.6,128 M41.1,33.1h22.5c4.3,0,7.8,3.5,7.8,7.7c0,4.2-3.5,7.7-7.8,7.7H41.1
		c-4.3,0-7.8-3.5-7.8-7.7C33.3,36.5,36.8,33.1,41.1,33.1 M41.1,79.3h45.7c4.3,0,7.7,3.5,7.7,7.7c0,4.2-3.5,7.7-7.7,7.7H41.1
		c-4.3,0-7.8-3.5-7.8-7.7C33.3,82.8,36.8,79.3,41.1,79.3"/>
</g>
<g id="Layer_10" class="st0">
	<path id="XMLID_147_" class="st1" d="M165,15c0-8.3-7.2-15-16.1-15H16.1C7.2,0,0,6.7,0,15v98c0,8.3,7.2,15,16.1,15h132.8
		c8.9,0,16.1-6.7,16.1-15V15z M16.2,12H149c1.8,0,3.2,1.3,3.2,3v0.1L84.9,77.9c-0.8,0.8-1.8,0.9-2.3,0.9c-0.5,0-1.5-0.1-2.3-0.9
		L13,15.1V15C13,13.3,14.4,12,16.2,12z M149,116H16.2c-1.8,0-3.2-1.4-3.2-3V32.1l58.2,54.3c3,2.8,7.1,4.4,11.4,4.4
		c4.3,0,8.3-1.6,11.4-4.4l58.2-54.3V113C152.2,114.6,150.8,116,149,116z"/>
</g>
<g id="Layer_11" class="st0">
	<path id="XMLID_187_" class="st1" d="M137.1,8.7c-7.2-5.6-16.4-8.7-26-8.7c-11,0-21.7,4.1-29.3,11.4c-1.4,1.3-2.6,2.7-3.8,4.2
		C68.7,4,53.2-2,37.8,0.6C25.1,2.8,15.1,9.4,8.1,20.2c-9.9,15.3-10.7,30-2.4,43.8c4.4,7.4,10.2,14.6,17.6,22
		c13.6,13.6,29.6,26.5,50.5,40.6c1.3,0.9,2.8,1.4,4.3,1.4c2.3,0,3.8-1.1,4.6-1.6c18.9-12.7,33.7-24.4,46.6-36.8
		c7.2-6.9,15.4-15.5,21.4-26.2c2.6-4.6,5.5-10.7,5.3-17.7C155.6,30.6,149.3,18.2,137.1,8.7z M140.8,58.5
		c-5.3,9.5-12.9,17.3-19.6,23.7c-12,11.5-25.7,22.4-43.3,34.4c-19.2-13.1-34.1-25.1-46.6-37.7c-6.8-6.8-12-13.3-16-20
		C9,48.4,9.7,37.8,17.6,25.7c5.3-8.2,12.8-13.1,22.3-14.8c1.8-0.3,3.7-0.5,5.5-0.5c11.3,0,21.2,5.9,26.9,16l1,1.7c1,1.7,3,2.7,5,2.8
		c2.1,0,4-1.2,4.9-2.9c2-3.8,4.1-6.8,6.8-9.3c5.5-5.2,13.3-8.3,21.4-8.3c7,0,13.7,2.2,18.9,6.3c9.7,7.5,14.5,17.1,14.8,29.1
		C145,50.5,142.9,54.8,140.8,58.5z"/>
</g>
<g id="Layer_12" class="st0">
	<path id="XMLID_610_" class="st3" d="M137.1,8.7c-7.2-5.6-16.4-8.7-26-8.7c-11,0-21.7,4.1-29.3,11.4c-1.4,1.3-2.6,2.7-3.8,4.2
		C68.7,4,53.2-2,37.8,0.6C25.1,2.8,15.1,9.4,8.1,20.2c-9.9,15.3-10.7,30-2.4,43.8c4.4,7.4,10.2,14.6,17.6,22
		c13.6,13.6,29.6,26.5,50.5,40.6c1.3,0.9,2.8,1.4,4.3,1.4c2.3,0,3.8-1.1,4.6-1.6c18.9-12.7,33.7-24.4,46.6-36.8
		c7.2-6.9,15.4-15.5,21.4-26.2c2.6-4.6,5.5-10.7,5.3-17.7C155.6,30.6,149.3,18.2,137.1,8.7z"/>
</g>
<g id="Layer_13">
	<g id="XMLID_32_">
		<g id="XMLID_297_">
			<path id="XMLID_298_" class="st2" d="M38.1,112.4c-4.4,0-7.7,3.3-7.7,7.7c0,4.4,3.3,7.9,7.7,7.9c4.4,0,7.9-3.5,7.9-7.9
				C46,115.7,42.5,112.4,38.1,112.4z M113.5,20.9l-83.8,0.1l-0.7-8.7c0,0-6.8-12.4-16.3-12.4C12.8,0,0,3.8,0,12.4l12.1,0
				c0,0,11.8,78.2,11.8,80.2c0,5.4,5.9,12.3,8.4,12.3h78c6.6,0,6.6-15,0-15H37.2l-1.9-8.2l78.1,0.4c0,0,9.5-0.2,9.5-9.1l0-43.1
				C123,29.9,121.9,20.9,113.5,20.9z M107.3,62.4c0,2.5-2.1,4.6-4.6,4.6l-63.6,0.5c-2.5,0-4.6-2.1-4.6-4.6l-1.7-22.2
				c0-2.5,2.1-4.6,4.6-4.6l65.3-0.5c2.5,0,4.6,2.1,4.6,4.6V62.4z M91.8,112.4c-4.4,0-7.7,3.3-7.7,7.7c0,4.4,3.3,7.9,7.7,7.9
				c4.4,0,7.9-3.5,7.9-7.9C99.7,115.7,96.2,112.4,91.8,112.4z"/>
		</g>
	</g>
</g>
</svg>
