<?xml version="1.0" encoding="utf-8"?>
<!-- Generator: Adobe Illustrator 19.0.0, SVG Export Plug-In . SVG Version: 6.00 Build 0)  -->
<svg version="1.1" id="Layer_2" xmlns="http://www.w3.org/2000/svg" xmlns:xlink="http://www.w3.org/1999/xlink" x="0px" y="0px"
	 viewBox="0 0 128 120" style="enable-background:new 0 0 128 120;" xml:space="preserve">
<style type="text/css">
	.st0{fill-rule:evenodd;clip-rule:evenodd;fill:#FFFFFF;}
</style>
<g id="XMLID_3_">
	<g id="XMLID_133_">
		<path id="XMLID_134_" class="st0" d="M4,24h12.4c1.9,9.1,9.9,16,19.6,16c9.7,0,17.7-6.9,19.6-16H124c2.2,0,4-1.8,4-4s-1.8-4-4-4
			H55.6C53.7,6.9,45.7,0,36,0c-9.7,0-17.7,6.9-19.6,16H4c-2.2,0-4,1.8-4,4S1.8,24,4,24z M36,8c6.6,0,12,5.4,12,12
			c0,6.6-5.4,12-12,12s-12-5.4-12-12C24,13.4,29.4,8,36,8z M124,56h-20.4c-1.9-9.1-9.9-16-19.6-16c-9.7,0-17.7,6.9-19.6,16H4
			c-2.2,0-4,1.8-4,4s1.8,4,4,4h60.4c1.9,9.1,9.9,16,19.6,16c9.7,0,17.7-6.9,19.6-16H124c2.2,0,4-1.8,4-4S126.2,56,124,56z M84,72
			c-6.6,0-12-5.4-12-12c0-6.6,5.4-12,12-12s12,5.4,12,12C96,66.6,90.6,72,84,72z M124,96H55.6c-1.9-9.1-9.9-16-19.6-16
			c-9.7,0-17.7,6.9-19.6,16H4c-2.2,0-4,1.8-4,4s1.8,4,4,4h12.4c1.9,9.1,9.9,16,19.6,16c9.7,0,17.7-6.9,19.6-16H124c2.2,0,4-1.8,4-4
			S126.2,96,124,96z M36,112c-6.6,0-12-5.4-12-12c0-6.6,5.4-12,12-12s12,5.4,12,12C48,106.6,42.6,112,36,112z"/>
	</g>
</g>
</svg>
