<?xml version="1.0" encoding="utf-8"?>
<!-- Generator: Adobe Illustrator 19.0.0, SVG Export Plug-In . SVG Version: 6.00 Build 0)  -->
<svg version="1.1" xmlns="http://www.w3.org/2000/svg" xmlns:xlink="http://www.w3.org/1999/xlink" x="0px" y="0px"
	 viewBox="0 0 64 128" style="enable-background:new 0 0 64 128;" xml:space="preserve">
<style type="text/css">
	.st0{display:none;}
	.st1{display:inline;}
	.st2{fill-rule:evenodd;clip-rule:evenodd;}
	.st3{fill:#FFFFFF;}
	.st4{display:inline;fill:#DF4834;}
	.st5{display:inline;fill-rule:evenodd;clip-rule:evenodd;}
</style>
<g id="Layer_1" class="st0">
	<g id="XMLID_638_" class="st1">
		<g id="XMLID_263_">
			<path id="XMLID_264_" class="st2" d="M124.5,124l-19.2-19.8c5-8.7,8-18.7,8-29.6C113.4,42.2,88,16,56.7,16C25.4,16,0,42.2,0,74.6
				c0,32.4,25.4,58.6,56.7,58.6c12.6,0,24.1-4.4,33.5-11.6l18.3,18.9c4.4,4.6,11.6,4.6,16,0C129,136,129,128.6,124.5,124z
				 M56.7,117.6c-23,0-41.6-19.2-41.6-43c0-23.7,18.6-43,41.6-43c23,0,41.6,19.2,41.6,43C98.3,98.4,79.6,117.6,56.7,117.6z"/>
		</g>
	</g>
</g>
<g id="Layer_2" class="st0">
	<g id="XMLID_2_" class="st1">
		<g id="XMLID_76_">
			<path id="XMLID_77_" d="M91,69.4h-8.1v-19C82.9,31.4,67.3,16,48,16c-19.3,0-34.9,15.4-34.9,34.4v19h-8c-2.8,0-5.1,2.2-5.1,4.9
				v57.4c0,6.8,5.7,12.4,12.6,12.4h70.9c6.9,0,12.5-5.5,12.5-12.4V74.3C96,71.5,93.8,69.4,91,69.4z M23.1,50.4
				c0-13.5,11.2-24.5,24.9-24.5c13.7,0,24.9,11,24.9,24.5v19H23.1V50.4z M86,131.6c0,1.4-1.1,2.5-2.5,2.5H12.6
				c-1.4,0-2.6-1.1-2.6-2.5V79.3H86V131.6z M48,121.5c2.8,0,5-2.2,5-4.9V98.8c0-2.7-2.2-4.9-5-4.9c-2.8,0-5,2.2-5,4.9v17.8
				C43,119.3,45.2,121.5,48,121.5z"/>
		</g>
	</g>
</g>
<g id="Layer_3" class="st0">
	<path id="XMLID_29_" class="st1" d="M113.8,30.2v99.6H14.2V30.2H113.8L113.8,30.2z M113.8,16H14.2C6.4,16,0,22.4,0,30.2v99.6
		c0,7.8,6.4,14.2,14.2,14.2h99.6c7.8,0,14.2-6.4,14.2-14.2V30.2C128,22.4,121.6,16,113.8,16L113.8,16L113.8,16z"/>
</g>
<g id="Layer_4" class="st0">
	<path class="st1" d="M34.8,66.5l-10,10l32,32L128,37.4l-10-10L56.9,88.6L34.8,66.5L34.8,66.5z M113.8,129.8H14.2V30.3h71.1V16H14.2
		C6.4,16,0,22.4,0,30.3v99.6c0,7.8,6.4,14.2,14.2,14.2h99.6c7.8,0,14.2-6.4,14.2-14.2V72.9h-14.2V129.8L113.8,129.8z"/>
</g>
<g id="Layer_5">
	<path id="XMLID_49_" class="st3" d="M14.8,128h26.4V64h20.4L64,41.5H41.1v-14c0-5,2.1-5.4,4.6-5.4h17.9V0.1L42.5,0
		C18.9,0,14.8,16.4,14.8,26.8v14.6H0V64h14.8V128z"/>
</g>
<g id="Layer_6" class="st0">
	<path id="XMLID_65_" class="st1" d="M21.7,143.2c0.1,0.9,1.3,1.1,1.8,0.4c0.7-1,10.3-12.5,13.5-24.1c0.9-3.3,5.3-20.2,5.3-20.2
		c2.6,4.9,10.2,9.2,18.3,9.2c24.1,0,40.4-21.5,40.4-50.4C101,36.3,82.2,16,53.6,16C18,16,0,41,0,61.9C0,74.6,4.9,85.8,15.3,90
		c1.7,0.7,3.3,0,3.8-1.8c0.3-1.3,1.2-4.5,1.5-5.9c0.5-1.8,0.3-2.5-1.1-4.1c-3-3.5-4.9-8-4.9-14.4c0-18.6,14.2-35.2,36.9-35.2
		c20.1,0,31.2,12.1,31.2,28.2c0,21.2-9.6,39.1-23.8,39.1c-7.9,0-13.7-6.4-11.8-14.2c2.3-9.3,6.6-19.4,6.6-26.1c0-6-3.3-11-10.1-11
		c-8,0-14.5,8.1-14.5,19c0,6.9,2.4,11.6,2.4,11.6s-8.2,34.1-9.6,40.1C19,127.1,21.5,141.7,21.7,143.2"/>
</g>
<g id="Layer_7" class="st0">
	<path id="XMLID_93_" class="st1" d="M144.9,18.4c-5.9,3.7-12.5,6.4-19.4,7.9C119.9,19.9,112,16,103.2,16
		c-16.9,0-30.6,14.5-30.6,32.3c0,2.5,0.3,5,0.8,7.4c-25.4-1.3-47.9-14.2-63-33.8c-2.6,4.8-4.1,10.3-4.1,16.3
		c0,11.2,5.4,21.1,13.6,26.9c-5-0.2-9.7-1.6-13.8-4v0.4c0,15.6,10.5,28.7,24.5,31.7c-2.6,0.7-5.3,1.1-8.1,1.1c-2,0-3.9-0.2-5.7-0.6
		c3.9,12.8,15.2,22.2,28.6,22.4c-10.5,8.7-23.6,13.8-38,13.8c-2.5,0-4.9-0.2-7.3-0.5c13.5,9.2,29.6,14.5,46.9,14.5
		c56.2,0,87-49.2,87-91.9c0-1.4,0-2.8-0.1-4.2c6-4.6,11.2-10.2,15.2-16.7c-5.5,2.6-11.4,4.3-17.6,5.1
		C137.8,32.2,142.6,25.9,144.9,18.4"/>
</g>
<g id="Layer_8" class="st0">
	<g id="XMLID_121_" class="st1">
		<g id="XMLID_162_">
			<path id="XMLID_163_" d="M17.1,109.9c-9.4,0-17.1,7.6-17.1,17c0,9.4,7.6,17,17.1,17c9.4,0,17.1-7.6,17.1-17
				C34.1,117.5,26.5,109.9,17.1,109.9z M0,59.5V84c16,0,31,6.2,42.3,17.5c11.3,11.3,17.5,26.4,17.5,42.4h24.6
				C84.5,97.4,46.6,59.5,0,59.5z M0.1,16v24.5c57,0,103.3,46.4,103.3,103.5H128C128,73.4,70.6,16,0.1,16z"/>
		</g>
	</g>
</g>
<g id="Layer_9" class="st0">
	<path id="XMLID_143_" class="st1" d="M40.6,144h46.6c22.3,0,40.5-18.2,40.6-40.4L128,71l-0.4-1.8l-1.1-2.2l-1.8-1.4
		c-2.4-1.8-14.3,0.1-17.5-2.8c-2.3-2.1-2.6-5.9-3.3-10.9c-1.3-9.9-2.1-10.4-3.6-13.7C94.7,26.2,79.4,17.2,68.9,16H40.6
		C18.2,16,0,34.2,0,56.4v47.2C0,125.8,18.2,144,40.6,144 M41.1,49.1h22.5c4.3,0,7.8,3.5,7.8,7.7c0,4.2-3.5,7.7-7.8,7.7H41.1
		c-4.3,0-7.8-3.5-7.8-7.7C33.3,52.5,36.8,49.1,41.1,49.1 M41.1,95.3h45.7c4.3,0,7.7,3.5,7.7,7.7c0,4.2-3.5,7.7-7.7,7.7H41.1
		c-4.3,0-7.8-3.5-7.8-7.7C33.3,98.8,36.8,95.3,41.1,95.3"/>
</g>
<g id="Layer_10" class="st0">
	<path id="XMLID_147_" class="st1" d="M165,31c0-8.3-7.2-15-16.1-15H16.1C7.2,16,0,22.7,0,31v98c0,8.3,7.2,15,16.1,15h132.8
		c8.9,0,16.1-6.7,16.1-15V31z M16.2,28H149c1.8,0,3.2,1.3,3.2,3v0.1L84.9,93.9c-0.8,0.8-1.8,0.9-2.3,0.9c-0.5,0-1.5-0.1-2.3-0.9
		L13,31.1V31C13,29.3,14.4,28,16.2,28z M149,132H16.2c-1.8,0-3.2-1.4-3.2-3V48.1l58.2,54.3c3,2.8,7.1,4.4,11.4,4.4
		c4.3,0,8.3-1.6,11.4-4.4l58.2-54.3V129C152.2,130.6,150.8,132,149,132z"/>
</g>
<g id="Layer_11" class="st0">
	<path id="XMLID_187_" class="st1" d="M137.1,24.7c-7.2-5.6-16.4-8.7-26-8.7c-11,0-21.7,4.1-29.3,11.4c-1.4,1.3-2.6,2.7-3.8,4.2
		C68.7,20,53.2,14,37.8,16.6c-12.7,2.2-22.8,8.8-29.8,19.6c-9.9,15.3-10.7,30-2.4,43.8c4.4,7.4,10.2,14.6,17.6,22
		c13.6,13.6,29.6,26.5,50.5,40.6c1.3,0.9,2.8,1.4,4.3,1.4c2.3,0,3.8-1.1,4.6-1.6c18.9-12.7,33.7-24.4,46.6-36.8
		c7.2-6.9,15.4-15.5,21.4-26.2c2.6-4.6,5.5-10.7,5.3-17.7C155.6,46.6,149.3,34.2,137.1,24.7z M140.8,74.5
		c-5.3,9.5-12.9,17.3-19.6,23.7c-12,11.5-25.7,22.4-43.3,34.4c-19.2-13.1-34.1-25.1-46.6-37.7c-6.8-6.8-12-13.3-16-20
		C9,64.4,9.7,53.8,17.6,41.7c5.3-8.2,12.8-13.1,22.3-14.8c1.8-0.3,3.7-0.5,5.5-0.5c11.3,0,21.2,5.9,26.9,16l1,1.7c1,1.7,3,2.7,5,2.8
		c2.1,0,4-1.2,4.9-2.9c2-3.8,4.1-6.8,6.8-9.3c5.5-5.2,13.3-8.3,21.4-8.3c7,0,13.7,2.2,18.9,6.3c9.7,7.5,14.5,17.1,14.8,29.1
		C145,66.5,142.9,70.8,140.8,74.5z"/>
</g>
<g id="Layer_12" class="st0">
	<path id="XMLID_610_" class="st4" d="M137.1,24.7c-7.2-5.6-16.4-8.7-26-8.7c-11,0-21.7,4.1-29.3,11.4c-1.4,1.3-2.6,2.7-3.8,4.2
		C68.7,20,53.2,14,37.8,16.6c-12.7,2.2-22.8,8.8-29.8,19.6c-9.9,15.3-10.7,30-2.4,43.8c4.4,7.4,10.2,14.6,17.6,22
		c13.6,13.6,29.6,26.5,50.5,40.6c1.3,0.9,2.8,1.4,4.3,1.4c2.3,0,3.8-1.1,4.6-1.6c18.9-12.7,33.7-24.4,46.6-36.8
		c7.2-6.9,15.4-15.5,21.4-26.2c2.6-4.6,5.5-10.7,5.3-17.7C155.6,46.6,149.3,34.2,137.1,24.7z"/>
</g>
<g id="Layer_13" class="st0">
	<g id="XMLID_32_" class="st1">
		<g id="XMLID_297_">
			<path id="XMLID_298_" class="st2" d="M38.1,128.4c-4.4,0-7.7,3.3-7.7,7.7c0,4.4,3.3,7.9,7.7,7.9c4.4,0,7.9-3.5,7.9-7.9
				C46,131.7,42.5,128.4,38.1,128.4z M113.5,36.9l-83.8,0.1l-0.7-8.7c0,0-6.8-12.4-16.3-12.4C12.8,16,0,19.8,0,28.4l12.1,0
				c0,0,11.8,78.2,11.8,80.2c0,5.4,5.9,12.3,8.4,12.3h78c6.6,0,6.6-15,0-15H37.2l-1.9-8.2l78.1,0.4c0,0,9.5-0.2,9.5-9.1l0-43.1
				C123,45.9,121.9,36.9,113.5,36.9z M107.3,78.4c0,2.5-2.1,4.6-4.6,4.6l-63.6,0.5c-2.5,0-4.6-2.1-4.6-4.6l-1.7-22.2
				c0-2.5,2.1-4.6,4.6-4.6l65.3-0.5c2.5,0,4.6,2.1,4.6,4.6V78.4z M91.8,128.4c-4.4,0-7.7,3.3-7.7,7.7c0,4.4,3.3,7.9,7.7,7.9
				c4.4,0,7.9-3.5,7.9-7.9C99.7,131.7,96.2,128.4,91.8,128.4z"/>
		</g>
	</g>
</g>
<g id="Layer_14" class="st0">
	<path id="XMLID_267_" class="st5" d="M160,144h-15.4c-8.9-16.8-24.3-29.6-42.7-35.4c-3.3,1.7-6.8,3-10.5,3.9V96.7
		c13.2-4.7,22.7-17.1,22.7-31.8c0-18.7-15.2-33.9-34-33.9c-18.8,0-34,15.2-34,33.9c0,14.7,9.5,27.1,22.7,31.8v15.7
		c-3.7-0.9-7.2-2.2-10.5-3.9c-18.5,5.8-33.8,18.6-42.7,35.4H0c8.6-20.1,24.7-36.2,44.7-45.1c-8.5-8.8-13.8-20.7-13.8-33.9
		c0-27,22-48.9,49.1-48.9c27.1,0,49.1,21.9,49.1,48.9c0,13.2-5.3,25.1-13.8,33.9C135.3,107.8,151.4,123.9,160,144z"/>
</g>
<g id="Layer_15" class="st0">
	<g id="XMLID_287_" class="st1">
		<g id="XMLID_330_">
			<path id="XMLID_331_" class="st2" d="M0,176h16V16H0V176z M56,176h16V16H56V176z M112,16v160h16V16H112z"/>
		</g>
	</g>
</g>
<g id="Layer_16" class="st0">
	<g id="XMLID_326_" class="st1">
		<g id="XMLID_414_">
			<path id="XMLID_415_" d="M127.4,70.9C113.6,46.5,89.9,32,64,32h0h0C38.1,32,14.4,46.5,0.6,70.9c-1.2,2.2-0.5,5,1.7,6.2
				c2.2,1.3,5,0.5,6.2-1.7C20.7,53.9,41.4,41.1,64,41.1c22.6,0,43.3,12.8,55.5,34.2c1.2,2.2,4,3,6.2,1.7
				C127.9,75.8,128.6,73.1,127.4,70.9z M64,50.3c-12.6,0-22.9,10.2-22.9,22.8C41.1,85.7,51.4,96,64,96c12.6,0,22.9-10.2,22.9-22.8
				C86.9,60.5,76.6,50.3,64,50.3z M64,86.8c-7.6,0-13.7-6.1-13.7-13.7c0-7.6,6.2-13.7,13.7-13.7c7.6,0,13.7,6.1,13.7,13.7
				C77.7,80.7,71.6,86.8,64,86.8z"/>
		</g>
	</g>
</g>
<g id="Layer_17" class="st0">
	<path id="XMLID_391_" class="st1" d="M126.7,52c0.8,4.3,1.3,8.8,1.3,13.4c0,36.6-25,62.6-62.7,62.6C29.2,128,0,99.4,0,64
		S29.2,0,65.3,0C82.9,0,97.6,6.4,109,16.7l-18.4,18v0C83.7,28.3,75,25,65.3,25c-21.5,0-39.1,17.8-39.1,39c0,21.1,17.5,39,39.1,39
		c19.5,0,32.9-11,35.6-26H65.3V52L126.7,52L126.7,52z"/>
</g>
</svg>
