<?xml version="1.0" encoding="utf-8"?>
<!-- Generator: Adobe Illustrator 19.0.0, SVG Export Plug-In . SVG Version: 6.00 Build 0)  -->
<svg version="1.1" xmlns="http://www.w3.org/2000/svg" xmlns:xlink="http://www.w3.org/1999/xlink" x="0px" y="0px"
	 viewBox="0 0 101 128" style="enable-background:new 0 0 101 128;" xml:space="preserve">
<style type="text/css">
	.st0{display:none;}
	.st1{display:inline;}
	.st2{fill-rule:evenodd;clip-rule:evenodd;}
</style>
<g id="Layer_1" class="st0">
	<g id="XMLID_638_" class="st1">
		<g id="XMLID_30_">
			<path id="XMLID_31_" class="st2" d="M124.5,108l-19.2-19.8c5-8.7,8-18.7,8-29.6C113.4,26.2,88,0,56.7,0C25.4,0,0,26.2,0,58.6
				c0,32.4,25.4,58.6,56.7,58.6c12.6,0,24.1-4.4,33.5-11.6l18.3,18.9c4.4,4.6,11.6,4.6,16,0C129,120,129,112.6,124.5,108z
				 M56.7,101.6c-23,0-41.6-19.2-41.6-43c0-23.7,18.6-43,41.6-43c23,0,41.6,19.2,41.6,43C98.3,82.4,79.6,101.6,56.7,101.6z"/>
		</g>
	</g>
</g>
<g id="Layer_2" class="st0">
	<g id="XMLID_2_" class="st1">
		<g id="XMLID_76_">
			<path id="XMLID_77_" d="M91,53.4h-8.1v-19C82.9,15.4,67.3,0,48,0C28.7,0,13.1,15.4,13.1,34.4v19h-8c-2.8,0-5.1,2.2-5.1,4.9v57.4
				c0,6.8,5.7,12.4,12.6,12.4h70.9c6.9,0,12.5-5.5,12.5-12.4V58.3C96,55.5,93.8,53.4,91,53.4z M23.1,34.4C23.1,20.9,34.3,9.9,48,9.9
				c13.7,0,24.9,11,24.9,24.5v19H23.1V34.4z M86,115.6c0,1.4-1.1,2.5-2.5,2.5H12.6c-1.4,0-2.6-1.1-2.6-2.5V63.3H86V115.6z M48,105.5
				c2.8,0,5-2.2,5-4.9V82.8c0-2.7-2.2-4.9-5-4.9c-2.8,0-5,2.2-5,4.9v17.8C43,103.3,45.2,105.5,48,105.5z"/>
		</g>
	</g>
</g>
<g id="Layer_3" class="st0">
	<path id="XMLID_29_" class="st1" d="M113.8,14.2v99.6H14.2V14.2H113.8L113.8,14.2z M113.8,0H14.2C6.4,0,0,6.4,0,14.2v99.6
		c0,7.8,6.4,14.2,14.2,14.2h99.6c7.8,0,14.2-6.4,14.2-14.2V14.2C128,6.4,121.6,0,113.8,0L113.8,0L113.8,0z"/>
</g>
<g id="Layer_4" class="st0">
	<path class="st1" d="M34.8,50.5l-10,10l32,32L128,21.4l-10-10L56.9,72.6L34.8,50.5L34.8,50.5z M113.8,113.8H14.2V14.2h71.1V0H14.2
		C6.4,0,0,6.4,0,14.2v99.6c0,7.8,6.4,14.2,14.2,14.2h99.6c7.8,0,14.2-6.4,14.2-14.2V56.9h-14.2V113.8L113.8,113.8z"/>
</g>
<g id="Layer_5" class="st0">
	<path id="XMLID_49_" class="st1" d="M14.8,128h26.4V64h20.4L64,41.5H41.1v-14c0-5,2.1-5.4,4.6-5.4h17.9V0.1L42.5,0
		C18.9,0,14.8,16.4,14.8,26.8v14.6H0V64h14.8V128z"/>
</g>
<g id="Layer_6">
	<path id="XMLID_65_" d="M21.7,127.2c0.1,0.9,1.3,1.1,1.8,0.4c0.7-1,10.3-12.5,13.5-24.1c0.9-3.3,5.3-20.2,5.3-20.2
		c2.6,4.9,10.2,9.2,18.3,9.2C84.7,92.5,101,71,101,42.1C101,20.3,82.2,0,53.6,0C18,0,0,25,0,45.9C0,58.6,4.9,69.8,15.3,74
		c1.7,0.7,3.3,0,3.8-1.8c0.3-1.3,1.2-4.5,1.5-5.9c0.5-1.8,0.3-2.5-1.1-4.1c-3-3.5-4.9-8-4.9-14.4c0-18.6,14.2-35.2,36.9-35.2
		c20.1,0,31.2,12.1,31.2,28.2c0,21.2-9.6,39.1-23.8,39.1c-7.9,0-13.7-6.4-11.8-14.2c2.3-9.3,6.6-19.4,6.6-26.1c0-6-3.3-11-10.1-11
		c-8,0-14.5,8.1-14.5,19c0,6.9,2.4,11.6,2.4,11.6s-8.2,34.1-9.6,40.1C19,111.1,21.5,125.7,21.7,127.2"/>
</g>
</svg>
