<?xml version="1.0" encoding="utf-8"?>
<!-- Generator: Adobe Illustrator 19.0.0, SVG Export Plug-In . SVG Version: 6.00 Build 0)  -->
<svg version="1.1" id="Layer_1" xmlns="http://www.w3.org/2000/svg" xmlns:xlink="http://www.w3.org/1999/xlink" x="0px" y="0px"
	 viewBox="0 0 128 128" style="enable-background:new 0 0 128 128;" xml:space="preserve">
<style type="text/css">
	.st0{fill-rule:evenodd;clip-rule:evenodd;}
</style>
<g id="XMLID_638_">
	<g id="XMLID_30_">
		<path id="XMLID_31_" class="st0" d="M124.5,108l-19.2-19.8c5-8.7,8-18.7,8-29.6C113.4,26.2,88,0,56.7,0C25.4,0,0,26.2,0,58.6
			c0,32.4,25.4,58.6,56.7,58.6c12.6,0,24.1-4.4,33.5-11.6l18.3,18.9c4.4,4.6,11.6,4.6,16,0C129,120,129,112.6,124.5,108z
			 M56.7,101.6c-23,0-41.6-19.2-41.6-43c0-23.7,18.6-43,41.6-43c23,0,41.6,19.2,41.6,43C98.3,82.4,79.6,101.6,56.7,101.6z"/>
	</g>
</g>
</svg>
