<?xml version="1.0" encoding="utf-8"?>
<!-- Generator: Adobe Illustrator 19.0.0, SVG Export Plug-In . SVG Version: 6.00 Build 0)  -->
<svg version="1.1" xmlns="http://www.w3.org/2000/svg" xmlns:xlink="http://www.w3.org/1999/xlink" x="0px" y="0px"
	 viewBox="0 0 128 34" style="enable-background:new 0 0 128 34;" xml:space="preserve">
<style type="text/css">
	.st0{display:none;}
	.st1{display:inline;}
	.st2{fill-rule:evenodd;clip-rule:evenodd;}
	.st3{display:inline;fill:#DF4834;}
	.st4{display:inline;fill-rule:evenodd;clip-rule:evenodd;}
	.st5{fill:#FFFFFF;}
</style>
<g id="Layer_1" class="st0">
	<g id="XMLID_638_" class="st1">
		<g id="XMLID_263_">
			<path id="XMLID_264_" class="st2" d="M156.5,77l-19.2-19.8c5-8.7,8-18.7,8-29.6C145.4-4.8,120-31,88.7-31C57.4-31,32-4.8,32,27.6
				C32,60,57.4,86.2,88.7,86.2c12.6,0,24.1-4.4,33.5-11.6l18.3,18.9c4.4,4.6,11.6,4.6,16,0C161,89,161,81.6,156.5,77z M88.7,70.6
				c-23,0-41.6-19.2-41.6-43c0-23.7,18.6-43,41.6-43c23,0,41.6,19.2,41.6,43C130.3,51.4,111.6,70.6,88.7,70.6z"/>
		</g>
	</g>
</g>
<g id="Layer_2" class="st0">
	<g id="XMLID_2_" class="st1">
		<g id="XMLID_76_">
			<path id="XMLID_77_" d="M123,22.4h-8.1v-19c0-19-15.7-34.4-34.9-34.4C60.7-31,45.1-15.6,45.1,3.4v19h-8c-2.8,0-5.1,2.2-5.1,4.9
				v57.4C32,91.5,37.7,97,44.6,97h70.9c6.9,0,12.5-5.5,12.5-12.4V27.3C128,24.5,125.8,22.4,123,22.4z M55.1,3.4
				c0-13.5,11.2-24.5,24.9-24.5c13.7,0,24.9,11,24.9,24.5v19H55.1V3.4z M118,84.6c0,1.4-1.1,2.5-2.5,2.5H44.6
				c-1.4,0-2.6-1.1-2.6-2.5V32.3H118V84.6z M80,74.5c2.8,0,5-2.2,5-4.9V51.8c0-2.7-2.2-4.9-5-4.9c-2.8,0-5,2.2-5,4.9v17.8
				C75,72.3,77.2,74.5,80,74.5z"/>
		</g>
	</g>
</g>
<g id="Layer_3" class="st0">
	<path id="XMLID_29_" class="st1" d="M145.8-16.8v99.6H46.2v-99.6H145.8L145.8-16.8z M145.8-31H46.2C38.4-31,32-24.6,32-16.8v99.6
		C32,90.6,38.4,97,46.2,97h99.6c7.8,0,14.2-6.4,14.2-14.2v-99.6C160-24.6,153.6-31,145.8-31L145.8-31L145.8-31z"/>
</g>
<g id="Layer_4" class="st0">
	<path class="st1" d="M66.8,19.5l-10,10l32,32L160-9.6l-10-10L88.9,41.6L66.8,19.5L66.8,19.5z M145.8,82.8H46.2v-99.6h71.1V-31H46.2
		C38.4-31,32-24.6,32-16.7v99.6C32,90.6,38.4,97,46.2,97h99.6c7.8,0,14.2-6.4,14.2-14.2V25.9h-14.2V82.8L145.8,82.8z"/>
</g>
<g id="Layer_5" class="st0">
	<path id="XMLID_49_" class="st1" d="M46.8,81h26.4V17h20.4L96-5.5H73.1v-14c0-5,2.1-5.4,4.6-5.4h17.9v-21.9L74.5-47
		c-23.5,0-27.7,16.4-27.7,26.8v14.6H32V17h14.8V81z"/>
</g>
<g id="Layer_6" class="st0">
	<path id="XMLID_65_" class="st1" d="M53.7,96.2c0.1,0.9,1.3,1.1,1.8,0.4c0.7-1,10.3-12.5,13.5-24.1c0.9-3.3,5.3-20.2,5.3-20.2
		c2.6,4.9,10.2,9.2,18.3,9.2c24.1,0,40.4-21.5,40.4-50.4C133-10.7,114.2-31,85.6-31C50-31,32-6,32,14.9c0,12.6,4.9,23.9,15.3,28.1
		c1.7,0.7,3.3,0,3.8-1.8c0.3-1.3,1.2-4.5,1.5-5.9c0.5-1.8,0.3-2.5-1.1-4.1c-3-3.5-4.9-8-4.9-14.4c0-18.6,14.2-35.2,36.9-35.2
		c20.1,0,31.2,12.1,31.2,28.2c0,21.2-9.6,39.1-23.8,39.1c-7.9,0-13.7-6.4-11.8-14.2c2.3-9.3,6.6-19.4,6.6-26.1c0-6-3.3-11-10.1-11
		c-8,0-14.5,8.1-14.5,19c0,6.9,2.4,11.6,2.4,11.6s-8.2,34.1-9.6,40.1C51,80.1,53.5,94.7,53.7,96.2"/>
</g>
<g id="Layer_7" class="st0">
	<path id="XMLID_93_" class="st1" d="M176.9-28.6c-5.9,3.7-12.5,6.4-19.4,7.9C151.9-27.1,144-31,135.2-31
		c-16.9,0-30.6,14.5-30.6,32.3c0,2.5,0.3,5,0.8,7.4C80,7.3,57.5-5.5,42.4-25.1c-2.6,4.8-4.1,10.3-4.1,16.3
		c0,11.2,5.4,21.1,13.6,26.9c-5-0.2-9.7-1.6-13.8-4v0.4c0,15.6,10.5,28.7,24.5,31.7c-2.6,0.7-5.3,1.1-8.1,1.1c-2,0-3.9-0.2-5.7-0.6
		c3.9,12.8,15.2,22.2,28.6,22.4c-10.5,8.7-23.6,13.8-38,13.8c-2.5,0-4.9-0.2-7.3-0.5C45.5,91.7,61.6,97,78.9,97
		c56.2,0,87-49.2,87-91.9c0-1.4,0-2.8-0.1-4.2c6-4.6,11.2-10.2,15.2-16.7c-5.5,2.6-11.4,4.3-17.6,5.1
		C169.8-14.8,174.6-21.1,176.9-28.6"/>
</g>
<g id="Layer_8" class="st0">
	<g id="XMLID_121_" class="st1">
		<g id="XMLID_162_">
			<path id="XMLID_163_" d="M49.1,62.9c-9.4,0-17.1,7.6-17.1,17c0,9.4,7.6,17,17.1,17c9.4,0,17.1-7.6,17.1-17
				C66.1,70.5,58.5,62.9,49.1,62.9z M32,12.5V37c16,0,31,6.2,42.3,17.5C85.6,65.9,91.9,80.9,91.9,97h24.6
				C116.5,50.4,78.6,12.5,32,12.5z M32.1-31v24.5C89-6.5,135.4,39.9,135.4,97H160C160,26.4,102.6-31,32.1-31z"/>
		</g>
	</g>
</g>
<g id="Layer_9" class="st0">
	<path id="XMLID_143_" class="st1" d="M72.6,97h46.6c22.3,0,40.5-18.2,40.6-40.4L160,24l-0.4-1.8l-1.1-2.2l-1.8-1.4
		c-2.4-1.8-14.3,0.1-17.5-2.8c-2.3-2.1-2.6-5.9-3.3-10.9c-1.3-9.9-2.1-10.4-3.6-13.7c-5.6-11.9-20.9-20.8-31.3-22.1H72.6
		C50.2-31,32-12.8,32,9.4v47.2C32,78.8,50.2,97,72.6,97 M73.1,2.1h22.5c4.3,0,7.8,3.5,7.8,7.7c0,4.2-3.5,7.7-7.8,7.7H73.1
		c-4.3,0-7.8-3.5-7.8-7.7C65.3,5.5,68.8,2.1,73.1,2.1 M73.1,48.3h45.7c4.3,0,7.7,3.5,7.7,7.7c0,4.2-3.5,7.7-7.7,7.7H73.1
		c-4.3,0-7.8-3.5-7.8-7.7C65.3,51.8,68.8,48.3,73.1,48.3"/>
</g>
<g id="Layer_10" class="st0">
	<path id="XMLID_147_" class="st1" d="M197-16c0-8.3-7.2-15-16.1-15H48.1C39.2-31,32-24.3,32-16v98c0,8.3,7.2,15,16.1,15h132.8
		c8.9,0,16.1-6.7,16.1-15V-16z M48.2-19H181c1.8,0,3.2,1.3,3.2,3v0.1l-67.3,62.8c-0.8,0.8-1.8,0.9-2.3,0.9c-0.5,0-1.5-0.1-2.3-0.9
		L45-15.9V-16C45-17.7,46.4-19,48.2-19z M181,85H48.2c-1.8,0-3.2-1.4-3.2-3V1.1l58.2,54.3c3,2.8,7.1,4.4,11.4,4.4
		c4.3,0,8.3-1.6,11.4-4.4l58.2-54.3V82C184.2,83.6,182.8,85,181,85z"/>
</g>
<g id="Layer_11" class="st0">
	<path id="XMLID_187_" class="st1" d="M169.1-22.3c-7.2-5.6-16.4-8.7-26-8.7c-11,0-21.7,4.1-29.3,11.4c-1.4,1.3-2.6,2.7-3.8,4.2
		C100.7-27,85.2-33,69.8-30.4c-12.7,2.2-22.8,8.8-29.8,19.6c-9.9,15.3-10.7,30-2.4,43.8c4.4,7.4,10.2,14.6,17.6,22
		c13.6,13.6,29.6,26.5,50.5,40.6c1.3,0.9,2.8,1.4,4.3,1.4c2.3,0,3.8-1.1,4.6-1.6c18.9-12.7,33.7-24.4,46.6-36.8
		c7.2-6.9,15.4-15.5,21.4-26.2c2.6-4.6,5.5-10.7,5.3-17.7C187.6-0.4,181.3-12.8,169.1-22.3z M172.8,27.5
		c-5.3,9.5-12.9,17.3-19.6,23.7c-12,11.5-25.7,22.4-43.3,34.4C90.8,72.5,75.9,60.5,63.4,47.9c-6.8-6.8-12-13.3-16-20
		C41,17.4,41.7,6.8,49.6-5.3c5.3-8.2,12.8-13.1,22.3-14.8c1.8-0.3,3.7-0.5,5.5-0.5c11.3,0,21.2,5.9,26.9,16l1,1.7c1,1.7,3,2.7,5,2.8
		c2.1,0,4-1.2,4.9-2.9c2-3.8,4.1-6.8,6.8-9.3c5.5-5.2,13.3-8.3,21.4-8.3c7,0,13.7,2.2,18.9,6.3c9.7,7.5,14.5,17.1,14.8,29.1
		C177,19.5,174.9,23.8,172.8,27.5z"/>
</g>
<g id="Layer_12" class="st0">
	<path id="XMLID_610_" class="st3" d="M169.1-22.3c-7.2-5.6-16.4-8.7-26-8.7c-11,0-21.7,4.1-29.3,11.4c-1.4,1.3-2.6,2.7-3.8,4.2
		C100.7-27,85.2-33,69.8-30.4c-12.7,2.2-22.8,8.8-29.8,19.6c-9.9,15.3-10.7,30-2.4,43.8c4.4,7.4,10.2,14.6,17.6,22
		c13.6,13.6,29.6,26.5,50.5,40.6c1.3,0.9,2.8,1.4,4.3,1.4c2.3,0,3.8-1.1,4.6-1.6c18.9-12.7,33.7-24.4,46.6-36.8
		c7.2-6.9,15.4-15.5,21.4-26.2c2.6-4.6,5.5-10.7,5.3-17.7C187.6-0.4,181.3-12.8,169.1-22.3z"/>
</g>
<g id="Layer_13" class="st0">
	<g id="XMLID_32_" class="st1">
		<g id="XMLID_297_">
			<path id="XMLID_298_" class="st2" d="M70.1,81.4c-4.4,0-7.7,3.3-7.7,7.7c0,4.4,3.3,7.9,7.7,7.9c4.4,0,7.9-3.5,7.9-7.9
				C78,84.7,74.5,81.4,70.1,81.4z M145.5-10.1L61.8-9.9l-0.7-8.7c0,0-6.8-12.4-16.3-12.4c0,0-12.8,3.8-12.8,12.4l12.1,0
				c0,0,11.8,78.2,11.8,80.2c0,5.4,5.9,12.3,8.4,12.3h78c6.6,0,6.6-15,0-15H69.2l-1.9-8.2l78.1,0.4c0,0,9.5-0.2,9.5-9.1l0-43.1
				C155-1.1,153.9-10.1,145.5-10.1z M139.3,31.4c0,2.5-2.1,4.6-4.6,4.6l-63.6,0.5c-2.5,0-4.6-2.1-4.6-4.6L64.8,9.8
				c0-2.5,2.1-4.6,4.6-4.6l65.3-0.5c2.5,0,4.6,2.1,4.6,4.6V31.4z M123.8,81.4c-4.4,0-7.7,3.3-7.7,7.7c0,4.4,3.3,7.9,7.7,7.9
				c4.4,0,7.9-3.5,7.9-7.9C131.7,84.7,128.2,81.4,123.8,81.4z"/>
		</g>
	</g>
</g>
<g id="Layer_14" class="st0">
	<path id="XMLID_267_" class="st4" d="M192,97h-15.4c-8.9-16.8-24.3-29.6-42.7-35.4c-3.3,1.7-6.8,3-10.5,3.9V49.7
		c13.2-4.7,22.7-17.1,22.7-31.8c0-18.7-15.2-33.9-34-33.9c-18.8,0-34,15.2-34,33.9c0,14.7,9.5,27.1,22.7,31.8v15.7
		c-3.7-0.9-7.2-2.2-10.5-3.9C71.7,67.4,56.3,80.2,47.4,97H32c8.6-20.1,24.7-36.2,44.7-45.1c-8.5-8.8-13.8-20.7-13.8-33.9
		c0-27,22-48.9,49.1-48.9c27.1,0,49.1,21.9,49.1,48.9c0,13.2-5.3,25.1-13.8,33.9C167.3,60.8,183.4,76.9,192,97z"/>
</g>
<g id="Layer_15" class="st0">
	<g id="XMLID_287_" class="st1">
		<g id="XMLID_330_">
			<path id="XMLID_331_" class="st2" d="M32,129h16V-31H32V129z M88,129h16V-31H88V129z M144-31v160h16V-31H144z"/>
		</g>
	</g>
</g>
<g id="Layer_16" class="st0">
	<g id="XMLID_326_" class="st1">
		<g id="XMLID_414_">
			<path id="XMLID_415_" d="M159.4,23.9C145.6-0.5,121.9-15,96-15h0h0C70.1-15,46.4-0.5,32.6,23.9c-1.2,2.2-0.5,5,1.7,6.2
				c2.2,1.3,5,0.5,6.2-1.7C52.7,6.9,73.4-5.9,96-5.9c22.6,0,43.3,12.8,55.5,34.2c1.2,2.2,4,3,6.2,1.7
				C159.9,28.8,160.6,26.1,159.4,23.9z M96,3.3c-12.6,0-22.9,10.2-22.9,22.8C73.1,38.7,83.4,49,96,49c12.6,0,22.9-10.2,22.9-22.8
				C118.9,13.5,108.6,3.3,96,3.3z M96,39.8c-7.6,0-13.7-6.1-13.7-13.7c0-7.6,6.2-13.7,13.7-13.7c7.6,0,13.7,6.1,13.7,13.7
				C109.7,33.7,103.6,39.8,96,39.8z"/>
		</g>
	</g>
</g>
<g id="Layer_17" class="st0">
	<path id="XMLID_391_" class="st1" d="M158.7,5c0.8,4.3,1.3,8.8,1.3,13.4C160,55,135,81,97.3,81C61.2,81,32,52.4,32,17
		s29.2-64,65.3-64c17.6,0,32.4,6.4,43.7,16.7l-18.4,18v0C115.7-18.7,107-22,97.3-22C75.8-22,58.2-4.2,58.2,17
		c0,21.1,17.5,39,39.1,39c19.5,0,32.9-11,35.6-26H97.3V5L158.7,5L158.7,5z"/>
</g>
<g id="Layer_18" class="st0">
	<path id="XMLID_392_" class="st1" d="M21.6,0.6c-0.5-2.5-2.4-3.4-4.7-3.4H0.1L0-2c11.5,2.9,20.9,9.1,25.2,20.8L21.6,0.6L21.6,0.6z
		 M26.2,24.3l-1-5.5C23,13,17.7,7.7,11.7,5.3l8.4,31.6H31L47.4-2.8h-11L26.2,24.3L26.2,24.3z M55.4,36.9L62-2.8H51.6l-6.5,39.7H55.4
		L55.4,36.9z M83.8-3.5c-10.3,0-17.5,5.4-17.5,13.1c-0.1,5.7,5.1,8.9,9.1,10.8c4,1.9,5.4,3.2,5.4,4.9c0,2.7-3.3,3.9-6.2,3.9
		c-4.2,0-6.4-0.5-9.7-2l-1.4-0.7L62,35.3c2.4,1.1,6.8,2.2,11.5,2.2c10.9,0.1,18-5.3,18.1-13.6c0-4.5-2.8-7.9-8.8-10.8
		c-3.6-1.8-5.8-3.1-5.8-4.9c0-1.7,1.9-3.4,6-3.4c3.4-0.1,5.9,0.6,7.7,1.5l1,0.4l1.4-8.6C91-2.6,87.7-3.5,83.8-3.5L83.8-3.5z
		 M111.6-2.8c-2.5,0-4.4,0.8-5.4,3.4L90.8,36.9h10.9c1.7-4.9,2.2-6,2.2-6h13.2c0,0,0.3,1.4,1.3,6h9.6l-8.4-39.7H111.6L111.6-2.8z
		 M106.8,22.8c0,0,0.9-2.3,4.1-11.1c-0.1,0.1,0.9-2.3,1.4-3.7l0.8,3.4c1.9,9.4,2.4,11.4,2.4,11.4H106.8L106.8,22.8z"/>
</g>
<g id="Layer_19">
	<path id="XMLID_437_" class="st5" d="M70.5,9.2h-4.8c-0.4,0-0.9,0.2-1.2,0.6L58,19.5l-2.8-9.3c-0.2-0.6-0.7-1-1.3-1h-4.7
		c-0.6,0-1,0.6-0.8,1.1l5.3,15.4l-5,7c-0.4,0.6,0,1.3,0.7,1.3h4.8c0.4,0,0.8-0.3,1.1-0.6l15.9-23C71.6,10,71.2,9.2,70.5,9.2
		L70.5,9.2z M38.5,18.4C38,21.1,35.8,23,33.1,23c-1.3,0-2.5-0.4-3.2-1.3c-0.7-0.8-1-2-0.8-3.3c0.4-2.7,2.6-4.6,5.4-4.6
		c1.3,0,2.4,0.4,3.2,1.3C38.4,15.9,38.7,17.1,38.5,18.4L38.5,18.4z M45.1,9.2h-4.7c-0.4,0-0.8,0.3-0.8,0.7l-0.3,1.3L39,10.7
		c-1-1.5-3.3-2-5.6-2c-5.2,0-9.7,4-10.6,9.6c-0.4,2.7,0.2,5.4,1.8,7.3c1.4,1.7,3.5,2.4,6,2.4c4.3,0,6.7-2.7,6.7-2.7l-0.3,1.3
		c-0.1,0.5,0.3,1,0.8,1H42c0.7,0,1.3-0.5,1.4-1.1L46,10.1C46,9.6,45.6,9.2,45.1,9.2L45.1,9.2z M16.5,9.3c-0.6,3.6-3.3,3.6-5.9,3.6
		H9.1l1.1-6.7c0.1-0.4,0.4-0.7,0.8-0.7h0.7c1.8,0,3.5,0,4.4,1C16.6,7.1,16.7,8,16.5,9.3L16.5,9.3z M15.4,0h-10C4.7,0,4.2,0.5,4,1.1
		L0,26.6c-0.1,0.5,0.3,1,0.8,1h4.7c0.7,0,1.3-0.5,1.4-1.1l1.1-6.9c0.1-0.6,0.6-1.1,1.3-1.1h3.1c6.6,0,10.4-3.2,11.3-9.4
		c0.4-2.7,0.1-4.9-1.3-6.4C21.2,0.9,18.7,0,15.4,0L15.4,0z M121.7,0.7l-4,25.9c-0.1,0.5,0.3,1,0.8,1h4.2c0.6,0,1.2-0.5,1.3-1.1
		L128,1c0.1-0.5-0.3-1-0.8-1h-4.6C122.2,0,121.8,0.3,121.7,0.7L121.7,0.7z M109.5,18.4c-0.4,2.7-2.6,4.5-5.4,4.5
		c-1.4,0-2.5-0.4-3.2-1.3c-0.7-0.8-1-2-0.8-3.3c0.4-2.7,2.6-4.6,5.3-4.6c1.4,0,2.5,0.4,3.2,1.3C109.4,15.9,109.7,17.1,109.5,18.4
		L109.5,18.4z M116.2,9.2h-4.8c-0.4,0-0.8,0.3-0.8,0.7l-0.2,1.3l-0.3-0.5c-1-1.5-3.3-2-5.6-2c-5.2,0-9.8,4-10.6,9.6
		c-0.5,2.7,0.2,5.4,1.7,7.3c1.5,1.7,3.5,2.4,6,2.4c4.2,0,6.6-2.7,6.6-2.7l-0.2,1.3c-0.1,0.5,0.3,1,0.8,1h4.3c0.6,0,1.2-0.5,1.3-1.1
		l2.6-16.3C117.1,9.6,116.7,9.2,116.2,9.2L116.2,9.2z M87.5,9.3c-0.6,3.6-3.3,3.6-6,3.6h-1.5l1-6.7c0.1-0.4,0.4-0.7,0.8-0.7h0.7
		c1.8,0,3.5,0,4.4,1C87.5,7.1,87.7,8,87.5,9.3L87.5,9.3z M86.4,0h-10c-0.7,0-1.3,0.5-1.3,1.1l-4,25.5c-0.1,0.5,0.3,1,0.8,1h5.1
		c0.5,0,0.9-0.3,1-0.8l1.2-7.2c0.1-0.6,0.7-1.1,1.4-1.1h3.1c6.5,0,10.3-3.2,11.3-9.4c0.4-2.7,0-4.9-1.3-6.4C92.2,0.9,89.7,0,86.4,0
		L86.4,0z"/>
</g>
</svg>
