<?xml version="1.0" encoding="utf-8"?>
<!-- Generator: Adobe Illustrator 19.0.0, SVG Export Plug-In . SVG Version: 6.00 Build 0)  -->
<svg version="1.1" xmlns="http://www.w3.org/2000/svg" xmlns:xlink="http://www.w3.org/1999/xlink" x="0px" y="0px"
	 viewBox="0 0 128 41" style="enable-background:new 0 0 128 41;" xml:space="preserve">
<style type="text/css">
	.st0{display:none;}
	.st1{display:inline;}
	.st2{fill-rule:evenodd;clip-rule:evenodd;}
	.st3{display:inline;fill:#DF4834;}
	.st4{display:inline;fill-rule:evenodd;clip-rule:evenodd;}
	.st5{fill:#FFFFFF;}
</style>
<g id="Layer_1" class="st0">
	<g id="XMLID_638_" class="st1">
		<g id="XMLID_263_">
			<path id="XMLID_264_" class="st2" d="M156.5,80.5l-19.2-19.8c5-8.7,8-18.7,8-29.6c0-32.4-25.4-58.6-56.7-58.6
				C57.4-27.5,32-1.3,32,31.1c0,32.4,25.4,58.6,56.7,58.6c12.6,0,24.1-4.4,33.5-11.6l18.3,18.9c4.4,4.6,11.6,4.6,16,0
				C161,92.5,161,85.1,156.5,80.5z M88.7,74.1c-23,0-41.6-19.2-41.6-43c0-23.7,18.6-43,41.6-43c23,0,41.6,19.2,41.6,43
				C130.3,54.9,111.6,74.1,88.7,74.1z"/>
		</g>
	</g>
</g>
<g id="Layer_2" class="st0">
	<g id="XMLID_2_" class="st1">
		<g id="XMLID_76_">
			<path id="XMLID_77_" d="M123,25.9h-8.1v-19c0-19-15.7-34.4-34.9-34.4c-19.3,0-34.9,15.4-34.9,34.4v19h-8c-2.8,0-5.1,2.2-5.1,4.9
				v57.4c0,6.8,5.7,12.4,12.6,12.4h70.9c6.9,0,12.5-5.5,12.5-12.4V30.8C128,28,125.8,25.9,123,25.9z M55.1,6.9
				c0-13.5,11.2-24.5,24.9-24.5c13.7,0,24.9,11,24.9,24.5v19H55.1V6.9z M118,88.1c0,1.4-1.1,2.5-2.5,2.5H44.6
				c-1.4,0-2.6-1.1-2.6-2.5V35.8H118V88.1z M80,78c2.8,0,5-2.2,5-4.9V55.3c0-2.7-2.2-4.9-5-4.9c-2.8,0-5,2.2-5,4.9v17.8
				C75,75.8,77.2,78,80,78z"/>
		</g>
	</g>
</g>
<g id="Layer_3" class="st0">
	<path id="XMLID_29_" class="st1" d="M145.8-13.3v99.6H46.2v-99.6H145.8L145.8-13.3z M145.8-27.5H46.2c-7.8,0-14.2,6.4-14.2,14.2
		v99.6c0,7.8,6.4,14.2,14.2,14.2h99.6c7.8,0,14.2-6.4,14.2-14.2v-99.6C160-21.1,153.6-27.5,145.8-27.5L145.8-27.5L145.8-27.5z"/>
</g>
<g id="Layer_4" class="st0">
	<path class="st1" d="M66.8,23l-10,10l32,32L160-6.1l-10-10L88.9,45.1L66.8,23L66.8,23z M145.8,86.3H46.2v-99.6h71.1v-14.2H46.2
		c-7.8,0-14.2,6.4-14.2,14.2v99.6c0,7.8,6.4,14.2,14.2,14.2h99.6c7.8,0,14.2-6.4,14.2-14.2V29.4h-14.2V86.3L145.8,86.3z"/>
</g>
<g id="Layer_5" class="st0">
	<path id="XMLID_49_" class="st1" d="M46.8,84.5h26.4v-64h20.4L96-2H73.1v-14c0-5,2.1-5.4,4.6-5.4h17.9v-21.9l-21.2-0.1
		c-23.5,0-27.7,16.4-27.7,26.8V-2H32v22.6h14.8V84.5z"/>
</g>
<g id="Layer_6" class="st0">
	<path id="XMLID_65_" class="st1" d="M53.7,99.7c0.1,0.9,1.3,1.1,1.8,0.4c0.7-1,10.3-12.5,13.5-24.1c0.9-3.3,5.3-20.2,5.3-20.2
		c2.6,4.9,10.2,9.2,18.3,9.2c24.1,0,40.4-21.5,40.4-50.4c0-21.8-18.8-42.1-47.4-42.1C50-27.5,32-2.5,32,18.4
		c0,12.6,4.9,23.9,15.3,28.1c1.7,0.7,3.3,0,3.8-1.8c0.3-1.3,1.2-4.5,1.5-5.9c0.5-1.8,0.3-2.5-1.1-4.1c-3-3.5-4.9-8-4.9-14.4
		c0-18.6,14.2-35.2,36.9-35.2c20.1,0,31.2,12.1,31.2,28.2c0,21.2-9.6,39.1-23.8,39.1c-7.9,0-13.7-6.4-11.8-14.2
		c2.3-9.3,6.6-19.4,6.6-26.1c0-6-3.3-11-10.1-11c-8,0-14.5,8.1-14.5,19c0,6.9,2.4,11.6,2.4,11.6s-8.2,34.1-9.6,40.1
		C51,83.6,53.5,98.2,53.7,99.7"/>
</g>
<g id="Layer_7" class="st0">
	<path id="XMLID_93_" class="st1" d="M176.9-25.1c-5.9,3.7-12.5,6.4-19.4,7.9c-5.6-6.3-13.5-10.2-22.3-10.2
		c-16.9,0-30.6,14.5-30.6,32.3c0,2.5,0.3,5,0.8,7.4C80,10.8,57.5-2,42.4-21.6c-2.6,4.8-4.1,10.3-4.1,16.3c0,11.2,5.4,21.1,13.6,26.9
		c-5-0.2-9.7-1.6-13.8-4v0.4c0,15.6,10.5,28.7,24.5,31.7c-2.6,0.7-5.3,1.1-8.1,1.1c-2,0-3.9-0.2-5.7-0.6
		C52.6,63,63.9,72.3,77.3,72.6c-10.5,8.7-23.6,13.8-38,13.8c-2.5,0-4.9-0.2-7.3-0.5c13.5,9.2,29.6,14.5,46.9,14.5
		c56.2,0,87-49.2,87-91.9c0-1.4,0-2.8-0.1-4.2c6-4.6,11.2-10.2,15.2-16.7c-5.5,2.6-11.4,4.3-17.6,5.1
		C169.8-11.3,174.6-17.6,176.9-25.1"/>
</g>
<g id="Layer_8" class="st0">
	<g id="XMLID_121_" class="st1">
		<g id="XMLID_162_">
			<path id="XMLID_163_" d="M49.1,66.4c-9.4,0-17.1,7.6-17.1,17c0,9.4,7.6,17,17.1,17c9.4,0,17.1-7.6,17.1-17
				C66.1,74,58.5,66.4,49.1,66.4z M32,16v24.5c16,0,31,6.2,42.3,17.5c11.3,11.3,17.5,26.4,17.5,42.4h24.6C116.5,53.9,78.6,16,32,16z
				 M32.1-27.5V-3c57,0,103.3,46.4,103.3,103.5H160C160,29.9,102.6-27.5,32.1-27.5z"/>
		</g>
	</g>
</g>
<g id="Layer_9" class="st0">
	<path id="XMLID_143_" class="st1" d="M72.6,100.5h46.6c22.3,0,40.5-18.2,40.6-40.4l0.2-32.7l-0.4-1.8l-1.1-2.2l-1.8-1.4
		c-2.4-1.8-14.3,0.1-17.5-2.8c-2.3-2.1-2.6-5.9-3.3-10.9c-1.3-9.9-2.1-10.4-3.6-13.7c-5.6-11.9-20.9-20.8-31.3-22.1H72.6
		C50.2-27.5,32-9.3,32,12.9v47.2C32,82.3,50.2,100.5,72.6,100.5 M73.1,5.6h22.5c4.3,0,7.8,3.5,7.8,7.7c0,4.2-3.5,7.7-7.8,7.7H73.1
		c-4.3,0-7.8-3.5-7.8-7.7C65.3,9,68.8,5.6,73.1,5.6 M73.1,51.8h45.7c4.3,0,7.7,3.5,7.7,7.7c0,4.2-3.5,7.7-7.7,7.7H73.1
		c-4.3,0-7.8-3.5-7.8-7.7C65.3,55.3,68.8,51.8,73.1,51.8"/>
</g>
<g id="Layer_10" class="st0">
	<path id="XMLID_147_" class="st1" d="M197-12.5c0-8.3-7.2-15-16.1-15H48.1c-8.9,0-16.1,6.7-16.1,15v98c0,8.3,7.2,15,16.1,15h132.8
		c8.9,0,16.1-6.7,16.1-15V-12.5z M48.2-15.5H181c1.8,0,3.2,1.3,3.2,3v0.1l-67.3,62.8c-0.8,0.8-1.8,0.9-2.3,0.9
		c-0.5,0-1.5-0.1-2.3-0.9L45-12.4v-0.1C45-14.2,46.4-15.5,48.2-15.5z M181,88.5H48.2c-1.8,0-3.2-1.4-3.2-3V4.6l58.2,54.3
		c3,2.8,7.1,4.4,11.4,4.4c4.3,0,8.3-1.6,11.4-4.4l58.2-54.3v80.8C184.2,87.1,182.8,88.5,181,88.5z"/>
</g>
<g id="Layer_11" class="st0">
	<path id="XMLID_187_" class="st1" d="M169.1-18.8c-7.2-5.6-16.4-8.7-26-8.7c-11,0-21.7,4.1-29.3,11.4c-1.4,1.3-2.6,2.7-3.8,4.2
		c-9.3-11.7-24.8-17.7-40.2-15c-12.7,2.2-22.8,8.8-29.8,19.6c-9.9,15.3-10.7,30-2.4,43.8c4.4,7.4,10.2,14.6,17.6,22
		c13.6,13.6,29.6,26.5,50.5,40.6c1.3,0.9,2.8,1.4,4.3,1.4c2.3,0,3.8-1.1,4.6-1.6c18.9-12.7,33.7-24.4,46.6-36.8
		c7.2-6.9,15.4-15.5,21.4-26.2c2.6-4.6,5.5-10.7,5.3-17.7C187.6,3.1,181.3-9.3,169.1-18.8z M172.8,31c-5.3,9.5-12.9,17.3-19.6,23.7
		c-12,11.5-25.7,22.4-43.3,34.4C90.8,76,75.9,64,63.4,51.4c-6.8-6.8-12-13.3-16-20C41,20.9,41.7,10.3,49.6-1.8
		c5.3-8.2,12.8-13.1,22.3-14.8c1.8-0.3,3.7-0.5,5.5-0.5c11.3,0,21.2,5.9,26.9,16l1,1.7c1,1.7,3,2.7,5,2.8c2.1,0,4-1.2,4.9-2.9
		c2-3.8,4.1-6.8,6.8-9.3c5.5-5.2,13.3-8.3,21.4-8.3c7,0,13.7,2.2,18.9,6.3c9.7,7.5,14.5,17.1,14.8,29.1C177,23,174.9,27.3,172.8,31z
		"/>
</g>
<g id="Layer_12" class="st0">
	<path id="XMLID_610_" class="st3" d="M169.1-18.8c-7.2-5.6-16.4-8.7-26-8.7c-11,0-21.7,4.1-29.3,11.4c-1.4,1.3-2.6,2.7-3.8,4.2
		c-9.3-11.7-24.8-17.7-40.2-15c-12.7,2.2-22.8,8.8-29.8,19.6c-9.9,15.3-10.7,30-2.4,43.8c4.4,7.4,10.2,14.6,17.6,22
		c13.6,13.6,29.6,26.5,50.5,40.6c1.3,0.9,2.8,1.4,4.3,1.4c2.3,0,3.8-1.1,4.6-1.6c18.9-12.7,33.7-24.4,46.6-36.8
		c7.2-6.9,15.4-15.5,21.4-26.2c2.6-4.6,5.5-10.7,5.3-17.7C187.6,3.1,181.3-9.3,169.1-18.8z"/>
</g>
<g id="Layer_13" class="st0">
	<g id="XMLID_32_" class="st1">
		<g id="XMLID_297_">
			<path id="XMLID_298_" class="st2" d="M70.1,84.9c-4.4,0-7.7,3.3-7.7,7.7c0,4.4,3.3,7.9,7.7,7.9c4.4,0,7.9-3.5,7.9-7.9
				C78,88.2,74.5,84.9,70.1,84.9z M145.5-6.6L61.8-6.4l-0.7-8.7c0,0-6.8-12.4-16.3-12.4c0,0-12.8,3.8-12.8,12.4l12.1,0
				c0,0,11.8,78.2,11.8,80.2c0,5.4,5.9,12.3,8.4,12.3h78c6.6,0,6.6-15,0-15H69.2l-1.9-8.2l78.1,0.4c0,0,9.5-0.2,9.5-9.1l0-43.1
				C155,2.4,153.9-6.6,145.5-6.6z M139.3,34.9c0,2.5-2.1,4.6-4.6,4.6L71.1,40c-2.5,0-4.6-2.1-4.6-4.6l-1.7-22.2
				c0-2.5,2.1-4.6,4.6-4.6l65.3-0.5c2.5,0,4.6,2.1,4.6,4.6V34.9z M123.8,84.9c-4.4,0-7.7,3.3-7.7,7.7c0,4.4,3.3,7.9,7.7,7.9
				c4.4,0,7.9-3.5,7.9-7.9C131.7,88.2,128.2,84.9,123.8,84.9z"/>
		</g>
	</g>
</g>
<g id="Layer_14" class="st0">
	<path id="XMLID_267_" class="st4" d="M192,100.5h-15.4c-8.9-16.8-24.3-29.6-42.7-35.4c-3.3,1.7-6.8,3-10.5,3.9V53.2
		c13.2-4.7,22.7-17.1,22.7-31.8c0-18.7-15.2-33.9-34-33.9c-18.8,0-34,15.2-34,33.9c0,14.7,9.5,27.1,22.7,31.8V69
		c-3.7-0.9-7.2-2.2-10.5-3.9c-18.5,5.8-33.8,18.6-42.7,35.4H32c8.6-20.1,24.7-36.2,44.7-45.1c-8.5-8.8-13.8-20.7-13.8-33.9
		c0-27,22-48.9,49.1-48.9c27.1,0,49.1,21.9,49.1,48.9c0,13.2-5.3,25.1-13.8,33.9C167.3,64.3,183.4,80.4,192,100.5z"/>
</g>
<g id="Layer_15" class="st0">
	<g id="XMLID_287_" class="st1">
		<g id="XMLID_330_">
			<path id="XMLID_331_" class="st2" d="M32,132.5h16v-160H32V132.5z M88,132.5h16v-160H88V132.5z M144-27.5v160h16v-160H144z"/>
		</g>
	</g>
</g>
<g id="Layer_16" class="st0">
	<g id="XMLID_326_" class="st1">
		<g id="XMLID_414_">
			<path id="XMLID_415_" d="M159.4,27.4C145.6,3,121.9-11.5,96-11.5h0h0C70.1-11.5,46.4,3,32.6,27.4c-1.2,2.2-0.5,5,1.7,6.2
				c2.2,1.3,5,0.5,6.2-1.7C52.7,10.4,73.4-2.4,96-2.4c22.6,0,43.3,12.8,55.5,34.2c1.2,2.2,4,3,6.2,1.7
				C159.9,32.3,160.6,29.6,159.4,27.4z M96,6.8C83.4,6.8,73.1,17,73.1,29.6c0,12.6,10.3,22.8,22.9,22.8c12.6,0,22.9-10.2,22.9-22.8
				C118.9,17,108.6,6.8,96,6.8z M96,43.3c-7.6,0-13.7-6.1-13.7-13.7c0-7.6,6.2-13.7,13.7-13.7c7.6,0,13.7,6.1,13.7,13.7
				C109.7,37.2,103.6,43.3,96,43.3z"/>
		</g>
	</g>
</g>
<g id="Layer_17" class="st0">
	<path id="XMLID_391_" class="st1" d="M158.7,8.5c0.8,4.3,1.3,8.8,1.3,13.4c0,36.6-25,62.6-62.7,62.6c-36.1,0-65.3-28.6-65.3-64
		s29.2-64,65.3-64c17.6,0,32.4,6.4,43.7,16.7l-18.4,18v0c-6.9-6.4-15.5-9.7-25.3-9.7c-21.5,0-39.1,17.8-39.1,39
		c0,21.1,17.5,39,39.1,39c19.5,0,32.9-11,35.6-26H97.3v-25L158.7,8.5L158.7,8.5z"/>
</g>
<g id="Layer_18">
	<path id="XMLID_392_" class="st5" d="M21.6,4.1c-0.5-2.5-2.4-3.4-4.7-3.4H0.1L0,1.5c11.5,2.9,20.9,9.1,25.2,20.8L21.6,4.1L21.6,4.1
		z M26.2,27.8l-1-5.5C23,16.5,17.7,11.2,11.7,8.8l8.4,31.6H31L47.4,0.7h-11L26.2,27.8L26.2,27.8z M55.4,40.4L62,0.7H51.6l-6.5,39.7
		H55.4L55.4,40.4z M83.8,0C73.5,0,66.3,5.4,66.2,13.1c-0.1,5.7,5.1,8.9,9.1,10.8c4,1.9,5.4,3.2,5.4,4.9c0,2.7-3.3,3.9-6.2,3.9
		c-4.2,0-6.4-0.5-9.7-2L63.4,30L62,38.8C64.4,40,68.8,41,73.5,41c10.9,0.1,18-5.3,18.1-13.6c0-4.5-2.8-7.9-8.8-10.8
		c-3.6-1.8-5.8-3.1-5.8-4.9c0-1.7,1.9-3.4,6-3.4c3.4-0.1,5.9,0.6,7.7,1.5l1,0.4l1.4-8.6C91,0.9,87.7,0,83.8,0L83.8,0z M111.6,0.7
		c-2.5,0-4.4,0.8-5.4,3.4L90.8,40.4h10.9c1.7-4.9,2.2-6,2.2-6h13.2c0,0,0.3,1.4,1.3,6h9.6l-8.4-39.7H111.6L111.6,0.7z M106.8,26.3
		c0,0,0.9-2.3,4.1-11.1c-0.1,0.1,0.9-2.3,1.4-3.7l0.8,3.4c1.9,9.4,2.4,11.4,2.4,11.4H106.8L106.8,26.3z"/>
</g>
</svg>
