<?xml version="1.0" encoding="utf-8"?>
<!-- Generator: Adobe Illustrator 19.0.0, SVG Export Plug-In . SVG Version: 6.00 Build 0)  -->
<svg version="1.1" xmlns="http://www.w3.org/2000/svg" xmlns:xlink="http://www.w3.org/1999/xlink" x="0px" y="0px"
	 viewBox="0 0 128 59" style="enable-background:new 0 0 128 59;" xml:space="preserve">
<style type="text/css">
	.st0{display:none;}
	.st1{display:inline;}
	.st2{fill-rule:evenodd;clip-rule:evenodd;}
	.st3{display:inline;fill:#DF4834;}
	.st4{display:inline;fill-rule:evenodd;clip-rule:evenodd;}
</style>
<g id="Layer_1" class="st0">
	<g id="XMLID_638_" class="st1">
		<g id="XMLID_263_">
			<path id="XMLID_264_" class="st2" d="M156.5,89.5l-19.2-19.8c5-8.7,8-18.7,8-29.6c0-32.4-25.4-58.6-56.7-58.6
				C57.4-18.5,32,7.7,32,40.1c0,32.4,25.4,58.6,56.7,58.6c12.6,0,24.1-4.4,33.5-11.6l18.3,18.9c4.4,4.6,11.6,4.6,16,0
				C161,101.5,161,94.1,156.5,89.5z M88.7,83.1c-23,0-41.6-19.2-41.6-43c0-23.7,18.6-43,41.6-43c23,0,41.6,19.2,41.6,43
				C130.3,63.9,111.6,83.1,88.7,83.1z"/>
		</g>
	</g>
</g>
<g id="Layer_2" class="st0">
	<g id="XMLID_2_" class="st1">
		<g id="XMLID_76_">
			<path id="XMLID_77_" d="M123,34.9h-8.1v-19c0-19-15.7-34.4-34.9-34.4c-19.3,0-34.9,15.4-34.9,34.4v19h-8c-2.8,0-5.1,2.2-5.1,4.9
				v57.4c0,6.8,5.7,12.4,12.6,12.4h70.9c6.9,0,12.5-5.5,12.5-12.4V39.8C128,37,125.8,34.9,123,34.9z M55.1,15.9
				C55.1,2.4,66.3-8.6,80-8.6c13.7,0,24.9,11,24.9,24.5v19H55.1V15.9z M118,97.1c0,1.4-1.1,2.5-2.5,2.5H44.6c-1.4,0-2.6-1.1-2.6-2.5
				V44.8H118V97.1z M80,87c2.8,0,5-2.2,5-4.9V64.3c0-2.7-2.2-4.9-5-4.9c-2.8,0-5,2.2-5,4.9v17.8C75,84.8,77.2,87,80,87z"/>
		</g>
	</g>
</g>
<g id="Layer_3" class="st0">
	<path id="XMLID_29_" class="st1" d="M145.8-4.3v99.6H46.2V-4.3H145.8L145.8-4.3z M145.8-18.5H46.2C38.4-18.5,32-12.1,32-4.3v99.6
		c0,7.8,6.4,14.2,14.2,14.2h99.6c7.8,0,14.2-6.4,14.2-14.2V-4.3C160-12.1,153.6-18.5,145.8-18.5L145.8-18.5L145.8-18.5z"/>
</g>
<g id="Layer_4" class="st0">
	<path class="st1" d="M66.8,32l-10,10l32,32L160,2.9l-10-10L88.9,54.1L66.8,32L66.8,32z M145.8,95.3H46.2V-4.2h71.1v-14.2H46.2
		C38.4-18.5,32-12.1,32-4.2v99.6c0,7.8,6.4,14.2,14.2,14.2h99.6c7.8,0,14.2-6.4,14.2-14.2V38.4h-14.2V95.3L145.8,95.3z"/>
</g>
<g id="Layer_5" class="st0">
	<path id="XMLID_49_" class="st1" d="M46.8,93.5h26.4v-64h20.4L96,7H73.1v-14c0-5,2.1-5.4,4.6-5.4h17.9v-21.9l-21.2-0.1
		c-23.5,0-27.7,16.4-27.7,26.8V7H32v22.6h14.8V93.5z"/>
</g>
<g id="Layer_6" class="st0">
	<path id="XMLID_65_" class="st1" d="M53.7,108.7c0.1,0.9,1.3,1.1,1.8,0.4c0.7-1,10.3-12.5,13.5-24.1c0.9-3.3,5.3-20.2,5.3-20.2
		c2.6,4.9,10.2,9.2,18.3,9.2c24.1,0,40.4-21.5,40.4-50.4c0-21.8-18.8-42.1-47.4-42.1C50-18.5,32,6.5,32,27.4
		c0,12.6,4.9,23.9,15.3,28.1c1.7,0.7,3.3,0,3.8-1.8c0.3-1.3,1.2-4.5,1.5-5.9c0.5-1.8,0.3-2.5-1.1-4.1c-3-3.5-4.9-8-4.9-14.4
		c0-18.6,14.2-35.2,36.9-35.2c20.1,0,31.2,12.1,31.2,28.2c0,21.2-9.6,39.1-23.8,39.1c-7.9,0-13.7-6.4-11.8-14.2
		c2.3-9.3,6.6-19.4,6.6-26.1c0-6-3.3-11-10.1-11c-8,0-14.5,8.1-14.5,19c0,6.9,2.4,11.6,2.4,11.6s-8.2,34.1-9.6,40.1
		C51,92.6,53.5,107.2,53.7,108.7"/>
</g>
<g id="Layer_7" class="st0">
	<path id="XMLID_93_" class="st1" d="M176.9-16.1c-5.9,3.7-12.5,6.4-19.4,7.9c-5.6-6.3-13.5-10.2-22.3-10.2
		c-16.9,0-30.6,14.5-30.6,32.3c0,2.5,0.3,5,0.8,7.4C80,19.8,57.5,7,42.4-12.6c-2.6,4.8-4.1,10.3-4.1,16.3c0,11.2,5.4,21.1,13.6,26.9
		c-5-0.2-9.7-1.6-13.8-4v0.4c0,15.6,10.5,28.7,24.5,31.7c-2.6,0.7-5.3,1.1-8.1,1.1c-2,0-3.9-0.2-5.7-0.6
		C52.6,72,63.9,81.3,77.3,81.6c-10.5,8.7-23.6,13.8-38,13.8c-2.5,0-4.9-0.2-7.3-0.5c13.5,9.2,29.6,14.5,46.9,14.5
		c56.2,0,87-49.2,87-91.9c0-1.4,0-2.8-0.1-4.2c6-4.6,11.2-10.2,15.2-16.7c-5.5,2.6-11.4,4.3-17.6,5.1
		C169.8-2.3,174.6-8.6,176.9-16.1"/>
</g>
<g id="Layer_8" class="st0">
	<g id="XMLID_121_" class="st1">
		<g id="XMLID_162_">
			<path id="XMLID_163_" d="M49.1,75.4c-9.4,0-17.1,7.6-17.1,17c0,9.4,7.6,17,17.1,17c9.4,0,17.1-7.6,17.1-17
				C66.1,83,58.5,75.4,49.1,75.4z M32,25v24.5c16,0,31,6.2,42.3,17.5c11.3,11.3,17.5,26.4,17.5,42.4h24.6C116.5,62.9,78.6,25,32,25z
				 M32.1-18.5V6c57,0,103.3,46.4,103.3,103.5H160C160,38.9,102.6-18.5,32.1-18.5z"/>
		</g>
	</g>
</g>
<g id="Layer_9" class="st0">
	<path id="XMLID_143_" class="st1" d="M72.6,109.5h46.6c22.3,0,40.5-18.2,40.6-40.4l0.2-32.7l-0.4-1.8l-1.1-2.2l-1.8-1.4
		c-2.4-1.8-14.3,0.1-17.5-2.8c-2.3-2.1-2.6-5.9-3.3-10.9c-1.3-9.9-2.1-10.4-3.6-13.7c-5.6-11.9-20.9-20.8-31.3-22.1H72.6
		C50.2-18.5,32-0.3,32,21.9v47.2C32,91.3,50.2,109.5,72.6,109.5 M73.1,14.6h22.5c4.3,0,7.8,3.5,7.8,7.7c0,4.2-3.5,7.7-7.8,7.7H73.1
		c-4.3,0-7.8-3.5-7.8-7.7C65.3,18,68.8,14.6,73.1,14.6 M73.1,60.8h45.7c4.3,0,7.7,3.5,7.7,7.7c0,4.2-3.5,7.7-7.7,7.7H73.1
		c-4.3,0-7.8-3.5-7.8-7.7C65.3,64.3,68.8,60.8,73.1,60.8"/>
</g>
<g id="Layer_10" class="st0">
	<path id="XMLID_147_" class="st1" d="M197-3.5c0-8.3-7.2-15-16.1-15H48.1c-8.9,0-16.1,6.7-16.1,15v98c0,8.3,7.2,15,16.1,15h132.8
		c8.9,0,16.1-6.7,16.1-15V-3.5z M48.2-6.5H181c1.8,0,3.2,1.3,3.2,3v0.1l-67.3,62.8c-0.8,0.8-1.8,0.9-2.3,0.9c-0.5,0-1.5-0.1-2.3-0.9
		L45-3.4v-0.1C45-5.2,46.4-6.5,48.2-6.5z M181,97.5H48.2c-1.8,0-3.2-1.4-3.2-3V13.6l58.2,54.3c3,2.8,7.1,4.4,11.4,4.4
		c4.3,0,8.3-1.6,11.4-4.4l58.2-54.3v80.8C184.2,96.1,182.8,97.5,181,97.5z"/>
</g>
<g id="Layer_11" class="st0">
	<path id="XMLID_187_" class="st1" d="M169.1-9.8c-7.2-5.6-16.4-8.7-26-8.7c-11,0-21.7,4.1-29.3,11.4c-1.4,1.3-2.6,2.7-3.8,4.2
		c-9.3-11.7-24.8-17.7-40.2-15C57.1-15.7,47.1-9.1,40.1,1.7c-9.9,15.3-10.7,30-2.4,43.8c4.4,7.4,10.2,14.6,17.6,22
		c13.6,13.6,29.6,26.5,50.5,40.6c1.3,0.9,2.8,1.4,4.3,1.4c2.3,0,3.8-1.1,4.6-1.6c18.9-12.7,33.7-24.4,46.6-36.8
		c7.2-6.9,15.4-15.5,21.4-26.2c2.6-4.6,5.5-10.7,5.3-17.7C187.6,12.1,181.3-0.3,169.1-9.8z M172.8,40c-5.3,9.5-12.9,17.3-19.6,23.7
		c-12,11.5-25.7,22.4-43.3,34.4C90.8,85,75.9,73,63.4,60.4c-6.8-6.8-12-13.3-16-20C41,29.9,41.7,19.3,49.6,7.2
		C54.8-1,62.3-5.9,71.8-7.6C73.6-7.9,75.5-8,77.3-8c11.3,0,21.2,5.9,26.9,16l1,1.7c1,1.7,3,2.7,5,2.8c2.1,0,4-1.2,4.9-2.9
		c2-3.8,4.1-6.8,6.8-9.3C127.3-5,135.1-8,143.2-8c7,0,13.7,2.2,18.9,6.3c9.7,7.5,14.5,17.1,14.8,29.1C177,32,174.9,36.3,172.8,40z"
		/>
</g>
<g id="Layer_12" class="st0">
	<path id="XMLID_610_" class="st3" d="M169.1-9.8c-7.2-5.6-16.4-8.7-26-8.7c-11,0-21.7,4.1-29.3,11.4c-1.4,1.3-2.6,2.7-3.8,4.2
		c-9.3-11.7-24.8-17.7-40.2-15C57.1-15.7,47.1-9.1,40.1,1.7c-9.9,15.3-10.7,30-2.4,43.8c4.4,7.4,10.2,14.6,17.6,22
		c13.6,13.6,29.6,26.5,50.5,40.6c1.3,0.9,2.8,1.4,4.3,1.4c2.3,0,3.8-1.1,4.6-1.6c18.9-12.7,33.7-24.4,46.6-36.8
		c7.2-6.9,15.4-15.5,21.4-26.2c2.6-4.6,5.5-10.7,5.3-17.7C187.6,12.1,181.3-0.3,169.1-9.8z"/>
</g>
<g id="Layer_13" class="st0">
	<g id="XMLID_32_" class="st1">
		<g id="XMLID_297_">
			<path id="XMLID_298_" class="st2" d="M70.1,93.9c-4.4,0-7.7,3.3-7.7,7.7c0,4.4,3.3,7.9,7.7,7.9c4.4,0,7.9-3.5,7.9-7.9
				C78,97.2,74.5,93.9,70.1,93.9z M145.5,2.4L61.8,2.6l-0.7-8.7c0,0-6.8-12.4-16.3-12.4c0,0-12.8,3.8-12.8,12.4l12.1,0
				c0,0,11.8,78.2,11.8,80.2c0,5.4,5.9,12.3,8.4,12.3h78c6.6,0,6.6-15,0-15H69.2l-1.9-8.2l78.1,0.4c0,0,9.5-0.2,9.5-9.1l0-43.1
				C155,11.4,153.9,2.4,145.5,2.4z M139.3,43.9c0,2.5-2.1,4.6-4.6,4.6L71.1,49c-2.5,0-4.6-2.1-4.6-4.6l-1.7-22.2
				c0-2.5,2.1-4.6,4.6-4.6l65.3-0.5c2.5,0,4.6,2.1,4.6,4.6V43.9z M123.8,93.9c-4.4,0-7.7,3.3-7.7,7.7c0,4.4,3.3,7.9,7.7,7.9
				c4.4,0,7.9-3.5,7.9-7.9C131.7,97.2,128.2,93.9,123.8,93.9z"/>
		</g>
	</g>
</g>
<g id="Layer_14" class="st0">
	<path id="XMLID_267_" class="st4" d="M192,109.5h-15.4c-8.9-16.8-24.3-29.6-42.7-35.4c-3.3,1.7-6.8,3-10.5,3.9V62.2
		c13.2-4.7,22.7-17.1,22.7-31.8c0-18.7-15.2-33.9-34-33.9c-18.8,0-34,15.2-34,33.9c0,14.7,9.5,27.1,22.7,31.8V78
		c-3.7-0.9-7.2-2.2-10.5-3.9c-18.5,5.8-33.8,18.6-42.7,35.4H32c8.6-20.1,24.7-36.2,44.7-45.1c-8.5-8.8-13.8-20.7-13.8-33.9
		c0-27,22-48.9,49.1-48.9c27.1,0,49.1,21.9,49.1,48.9c0,13.2-5.3,25.1-13.8,33.9C167.3,73.3,183.4,89.4,192,109.5z"/>
</g>
<g id="Layer_15" class="st0">
	<g id="XMLID_287_" class="st1">
		<g id="XMLID_330_">
			<path id="XMLID_331_" class="st2" d="M32,141.5h16v-160H32V141.5z M88,141.5h16v-160H88V141.5z M144-18.5v160h16v-160H144z"/>
		</g>
	</g>
</g>
<g id="Layer_16" class="st0">
	<g id="XMLID_326_" class="st1">
		<g id="XMLID_414_">
			<path id="XMLID_415_" d="M159.4,36.4C145.6,12,121.9-2.5,96-2.5h0c0,0,0,0,0,0C70.1-2.5,46.4,12,32.6,36.4
				c-1.2,2.2-0.5,5,1.7,6.2c2.2,1.3,5,0.5,6.2-1.7C52.7,19.4,73.4,6.6,96,6.6c22.6,0,43.3,12.8,55.5,34.2c1.2,2.2,4,3,6.2,1.7
				C159.9,41.3,160.6,38.6,159.4,36.4z M96,15.8c-12.6,0-22.9,10.2-22.9,22.8c0,12.6,10.3,22.8,22.9,22.8
				c12.6,0,22.9-10.2,22.9-22.8C118.9,26,108.6,15.8,96,15.8z M96,52.3c-7.6,0-13.7-6.1-13.7-13.7c0-7.6,6.2-13.7,13.7-13.7
				c7.6,0,13.7,6.1,13.7,13.7C109.7,46.2,103.6,52.3,96,52.3z"/>
		</g>
	</g>
</g>
<g id="Layer_17" class="st0">
	<path id="XMLID_391_" class="st1" d="M158.7,17.5c0.8,4.3,1.3,8.8,1.3,13.4c0,36.6-25,62.6-62.7,62.6c-36.1,0-65.3-28.6-65.3-64
		s29.2-64,65.3-64c17.6,0,32.4,6.4,43.7,16.7l-18.4,18v0c-6.9-6.4-15.5-9.7-25.3-9.7c-21.5,0-39.1,17.8-39.1,39
		c0,21.1,17.5,39,39.1,39c19.5,0,32.9-11,35.6-26H97.3v-25L158.7,17.5L158.7,17.5z"/>
</g>
<g id="Layer_18" class="st0">
	<path id="XMLID_392_" class="st1" d="M21.6,13.1c-0.5-2.5-2.4-3.4-4.7-3.4H0.1L0,10.5c11.5,2.9,20.9,9.1,25.2,20.8L21.6,13.1
		L21.6,13.1z M26.2,36.8l-1-5.5c-2.2-5.8-7.6-11.1-13.5-13.5l8.4,31.6H31L47.4,9.7h-11L26.2,36.8L26.2,36.8z M55.4,49.4L62,9.7H51.6
		l-6.5,39.7H55.4L55.4,49.4z M83.8,9c-10.3,0-17.5,5.4-17.5,13.1c-0.1,5.7,5.1,8.9,9.1,10.8c4,1.9,5.4,3.2,5.4,4.9
		c0,2.7-3.3,3.9-6.2,3.9c-4.2,0-6.4-0.5-9.7-2L63.4,39L62,47.8C64.4,49,68.8,50,73.5,50c10.9,0.1,18-5.3,18.1-13.6
		c0-4.5-2.8-7.9-8.8-10.8c-3.6-1.8-5.8-3.1-5.8-4.9c0-1.7,1.9-3.4,6-3.4c3.4-0.1,5.9,0.6,7.7,1.5l1,0.4l1.4-8.6
		C91,9.9,87.7,9,83.8,9L83.8,9z M111.6,9.7c-2.5,0-4.4,0.8-5.4,3.4L90.8,49.4h10.9c1.7-4.9,2.2-6,2.2-6h13.2c0,0,0.3,1.4,1.3,6h9.6
		l-8.4-39.7H111.6L111.6,9.7z M106.8,35.3c0,0,0.9-2.3,4.1-11.1c-0.1,0.1,0.9-2.3,1.4-3.7l0.8,3.4c1.9,9.4,2.4,11.4,2.4,11.4H106.8
		L106.8,35.3z"/>
</g>
<g id="Layer_19" class="st0">
	<path id="XMLID_437_" class="st1" d="M70.5,21.7h-4.8c-0.4,0-0.9,0.2-1.2,0.6L58,32l-2.8-9.3c-0.2-0.6-0.7-1-1.3-1h-4.7
		c-0.6,0-1,0.6-0.8,1.1l5.3,15.4l-5,7c-0.4,0.6,0,1.3,0.7,1.3h4.8c0.4,0,0.8-0.3,1.1-0.6l15.9-23C71.6,22.5,71.2,21.7,70.5,21.7
		L70.5,21.7z M38.5,30.9c-0.4,2.7-2.6,4.5-5.4,4.5c-1.3,0-2.5-0.4-3.2-1.3c-0.7-0.8-1-2-0.8-3.3c0.4-2.7,2.6-4.6,5.4-4.6
		c1.3,0,2.4,0.4,3.2,1.3C38.4,28.4,38.7,29.6,38.5,30.9L38.5,30.9z M45.1,21.7h-4.7c-0.4,0-0.8,0.3-0.8,0.7l-0.3,1.3L39,23.2
		c-1-1.5-3.3-2-5.6-2c-5.2,0-9.7,4-10.6,9.6c-0.4,2.7,0.2,5.4,1.8,7.3c1.4,1.7,3.5,2.4,6,2.4c4.3,0,6.7-2.7,6.7-2.7l-0.3,1.3
		c-0.1,0.5,0.3,1,0.8,1H42c0.7,0,1.3-0.5,1.4-1.1L46,22.6C46,22.1,45.6,21.7,45.1,21.7L45.1,21.7z M16.5,21.8
		c-0.6,3.6-3.3,3.6-5.9,3.6H9.1l1.1-6.7c0.1-0.4,0.4-0.7,0.8-0.7h0.7c1.8,0,3.5,0,4.4,1C16.6,19.6,16.7,20.5,16.5,21.8L16.5,21.8z
		 M15.4,12.5h-10c-0.6,0-1.2,0.5-1.3,1.1L0,39.1c-0.1,0.5,0.3,1,0.8,1h4.7c0.7,0,1.3-0.5,1.4-1.1L8.1,32c0.1-0.6,0.6-1.1,1.3-1.1
		h3.1c6.6,0,10.4-3.2,11.3-9.4c0.4-2.7,0.1-4.9-1.3-6.4C21.2,13.4,18.7,12.5,15.4,12.5L15.4,12.5z M121.7,13.2l-4,25.9
		c-0.1,0.5,0.3,1,0.8,1h4.2c0.6,0,1.2-0.5,1.3-1.1l4-25.5c0.1-0.5-0.3-1-0.8-1h-4.6C122.2,12.5,121.8,12.8,121.7,13.2L121.7,13.2z
		 M109.5,30.9c-0.4,2.7-2.6,4.5-5.4,4.5c-1.4,0-2.5-0.4-3.2-1.3c-0.7-0.8-1-2-0.8-3.3c0.4-2.7,2.6-4.6,5.3-4.6
		c1.4,0,2.5,0.4,3.2,1.3C109.4,28.4,109.7,29.6,109.5,30.9L109.5,30.9z M116.2,21.7h-4.8c-0.4,0-0.8,0.3-0.8,0.7l-0.2,1.3l-0.3-0.5
		c-1-1.5-3.3-2-5.6-2c-5.2,0-9.8,4-10.6,9.6c-0.5,2.7,0.2,5.4,1.7,7.3c1.5,1.7,3.5,2.4,6,2.4c4.2,0,6.6-2.7,6.6-2.7l-0.2,1.3
		c-0.1,0.5,0.3,1,0.8,1h4.3c0.6,0,1.2-0.5,1.3-1.1l2.6-16.3C117.1,22.1,116.7,21.7,116.2,21.7L116.2,21.7z M87.5,21.8
		c-0.6,3.6-3.3,3.6-6,3.6h-1.5l1-6.7c0.1-0.4,0.4-0.7,0.8-0.7h0.7c1.8,0,3.5,0,4.4,1C87.5,19.6,87.7,20.5,87.5,21.8L87.5,21.8z
		 M86.4,12.5h-10c-0.7,0-1.3,0.5-1.3,1.1l-4,25.5c-0.1,0.5,0.3,1,0.8,1h5.1c0.5,0,0.9-0.3,1-0.8L79,32c0.1-0.6,0.7-1.1,1.4-1.1h3.1
		c6.5,0,10.3-3.2,11.3-9.4c0.4-2.7,0-4.9-1.3-6.4C92.2,13.4,89.7,12.5,86.4,12.5L86.4,12.5z"/>
</g>
<g id="Layer_20">
	<g id="XMLID_51_">
		<polygon id="XMLID_55_" points="17.5,38.7 20.9,20.5 14.1,20.5 9.9,31.8 9.7,20.5 3.4,20.5 0,38.7 4.1,38.7 6.7,24.8 7.1,38.7 
			10.1,38.7 15.7,24.7 13.2,38.7 		"/>
		<path id="XMLID_99_" d="M31.5,38.7c0.1-1.1,0.9-5.7,1.3-7.8c0.2-1.2,0.4-2.2,0.4-2.9c0-2.8-2-4.3-5.7-4.3c-1.6,0-3.1,0.2-5.2,0.8
			c0,0-0.6,3.1-0.6,3.3c0.7-0.2,2.5-0.7,4.6-0.7c2,0,2.8,0.4,2.8,1.3c0,0.3,0,0.5-0.2,1c-0.7-0.1-1.3-0.1-1.8-0.1
			c-4.9,0-7.7,2.1-7.7,5.7c0,2.4,1.6,4,4,4c2,0,3.5-0.6,4.6-1.8l-0.1,1.5C27.9,38.7,30.9,38.7,31.5,38.7z M25.1,35.8
			c-1,0-1.6-0.6-1.6-1.5c0-1.5,1.2-2.3,3.7-2.3c0.3,0,0.5,0,1,0.1C28.2,34.3,26.9,35.8,25.1,35.8z"/>
		<path id="XMLID_100_" d="M85.5,24c1.2,0,2.3,0.3,3.9,1l0.7-3.9c-0.6-0.2-2.9-0.9-4.8-0.9c-5.8,0-9.9,4.6-9.9,11
			c0,4.8,2.9,7.8,7.7,7.8c1.2,0,2.2-0.1,3.9-0.5l0.8-4.1c-1.4,0.6-2.6,0.9-3.7,0.9c-2.5,0-4.1-1.7-4.1-4.4
			C79.9,26.8,82.2,24,85.5,24z"/>
		<path id="XMLID_103_" d="M100.3,38.7c0.1-1.1,0.9-5.7,1.3-7.8c0.2-1.2,0.4-2.2,0.3-2.9c0-2.8-2-4.3-5.7-4.3c-1.6,0-3,0.2-5.2,0.8
			c0,0-0.6,3.1-0.6,3.3c0.7-0.2,2.5-0.7,4.6-0.7c2,0,2.8,0.4,2.8,1.3c0,0.3,0,0.5-0.2,1c-0.7-0.1-1.3-0.1-1.8-0.1
			c-4.8,0-7.7,2.1-7.7,5.7c0,2.4,1.6,4,4,4c2,0,3.5-0.6,4.6-1.8l-0.1,1.5C96.7,38.7,99.8,38.7,100.3,38.7z M94,35.8
			c-1,0-1.6-0.6-1.6-1.5c0-1.5,1.3-2.3,3.7-2.3c0.3,0,0.5,0,1,0.1C97.1,34.3,95.8,35.8,94,35.8z"/>
		<path id="XMLID_104_" d="M52.3,27.5l0.6-3.5h-2.2l0.5-2.2h-4.3c0,0-1.6,8.7-1.9,10.1c-0.3,1.6-0.6,3.3-0.6,3.9
			c0,2.1,1.2,3.3,3.5,3.3c1,0,1.9-0.1,3.1-0.5l0.6-3.3c-0.3,0.1-0.7,0.1-1.2,0.1c-1,0-1.5-0.3-1.5-1.1c0-0.5,0.7-4,1.2-6.8H52.3z"/>
		<path id="XMLID_107_" d="M65.3,32.6c0.4-1.5,0.5-2.6,0.5-3.6c0-3.3-2.3-5.3-5.9-5.3c-4.4,0-7.6,3.7-7.6,8.8c0,4.3,2.5,6.6,7.4,6.6
			c1.5,0,3-0.2,4.5-0.6l0.7-3.7c-1.6,0.6-3,0.9-4.5,0.9c-2.5,0-4.1-0.9-3.8-3H65.3z M59.8,26.9c2.5,0,2,2.3,2,2.6H57
			C57.4,27.9,58.4,26.9,59.8,26.9z"/>
		<path id="XMLID_108_" d="M40.7,27.1c0.9,0,2,0.1,3.1,0.2l0.6-3.4c-1.1-0.2-2.9-0.3-3.8-0.3c-4.9,0-6.6,2.3-6.6,5
			c0,1.9,1,3.2,3.3,4.1c1.8,0.7,2,1,2,1.6c0,0.9-0.8,1.3-2.5,1.3c-1.3,0-2.5-0.2-3.9-0.6c0,0-0.6,3.3-0.6,3.4c1,0.2,1.9,0.4,4.6,0.4
			c4.6,0,6.8-1.6,6.8-4.9c0-2-0.9-3.2-3.1-4.1c-1.8-0.7-2-0.9-2-1.6C38.6,27.5,39.3,27.1,40.7,27.1z"/>
		<path id="XMLID_111_" d="M122.5,20.5l-1,5.3c-1.2-1.4-2.5-2-4.2-2c-3.8,0-7.1,4.1-7.1,9.1c0,3.7,2.1,6.1,5.3,6.1
			c1.6,0,2.8-0.5,4-1.6l-0.2,1.4h4.1l3.3-18.2H122.5z M117,35.3c-1.5,0-2.2-1-2.2-2.9c0-2.9,1.4-5,3.4-5c1.5,0,2.3,1,2.3,2.9
			C120.5,33.2,119.1,35.3,117,35.3z"/>
		<path id="XMLID_112_" d="M110.6,28.1c0.4-1.9,1.1-3.5,1.7-4.3c-1.8-0.3-2.9,0.6-4.2,2.3c0.1-0.8,0.3-1.5,0.3-2.2h-4v0
			c-0.5,4.6-1.5,9.2-2.3,13.8l-0.2,1h4.4C107.7,29.7,108.1,27.9,110.6,28.1z"/>
		<path id="XMLID_113_" d="M74.6,28.1c0.4-1.9,1.1-3.5,1.7-4.3c-1.8-0.3-2.9,0.6-4.2,2.3c0.1-0.8,0.3-1.5,0.3-2.2h-4v0
			c-0.5,4.6-1.5,9.2-2.3,13.8l-0.2,1h4.4C71.7,29.7,72.1,27.9,74.6,28.1z"/>
		<path id="XMLID_116_" d="M126.7,36.4c-0.7,0-1.3,0.5-1.3,1.2c0,0.6,0.6,1.2,1.3,1.2c0.7,0,1.3-0.5,1.3-1.2
			C128,36.9,127.4,36.4,126.7,36.4z M126.7,38.4c-0.6,0-1-0.4-1-0.9c0-0.5,0.4-0.9,1-0.9c0.5,0,1,0.4,1,0.9
			C127.7,38,127.2,38.4,126.7,38.4z"/>
		<path id="XMLID_119_" d="M127,37.1c-0.1,0-0.2-0.1-0.3-0.1h-0.5v1h0.3h0v-0.4h0.2l0.2,0.4h0.3l-0.2-0.4c0.1,0,0.2-0.1,0.2-0.3
			C127.2,37.2,127.1,37.1,127,37.1z M126.8,37.4c0,0-0.1,0-0.2,0h-0.1v-0.3h0.1c0,0,0.1,0,0.2,0c0,0,0.1,0.1,0.1,0.1
			S126.9,37.4,126.8,37.4z"/>
		<path id="XMLID_120_" d="M83.7,54.6c-7,0-13.4-2.9-17.9-7.5c1.5-2,2.7-4.1,3.6-6.4h-4.8c-0.5,1-1,1.9-1.7,2.9
			c-0.6-0.9-1.2-1.9-1.7-2.9h-4.8c0.9,2.3,2.2,4.4,3.6,6.4C55.4,51.7,49,54.6,42,54.6c-9.9,0-18.4-5.7-22.5-13.9h-4.9
			C19,51.4,29.6,59,42,59c8.1,0,15.5-3.3,20.8-8.6c5.3,5.3,12.7,8.6,20.8,8.6c12.4,0,23-7.6,27.4-18.3h-4.9
			C102.1,48.9,93.5,54.6,83.7,54.6z"/>
		<path id="XMLID_122_" d="M42,4.4c7,0,13.4,2.9,17.9,7.5c-1.7,2.3-3,4.8-4,7.5h4.8c0.6-1.4,1.3-2.7,2.2-3.9
			c0.8,1.2,1.6,2.6,2.2,3.9h4.8c-1-2.7-2.3-5.2-4-7.5c4.6-4.6,10.9-7.5,17.9-7.5c10.3,0,19.1,6.2,23,15h4.8C107.3,8.1,96.5,0,83.7,0
			c-8.1,0-15.5,3.3-20.8,8.6C57.5,3.3,50.1,0,42,0C29.2,0,18.4,8.1,14.2,19.4H19C22.9,10.6,31.7,4.4,42,4.4z"/>
	</g>
</g>
</svg>
