<?xml version="1.0" encoding="utf-8"?>
<!-- Generator: Adobe Illustrator 19.0.0, SVG Export Plug-In . SVG Version: 6.00 Build 0)  -->
<svg version="1.1" xmlns="http://www.w3.org/2000/svg" xmlns:xlink="http://www.w3.org/1999/xlink" x="0px" y="0px"
	 viewBox="0 0 128 64" style="enable-background:new 0 0 128 64;" xml:space="preserve">
<style type="text/css">
	.st0{display:none;}
	.st1{display:inline;}
	.st2{fill-rule:evenodd;clip-rule:evenodd;}
	.st3{display:inline;fill:#DF4834;}
	.st4{display:inline;fill-rule:evenodd;clip-rule:evenodd;}
	.st5{fill:#FFFFFF;}
</style>
<g id="Layer_1" class="st0">
	<g id="XMLID_638_" class="st1">
		<g id="XMLID_263_">
			<path id="XMLID_264_" class="st2" d="M124.5,92l-19.2-19.8c5-8.7,8-18.7,8-29.6C113.4,10.2,88-16,56.7-16C25.4-16,0,10.2,0,42.6
				c0,32.4,25.4,58.6,56.7,58.6c12.6,0,24.1-4.4,33.5-11.6l18.3,18.9c4.4,4.6,11.6,4.6,16,0C129,104,129,96.6,124.5,92z M56.7,85.6
				c-23,0-41.6-19.2-41.6-43c0-23.7,18.6-43,41.6-43c23,0,41.6,19.2,41.6,43C98.3,66.4,79.6,85.6,56.7,85.6z"/>
		</g>
	</g>
</g>
<g id="Layer_2" class="st0">
	<g id="XMLID_2_" class="st1">
		<g id="XMLID_76_">
			<path id="XMLID_77_" d="M91,37.4h-8.1v-19C82.9-0.6,67.3-16,48-16C28.7-16,13.1-0.6,13.1,18.4v19h-8c-2.8,0-5.1,2.2-5.1,4.9v57.4
				c0,6.8,5.7,12.4,12.6,12.4h70.9c6.9,0,12.5-5.5,12.5-12.4V42.3C96,39.5,93.8,37.4,91,37.4z M23.1,18.4C23.1,4.9,34.3-6.1,48-6.1
				c13.7,0,24.9,11,24.9,24.5v19H23.1V18.4z M86,99.6c0,1.4-1.1,2.5-2.5,2.5H12.6c-1.4,0-2.6-1.1-2.6-2.5V47.3H86V99.6z M48,89.5
				c2.8,0,5-2.2,5-4.9V66.8c0-2.7-2.2-4.9-5-4.9c-2.8,0-5,2.2-5,4.9v17.8C43,87.3,45.2,89.5,48,89.5z"/>
		</g>
	</g>
</g>
<g id="Layer_3" class="st0">
	<path id="XMLID_29_" class="st1" d="M113.8-1.8v99.6H14.2V-1.8H113.8L113.8-1.8z M113.8-16H14.2C6.4-16,0-9.6,0-1.8v99.6
		c0,7.8,6.4,14.2,14.2,14.2h99.6c7.8,0,14.2-6.4,14.2-14.2V-1.8C128-9.6,121.6-16,113.8-16L113.8-16L113.8-16z"/>
</g>
<g id="Layer_4" class="st0">
	<path class="st1" d="M34.8,34.5l-10,10l32,32L128,5.4l-10-10L56.9,56.6L34.8,34.5L34.8,34.5z M113.8,97.8H14.2V-1.7h71.1V-16H14.2
		C6.4-16,0-9.6,0-1.7v99.6c0,7.8,6.4,14.2,14.2,14.2h99.6c7.8,0,14.2-6.4,14.2-14.2V40.9h-14.2V97.8L113.8,97.8z"/>
</g>
<g id="Layer_5" class="st0">
	<path id="XMLID_49_" class="st1" d="M14.8,112h26.4V48h20.4L64,25.5H41.1v-14c0-5,2.1-5.4,4.6-5.4h17.9v-21.9L42.5-16
		C18.9-16,14.8,0.4,14.8,10.8v14.6H0V48h14.8V112z"/>
</g>
<g id="Layer_6" class="st0">
	<path id="XMLID_65_" class="st1" d="M21.7,111.2c0.1,0.9,1.3,1.1,1.8,0.4c0.7-1,10.3-12.5,13.5-24.1c0.9-3.3,5.3-20.2,5.3-20.2
		c2.6,4.9,10.2,9.2,18.3,9.2C84.7,76.5,101,55,101,26.1C101,4.3,82.2-16,53.6-16C18-16,0,9,0,29.9C0,42.6,4.9,53.8,15.3,58
		c1.7,0.7,3.3,0,3.8-1.8c0.3-1.3,1.2-4.5,1.5-5.9c0.5-1.8,0.3-2.5-1.1-4.1c-3-3.5-4.9-8-4.9-14.4c0-18.6,14.2-35.2,36.9-35.2
		c20.1,0,31.2,12.1,31.2,28.2c0,21.2-9.6,39.1-23.8,39.1c-7.9,0-13.7-6.4-11.8-14.2c2.3-9.3,6.6-19.4,6.6-26.1c0-6-3.3-11-10.1-11
		c-8,0-14.5,8.1-14.5,19c0,6.9,2.4,11.6,2.4,11.6s-8.2,34.1-9.6,40.1C19,95.1,21.5,109.7,21.7,111.2"/>
</g>
<g id="Layer_7" class="st0">
	<path id="XMLID_93_" class="st1" d="M144.9-13.6c-5.9,3.7-12.5,6.4-19.4,7.9C119.9-12.1,112-16,103.2-16
		C86.3-16,72.6-1.5,72.6,16.3c0,2.5,0.3,5,0.8,7.4C48,22.3,25.5,9.5,10.4-10.1C7.7-5.3,6.2,0.2,6.2,6.2c0,11.2,5.4,21.1,13.6,26.9
		c-5-0.2-9.7-1.6-13.8-4v0.4c0,15.6,10.5,28.7,24.5,31.7c-2.6,0.7-5.3,1.1-8.1,1.1c-2,0-3.9-0.2-5.7-0.6
		c3.9,12.8,15.2,22.2,28.6,22.4c-10.5,8.7-23.6,13.8-38,13.8c-2.5,0-4.9-0.2-7.3-0.5c13.5,9.2,29.6,14.5,46.9,14.5
		c56.2,0,87-49.2,87-91.9c0-1.4,0-2.8-0.1-4.2c6-4.6,11.2-10.2,15.2-16.7c-5.5,2.6-11.4,4.3-17.6,5.1
		C137.8,0.2,142.6-6.1,144.9-13.6"/>
</g>
<g id="Layer_8" class="st0">
	<g id="XMLID_121_" class="st1">
		<g id="XMLID_162_">
			<path id="XMLID_163_" d="M17.1,77.9C7.6,77.9,0,85.5,0,94.9c0,9.4,7.6,17,17.1,17c9.4,0,17.1-7.6,17.1-17
				C34.1,85.5,26.5,77.9,17.1,77.9z M0,27.5V52c16,0,31,6.2,42.3,17.5C53.6,80.9,59.9,95.9,59.9,112h24.6
				C84.5,65.4,46.6,27.5,0,27.5z M0.1-16V8.5c57,0,103.3,46.4,103.3,103.5H128C128,41.4,70.6-16,0.1-16z"/>
		</g>
	</g>
</g>
<g id="Layer_9" class="st0">
	<path id="XMLID_143_" class="st1" d="M40.6,112h46.6c22.3,0,40.5-18.2,40.6-40.4L128,39l-0.4-1.8l-1.1-2.2l-1.8-1.4
		c-2.4-1.8-14.3,0.1-17.5-2.8c-2.3-2.1-2.6-5.9-3.3-10.9c-1.3-9.9-2.1-10.4-3.6-13.7C94.7-5.8,79.4-14.8,68.9-16H40.6
		C18.2-16,0,2.2,0,24.4v47.2C0,93.8,18.2,112,40.6,112 M41.1,17.1h22.5c4.3,0,7.8,3.5,7.8,7.7c0,4.2-3.5,7.7-7.8,7.7H41.1
		c-4.3,0-7.8-3.5-7.8-7.7C33.3,20.5,36.8,17.1,41.1,17.1 M41.1,63.3h45.7c4.3,0,7.7,3.5,7.7,7.7c0,4.2-3.5,7.7-7.7,7.7H41.1
		c-4.3,0-7.8-3.5-7.8-7.7C33.3,66.8,36.8,63.3,41.1,63.3"/>
</g>
<g id="Layer_10" class="st0">
	<path id="XMLID_147_" class="st1" d="M165-1c0-8.3-7.2-15-16.1-15H16.1C7.2-16,0-9.3,0-1v98c0,8.3,7.2,15,16.1,15h132.8
		c8.9,0,16.1-6.7,16.1-15V-1z M16.2-4H149c1.8,0,3.2,1.3,3.2,3v0.1L84.9,61.9c-0.8,0.8-1.8,0.9-2.3,0.9c-0.5,0-1.5-0.1-2.3-0.9
		L13-0.9V-1C13-2.7,14.4-4,16.2-4z M149,100H16.2c-1.8,0-3.2-1.4-3.2-3V16.1l58.2,54.3c3,2.8,7.1,4.4,11.4,4.4
		c4.3,0,8.3-1.6,11.4-4.4l58.2-54.3V97C152.2,98.6,150.8,100,149,100z"/>
</g>
<g id="Layer_11" class="st0">
	<path id="XMLID_187_" class="st1" d="M137.1-7.3c-7.2-5.6-16.4-8.7-26-8.7c-11,0-21.7,4.1-29.3,11.4c-1.4,1.3-2.6,2.7-3.8,4.2
		C68.7-12,53.2-18,37.8-15.4C25.1-13.2,15.1-6.6,8.1,4.2c-9.9,15.3-10.7,30-2.4,43.8c4.4,7.4,10.2,14.6,17.6,22
		c13.6,13.6,29.6,26.5,50.5,40.6c1.3,0.9,2.8,1.4,4.3,1.4c2.3,0,3.8-1.1,4.6-1.6c18.9-12.7,33.7-24.4,46.6-36.8
		c7.2-6.9,15.4-15.5,21.4-26.2c2.6-4.6,5.5-10.7,5.3-17.7C155.6,14.6,149.3,2.2,137.1-7.3z M140.8,42.5
		c-5.3,9.5-12.9,17.3-19.6,23.7c-12,11.5-25.7,22.4-43.3,34.4C58.8,87.5,43.9,75.5,31.4,62.9c-6.8-6.8-12-13.3-16-20
		C9,32.4,9.7,21.8,17.6,9.7C22.8,1.5,30.3-3.4,39.8-5.1c1.8-0.3,3.7-0.5,5.5-0.5c11.3,0,21.2,5.9,26.9,16l1,1.7c1,1.7,3,2.7,5,2.8
		c2.1,0,4-1.2,4.9-2.9c2-3.8,4.1-6.8,6.8-9.3c5.5-5.2,13.3-8.3,21.4-8.3c7,0,13.7,2.2,18.9,6.3c9.7,7.5,14.5,17.1,14.8,29.1
		C145,34.5,142.9,38.8,140.8,42.5z"/>
</g>
<g id="Layer_12" class="st0">
	<path id="XMLID_610_" class="st3" d="M137.1-7.3c-7.2-5.6-16.4-8.7-26-8.7c-11,0-21.7,4.1-29.3,11.4c-1.4,1.3-2.6,2.7-3.8,4.2
		C68.7-12,53.2-18,37.8-15.4C25.1-13.2,15.1-6.6,8.1,4.2c-9.9,15.3-10.7,30-2.4,43.8c4.4,7.4,10.2,14.6,17.6,22
		c13.6,13.6,29.6,26.5,50.5,40.6c1.3,0.9,2.8,1.4,4.3,1.4c2.3,0,3.8-1.1,4.6-1.6c18.9-12.7,33.7-24.4,46.6-36.8
		c7.2-6.9,15.4-15.5,21.4-26.2c2.6-4.6,5.5-10.7,5.3-17.7C155.6,14.6,149.3,2.2,137.1-7.3z"/>
</g>
<g id="Layer_13" class="st0">
	<g id="XMLID_32_" class="st1">
		<g id="XMLID_297_">
			<path id="XMLID_298_" class="st2" d="M38.1,96.4c-4.4,0-7.7,3.3-7.7,7.7c0,4.4,3.3,7.9,7.7,7.9c4.4,0,7.9-3.5,7.9-7.9
				C46,99.7,42.5,96.4,38.1,96.4z M113.5,4.9L29.8,5.1l-0.7-8.7c0,0-6.8-12.4-16.3-12.4C12.8-16,0-12.2,0-3.6l12.1,0
				c0,0,11.8,78.2,11.8,80.2c0,5.4,5.9,12.3,8.4,12.3h78c6.6,0,6.6-15,0-15H37.2l-1.9-8.2l78.1,0.4c0,0,9.5-0.2,9.5-9.1l0-43.1
				C123,13.9,121.9,4.9,113.5,4.9z M107.3,46.4c0,2.5-2.1,4.6-4.6,4.6l-63.6,0.5c-2.5,0-4.6-2.1-4.6-4.6l-1.7-22.2
				c0-2.5,2.1-4.6,4.6-4.6l65.3-0.5c2.5,0,4.6,2.1,4.6,4.6V46.4z M91.8,96.4c-4.4,0-7.7,3.3-7.7,7.7c0,4.4,3.3,7.9,7.7,7.9
				c4.4,0,7.9-3.5,7.9-7.9C99.7,99.7,96.2,96.4,91.8,96.4z"/>
		</g>
	</g>
</g>
<g id="Layer_14" class="st0">
	<path id="XMLID_267_" class="st4" d="M160,112h-15.4c-8.9-16.8-24.3-29.6-42.7-35.4c-3.3,1.7-6.8,3-10.5,3.9V64.7
		c13.2-4.7,22.7-17.1,22.7-31.8c0-18.7-15.2-33.9-34-33.9c-18.8,0-34,15.2-34,33.9c0,14.7,9.5,27.1,22.7,31.8v15.7
		c-3.7-0.9-7.2-2.2-10.5-3.9C39.7,82.4,24.3,95.2,15.4,112H0c8.6-20.1,24.7-36.2,44.7-45.1c-8.5-8.8-13.8-20.7-13.8-33.9
		c0-27,22-48.9,49.1-48.9c27.1,0,49.1,21.9,49.1,48.9c0,13.2-5.3,25.1-13.8,33.9C135.3,75.8,151.4,91.9,160,112z"/>
</g>
<g id="Layer_15" class="st0">
	<g id="XMLID_287_" class="st1">
		<g id="XMLID_330_">
			<path id="XMLID_331_" class="st2" d="M0,144h16V-16H0V144z M56,144h16V-16H56V144z M112-16v160h16V-16H112z"/>
		</g>
	</g>
</g>
<g id="Layer_16">
	<g id="XMLID_326_">
		<g id="XMLID_414_">
			<path id="XMLID_415_" class="st5" d="M127.4,38.9C113.6,14.5,89.9,0,64,0h0h0C38.1,0,14.4,14.5,0.6,38.9c-1.2,2.2-0.5,5,1.7,6.2
				c2.2,1.3,5,0.5,6.2-1.7C20.7,21.9,41.4,9.1,64,9.1c22.6,0,43.3,12.8,55.5,34.2c1.2,2.2,4,3,6.2,1.7
				C127.9,43.8,128.6,41.1,127.4,38.9z M64,18.3c-12.6,0-22.9,10.2-22.9,22.8C41.1,53.7,51.4,64,64,64c12.6,0,22.9-10.2,22.9-22.8
				C86.9,28.5,76.6,18.3,64,18.3z M64,54.8c-7.6,0-13.7-6.1-13.7-13.7c0-7.6,6.2-13.7,13.7-13.7c7.6,0,13.7,6.1,13.7,13.7
				C77.7,48.7,71.6,54.8,64,54.8z"/>
		</g>
	</g>
</g>
</svg>
