<?xml version="1.0" encoding="utf-8"?>
<!-- Generator: Adobe Illustrator 19.0.0, SVG Export Plug-In . SVG Version: 6.00 Build 0)  -->
<svg version="1.1" xmlns="http://www.w3.org/2000/svg" xmlns:xlink="http://www.w3.org/1999/xlink" x="0px" y="0px"
	 viewBox="0 0 177 75" style="enable-background:new 0 0 177 75;" xml:space="preserve">
<style type="text/css">
	.st0{display:none;}
	.st1{display:inline;}
	.st2{fill:#85754E;}
	.st3{display:inline;fill-rule:evenodd;clip-rule:evenodd;fill:#85754E;}
	.st4{fill-rule:evenodd;clip-rule:evenodd;fill:#85754E;}
</style>
<g id="Layer_1" class="st0">
	<g id="XMLID_2_" class="st1">
		<g id="XMLID_665_">
			<path id="XMLID_666_" class="st2" d="M104.8,10.8c0.1,0,0.3,0,0.4,0c0.3,0.1,0.4,0.2,0.4,0.6c0,0.3,0,0.6,0,2.1v1.8
				c0,0.9,0,1.7,0,2.1c0,0.3-0.1,0.5-0.3,0.6c-0.1,0-0.2,0-0.4,0c-0.1,0-0.2,0-0.2,0.1c0,0.1,0.1,0.1,0.2,0.1c0.4,0,1,0,1.2,0
				c0.1,0,0.9,0,1.5,0c0.1,0,0.2,0,0.2-0.1c0-0.1,0-0.1-0.1-0.1c-0.1,0-0.3,0-0.5,0c-0.3,0-0.4-0.3-0.4-0.6c0-0.4,0-1.2,0-2.2v-0.1
				c0-0.1,0-0.1,0.1-0.1l0.9,0c0.1,0,0.1,0,0.2,0.1c0.1,0.2,0.6,0.8,1,1.4c0.6,0.8,0.9,1.2,1.4,1.5c0.3,0.1,0.5,0.2,1.1,0.2h0.9
				c0.1,0,0.2,0,0.2-0.1c0-0.1,0-0.1-0.1-0.1c-0.1,0-0.2,0-0.3,0c-0.1,0-0.6-0.1-1.1-0.7c-0.6-0.6-1.3-1.5-2.2-2.6
				c1-0.8,1.3-1.5,1.3-2.3c0-0.7-0.4-1.2-0.7-1.4c-0.5-0.4-1.2-0.4-1.8-0.4c-0.3,0-1.1,0-1.4,0c-0.2,0-0.8,0-1.4,0
				c-0.1,0-0.2,0-0.2,0.1C104.7,10.8,104.7,10.8,104.8,10.8z M106.8,11.3c0-0.1,0-0.1,0.1-0.1c0.1,0,0.3,0,0.5,0
				c0.6,0,1.5,0.4,1.5,1.8c0,0.8-0.3,1.3-0.6,1.5c-0.2,0.1-0.3,0.2-0.7,0.2c-0.2,0-0.5,0-0.8-0.1c-0.1,0-0.1-0.1-0.1-0.2V11.3z
				 M112.3,21.3c0,0.1,0.1,0.1,0.2,0.1c0.1,0,0.3,0,0.4,0c0.3,0.1,0.4,0.2,0.4,0.6c0,0.3,0,0.6,0,2.1v1.5c0,1.5,0.4,2.2,0.9,2.7
				c0.7,0.7,1.7,0.7,2.2,0.7c0.6,0,1.4-0.1,2.1-0.7c0.8-0.7,0.9-1.9,0.9-3v-1.1c0-1.5,0-1.8,0-2.1c0-0.4,0.1-0.5,0.4-0.6
				c0.1,0,0.2,0,0.3,0c0.1,0,0.2,0,0.2-0.1c0-0.1-0.1-0.1-0.2-0.1c-0.4,0-1,0-1.1,0c0,0-0.6,0-1.1,0c-0.1,0-0.2,0-0.2,0.1
				c0,0.1,0.1,0.1,0.2,0.1c0.1,0,0.3,0,0.4,0c0.3,0.1,0.4,0.2,0.4,0.6c0,0.3,0,0.6,0,2.1v1.3c0,1,0,1.9-0.6,2.5
				c-0.4,0.4-0.9,0.5-1.4,0.5c-0.3,0-0.8,0-1.2-0.4c-0.5-0.4-0.8-1-0.8-2.5v-1.4c0-1.5,0-1.8,0-2.1c0-0.4,0.1-0.5,0.4-0.6
				c0.1,0,0.2,0,0.3,0c0.1,0,0.2,0,0.2-0.1c0-0.1-0.1-0.1-0.2-0.1c-0.4,0-1,0-1.2,0c-0.3,0-0.9,0-1.5,0
				C112.4,21.2,112.3,21.2,112.3,21.3z M115.7,18.3c0.5,0,1.1,0,1.2,0c0.3,0,0.7,0,1.1,0c0.1,0,0.2,0,0.2-0.1c0-0.1,0-0.1-0.1-0.1
				h-0.1c-0.3,0-0.4-0.1-0.4-0.3c0-0.1,0-0.4,0.1-0.6l0.5-1.4c0-0.1,0-0.1,0.1-0.1h2.2c0,0,0.1,0,0.1,0.1l0.8,2.1
				c0,0.1,0,0.2-0.1,0.2c-0.1,0-0.1,0-0.1,0.1c0,0.1,0.1,0.1,0.3,0.1c0.8,0,1.5,0,1.9,0c0.4,0,0.5,0,0.5-0.1c0-0.1,0-0.1-0.1-0.1
				c-0.1,0-0.3,0-0.4,0c-0.2-0.1-0.5-0.2-0.9-1.1c-0.6-1.5-2.2-5.6-2.5-6.1c-0.1-0.2-0.2-0.3-0.2-0.3c-0.1,0-0.2,0.1-0.3,0.4
				l-2.5,6.2c-0.2,0.5-0.4,0.8-0.8,0.9c-0.1,0-0.2,0-0.3,0c-0.1,0-0.1,0-0.1,0.1C115.5,18.2,115.6,18.3,115.7,18.3z M119.3,12.7
				C119.3,12.6,119.3,12.6,119.3,12.7c0.1-0.1,0.1,0,0.1,0l0.9,2.5c0,0,0,0.1,0,0.1h-1.8c0,0,0,0,0-0.1L119.3,12.7z M164.2,28.4
				c-0.6,0-1.2-0.3-1.4-1c0-0.2-0.1-0.4-0.1-0.5c0-0.1,0-0.2-0.1-0.2c-0.1,0-0.1,0.1-0.1,0.3c0,0.2,0,0.8,0,1.3c0,0.2,0,0.3,0.2,0.3
				c0.4,0.2,0.9,0.3,1.5,0.3c0.5,0,1.1-0.1,1.6-0.4c0.7-0.5,0.9-1.2,0.9-1.8c0-1-0.4-1.6-1.6-2.6l-0.3-0.2c-0.8-0.6-1.1-1-1.1-1.4
				c0-0.6,0.4-1,1.2-1c0.6,0,0.9,0.3,1.1,0.5c0.2,0.3,0.3,0.6,0.3,0.7c0,0.1,0,0.2,0.1,0.2c0.1,0,0.1-0.1,0.1-0.3c0-0.8,0-1.1,0-1.2
				c0-0.1,0-0.1-0.1-0.1c-0.3-0.1-0.7-0.2-1.3-0.2c-1.4,0-2.3,0.8-2.3,1.9c0,0.8,0.4,1.5,1.5,2.4l0.5,0.4c0.8,0.7,1,1.1,1,1.6
				C165.5,27.8,165.1,28.4,164.2,28.4z M155.3,28.7c0.4,0.2,0.9,0.3,1.5,0.3c0.5,0,1.1-0.1,1.6-0.4c0.7-0.5,0.9-1.2,0.9-1.8
				c0-1-0.4-1.6-1.6-2.6l-0.3-0.2c-0.8-0.6-1.1-1-1.1-1.4c0-0.6,0.4-1,1.2-1c0.6,0,0.9,0.3,1.1,0.5c0.2,0.3,0.3,0.6,0.3,0.7
				c0,0.1,0,0.2,0.1,0.2c0.1,0,0.1-0.1,0.1-0.3c0-0.8,0-1.1,0-1.2c0-0.1,0-0.1-0.1-0.1c-0.3-0.1-0.7-0.2-1.3-0.2
				c-1.4,0-2.3,0.8-2.3,1.9c0,0.8,0.4,1.5,1.5,2.4l0.5,0.4c0.8,0.7,1,1.1,1,1.6c0,0.5-0.4,1.1-1.3,1.1c-0.6,0-1.2-0.3-1.4-1
				c0-0.2-0.1-0.4-0.1-0.5c0-0.1,0-0.2-0.1-0.2c-0.1,0-0.1,0.1-0.1,0.3c0,0.2,0,0.8,0,1.3C155.1,28.5,155.1,28.6,155.3,28.7z
				 M92.6,12c0.1,0,0.1,0,0.1-0.1c0-0.1,0.1-0.2,0.2-0.4c0.1-0.2,0.4-0.3,1-0.3l1.5,0v4.1c0,0.9,0,1.7,0,2.1c0,0.3-0.1,0.5-0.3,0.6
				c-0.1,0-0.2,0-0.4,0c-0.1,0-0.2,0-0.2,0.1c0,0.1,0.1,0.1,0.2,0.1c0.4,0,1,0,1.3,0c0.3,0,0.9,0,1.6,0c0.1,0,0.2,0,0.2-0.1
				c0-0.1,0-0.1-0.2-0.1c-0.1,0-0.4,0-0.5,0c-0.3,0-0.4-0.3-0.4-0.5c0-0.4,0-1.2,0-2.2v-4.1l1.3,0c0.9,0,1.2,0.3,1.2,0.6l0,0.1
				c0,0.2,0,0.2,0.1,0.2c0.1,0,0.1-0.1,0.1-0.2c0-0.3,0-1,0-1.2c0-0.2,0-0.2-0.1-0.2c0,0-0.1,0-0.3,0.1c-0.1,0-0.4,0.1-0.7,0.1h-3.9
				c-0.3,0-0.7,0-1-0.1c-0.2,0-0.3-0.1-0.4-0.1c-0.1,0-0.1,0.1-0.1,0.2c0,0.1-0.2,1-0.2,1.2C92.5,12,92.5,12,92.6,12z M166.9,61.2
				v-3.4c0-0.7,0-1.4,0-1.6c0-0.1,0-0.2-0.1-0.2c-0.1,0-0.2,0.1-0.3,0.2c-0.1,0.1-4,5.3-4,5.4c0,0.1-0.1,0.1-0.1,0.3
				c0,0.1,0.1,0.2,0.3,0.2h3.2c0,0.3,0,0.8,0,1.3c0,0.3-0.1,0.6-0.5,0.6c-0.2,0-0.4,0-0.5,0c-0.1,0-0.1,0-0.1,0.1
				c0,0.1,0.1,0.1,0.2,0.1c0.6,0,1.1,0,1.4,0c0.2,0,0.9,0,1.5,0c0.1,0,0.2,0,0.2-0.1c0-0.1,0-0.1-0.1-0.1c-0.1,0-0.3,0-0.5,0
				c-0.3-0.1-0.4-0.3-0.4-0.6c0-0.5,0-0.9,0-1.3h0.9c0.2,0,0.2,0,0.3-0.1c0.1-0.1,0.2-0.6,0.2-0.7c0-0.1,0-0.1-0.1-0.1
				c-0.1,0-0.2,0.1-0.5,0.1H166.9z M165.8,61.2h-2.3c0.4-0.5,2.1-2.9,2.3-3.3h0V61.2z M147.1,18.3c0.5,0,1.1,0,1.2,0
				c0.3,0,0.7,0,1.1,0c0.1,0,0.2,0,0.2-0.1c0-0.1,0-0.1-0.1-0.1h-0.1c-0.3,0-0.4-0.1-0.4-0.3c0-0.1,0-0.4,0.1-0.6l0.5-1.4
				c0-0.1,0-0.1,0.1-0.1h2.2c0,0,0.1,0,0.1,0.1l0.8,2.1c0,0.1,0,0.2-0.1,0.2c-0.1,0-0.1,0-0.1,0.1c0,0.1,0.1,0.1,0.3,0.1
				c0.8,0,1.5,0,1.9,0c0.4,0,0.5,0,0.5-0.1c0-0.1,0-0.1-0.1-0.1c-0.1,0-0.3,0-0.4,0c-0.2-0.1-0.5-0.2-0.9-1.1
				c-0.6-1.5-2.2-5.6-2.5-6.1c-0.1-0.2-0.2-0.3-0.2-0.3c-0.1,0-0.2,0.1-0.3,0.4l-2.5,6.2c-0.2,0.5-0.4,0.8-0.8,0.9
				c-0.1,0-0.2,0-0.3,0c-0.1,0-0.1,0-0.1,0.1C146.9,18.2,146.9,18.3,147.1,18.3z M150.6,12.7C150.6,12.6,150.6,12.6,150.6,12.7
				c0.1-0.1,0.1,0,0.1,0l0.9,2.5c0,0,0,0.1,0,0.1h-1.8c0,0,0,0,0-0.1L150.6,12.7z M104.3,21.3c0.1,0,0.3,0,0.4,0
				c0.3,0.1,0.4,0.2,0.4,0.6c0,0.3,0,0.6,0,2.1v1.8c0,0.9,0,1.7,0,2.1c0,0.3-0.1,0.5-0.3,0.6c-0.1,0-0.2,0-0.4,0
				c-0.1,0-0.2,0-0.2,0.1c0,0.1,0.1,0.1,0.2,0.1c0.2,0,0.5,0,0.7,0c0.2,0,0.5,0,0.6,0c0.1,0,0.4,0,0.7,0c0.3,0,0.6,0,0.7,0
				c1.8,0,2.7-1.1,2.7-2.2c0-1.2-1-1.9-1.8-2.2c0.5-0.4,1-0.9,1-1.8c0-0.5-0.3-1.5-2.1-1.5c-0.3,0-0.7,0-1.2,0c-0.2,0-0.8,0-1.4,0
				c-0.1,0-0.2,0-0.2,0.1C104.2,21.3,104.2,21.3,104.3,21.3z M106.3,21.8c0-0.1,0-0.2,0.1-0.2c0.1,0,0.2,0,0.3,0
				c0.9,0,1.2,0.9,1.2,1.6c0,0.5-0.1,0.9-0.4,1.1c-0.2,0.2-0.4,0.2-0.7,0.2c-0.2,0-0.4,0-0.5,0c0,0-0.1,0-0.1-0.1V21.8z M106.3,24.9
				C106.3,24.8,106.4,24.8,106.3,24.9c0.2-0.1,0.3-0.1,0.5-0.1c0.4,0,0.6,0.1,0.8,0.2c0.8,0.5,1,1.4,1,2c0,1-0.8,1.3-1.2,1.3
				c-0.2,0-0.5,0-0.7-0.1c-0.3-0.1-0.3-0.3-0.3-1V24.9z M92.3,21.3c0.1,0,0.2,0,0.3,0c0.3,0.1,0.4,0.2,0.4,0.6c0,0.3,0,0.6,0,2.1
				v1.8c0,0.9,0,1.7,0,2.1c0,0.3-0.1,0.5-0.3,0.6c-0.1,0-0.2,0-0.4,0c-0.1,0-0.2,0-0.2,0.1c0,0.1,0.1,0.1,0.2,0.1c0.2,0,0.5,0,0.7,0
				c0.2,0,0.5,0,0.6,0c0.4,0,0.8,0,1.2,0c0.4,0,1,0,1.7,0c0.5,0,0.6-0.1,0.6-0.3c0.1-0.3,0.1-1,0.1-1.2c0-0.1,0-0.2-0.1-0.2
				c-0.1,0-0.1,0.1-0.1,0.2c0,0.2-0.1,0.5-0.3,0.6c-0.2,0.3-0.6,0.3-1.2,0.3c-0.8,0-1-0.1-1.2-0.2c-0.2-0.2-0.2-0.9-0.2-2.2v-1.8
				c0-1.5,0-1.8,0-2.1c0-0.4,0.1-0.5,0.4-0.6c0.1,0,0.3,0,0.4,0c0.1,0,0.2,0,0.2-0.1c0-0.1-0.1-0.1-0.2-0.1c-0.4,0-1.1,0-1.4,0
				c-0.3,0-0.9,0-1.4,0c-0.1,0-0.2,0-0.2,0.1C92.2,21.3,92.2,21.3,92.3,21.3z M149.9,70.2h-1.1v6h0.6c0.9,0,1.6-0.1,2.1-0.3
				c0.5-0.2,0.8-0.5,1.1-0.9c0.3-0.5,0.4-1,0.4-1.8c0-1.1-0.2-1.8-0.7-2.3C151.8,70.5,151,70.2,149.9,70.2z M136.1,28.8
				c0.5,0,1,0,1.1,0c0.2,0,0.6,0,1.2,0c0.1,0,0.2,0,0.2-0.1c0-0.1-0.1-0.1-0.2-0.1c-0.2,0-0.3,0-0.5-0.1c-0.2-0.1-0.3-0.3-0.3-1.1
				l-0.1-4.2h0c0.2,0.2,1.3,1.4,2.4,2.5c1,1,2.3,2.4,2.9,3c0.1,0.1,0.2,0.2,0.3,0.2c0.1,0,0.1-0.1,0.1-0.3l0.1-6.3
				c0-0.6,0.1-0.8,0.4-0.9c0.1,0,0.2,0,0.3,0c0.1,0,0.2,0,0.2-0.1c0-0.1-0.1-0.1-0.2-0.1c-0.5,0-0.9,0-1,0c-0.2,0-0.7,0-1.2,0
				c-0.1,0-0.3,0-0.3,0.1c0,0.1,0,0.1,0.2,0.1c0.1,0,0.4,0,0.5,0.1c0.2,0.1,0.3,0.3,0.3,0.9l0.1,4.5h0c-0.2-0.2-1.5-1.6-2.2-2.3
				c-1.5-1.5-3-3.1-3.1-3.2c-0.2-0.2-0.3-0.3-0.4-0.3c-0.1,0-0.1,0.1-0.1,0.3l-0.1,5.9c0,0.9,0,1.2-0.3,1.2c-0.1,0-0.3,0.1-0.4,0.1
				c-0.1,0-0.2,0-0.2,0.1C135.9,28.8,136,28.8,136.1,28.8z M148,28c0,0.3-0.1,0.5-0.3,0.6c-0.1,0-0.2,0-0.4,0c-0.1,0-0.2,0-0.2,0.1
				c0,0.1,0.1,0.1,0.2,0.1c0.2,0,0.5,0,0.7,0c0.2,0,0.5,0,0.6,0c0.3,0,0.6,0,1,0c0.4,0,1,0,1.7,0c0.4,0,0.5,0,0.5-0.3
				c0-0.2,0.1-0.9,0.1-1.1c0-0.1,0-0.2-0.1-0.2c-0.1,0-0.1,0-0.1,0.2c-0.1,0.4-0.2,0.6-0.4,0.7c-0.3,0.1-0.7,0.1-0.9,0.1
				c-1,0-1.2-0.2-1.2-0.8c0-0.3,0-1.2,0-1.6v-0.8c0-0.1,0-0.1,0.1-0.1c0.2,0,1.2,0,1.4,0c0.4,0,0.5,0.2,0.6,0.4c0,0.1,0,0.3,0,0.4
				c0,0.1,0,0.1,0.1,0.1c0.1,0,0.1-0.1,0.1-0.2c0-0.1,0-0.5,0-0.7c0-0.5,0.1-0.7,0.1-0.7c0-0.1,0-0.1-0.1-0.1c0,0-0.1,0.1-0.2,0.1
				c-0.1,0.1-0.2,0.1-0.5,0.2c-0.2,0-1.4,0-1.6,0c-0.1,0-0.1,0-0.1-0.1v-2.5c0-0.1,0-0.1,0.1-0.1c0.2,0,1.2,0,1.4,0
				c0.5,0.1,0.6,0.2,0.7,0.4c0,0.1,0.1,0.3,0.1,0.4c0,0.1,0,0.1,0.1,0.1s0.1-0.1,0.1-0.1c0-0.1,0-0.6,0-0.7c0-0.5,0.1-0.6,0.1-0.7
				c0-0.1,0-0.1-0.1-0.1c0,0-0.1,0-0.2,0c-0.1,0-0.2,0-0.4,0.1c-0.2,0-2.2,0-2.5,0c-0.1,0-0.4,0-0.6,0c-0.2,0-0.5,0-0.8,0
				c-0.1,0-0.2,0-0.2,0.1c0,0.1,0.1,0.1,0.2,0.1c0.1,0,0.3,0,0.4,0c0.3,0.1,0.4,0.2,0.4,0.6c0,0.3,0,0.6,0,2.1v1.8
				C148,26.8,148,27.6,148,28z M139.3,10.8c0.1,0,0.2,0,0.4,0c0.2,0.1,0.3,0.2,0.3,0.6c0,0.3,0,0.6,0,2.1v1.8c0,1,0,1.8,0,2.2
				c0,0.3-0.1,0.5-0.3,0.5c-0.1,0-0.2,0-0.4,0c-0.1,0-0.2,0-0.2,0.1c0,0.1,0.1,0.1,0.2,0.1c0.4,0,1,0,1.3,0c0.3,0,0.9,0,1.6,0
				c0.1,0,0.2,0,0.2-0.1c0-0.1,0-0.1-0.2-0.1c-0.1,0-0.4,0-0.5,0c-0.3,0-0.4-0.2-0.4-0.5c0-0.4,0-1.2,0-2.2v-1.8c0-1.5,0-1.8,0-2.1
				c0-0.4,0.1-0.5,0.4-0.6c0.1,0,0.2,0,0.3,0c0.1,0,0.2,0,0.2-0.1c0-0.1-0.1-0.1-0.2-0.1c-0.4,0-1,0-1.2,0c-0.3,0-0.9,0-1.3,0
				c-0.2,0-0.2,0-0.2,0.1C139.1,10.8,139.2,10.8,139.3,10.8z M124.7,25.3l0.5,0.4c0.8,0.7,1,1.1,1,1.6c0,0.5-0.4,1.1-1.3,1.1
				c-0.6,0-1.2-0.3-1.4-1c0-0.2-0.1-0.4-0.1-0.5c0-0.1,0-0.2-0.1-0.2c-0.1,0-0.1,0.1-0.1,0.3c0,0.2,0,0.8,0,1.3c0,0.2,0,0.3,0.2,0.3
				c0.4,0.2,0.9,0.3,1.5,0.3c0.5,0,1.1-0.1,1.6-0.4c0.7-0.5,0.9-1.2,0.9-1.8c0-1-0.4-1.6-1.6-2.6l-0.3-0.2c-0.8-0.6-1.1-1-1.1-1.4
				c0-0.6,0.4-1,1.2-1c0.6,0,0.9,0.3,1.1,0.5c0.2,0.3,0.3,0.6,0.3,0.7c0,0.1,0,0.2,0.1,0.2c0.1,0,0.1-0.1,0.1-0.3c0-0.8,0-1.1,0-1.2
				c0-0.1,0-0.1-0.1-0.1c-0.3-0.1-0.7-0.2-1.3-0.2c-1.4,0-2.3,0.8-2.3,1.9C123.2,23.7,123.6,24.4,124.7,25.3z M57.1,67.6V85h111.4
				V67.6H57.1z M88.4,69.9c-0.3,0-0.5,0.1-0.6,0.2c-0.2,0.1-0.3,0.3-0.5,0.6c0,0.1-0.3,0.6-0.6,1.6l-4.3,11.4H82l-3.4-8.9l-3.7,8.9
				h-0.4L70,72.4c-0.5-1.1-0.8-1.8-1-2.1c-0.2-0.2-0.5-0.4-0.9-0.4v-0.4h5.9v0.4c-0.5,0-0.8,0.1-0.9,0.2c-0.2,0.1-0.2,0.3-0.2,0.5
				c0,0.3,0.2,0.8,0.5,1.6l2.7,6.7l2.1-5.2l-0.6-1.5c-0.3-0.8-0.5-1.3-0.7-1.6c-0.2-0.3-0.4-0.5-0.6-0.6c-0.2-0.1-0.5-0.2-1-0.2
				v-0.4H82v0.4c-0.5,0-0.8,0-1,0.1c-0.1,0-0.3,0.1-0.3,0.2c-0.1,0.1-0.1,0.2-0.1,0.4c0,0.2,0.2,0.6,0.5,1.4l2.5,6.5l2.2-5.9
				c0.2-0.6,0.4-1,0.4-1.2c0.1-0.2,0.1-0.4,0.1-0.6c0-0.3-0.1-0.5-0.3-0.7c-0.2-0.2-0.5-0.2-1.1-0.3v-0.4h3.5V69.9z M97,69.9h-0.5
				c-0.4,0-0.7,0.1-1,0.2c-0.2,0.1-0.3,0.3-0.4,0.5c-0.1,0.2-0.1,0.6-0.1,1.3v9.1c0,0.7,0,1.1,0.1,1.3c0.1,0.2,0.2,0.3,0.5,0.5
				c0.2,0.1,0.5,0.2,0.9,0.2H97v0.4h-7.1v-0.4h0.5c0.4,0,0.7-0.1,1-0.2c0.2-0.1,0.3-0.3,0.4-0.5c0.1-0.2,0.1-0.6,0.1-1.3v-9.1
				c0-0.7,0-1.1-0.1-1.3c-0.1-0.2-0.2-0.3-0.4-0.5c-0.2-0.1-0.5-0.2-0.9-0.2h-0.5v-0.4H97V69.9z M112.6,69.9c-0.6,0.1-1,0.2-1.2,0.3
				c-0.2,0.1-0.4,0.3-0.5,0.6c-0.1,0.3-0.2,0.7-0.2,1.4v11.5h-0.3l-9.2-11.5v8.8c0,0.8,0.2,1.3,0.5,1.6c0.4,0.3,0.8,0.4,1.2,0.4h0.3
				v0.4h-4.8v-0.4c0.7,0,1.3-0.2,1.6-0.5c0.3-0.3,0.4-0.8,0.4-1.6v-9.7l-0.3-0.4c-0.3-0.4-0.5-0.6-0.8-0.7c-0.2-0.1-0.5-0.2-1-0.2
				v-0.4h4.8l6.7,8.5v-5.9c0-0.8-0.1-1.4-0.4-1.7c-0.3-0.4-0.9-0.6-1.6-0.6v-0.4h4.5V69.9z M128.3,69.9c-0.6,0.1-1,0.2-1.2,0.3
				c-0.2,0.1-0.4,0.3-0.5,0.6c-0.1,0.3-0.2,0.7-0.2,1.4v11.5h-0.3l-9.2-11.5v8.8c0,0.8,0.2,1.3,0.5,1.6c0.4,0.3,0.8,0.4,1.2,0.4h0.3
				v0.4h-4.8v-0.4c0.7,0,1.3-0.2,1.6-0.5c0.3-0.3,0.4-0.8,0.4-1.6v-9.7l-0.3-0.4c-0.3-0.4-0.5-0.6-0.8-0.7c-0.2-0.1-0.5-0.2-1-0.2
				v-0.4h4.8l6.7,8.5v-5.9c0-0.8-0.1-1.4-0.4-1.7c-0.3-0.4-0.9-0.6-1.6-0.6v-0.4h4.5V69.9z M141.6,83.3h-11.8v-0.4h0.5
				c0.4,0,0.7-0.1,1-0.2c0.2-0.1,0.3-0.3,0.4-0.5c0.1-0.2,0.1-0.6,0.1-1.3v-9.1c0-0.6,0-1-0.1-1.1c-0.1-0.2-0.2-0.4-0.4-0.5
				c-0.3-0.2-0.6-0.3-1-0.3h-0.5v-0.4h11.4v4.1h-0.4c-0.2-1-0.5-1.7-0.8-2.1c-0.4-0.4-0.8-0.8-1.5-1c-0.4-0.1-1.1-0.2-2.1-0.2h-1.4
				v5.6h0.3c0.9,0,1.5-0.3,1.9-0.8c0.4-0.5,0.6-1.4,0.7-2.4h0.4v7.2H138c-0.1-0.8-0.2-1.4-0.5-1.9c-0.3-0.5-0.6-0.8-0.9-1
				c-0.3-0.2-0.8-0.3-1.5-0.3v3.9c0,0.8,0,1.2,0.1,1.4c0.1,0.2,0.2,0.3,0.4,0.4c0.2,0.1,0.5,0.2,0.8,0.2h0.8c1.3,0,2.3-0.3,3.1-0.9
				c0.8-0.6,1.3-1.5,1.7-2.7h0.4L141.6,83.3z M158.4,83.3h-4.3l-4.4-6.3h-0.9v3.9c0,0.7,0,1.2,0.1,1.4c0.1,0.2,0.2,0.3,0.5,0.5
				c0.2,0.1,0.7,0.2,1.3,0.2v0.4h-7v-0.4c0.6,0,1.1-0.1,1.3-0.2c0.2-0.1,0.4-0.3,0.5-0.5c0.1-0.2,0.1-0.7,0.1-1.4v-8.9
				c0-0.7,0-1.2-0.1-1.4c-0.1-0.2-0.2-0.3-0.5-0.5c-0.2-0.1-0.7-0.2-1.3-0.2v-0.4h6.3c1.6,0,2.9,0.1,3.6,0.3
				c0.8,0.2,1.4,0.7,1.9,1.3c0.5,0.6,0.7,1.3,0.7,2.2c0,1-0.4,1.9-1.1,2.5c-0.5,0.4-1.1,0.7-1.9,0.9l3.3,4.7c0.4,0.6,0.7,1,0.9,1.1
				c0.3,0.2,0.6,0.3,1,0.3V83.3z M128.6,10.8c0.1,0,0.2,0,0.3,0c0.3,0.1,0.4,0.2,0.4,0.6c0,0.3,0,0.6,0,2.1v1.8c0,0.9,0,1.7,0,2.1
				c0,0.3-0.1,0.5-0.3,0.6c-0.1,0-0.2,0-0.4,0c-0.1,0-0.2,0-0.2,0.1c0,0.1,0.1,0.1,0.2,0.1c0.2,0,0.5,0,0.7,0c0.2,0,0.5,0,0.6,0
				c0.4,0,0.8,0,1.2,0c0.4,0,1,0,1.7,0c0.5,0,0.6-0.1,0.6-0.3c0.1-0.3,0.1-1,0.1-1.2c0-0.1,0-0.2-0.1-0.2c-0.1,0-0.1,0.1-0.1,0.2
				c0,0.2-0.1,0.5-0.3,0.6c-0.2,0.3-0.6,0.3-1.2,0.3c-0.8,0-1-0.1-1.2-0.2c-0.2-0.2-0.2-0.9-0.2-2.2v-1.8c0-1.5,0-1.8,0-2.1
				c0-0.4,0.1-0.5,0.4-0.6c0.1,0,0.3,0,0.4,0c0.1,0,0.2,0,0.2-0.1c0-0.1-0.1-0.1-0.2-0.1c-0.4,0-1.1,0-1.4,0c-0.3,0-0.9,0-1.4,0
				c-0.1,0-0.2,0-0.2,0.1C128.4,10.8,128.5,10.8,128.6,10.8z M131,28c0,0.3-0.1,0.5-0.3,0.5c-0.1,0-0.2,0-0.4,0
				c-0.1,0-0.2,0-0.2,0.1c0,0.1,0.1,0.1,0.2,0.1c0.4,0,1,0,1.3,0c0.3,0,0.9,0,1.6,0c0.1,0,0.2,0,0.2-0.1c0-0.1,0-0.1-0.2-0.1
				c-0.1,0-0.4,0-0.5,0c-0.3,0-0.4-0.2-0.4-0.5c0-0.4,0-1.2,0-2.2v-1.8c0-1.5,0-1.8,0-2.1c0-0.4,0.1-0.5,0.4-0.6c0.1,0,0.2,0,0.3,0
				c0.1,0,0.2,0,0.2-0.1c0-0.1-0.1-0.1-0.2-0.1c-0.4,0-1,0-1.2,0c-0.3,0-0.9,0-1.3,0c-0.2,0-0.2,0-0.2,0.1c0,0.1,0.1,0.1,0.2,0.1
				c0.1,0,0.2,0,0.4,0c0.2,0.1,0.3,0.2,0.3,0.6c0,0.3,0,0.6,0,2.1v1.8C131,26.8,131,27.6,131,28z M95.7,60.8l0.9,0
				c0.1,0,0.1,0,0.2,0.1c0.1,0.2,0.6,0.9,1,1.5c0.6,0.8,1,1.3,1.4,1.5c0.3,0.1,0.5,0.2,1.1,0.2h1c0.1,0,0.2,0,0.2-0.1
				c0-0.1,0-0.1-0.1-0.1c-0.1,0-0.2,0-0.3,0c-0.2,0-0.6-0.1-1.2-0.7c-0.6-0.7-1.3-1.6-2.3-2.8c1-0.9,1.4-1.6,1.4-2.4
				c0-0.7-0.4-1.2-0.7-1.4c-0.6-0.4-1.3-0.5-1.9-0.5c-0.3,0-1.1,0-1.5,0c-0.2,0-0.9,0-1.4,0c-0.2,0-0.2,0-0.2,0.1
				c0,0.1,0.1,0.1,0.2,0.1c0.1,0,0.3,0,0.4,0c0.3,0.1,0.4,0.2,0.4,0.6c0,0.3,0,0.6,0,2.2v1.9c0,1,0,1.8-0.1,2.2
				c0,0.3-0.1,0.5-0.3,0.6c-0.1,0-0.2,0-0.4,0c-0.1,0-0.2,0-0.2,0.1c0,0.1,0.1,0.1,0.2,0.1c0.4,0,1.1,0,1.3,0c0.2,0,0.9,0,1.5,0
				c0.1,0,0.2,0,0.2-0.1c0-0.1,0-0.1-0.1-0.1c-0.1,0-0.4,0-0.5,0c-0.3,0-0.4-0.3-0.4-0.6c-0.1-0.4-0.1-1.3-0.1-2.3L95.7,60.8
				C95.7,60.8,95.7,60.8,95.7,60.8z M95.7,56.8c0-0.1,0-0.1,0.1-0.1c0.1,0,0.3,0,0.6,0c0.6,0,1.6,0.4,1.6,1.9c0,0.9-0.3,1.3-0.6,1.6
				c-0.2,0.1-0.3,0.2-0.7,0.2c-0.3,0-0.6,0-0.8-0.1c-0.1,0-0.1-0.1-0.1-0.2V56.8z M167.8,53.1H56.7v0.5h111.2V53.1z M62.5,37.4
				c0.7-0.5,1.4-0.7,2.2-0.7c1,0,1.8,0.3,2.6,0.9c0.8,0.6,1.3,1.5,1.5,2.7h0.4v-4.5h-0.4c0,0.3-0.1,0.6-0.3,0.7
				c-0.1,0.1-0.3,0.2-0.5,0.2c-0.2,0-0.5-0.1-1.1-0.3c-1-0.4-1.9-0.6-2.8-0.6c-1.2,0-2.4,0.3-3.4,0.9c-1.1,0.6-1.9,1.5-2.6,2.6
				c-0.6,1.1-1,2.3-1,3.5c0,1.2,0.3,2.3,0.9,3.3c0.6,1,1.4,1.8,2.4,2.4c1.1,0.6,2.3,0.8,3.6,0.8c1,0,1.9-0.2,2.7-0.5
				c0.8-0.3,1.5-0.9,2.2-1.6V46c-0.7,0.9-1.4,1.5-2.1,1.8c-0.7,0.4-1.4,0.5-2.2,0.5c-1,0-1.8-0.2-2.4-0.7c-0.6-0.5-1.1-1.2-1.4-2.1
				c-0.3-0.9-0.4-2-0.4-3.1c0-1.2,0.2-2.2,0.6-3.2C61.3,38.4,61.8,37.8,62.5,37.4z M47.5,57.8c0,0,0.6,0.3,1.2,1
				c0.5,0.6,1,1.7,1,1.7s-1-6.1-2.1-9.5c-0.6-1.8-0.7-3.1-0.7-4.3c0-1.3,0.3-4.3-0.2-6.9c-0.5-2.6-1.6-5.3-1.6-6.6
				c0-1.3,0.4-3.2,1-4.2c0.6-1.1,1.1-2,1.1-2.2c0.1-0.5-0.6-1.8-0.6-1.8s2.4-2.5,2.3-5.9c-0.1-1.4-0.8-5.4-2.5-8.1
				C44,6.8,40.1,4,37,2.3C34.5,1,30.3-0.2,25.7,0.5c-4.1,0.7-6.5,3.3-6.7,5.1c-0.3,3.4,1.6,8.1,9.9,13c1.8,1.1,5.9,1.9,8.6,1.3
				c2.6-0.6,4-2.7,4-2.7s0.1-0.4,0-0.5c-0.1,0-3.5,0.1-4.3,0.2c-0.8,0.1-1.6,0.8-1.9,0.9c-0.3,0.2-0.9,0.1-1.2,0
				c-0.2,0-3.1-0.9-6-3.5c-2.5-2.3-3.6-4.5-3.8-5.7c-0.5-2.6,0.5-4.9,3.2-5c2.8-0.2,7.6-0.1,13.3,5.9c5.3,5.6,5.2,11.6,3.6,14.2
				c-1.8,2.9-6.3,3.9-13.7-0.2c-5.4-3-10.7-10.3-12.2-15.2c-1.3-4.4-2.5-10.7,2.3-13.9c2.7-1.8,7-1.1,10.4,0.8
				c3.3,1.9,5.3,4.4,5.5,5C37,1,37.8,1.4,38.1,1.5c0.3,0.1,4,1.4,4.2,1.5c0.2,0.1,0.6,0.1,0.8,0c0.2-0.1,1.4-1.4,1.5-1.5
				c0.1-0.1,0.1-0.2-0.1-0.3C44.3,1.1,38.8-4.3,32.3-8c-2.5-1.4-4.7-1.8-6.8-1.9c-2.2-0.2-6.1-0.3-9.6,1.1C11.3-6.9,8.6-3.2,8.5,1
				c-0.2,8,9,16.4,9,16.4s0.8-1.1,1-1.3c0.3-0.3,0.6-0.3,0.9-0.2c0.6,0.2,5.9,4.5,6.3,5.1c0.5,0.6,0.5,1,0.6,1.4
				c0,0.5,0.1,1.4,0.1,1.4s3.1,1.7,7,2.9c3.4,1,7.9,1.1,7.9,1.1s0.7,5,0.8,5.7c0.1,0.8,0.2,7.6,0.1,9.5c0,1.9,0.2,7.1,0.2,7.7
				c0.1,0.5,0.5,1.7,0.8,2.6c0.2,0.7,0,1.9,0,2.3c0,0.5-0.2,1.5-0.2,1.5s-1.5-1.1-1.7-2.2c-0.2-0.9,0.2-2,0.3-2.5s0.2-1.9,0.2-2.3
				c0-0.4-0.2-1.1-0.2-1.1s-0.8-0.2-1.4-0.2c-0.5,0-1,0.4-1.1,0.8c-0.2,0.5-0.4,1.1-1.4,1.7c-1.2,0.7-2.2,0.9-2.5,1.1
				c-0.1,0.1-0.1,0.1-0.1,0c0,0,0,0,0.1,0c0.3-0.2,1.1-0.7,2-1.3c0.8-0.6,1.1-1.2,1.3-1.5c0.1-0.2,0.2-0.7,0.9-1.1
				c0.6-0.4,1.8,0.1,1.8,0.1c-0.1-0.1-0.7-0.9-2.2-1.5c-1.2-0.6-2.7-0.8-3.5-0.9c-1.8-0.2-1.6-0.1-1.8,0c-0.9,0.4-2.1,2-2.1,2
				s0.3,1.4,0.4,2c0.1,0.6,0,1.6,0.3,1.9c0.3,0.3,2,1.5,2.5,1.9c0.6,0.5,1.9,2.8,1.9,2.8s-1.8-1.9-2.3-2.3c-0.5-0.4-1.8-1.2-2.3-1.5
				c-0.8-0.6-0.8-1.8-0.8-2.8c-0.1-0.9-0.4-2.2-0.6-3.1c-0.2-0.9-1.5-3.7-2-4.8c-0.5-1.1-1.1-3.4-1.2-4.6c-0.2-1.2-0.6-3.8-1-5.3
				c-0.4-1.5-1-3.4-1-3.9c0-0.5,0.2-4.8,0.1-5.4c0-0.6-0.4-1.6-1.5-2.5c-0.7-0.6-4-3.5-4.5-3.7c-0.6-0.1-0.8-0.1-1,0.1
				c-0.2,0.2-0.9,1.2-1,1.8c-0.1,0.6-0.1,1.6,0.3,2.2c0.4,0.5,2.2,2.9,3.1,3.9c0.6,0.8,1.4,2.2,1.7,3.2c0.3,1,0.1,4.4,0.1,5.4
				c0,0.9,0,3.7,0.1,5.1c0.1,1.5,0.8,4.6,0.9,5.3c0.1,0.7,1.4,7.2,1.7,8.3c0.3,1.2,1,3.1,1.4,4s1.4,4.2,1.7,5.3c0.2,1,1.2,4,2.1,6.4
				c1,2.4,3.2,6.6,3.8,8.8c0.7,2.2,1.1,5.3,0.8,6.9C35,84.9,34.9,85,34.9,85h12.9c0,0-0.3-2.2,0.7-5.8c0.6-2.3,2.3-10.1,2.5-11.4
				c0.1-0.7,0.1-2.6-1-5.4C49.1,60,47.5,57.8,47.5,57.8z M87.3,63.9c-0.1,0-0.1,0-0.1,0.1c0,0.1,0.1,0.1,0.3,0.1c0.8,0,1.6,0,2,0
				c0.4,0,0.5,0,0.5-0.1c0-0.1-0.1-0.1-0.1-0.1c-0.1,0-0.3,0-0.4,0c-0.2-0.1-0.5-0.2-0.9-1.1c-0.7-1.6-2.3-5.8-2.6-6.4
				c-0.1-0.2-0.2-0.3-0.3-0.3c-0.1,0-0.2,0.1-0.3,0.4l-2.6,6.5c-0.2,0.5-0.4,0.9-0.9,0.9c-0.1,0-0.2,0-0.3,0c-0.1,0-0.1,0-0.1,0.1
				c0,0.1,0.1,0.1,0.2,0.1c0.5,0,1.1,0,1.2,0c0.3,0,0.8,0,1.1,0c0.1,0,0.2,0,0.2-0.1c0-0.1,0-0.1-0.2-0.1h-0.2
				c-0.3,0-0.4-0.1-0.4-0.3c0-0.1,0.1-0.4,0.2-0.6l0.6-1.4c0-0.1,0-0.1,0.1-0.1h2.3c0.1,0,0.1,0,0.1,0.1l0.8,2.2
				C87.4,63.8,87.4,63.9,87.3,63.9z M86.3,60.9h-1.9c0,0-0.1,0,0-0.1l1-2.6c0,0,0-0.1,0.1-0.1c0,0,0,0.1,0.1,0.1L86.3,60.9
				C86.3,60.9,86.3,60.9,86.3,60.9z M148.2,49.3c2.3,0,4-0.8,5.3-2.5c0.9-1.2,1.4-2.7,1.4-4.3c0-1.9-0.6-3.5-1.9-4.8
				c-1.3-1.3-2.9-1.9-4.9-1.8c-1.9-0.1-3.5,0.5-4.7,1.8c-1.3,1.3-1.9,2.9-1.9,4.8c0,1.7,0.5,3.2,1.5,4.4
				C144.1,48.5,145.9,49.3,148.2,49.3z M145.5,38.3c0.6-1.2,1.5-1.8,2.7-1.8c0.6,0,1.2,0.2,1.7,0.5c0.5,0.3,0.9,0.9,1.2,1.8
				c0.3,0.8,0.5,2.1,0.5,3.8c0,1.4-0.2,2.6-0.5,3.5c-0.3,0.9-0.7,1.5-1.3,1.9c-0.4,0.3-1,0.5-1.6,0.5c-1,0-1.7-0.4-2.2-1.1
				c-0.8-1.1-1.1-2.7-1.1-4.9C144.8,40.7,145,39.3,145.5,38.3z M143.3,60.4c0,1.5,0.6,3.9,2.6,3.9c1.8,0,2.8-1.8,2.8-4.4
				c0-1.7-0.6-3.9-2.6-3.9C144.1,56,143.3,57.9,143.3,60.4z M147.5,60.3c0,2-0.5,3.5-1.4,3.5c-1.1,0-1.6-2-1.6-3.8
				c0-2.4,0.6-3.5,1.3-3.5C147,56.5,147.5,58.5,147.5,60.3z M120,63.7c-0.6,0-1.3-0.3-1.5-1.1c-0.1-0.2-0.1-0.4-0.1-0.5
				c0-0.1,0-0.2-0.1-0.2c-0.1,0-0.1,0.1-0.1,0.3c0,0.2-0.1,0.8-0.1,1.4c0,0.2,0,0.3,0.2,0.4c0.4,0.2,0.9,0.3,1.5,0.3
				c0.6,0,1.1-0.1,1.7-0.4c0.7-0.5,1-1.2,1-1.8c0-1-0.4-1.7-1.7-2.7l-0.3-0.2c-0.9-0.7-1.1-1-1.1-1.5c0-0.6,0.5-1.1,1.2-1.1
				c0.7,0,1,0.3,1.1,0.5c0.2,0.3,0.3,0.6,0.3,0.7c0,0.1,0,0.2,0.1,0.2c0.1,0,0.1-0.1,0.1-0.3c0-0.8,0-1.1,0-1.3
				c0-0.1-0.1-0.1-0.1-0.1c-0.3-0.1-0.7-0.2-1.4-0.2c-1.4,0-2.4,0.8-2.4,2c0,0.9,0.4,1.6,1.5,2.5l0.5,0.4c0.9,0.7,1,1.2,1,1.7
				C121.3,63.1,120.9,63.7,120,63.7z M133.8,63.7c-0.1,0.1-0.2,0.2-0.2,0.3c0,0.1,0.1,0.1,0.1,0.1h4.1c0.7,0,0.8,0,0.9-0.3
				c0.1-0.4,0.3-1.3,0.3-1.5c0-0.1,0-0.2-0.1-0.2c-0.1,0-0.1,0-0.1,0.2c-0.1,0.5-0.5,0.9-1.2,0.9c-0.4,0.1-1.6,0.1-1.8,0.1h-0.7
				c-0.1,0-0.1,0,0-0.1c1.3-1.1,3.6-2.9,3.6-4.9c0-1.2-0.8-2.2-2.6-2.2c-0.9,0-1.5,0.2-1.9,0.4c-0.1,0.1-0.1,0.1-0.1,0.2
				c0,0.3,0.1,1.2,0.1,1.3c0,0.1,0,0.2,0.1,0.2c0.1,0,0.1-0.1,0.1-0.2c0-0.3,0.2-0.8,0.4-1c0.3-0.3,0.7-0.4,1.1-0.4
				c0.5,0,1.4,0.3,1.4,2C137.3,60.7,135.3,62.4,133.8,63.7z M137,48c-0.1,0.2-0.2,0.4-0.4,0.5c-0.2,0.1-0.5,0.2-0.9,0.2h-0.4V49h6.6
				v-0.4h-0.4c-0.4,0-0.6-0.1-0.8-0.2c-0.2-0.1-0.4-0.3-0.4-0.4c-0.1-0.2-0.1-0.6-0.1-1.2v-8.5c0-0.6,0-1,0.1-1.2
				c0.1-0.2,0.2-0.4,0.4-0.5c0.2-0.1,0.5-0.2,0.9-0.2h0.4v-0.4h-18v3.3c0-0.9-0.4-1.7-1.2-2.3c-0.8-0.7-2.1-1-3.9-1h-10.5l-3.5,8.5
				l-3.6-8.5h-5.2v0.4h0.4c0.4,0,0.6,0.1,0.9,0.2c0.2,0.1,0.4,0.3,0.4,0.4c0.1,0.2,0.1,0.6,0.1,1.2v8.1c0,0.6,0,0.9,0,1
				c-0.1,0.3-0.2,0.5-0.3,0.7c-0.1,0.2-0.3,0.3-0.6,0.4c-0.2,0.1-0.4,0.1-0.6,0.1c-0.4,0-0.6-0.1-0.8-0.3c-0.3-0.3-0.6-0.9-1.1-1.9
				L90,35.8h-0.2l-4.5,10.3c-0.4,1-0.8,1.6-1.1,1.9c-0.3,0.3-0.7,0.5-1.1,0.6h0c-0.4,0-0.6-0.1-0.9-0.2c-0.2-0.1-0.4-0.3-0.4-0.4
				c-0.1-0.2-0.1-0.6-0.1-1.2v-8.5c0-0.6,0-1,0.1-1.2c0.1-0.2,0.2-0.4,0.4-0.5c0.2-0.1,0.5-0.2,0.9-0.2h0.4v-0.4h-6.6v0.4h0.4
				c0.4,0,0.6,0.1,0.9,0.2c0.2,0.1,0.4,0.3,0.4,0.4c0.1,0.2,0.1,0.6,0.1,1.2V42H74v-3.6c0-0.6,0-1,0.1-1.2c0.1-0.2,0.2-0.4,0.4-0.5
				c0.2-0.1,0.5-0.2,0.9-0.2h0.4v-0.4h-6.6v0.4h0.4c0.4,0,0.6,0.1,0.8,0.2c0.2,0.1,0.3,0.3,0.4,0.4c0.1,0.2,0.1,0.6,0.1,1.2v8.5
				c0,0.6,0,1-0.1,1.2c-0.1,0.2-0.2,0.4-0.4,0.5c-0.2,0.1-0.5,0.2-0.9,0.2h-0.4V49h6.6v-0.4h-0.4c-0.4,0-0.6-0.1-0.8-0.2
				c-0.2-0.1-0.4-0.3-0.4-0.4c-0.1-0.2-0.1-0.6-0.1-1.2v-4h4.5v4c0,0.6,0,1-0.1,1.2c-0.1,0.2-0.2,0.4-0.4,0.5
				c-0.2,0.1-0.5,0.2-0.9,0.2h-0.4V49h10.5v-0.4c-0.7-0.1-1.1-0.1-1.2-0.2c-0.3-0.2-0.4-0.4-0.4-0.8c0-0.3,0.1-0.6,0.3-1l0.5-1.3
				h4.5l0.7,1.6c0.2,0.4,0.3,0.7,0.3,0.7c0,0.1,0.1,0.2,0.1,0.4c0,0.2-0.1,0.3-0.2,0.4c-0.2,0.1-0.5,0.2-1,0.2h-0.3V49h10.2v-0.4
				c-0.6,0-1-0.1-1.3-0.3c-0.3-0.2-0.4-0.5-0.5-0.8c0-0.1,0-0.5,0-1.2v-9.1l5,11.7h0.2l4.9-11.7v9.5c0,0.6,0,1-0.1,1.2
				c-0.1,0.2-0.2,0.4-0.4,0.5c-0.2,0.1-0.5,0.2-0.9,0.2H107V49h12.9v-0.4c-0.6,0-1-0.1-1.2-0.2c-0.2-0.1-0.4-0.3-0.5-0.4
				c-0.1-0.2-0.1-0.6-0.1-1.3v-3.6c1.4,0,2.5-0.1,3.1-0.2c0.9-0.2,1.6-0.6,2.1-1.2c0.5-0.6,0.8-1.3,0.8-2.1h0.3
				c0.1-0.9,0.5-1.7,1-2.2c0.4-0.4,1-0.6,1.9-0.6h0.9v9.9c0,0.6,0,1-0.1,1.2c-0.1,0.2-0.2,0.4-0.4,0.5c-0.2,0.1-0.5,0.2-0.9,0.2
				h-0.4V49h6.7v-0.4h-0.4c-0.4,0-0.6-0.1-0.9-0.2c-0.2-0.1-0.4-0.3-0.4-0.4c-0.1-0.2-0.1-0.6-0.1-1.2v-9.9h0.9c0.6,0,1,0.1,1.2,0.2
				c0.4,0.2,0.8,0.5,1,0.8c0.2,0.4,0.5,0.9,0.7,1.7h0.3v-3.1h0.3c0.4,0,0.6,0.1,0.8,0.2c0.2,0.1,0.3,0.3,0.4,0.4
				c0.1,0.2,0.1,0.6,0.1,1.2v8.5C137.1,47.4,137.1,47.8,137,48z M86.7,44.6l2-4.4l1.9,4.4H86.7z M115.1,46.7c0,0.7,0,1.1-0.1,1.3
				c-0.1,0.2-0.2,0.3-0.4,0.4c-0.2,0.1-0.6,0.2-1.2,0.2h-0.2c-0.4,0-0.6-0.1-0.9-0.2c-0.2-0.1-0.4-0.3-0.4-0.4
				c-0.1-0.2-0.1-0.6-0.1-1.2v-8.5c0-0.6,0-1,0.1-1.2c0.1-0.2,0.2-0.4,0.4-0.4c0.2-0.1,0.5-0.2,0.9-0.2h0.2c0.6,0,1,0.1,1.2,0.2
				c0.2,0.1,0.4,0.3,0.4,0.4c0.1,0.2,0.1,0.6,0.1,1.3V46.7z M120.3,41.7c-0.4,0.5-1,0.7-1.8,0.7c-0.1,0-0.3,0-0.5,0v-5.6h0.4
				c0.8,0,1.4,0.2,1.8,0.7c0.4,0.4,0.6,1.1,0.6,2.1C120.9,40.6,120.7,41.3,120.3,41.7z M105.7,63.3c0,0.3-0.1,0.5-0.3,0.6
				c-0.1,0-0.2,0-0.4,0c-0.1,0-0.2,0-0.2,0.1c0,0.1,0.1,0.1,0.2,0.1c0.2,0,0.5,0,0.7,0c0.2,0,0.5,0,0.6,0c0.3,0,0.6,0,1,0.1
				c0.4,0,0.8,0.1,1.2,0.1c1.9,0,3-0.7,3.5-1.2c0.6-0.6,1.1-1.6,1.1-2.9c0-1.3-0.5-2.1-1-2.7c-1.1-1.2-2.9-1.2-4.2-1.2
				c-0.6,0-1.3,0-1.6,0c-0.3,0-0.9,0-1.5,0c-0.2,0-0.2,0-0.2,0.1c0,0.1,0.1,0.1,0.2,0.1c0.1,0,0.3,0,0.4,0c0.3,0.1,0.4,0.2,0.4,0.6
				c0,0.3,0,0.6,0,2.2v1.9C105.7,62,105.7,62.9,105.7,63.3z M107,59c0-0.8,0-1.7,0-2.1c0-0.1,0-0.2,0.1-0.2c0.1,0,0.5-0.1,0.7-0.1
				c0.8,0,2,0.1,3,1.1c0.4,0.4,1,1.3,1,2.6c0,1.1-0.2,2-0.9,2.6c-0.6,0.5-1.3,0.8-2.4,0.8c-0.8,0-1.2-0.2-1.4-0.4
				c-0.1-0.1-0.1-0.5-0.1-0.8c0-0.2,0-1,0-2.1V59z M154.7,63.8c-0.2,0-0.7,0.1-0.8,0.1c0,0-0.1,0-0.1,0.1c0,0.1,0.1,0.1,0.2,0.1
				c0.7,0,1.5,0,1.8,0c0.3,0,0.9,0,1.7,0c0.1,0,0.2,0,0.2-0.1c0-0.1-0.1-0.1-0.1-0.1c-0.1,0-0.5,0-0.7-0.1c-0.3-0.1-0.4-0.2-0.4-0.6
				c0-0.5,0-1.4,0-2.4V59c0-1.6,0.1-2.7,0.1-2.7c0-0.1,0-0.2-0.1-0.2c-0.1,0-0.2,0.1-0.3,0.1c-0.4,0.3-2.4,1.6-2.4,1.6
				c-0.1,0-0.1,0.1-0.1,0.1c0,0.1,0.1,0.1,0.1,0.1c0,0,0.1,0,0.1,0c0.2-0.1,1-0.5,1.2-0.5c0.2,0,0.2,0.1,0.2,0.4v1.4l0,1.7
				c0,1,0,1.9-0.1,2.4C155.1,63.6,155.1,63.8,154.7,63.8z M59.3,64.1c0.1,0,0.2,0,0.2-0.1c0-0.1,0-0.1-0.2-0.1h-0.2
				c-0.3,0-0.4-0.1-0.4-0.3c0-0.1,0.1-0.4,0.2-0.6l0.6-1.4c0-0.1,0-0.1,0.1-0.1h2.3c0.1,0,0.1,0,0.1,0.1l0.8,2.2
				c0.1,0.1,0,0.2-0.1,0.2c-0.1,0-0.1,0-0.1,0.1c0,0.1,0.1,0.1,0.3,0.1c0.8,0,1.6,0,2,0c0.4,0,0.5,0,0.5-0.1c0-0.1-0.1-0.1-0.1-0.1
				c-0.1,0-0.3,0-0.4,0c-0.2-0.1-0.5-0.2-0.9-1.1c-0.7-1.6-2.3-5.8-2.6-6.4C61.2,56.1,61.1,56,61,56c-0.1,0-0.2,0.1-0.3,0.4
				l-2.6,6.5c-0.2,0.5-0.4,0.9-0.9,0.9c-0.1,0-0.2,0-0.3,0c-0.1,0-0.1,0-0.1,0.1c0,0.1,0.1,0.1,0.2,0.1c0.5,0,1.1,0,1.2,0
				C58.5,64.1,59,64.1,59.3,64.1z M60.7,58.2C60.7,58.2,60.7,58.2,60.7,58.2c0.1-0.1,0.1,0,0.1,0l0.9,2.6c0,0,0,0.1-0.1,0.1h-1.9
				c0,0-0.1,0,0-0.1L60.7,58.2z M69.8,56.4c0.1,0,0.2,0,0.3,0c0.1,0,0.2,0,0.2-0.1c0-0.1-0.1-0.1-0.2-0.1c-0.6,0-1.1,0-1.2,0
				c-0.1,0-0.7,0-1.2,0c-0.1,0-0.2,0-0.2,0.1c0,0.1,0.1,0.1,0.2,0.1c0.1,0,0.3,0,0.4,0.1c0.1,0.1,0.3,0.4,0.4,0.7l2.2,6.7
				c0.1,0.3,0.1,0.4,0.2,0.4c0.1,0,0.2-0.1,0.4-0.6c0.4-1,1.8-4.7,2-5.2h0l2.2,5.3c0.2,0.4,0.2,0.5,0.3,0.5c0.1,0,0.2-0.1,0.3-0.5
				c0.5-1.6,1.6-4.9,2.1-6.2c0.2-0.6,0.3-1,0.6-1.1c0.1,0,0.3-0.1,0.4-0.1c0.1,0,0.1,0,0.1-0.1c0-0.1-0.1-0.1-0.2-0.1
				c-0.3,0-0.8,0-0.9,0c-0.1,0-0.5,0-1.1,0c-0.2,0-0.2,0-0.2,0.1c0,0.1,0.1,0.1,0.2,0.1c0.4,0,0.5,0.1,0.5,0.3c0,0.1,0,0.4-0.1,0.6
				c-0.4,1.2-1.2,4-1.4,4.7h0l-2.2-5.3c-0.1-0.3-0.2-0.5-0.3-0.5c-0.1,0-0.2,0.1-0.3,0.4l-2,5.5h0c-0.2-0.6-1.2-3.8-1.3-4.5
				c-0.1-0.5-0.2-0.8-0.2-1C69.7,56.5,69.7,56.4,69.8,56.4z M69.2,10.8c0.1,0,0.3,0,0.4,0c0.3,0.1,0.4,0.2,0.4,0.6
				c0,0.3,0,0.6,0,2.1V15c0,1.5,0.4,2.2,0.9,2.7c0.7,0.7,1.7,0.7,2.2,0.7c0.6,0,1.4-0.1,2.1-0.7c0.8-0.7,0.9-1.9,0.9-3v-1.1
				c0-1.5,0-1.8,0-2.1c0-0.4,0.1-0.5,0.4-0.6c0.1,0,0.2,0,0.3,0c0.1,0,0.2,0,0.2-0.1c0-0.1-0.1-0.1-0.2-0.1c-0.4,0-1,0-1.1,0
				c0,0-0.6,0-1.1,0c-0.1,0-0.2,0-0.2,0.1c0,0.1,0.1,0.1,0.2,0.1c0.1,0,0.3,0,0.4,0c0.3,0.1,0.4,0.2,0.4,0.6c0,0.3,0,0.6,0,2.1v1.3
				c0,1,0,1.9-0.6,2.5c-0.4,0.4-0.9,0.5-1.4,0.5c-0.3,0-0.8,0-1.2-0.4c-0.5-0.4-0.8-1-0.8-2.5v-1.4c0-1.5,0-1.8,0-2.1
				c0-0.4,0.1-0.5,0.4-0.6c0.1,0,0.2,0,0.3,0c0.1,0,0.2,0,0.2-0.1c0-0.1-0.1-0.1-0.2-0.1c-0.4,0-1,0-1.2,0c-0.3,0-0.9,0-1.5,0
				c-0.1,0-0.2,0-0.2,0.1C69,10.8,69.1,10.8,69.2,10.8z M75.2,28.6c-0.1,0-0.2,0-0.3,0c-0.1,0-0.1,0-0.1,0.1c0,0.1,0.1,0.1,0.2,0.1
				c0.5,0,1.1,0,1.2,0c0.3,0,0.7,0,1.1,0c0.1,0,0.2,0,0.2-0.1c0-0.1,0-0.1-0.1-0.1h-0.1c-0.3,0-0.4-0.1-0.4-0.3c0-0.1,0-0.4,0.1-0.6
				l0.5-1.4c0-0.1,0-0.1,0.1-0.1h2.2c0,0,0.1,0,0.1,0.1l0.8,2.1c0,0.1,0,0.2-0.1,0.2c-0.1,0-0.1,0-0.1,0.1c0,0.1,0.1,0.1,0.3,0.1
				c0.8,0,1.5,0,1.9,0c0.4,0,0.5,0,0.5-0.1c0-0.1,0-0.1-0.1-0.1c-0.1,0-0.3,0-0.4,0c-0.2-0.1-0.5-0.2-0.9-1.1
				c-0.6-1.5-2.2-5.6-2.5-6.1C79,21.1,78.9,21,78.8,21c-0.1,0-0.2,0.1-0.3,0.4l-2.5,6.2C75.9,28.2,75.7,28.5,75.2,28.6z M78.5,23.2
				C78.5,23.1,78.6,23.1,78.5,23.2c0.1-0.1,0.1,0,0.1,0l0.9,2.5c0,0,0,0.1,0,0.1h-1.8c0,0,0,0,0-0.1L78.5,23.2z M83,18.1
				c0.4,0.2,0.9,0.3,1.5,0.3c0.5,0,1.1-0.1,1.6-0.4c0.7-0.5,0.9-1.2,0.9-1.8c0-1-0.4-1.7-1.6-2.6l-0.3-0.2c-0.8-0.6-1.1-1-1.1-1.4
				c0-0.6,0.4-1,1.2-1c0.6,0,0.9,0.3,1.1,0.5c0.2,0.3,0.3,0.6,0.3,0.7c0,0.1,0,0.2,0.1,0.2c0.1,0,0.1-0.1,0.1-0.3c0-0.8,0-1.1,0-1.2
				c0-0.1,0-0.1-0.1-0.1c-0.3-0.1-0.7-0.2-1.3-0.2c-1.4,0-2.3,0.8-2.3,1.9c0,0.8,0.4,1.5,1.5,2.4l0.5,0.4c0.8,0.7,1,1.1,1,1.6
				c0,0.5-0.4,1.1-1.3,1.1c-0.6,0-1.2-0.3-1.4-1c0-0.2-0.1-0.4-0.1-0.5c0-0.1,0-0.2-0.1-0.2c-0.1,0-0.1,0.1-0.1,0.3
				c0,0.2,0,0.8,0,1.3C82.8,18,82.9,18.1,83,18.1z M56.9,18.3c0.5,0,1.1,0,1.2,0c0.3,0,0.7,0,1.1,0c0.1,0,0.2,0,0.2-0.1
				c0-0.1,0-0.1-0.1-0.1H59c-0.3,0-0.4-0.1-0.4-0.3c0-0.1,0-0.4,0.1-0.6l0.5-1.4c0-0.1,0-0.1,0.1-0.1h2.2c0,0,0.1,0,0.1,0.1l0.8,2.1
				c0,0.1,0,0.2-0.1,0.2c-0.1,0-0.1,0-0.1,0.1c0,0.1,0.1,0.1,0.3,0.1c0.8,0,1.5,0,1.9,0c0.4,0,0.5,0,0.5-0.1c0-0.1,0-0.1-0.1-0.1
				c-0.1,0-0.3,0-0.4,0c-0.2-0.1-0.5-0.2-0.9-1.1c-0.6-1.5-2.2-5.6-2.5-6.1c-0.1-0.2-0.2-0.3-0.2-0.3c-0.1,0-0.2,0.1-0.3,0.4
				L58,17.1c-0.2,0.5-0.4,0.8-0.8,0.9c-0.1,0-0.2,0-0.3,0c-0.1,0-0.1,0-0.1,0.1C56.7,18.2,56.7,18.3,56.9,18.3z M60.4,12.7
				C60.4,12.6,60.4,12.6,60.4,12.7c0.1-0.1,0.1,0,0.1,0l0.9,2.5c0,0,0,0.1,0,0.1h-1.8c0,0,0,0,0-0.1L60.4,12.7z M64,28.6
				c-0.1,0-0.2,0-0.3,0c-0.1,0-0.2,0-0.2,0.1c0,0.1,0.1,0.1,0.2,0.1c0.3,0,0.8,0,1,0c0.2,0,0.6,0,1,0c0.1,0,0.2,0,0.2-0.1
				c0-0.1-0.1-0.1-0.1-0.1c-0.1,0-0.2,0-0.4-0.1c-0.2,0-0.3-0.1-0.3-0.3c0-0.2,0-0.3,0-0.5l0.5-3.9h0c0.3,0.8,0.9,1.9,1,2.2
				c0.1,0.3,0.9,1.8,1.1,2.3c0.2,0.3,0.3,0.5,0.3,0.5c0.1,0,0.1-0.1,0.4-0.6l2.2-4.5h0l0.6,4.4c0,0.3,0,0.4,0,0.4
				c-0.1,0-0.1,0.1-0.1,0.1c0,0.1,0.1,0.1,0.3,0.1c0.4,0,1.8,0.1,2,0.1c0.1,0,0.3,0,0.3-0.1c0-0.1-0.1-0.1-0.2-0.1
				c-0.1,0-0.3,0-0.6-0.1c-0.3-0.1-0.4-0.4-0.5-1l-0.9-6.2c0-0.2-0.1-0.3-0.2-0.3c-0.1,0-0.1,0.1-0.2,0.2l-2.7,5.7l-2.7-5.6
				c-0.1-0.3-0.2-0.3-0.3-0.3c-0.1,0-0.1,0.1-0.2,0.3l-1,6.5C64.4,28.1,64.3,28.5,64,28.6z M84.8,21.2c-0.1,0-0.2,0-0.2,0.1
				c0,0.1,0.1,0.1,0.2,0.1c0.1,0,0.2,0,0.3,0c0.3,0.1,0.4,0.2,0.4,0.6c0,0.3,0,0.6,0,2.1v1.8c0,0.9,0,1.7,0,2.1
				c0,0.3-0.1,0.5-0.3,0.6c-0.1,0-0.2,0-0.4,0c-0.1,0-0.2,0-0.2,0.1c0,0.1,0.1,0.1,0.2,0.1c0.2,0,0.5,0,0.7,0c0.2,0,0.5,0,0.6,0
				c0.4,0,0.8,0,1.2,0c0.4,0,1,0,1.7,0c0.5,0,0.6-0.1,0.6-0.3c0.1-0.3,0.1-1,0.1-1.2c0-0.1,0-0.2-0.1-0.2c-0.1,0-0.1,0.1-0.1,0.2
				c0,0.2-0.1,0.5-0.3,0.6c-0.2,0.3-0.6,0.3-1.2,0.3c-0.8,0-1-0.1-1.2-0.2c-0.2-0.2-0.2-0.9-0.2-2.2v-1.8c0-1.5,0-1.8,0-2.1
				c0-0.4,0.1-0.5,0.4-0.6c0.1,0,0.3,0,0.4,0c0.1,0,0.2,0,0.2-0.1c0-0.1-0.1-0.1-0.2-0.1c-0.4,0-1.1,0-1.4,0
				C85.9,21.2,85.3,21.2,84.8,21.2z M165.3,49.3h0.3V38.6c0-0.6,0.1-1,0.2-1.3c0.1-0.2,0.2-0.4,0.4-0.5c0.2-0.1,0.5-0.2,1.1-0.3
				v-0.4h-4.2v0.4c0.7,0,1.2,0.2,1.5,0.5c0.2,0.3,0.3,0.8,0.3,1.6v5.5l-6.3-8h-4.5v0.4c0.4,0,0.7,0.1,0.9,0.2
				c0.2,0.1,0.4,0.3,0.7,0.7l0.3,0.3v9.1c0,0.7-0.1,1.2-0.4,1.5c-0.3,0.3-0.8,0.4-1.5,0.4V49h4.5v-0.4h-0.3c-0.4,0-0.8-0.1-1.1-0.4
				c-0.3-0.3-0.5-0.8-0.5-1.5v-8.2L165.3,49.3z M167.8,32.5H56.7V33h111.2V32.5z M58.9,28.4c-0.6,0-1.2-0.3-1.4-1
				c0-0.2-0.1-0.4-0.1-0.5c0-0.1,0-0.2-0.1-0.2c-0.1,0-0.1,0.1-0.1,0.3c0,0.2,0,0.8,0,1.3c0,0.2,0,0.3,0.2,0.3
				c0.4,0.2,0.9,0.3,1.5,0.3c0.5,0,1.1-0.1,1.6-0.4c0.7-0.5,0.9-1.2,0.9-1.8c0-1-0.4-1.6-1.6-2.6L59.3,24c-0.8-0.6-1.1-1-1.1-1.4
				c0-0.6,0.4-1,1.2-1c0.6,0,0.9,0.3,1.1,0.5c0.2,0.3,0.3,0.6,0.3,0.7c0,0.1,0,0.2,0.1,0.2c0.1,0,0.1-0.1,0.1-0.3c0-0.8,0-1.1,0-1.2
				c0-0.1,0-0.1-0.1-0.1c-0.3-0.1-0.7-0.2-1.3-0.2c-1.4,0-2.3,0.8-2.3,1.9c0,0.8,0.4,1.5,1.5,2.4l0.5,0.4c0.8,0.7,1,1.1,1,1.6
				C60.2,27.8,59.8,28.4,58.9,28.4z M159.8,18.3c0.5,0,1,0,1.1,0c0.2,0,0.6,0,1.2,0c0.1,0,0.2,0,0.2-0.1c0-0.1-0.1-0.1-0.2-0.1
				c-0.2,0-0.3,0-0.5-0.1c-0.2-0.1-0.3-0.3-0.3-1.1l-0.1-4.2h0c0.2,0.2,1.3,1.4,2.4,2.5c1,1,2.3,2.4,2.9,3c0.1,0.1,0.2,0.2,0.3,0.2
				c0.1,0,0.1-0.1,0.1-0.3l0.1-6.3c0-0.6,0.1-0.8,0.4-0.9c0.1,0,0.2,0,0.3,0c0.1,0,0.2,0,0.2-0.1c0-0.1-0.1-0.1-0.2-0.1
				c-0.5,0-0.9,0-1,0c-0.2,0-0.7,0-1.2,0c-0.1,0-0.3,0-0.3,0.1c0,0.1,0,0.1,0.2,0.1c0.1,0,0.4,0,0.5,0.1c0.2,0.1,0.3,0.3,0.3,0.9
				l0.1,4.5h0c-0.2-0.2-1.5-1.6-2.2-2.3c-1.5-1.5-3-3.1-3.1-3.2c-0.2-0.2-0.3-0.3-0.4-0.3c-0.1,0-0.1,0.1-0.1,0.3l-0.1,5.9
				c0,0.9,0,1.2-0.3,1.2c-0.1,0-0.3,0.1-0.4,0.1c-0.1,0-0.2,0-0.2,0.1C159.6,18.2,159.7,18.3,159.8,18.3z"/>
		</g>
	</g>
</g>
<g id="Layer_2" class="st0">
	<path id="XMLID_55_" class="st3" d="M176.8,33.4l-0.5,2.1h-4.6l0.4-1.8c0.1-0.4,0.1-0.8,0.1-1.1c0-1-0.6-1.5-1.8-1.5
		c-0.9,0-1.5,0.3-1.9,1.1c-0.5,0.8-0.7,1.9-0.7,2.7c0,0.9,0.2,1.5,0.9,2l2.9,2.5c1.1,0.9,1.7,1.6,2.1,2.3c0.4,0.8,0.6,1.7,0.6,2.8
		c0,1.2-0.4,3.2-1,4.9c-1.1,3.1-3.3,4.5-7,4.5c-4.1,0-6.5-1.7-6.5-4.6c0-0.6,0-1.1,0.4-2.6l0.5-2.2h4.6l-0.5,2
		c-0.2,1-0.4,1.9-0.4,2.3c0,1,0.8,1.6,2.1,1.6c0.8,0,1.5-0.3,1.9-0.9c0.2-0.3,0.4-0.8,0.5-1.3c0.4-1.3,0.6-2.3,0.6-2.9
		c0-1-0.5-1.9-1.5-2.6l-2.5-2c-0.4-0.3-0.6-0.5-0.9-0.7c-0.4-0.4-0.8-1-1.1-1.5c-0.4-0.7-0.5-1.5-0.5-2.4c0-2.1,0.6-4.2,1.8-5.8
		c1.2-1.8,3.1-2.6,5.9-2.6c4.1,0,6.2,1.4,6.2,4.1C177,32.3,176.9,32.8,176.8,33.4z M160.6,37.3c-0.6,2.8-1.6,3.8-4.1,4.3l1.8,11.8
		h-4.7l-1.5-11.3h-1.7l-2.6,11.3h-4.6l5.8-25.2h6.2c1.2,0,2,0,2.6,0c1.1,0,2.1,0.4,2.8,1c0.8,0.7,1.2,1.7,1.2,3
		c0,0.5-0.1,1.1-0.2,1.6L160.6,37.3z M154.8,31.8h-2.1l-1.5,6.6h1.9c1.4,0,2-0.2,2.4-0.6c0.1-0.1,0.3-0.4,0.4-0.6
		c0.2-0.5,0.3-0.7,0.6-1.8l0.4-1.5c0-0.2,0.1-0.5,0.1-0.7C156.9,32.2,156.3,31.8,154.8,31.8z M138.4,32l-1.4,5.9h7.1l-0.9,3.8h-7.1
		l-1.8,7.8h7.9l-0.9,3.9h-12.6l5.8-25.2h12.2L146,32H138.4z M128,31.8l-5,21.6h-4.7l5-21.6h-4.6l0.8-3.6h14l-0.8,3.6H128z
		 M86.5,16.4c0.3,1.2,0.1,1.7-1.1,2.1c-0.6,0.2-1.1,0.3-1.1,0.3l-0.9-3.3l1-0.3C85.5,14.9,86.2,15.4,86.5,16.4z M82.4,12.1
		c0,0,0.5-0.1,0.6-0.2c1.2-0.3,1.7-0.1,2,0.9c0.4,1.3-0.2,1.8-1.2,2.1l-0.5,0.1L82.4,12.1z M94.5,8.5l1.5-0.4l-0.2,2.4L94.5,8.5z
		 M121.7,11.7l-2.2,3.8c4.2,3.2,7.5,7.2,9.7,11.7h-9c-2-2.8-4.7-5.3-7.9-7.1c-6.1-3.5-12.9-4.2-19.2-2.5c-5.5,1.5-10.5,4.8-14,9.7
		h-9c0.3-0.6,0.6-1.2,0.9-1.7c2.6-4.5,6.1-8.1,10.1-10.9c-0.1-0.2-0.2-0.4-0.3-0.7l-0.2-0.8c0,0-0.1-0.3-0.1-0.6
		c0.1,0,0.3-0.1,0.7-0.2l1.9,6.8c-0.6,0.2-0.7,0.2-0.8,0.2c-0.1,0-0.2,0.1-0.1,0.3c0,0.1,0.1,0.2,0.2,0.1c0.1,0,0.2-0.1,1.2-0.4
		c0.5-0.2,1-0.2,1.7-0.4c1.7-0.5,2.3-1.5,2-2.8c-0.3-1-1.3-1.6-2.4-1.5c0.6-0.4,1.1-1.2,0.9-2c-0.3-1-1.3-1.6-3-1.1
		c-0.4,0.1-0.8,0.3-1.2,0.4c-0.5,0.2-0.8,0.2-1,0.2c0.1-0.8,0.5-1.7,1.9-2.1l14.1-3.8c0,0,1.5-0.4,2.5,0.6c-0.1,0-0.2,0.1-0.3,0.1
		l-0.1,0c-0.8,0.2-0.8,0.2-0.9,0.2c-0.1,0-0.2,0.1-0.1,0.2c0,0.1,0.2,0.2,0.2,0.2c0.1,0,0.1-0.1,0.6-0.2l0.1,0l-0.5,6.5l-2-2.8
		L96.6,8l0.1,0c0.5-0.1,0.5-0.1,0.6-0.2c0.1,0,0.2-0.1,0.1-0.3c0-0.1-0.1-0.2-0.2-0.1c-0.1,0-0.1,0.1-0.9,0.3L94,8.4
		c-0.7,0.2-0.8,0.2-0.9,0.2c-0.1,0-0.2,0.1-0.1,0.2c0,0.1,0.1,0.2,0.2,0.2c0.1,0,0.2-0.1,0.5-0.1l2.2,3.1l-0.2,2.7l-3.7-5.3
		c0.2-0.1,0.4-0.1,0.5-0.1c0.1,0,0.2-0.1,0.1-0.3c0-0.1-0.1-0.2-0.2-0.1c-0.1,0-0.1,0.1-0.9,0.3l-0.1,0c-1,0.3-1.1,0.2-1.2,0.3
		C90,9.4,90,9.5,90,9.6c0,0.1,0.2,0.2,0.2,0.2c0.1,0,0.2-0.1,0.8-0.2l4.6,6.5c0,0.1,0.1,0.1,0.2,0.1c0.1,0,0.2-0.1,0.2-0.2l0.2-3.5
		l2,2.8c0.1,0.1,0.1,0.1,0.2,0.1c0.1,0,0.2-0.1,0.2-0.2l0.6-8l0.1,0c0.1,0,0.1,0,0.2-0.1c0.2,0.2,0.3,0.5,0.4,0.9l0.2,0.8
		c0,0,0,0.1,0,0.2c4.7,0,9.5,1.1,14,3.3l2.1-3.6l-6-3.5l3-5.1l17.1,9.9l-3,5.1L121.7,11.7z M93.7,15.9c0-0.1-0.1-0.2-0.2-0.1
		c-0.1,0-0.2,0.1-0.1,0.3c0.1,0.2-0.1,0.4-0.3,0.4c-0.2,0.1-0.3-0.1-0.4-0.4c-0.1-0.3-0.1-0.7-0.3-1.4c-0.2-0.8-1.1-1.6-2.2-1.5
		c0.6-0.3,1.2-1.2,1-2.1c-0.3-1-1.3-1.5-3-1.1c-0.5,0.1-0.8,0.2-1.2,0.4c-1,0.3-1.1,0.2-1.2,0.3c-0.1,0-0.2,0.1-0.1,0.2
		c0,0.1,0.2,0.2,0.2,0.2c0.1,0,0.2-0.1,0.8-0.2l1.9,6.8c-0.6,0.2-0.7,0.2-0.8,0.2c-0.1,0-0.2,0.1-0.1,0.3c0,0.1,0.1,0.2,0.2,0.1
		c0.1,0,0.2-0.1,1.2-0.4l0.1,0c1-0.3,1.1-0.3,1.2-0.3c0.1,0,0.2-0.1,0.1-0.2c0-0.1-0.2-0.2-0.2-0.2c-0.1,0-0.2,0.1-0.8,0.2l-1-3.3
		l0.9-0.3c1.1-0.3,1.6,0.3,1.9,1.3c0.4,1.5,0.9,2,1.8,1.8C93.5,16.7,93.8,16.3,93.7,15.9z M101.3,14c-0.1-0.3-0.4-0.5-0.8-0.4
		c-0.3,0.1-0.5,0.4-0.4,0.8c0.1,0.3,0.4,0.5,0.8,0.4C101.2,14.6,101.4,14.3,101.3,14z M89.1,13.4l-0.7,0.2l-0.8-2.9
		c0,0,0.4-0.1,0.7-0.2c1.2-0.3,1.6,0,1.9,0.9C90.3,12.4,90.1,13.1,89.1,13.4z M74.4,31.8c0,0.5-0.1,1-0.2,1.6l-0.5,2.1h-4.6l0.4-1.8
		c0.1-0.4,0.1-0.8,0.1-1.1c0-1-0.6-1.5-1.8-1.5c-0.9,0-1.5,0.3-1.9,1.1c-0.5,0.8-0.7,1.9-0.7,2.7c0,0.9,0.2,1.5,0.9,2l2.9,2.5
		c1.1,0.9,1.7,1.6,2.1,2.3c0.4,0.8,0.6,1.7,0.6,2.8c0,1.2-0.4,3.2-1,4.9c-1.1,3.1-3.3,4.5-7,4.5c-4.1,0-6.5-1.7-6.5-4.6
		c0-0.6,0-1.1,0.4-2.6l0.5-2.2h4.6l-0.5,2c-0.2,1-0.4,1.9-0.4,2.3c0,1,0.8,1.6,2.1,1.6c0.8,0,1.5-0.3,1.9-0.9
		c0.2-0.3,0.4-0.8,0.5-1.3C66.8,47,67,46,67,45.3c0-1-0.5-1.9-1.5-2.6l-2.5-2c-0.4-0.3-0.6-0.5-0.9-0.7c-0.4-0.4-0.8-1-1.1-1.5
		c-0.4-0.7-0.5-1.5-0.5-2.4c0-2.1,0.6-4.2,1.8-5.8c1.2-1.8,3.1-2.6,5.9-2.6C72.3,27.7,74.4,29.1,74.4,31.8z M55.3,31.8l-5,21.6h-4.7
		l5-21.6H46l0.8-3.6h14L60,31.8H55.3z M44.3,35.6h-4.6l0.4-1.8c0.1-0.4,0.1-0.8,0.1-1.1c0-1-0.6-1.5-1.8-1.5c-0.9,0-1.5,0.3-1.9,1.1
		c-0.5,0.8-0.7,1.9-0.7,2.7c0,0.9,0.2,1.5,0.9,2l2.9,2.5c1.1,0.9,1.7,1.6,2.1,2.3c0.4,0.8,0.6,1.7,0.6,2.8c0,1.2-0.4,3.2-1,4.9
		c-1.1,3.1-3.3,4.5-7,4.5c-4.1,0-6.5-1.7-6.5-4.6c0-0.6,0-1.1,0.4-2.6l0.5-2.2h4.6l-0.5,2c-0.2,1-0.4,1.9-0.4,2.3
		c0,1,0.8,1.6,2.1,1.6c0.8,0,1.5-0.3,1.9-0.9c0.2-0.3,0.4-0.8,0.5-1.3c0.4-1.3,0.6-2.3,0.6-2.9c0-1-0.5-1.9-1.5-2.6l-2.5-2
		c-0.4-0.3-0.6-0.5-0.9-0.7c-0.4-0.4-0.8-1-1.1-1.5c-0.4-0.7-0.5-1.5-0.5-2.4c0-2.1,0.6-4.2,1.8-5.8c1.2-1.8,3.1-2.6,5.9-2.6
		c4.1,0,6.2,1.4,6.2,4.1c0,0.5-0.1,1-0.2,1.6L44.3,35.6z M22,53.4l0.3-4.1h-4.3l-1.6,4.1h-4.8L22,28.2h5.3l-0.7,25.2H22z M19.4,45.4
		h3.2l0.8-10.8L19.4,45.4z M9.6,32.1l-1.5,6.3h7.2l-0.9,3.8H7.3L4.7,53.4H0l5.8-25.2h12.3l-0.9,3.9H9.6z M111,28.2c1.2,0,2,0,2.6,0
		c1.1,0,2.1,0.4,2.8,1c0.8,0.7,1.2,1.7,1.2,3c0,0.5-0.1,1.1-0.2,1.6l-0.8,3.6c-0.6,2.8-1.6,3.8-4.1,4.3l1.8,11.8h-4.7L108,42.2h-1.7
		l-1.9,8l-1-3.8c1.7-1.2,2.7-3.2,2.7-5.3c0-2.3-1.2-4.3-3-5.5l1.7-7.4H111z M109,38.4c1.4,0,2-0.2,2.4-0.6c0.1-0.1,0.3-0.4,0.4-0.6
		c0.2-0.5,0.3-0.7,0.6-1.8l0.4-1.5c0-0.2,0.1-0.5,0.1-0.7c0-1-0.6-1.4-2-1.4h-2.1l-1.5,6.6H109z M99,53.4l0.8-3.5l2.1,3.5H99z
		 M96.7,28.2v6.9c-1,0.5-1.8,1.2-2.5,2l0.2-2.6l-4,10.8h3.2l0.1-1.1c0.8,1.5,2.3,2.7,4,3.2l-0.2,5.9h-4.6l0.3-4.1h-4.3l-1.6,4.1
		h-4.8L93,28.2H96.7z M76.2,28.2h14l-0.8,3.6h-4.7l-5,21.6h-4.7l5-21.6h-4.6L76.2,28.2z M100.6,28.3v7c2.8,0.5,4.9,2.9,4.9,5.8
		c0,2.1-1.1,4-2.8,5L106,59l-7.1-12c-3-0.3-5.3-2.8-5.3-5.9c0-2.5,1.6-4.7,3.8-5.5v-7.3H100.6z M99.5,42.7c0.9,0,1.6-0.7,1.6-1.6
		c0-0.9-0.7-1.6-1.6-1.6c-0.9,0-1.6,0.7-1.6,1.6C98,42,98.7,42.7,99.5,42.7z M87.2,63.9c6.1,3.5,12.9,4.2,19.2,2.5
		c5.5-1.5,10.4-4.7,13.9-9.6h13.6l-8.4,14.6l-5.6-3.2c-10.3,7.9-24.7,9.3-36.6,2.4c-5.8-3.3-10.2-8.2-13-13.8h9
		C81.4,59.6,84,62,87.2,63.9z M138.2,62.4c0.6-0.9,1-1.7,1.1-2.2c0.1-0.4,0.1-0.7,0-0.9c-0.1-0.2-0.3-0.3-0.6-0.3
		c-0.3,0-0.5,0.1-0.7,0.3c-0.2,0.2-0.3,0.6-0.4,1.3l-0.2,1.4H134l0.1-0.5c0.1-0.8,0.3-1.5,0.5-1.9c0.2-0.5,0.5-0.9,0.9-1.4
		c0.4-0.5,0.9-0.8,1.5-1c0.6-0.2,1.2-0.4,2-0.4c1.4,0,2.5,0.4,3.1,1.1c0.6,0.7,0.8,1.6,0.6,2.7c-0.1,0.8-0.5,1.7-1.1,2.7
		c-0.6,0.9-2.2,2.9-4.7,6h4l-0.4,2.5h-8l0.4-2.1C135.7,65.7,137.5,63.3,138.2,62.4z M144,62c0.2-1.3,0.5-2.4,0.9-3
		c0.3-0.7,0.9-1.2,1.7-1.6c0.8-0.4,1.6-0.6,2.6-0.6c0.8,0,1.5,0.1,2.1,0.4c0.6,0.3,1,0.6,1.2,1c0.2,0.4,0.4,0.9,0.4,1.4
		c0,0.5-0.1,1.3-0.3,2.4l-0.9,4.9c-0.2,1.1-0.4,1.9-0.6,2.4c-0.2,0.5-0.5,1-1,1.4c-0.5,0.4-1,0.8-1.5,1c-0.6,0.2-1.2,0.3-1.8,0.3
		c-0.9,0-1.6-0.1-2.1-0.3c-0.5-0.2-0.9-0.5-1.2-0.9c-0.3-0.4-0.4-0.9-0.5-1.4c-0.1-0.5,0-1.2,0.2-2.3L144,62z M146.5,69.5
		c0.1,0.2,0.2,0.3,0.5,0.3s0.5-0.1,0.6-0.3c0.1-0.2,0.2-0.7,0.4-1.4l1.3-7.3c0.1-0.8,0.2-1.3,0.1-1.5c0-0.2-0.2-0.3-0.5-0.3
		c-0.3,0-0.5,0.1-0.6,0.3c-0.1,0.2-0.3,0.7-0.4,1.4l-1.3,7.2C146.5,68.8,146.4,69.3,146.5,69.5z M158.7,57h2.1l-2.6,14.7h-3.6
		l1.4-7.9c0.2-1.1,0.3-1.8,0.3-2c0-0.2-0.1-0.4-0.4-0.5c-0.2-0.1-0.8-0.2-1.6-0.2H154l0.3-1.7C156.1,59,157.6,58.2,158.7,57z
		 M160.8,66.6l4.8-9.6h4.8l-1.7,9.6h1l-0.4,2.5h-1l-0.5,2.6h-3.6l0.5-2.6h-4.3L160.8,66.6z M165.2,66.6l1.1-6.2l-2.7,6.2H165.2z"/>
</g>
<g id="Layer_3">
	<path id="XMLID_262_" class="st4" d="M176.8,33.4l-0.5,2.1h-4.6l0.4-1.8c0.1-0.4,0.1-0.8,0.1-1.1c0-1-0.6-1.5-1.8-1.5
		c-0.9,0-1.5,0.3-1.9,1.1c-0.5,0.8-0.7,1.9-0.7,2.7c0,0.9,0.2,1.5,0.9,2l2.9,2.5c1.1,0.9,1.7,1.6,2.1,2.3c0.4,0.8,0.6,1.7,0.6,2.8
		c0,1.2-0.4,3.2-1,4.9c-1.1,3.1-3.3,4.5-7,4.5c-4.1,0-6.5-1.7-6.5-4.6c0-0.6,0-1.1,0.4-2.6l0.5-2.2h4.6l-0.5,2
		c-0.2,1-0.4,1.9-0.4,2.3c0,1,0.8,1.6,2.1,1.6c0.8,0,1.5-0.3,1.9-0.9c0.2-0.3,0.4-0.8,0.5-1.3c0.4-1.3,0.6-2.3,0.6-2.9
		c0-1-0.5-1.9-1.5-2.6l-2.5-2c-0.4-0.3-0.6-0.5-0.9-0.7c-0.4-0.4-0.8-1-1.1-1.5c-0.4-0.7-0.5-1.5-0.5-2.4c0-2.1,0.6-4.2,1.8-5.8
		c1.2-1.8,3.1-2.6,5.9-2.6c4.1,0,6.2,1.4,6.2,4.1C177,32.3,176.9,32.8,176.8,33.4z M160.6,37.3c-0.6,2.8-1.6,3.8-4.1,4.3l1.8,11.8
		h-4.7l-1.5-11.3h-1.7l-2.6,11.3h-4.6l5.8-25.2h6.2c1.2,0,2,0,2.6,0c1.1,0,2.1,0.4,2.8,1c0.8,0.7,1.2,1.7,1.2,3
		c0,0.5-0.1,1.1-0.2,1.6L160.6,37.3z M154.8,31.8h-2.1l-1.5,6.6h1.9c1.4,0,2-0.2,2.4-0.6c0.1-0.1,0.3-0.4,0.4-0.6
		c0.2-0.5,0.3-0.7,0.6-1.8l0.4-1.5c0-0.2,0.1-0.5,0.1-0.7C156.9,32.2,156.3,31.8,154.8,31.8z M138.4,32l-1.4,5.9h7.1l-0.9,3.8h-7.1
		l-1.8,7.8h7.9l-0.9,3.9h-12.6l5.8-25.2h12.2L146,32H138.4z M128,31.8l-5,21.6h-4.7l5-21.6h-4.6l0.8-3.6h14l-0.8,3.6H128z
		 M86.5,16.4c0.3,1.2,0.1,1.7-1.1,2.1c-0.6,0.2-1.1,0.3-1.1,0.3l-0.9-3.3l1-0.3C85.5,14.9,86.2,15.4,86.5,16.4z M82.4,12.1
		c0,0,0.5-0.1,0.6-0.2c1.2-0.3,1.7-0.1,2,0.9c0.4,1.3-0.2,1.8-1.2,2.1l-0.5,0.1L82.4,12.1z M94.5,8.5l1.5-0.4l-0.2,2.4L94.5,8.5z
		 M121.7,11.7l-2.2,3.8c4.2,3.2,7.5,7.2,9.7,11.7h-9c-2-2.8-4.7-5.3-7.9-7.1c-6.1-3.5-12.9-4.2-19.2-2.5c-5.5,1.5-10.5,4.8-14,9.7
		h-9c0.3-0.6,0.6-1.2,0.9-1.7c2.6-4.5,6.1-8.1,10.1-10.9c-0.1-0.2-0.2-0.4-0.3-0.7l-0.2-0.8c0,0-0.1-0.3-0.1-0.6
		c0.1,0,0.3-0.1,0.7-0.2l1.9,6.8c-0.6,0.2-0.7,0.2-0.8,0.2c-0.1,0-0.2,0.1-0.1,0.3c0,0.1,0.1,0.2,0.2,0.1c0.1,0,0.2-0.1,1.2-0.4
		c0.5-0.2,1-0.2,1.7-0.4c1.7-0.5,2.3-1.5,2-2.8c-0.3-1-1.3-1.6-2.4-1.5c0.6-0.4,1.1-1.2,0.9-2.1c-0.3-1-1.3-1.6-3-1.1
		c-0.4,0.1-0.8,0.3-1.2,0.4c-0.5,0.2-0.8,0.2-1,0.2c0.1-0.8,0.5-1.7,1.9-2.1l14.1-3.8c0,0,1.5-0.4,2.5,0.6c-0.1,0-0.2,0.1-0.3,0.1
		l-0.1,0c-0.8,0.2-0.8,0.2-0.9,0.2c-0.1,0-0.2,0.1-0.1,0.2c0,0.1,0.2,0.2,0.2,0.2c0.1,0,0.1-0.1,0.6-0.2l0.1,0l-0.5,6.5l-2-2.8
		L96.6,8l0.1,0c0.5-0.1,0.5-0.1,0.6-0.2c0.1,0,0.2-0.1,0.1-0.3c0-0.1-0.1-0.2-0.2-0.1c-0.1,0-0.1,0.1-0.9,0.3L94,8.4
		c-0.7,0.2-0.8,0.2-0.9,0.2c-0.1,0-0.2,0.1-0.1,0.2c0,0.1,0.1,0.2,0.2,0.2c0.1,0,0.2-0.1,0.5-0.1l2.2,3.1l-0.2,2.7l-3.7-5.3
		c0.2-0.1,0.4-0.1,0.5-0.1c0.1,0,0.2-0.1,0.1-0.3c0-0.1-0.1-0.2-0.2-0.1c-0.1,0-0.1,0.1-0.9,0.3l-0.1,0c-1,0.3-1.1,0.2-1.2,0.3
		C90,9.4,90,9.5,90,9.6c0,0.1,0.2,0.2,0.2,0.2c0.1,0,0.2-0.1,0.8-0.2l4.6,6.5c0,0.1,0.1,0.1,0.2,0.1c0.1,0,0.2-0.1,0.2-0.2l0.2-3.5
		l2,2.8c0.1,0.1,0.1,0.1,0.2,0.1c0.1,0,0.2-0.1,0.2-0.2l0.6-8l0.1,0c0.1,0,0.1,0,0.2-0.1c0.2,0.2,0.3,0.5,0.4,0.9l0.2,0.8
		c0,0,0,0.1,0,0.2c4.7,0,9.5,1.1,14,3.3l2.1-3.6l-6-3.5l3-5.1l17.1,9.9l-3,5.1L121.7,11.7z M93.7,15.9c0-0.1-0.1-0.2-0.2-0.1
		c-0.1,0-0.2,0.1-0.1,0.3c0.1,0.2-0.1,0.4-0.3,0.4c-0.2,0.1-0.3-0.1-0.4-0.4c-0.1-0.3-0.1-0.7-0.3-1.4c-0.2-0.8-1.1-1.6-2.2-1.5
		c0.6-0.3,1.2-1.2,1-2.1c-0.3-1-1.3-1.5-3-1.1c-0.5,0.1-0.8,0.2-1.2,0.4c-1,0.3-1.1,0.2-1.2,0.3c-0.1,0-0.2,0.1-0.1,0.2
		c0,0.1,0.2,0.2,0.2,0.2c0.1,0,0.2-0.1,0.8-0.2l1.9,6.8c-0.6,0.2-0.7,0.2-0.8,0.2c-0.1,0-0.2,0.1-0.1,0.3c0,0.1,0.1,0.2,0.2,0.1
		c0.1,0,0.2-0.1,1.2-0.4l0.1,0c1-0.3,1.1-0.3,1.2-0.3c0.1,0,0.2-0.1,0.1-0.2c0-0.1-0.2-0.2-0.2-0.2c-0.1,0-0.2,0.1-0.8,0.2l-1-3.3
		l0.9-0.3c1.1-0.3,1.6,0.3,1.9,1.3c0.4,1.5,0.9,2,1.8,1.8C93.5,16.7,93.8,16.3,93.7,15.9z M101.3,14c-0.1-0.3-0.4-0.5-0.8-0.4
		c-0.3,0.1-0.5,0.4-0.4,0.8c0.1,0.3,0.4,0.5,0.8,0.4C101.2,14.6,101.4,14.3,101.3,14z M89.1,13.4l-0.7,0.2l-0.8-2.9
		c0,0,0.4-0.1,0.7-0.2c1.2-0.3,1.6,0,1.9,0.9C90.3,12.4,90.1,13.1,89.1,13.4z M74.4,31.8c0,0.5-0.1,1-0.2,1.6l-0.5,2.1h-4.6l0.4-1.8
		c0.1-0.4,0.1-0.8,0.1-1.1c0-1-0.6-1.5-1.8-1.5c-0.9,0-1.5,0.3-1.9,1.1c-0.5,0.8-0.7,1.9-0.7,2.7c0,0.9,0.2,1.5,0.9,2l2.9,2.5
		c1.1,0.9,1.7,1.6,2.1,2.3c0.4,0.8,0.6,1.7,0.6,2.8c0,1.2-0.4,3.2-1,4.9c-1.1,3.1-3.3,4.5-7,4.5c-4.1,0-6.5-1.7-6.5-4.6
		c0-0.6,0-1.1,0.4-2.6l0.5-2.2h4.6l-0.5,2c-0.2,1-0.4,1.9-0.4,2.3c0,1,0.8,1.6,2.1,1.6c0.8,0,1.5-0.3,1.9-0.9
		c0.2-0.3,0.4-0.8,0.5-1.3C66.8,47,67,46,67,45.3c0-1-0.5-1.9-1.5-2.6l-2.5-2c-0.4-0.3-0.6-0.5-0.9-0.7c-0.4-0.4-0.8-1-1.1-1.5
		c-0.4-0.7-0.5-1.5-0.5-2.4c0-2.1,0.6-4.2,1.8-5.8c1.2-1.8,3.1-2.6,5.9-2.6C72.3,27.7,74.4,29.1,74.4,31.8z M55.3,31.8l-5,21.6h-4.7
		l5-21.6H46l0.8-3.6h14L60,31.8H55.3z M44.3,35.6h-4.6l0.4-1.8c0.1-0.4,0.1-0.8,0.1-1.1c0-1-0.6-1.5-1.8-1.5c-0.9,0-1.5,0.3-1.9,1.1
		c-0.5,0.8-0.7,1.9-0.7,2.7c0,0.9,0.2,1.5,0.9,2l2.9,2.5c1.1,0.9,1.7,1.6,2.1,2.3c0.4,0.8,0.6,1.7,0.6,2.8c0,1.2-0.4,3.2-1,4.9
		c-1.1,3.1-3.3,4.5-7,4.5c-4.1,0-6.5-1.7-6.5-4.6c0-0.6,0-1.1,0.4-2.6l0.5-2.2h4.6l-0.5,2c-0.2,1-0.4,1.9-0.4,2.3
		c0,1,0.8,1.6,2.1,1.6c0.8,0,1.5-0.3,1.9-0.9c0.2-0.3,0.4-0.8,0.5-1.3c0.4-1.3,0.6-2.3,0.6-2.9c0-1-0.5-1.9-1.5-2.6l-2.5-2
		c-0.4-0.3-0.6-0.5-0.9-0.7c-0.4-0.4-0.8-1-1.1-1.5c-0.4-0.7-0.5-1.5-0.5-2.4c0-2.1,0.6-4.2,1.8-5.8c1.2-1.8,3.1-2.6,5.9-2.6
		c4.1,0,6.2,1.4,6.2,4.1c0,0.5-0.1,1-0.2,1.6L44.3,35.6z M22,53.4l0.3-4.1h-4.3l-1.6,4.1h-4.8L22,28.2h5.3l-0.7,25.2H22z M19.4,45.4
		h3.2l0.8-10.8L19.4,45.4z M9.6,32.1l-1.5,6.3h7.2l-0.9,3.8H7.3L4.7,53.4H0l5.8-25.2h12.3l-0.9,3.9H9.6z M111,28.2c1.2,0,2,0,2.6,0
		c1.1,0,2.1,0.4,2.8,1c0.8,0.7,1.2,1.7,1.2,3c0,0.5-0.1,1.1-0.2,1.6l-0.8,3.6c-0.6,2.8-1.6,3.8-4.1,4.3l1.8,11.8h-4.7L108,42.2h-1.7
		l-1.9,8l-1-3.8c1.7-1.2,2.7-3.2,2.7-5.3c0-2.3-1.2-4.3-3-5.5l1.7-7.4H111z M109,38.4c1.4,0,2-0.2,2.4-0.6c0.1-0.1,0.3-0.4,0.4-0.6
		c0.2-0.5,0.3-0.7,0.6-1.8l0.4-1.5c0-0.2,0.1-0.5,0.1-0.7c0-1-0.6-1.4-2-1.4h-2.1l-1.5,6.6H109z M99,53.4l0.8-3.5l2.1,3.5H99z
		 M96.7,28.2v6.9c-1,0.5-1.8,1.2-2.5,2l0.2-2.6l-4,10.8h3.2l0.1-1.1c0.8,1.5,2.3,2.7,4,3.2l-0.2,5.9h-4.6l0.3-4.1h-4.3l-1.6,4.1
		h-4.8L93,28.2H96.7z M76.2,28.2h14l-0.8,3.6h-4.7l-5,21.6h-4.7l5-21.6h-4.6L76.2,28.2z M100.6,28.3v7c2.8,0.5,4.9,2.9,4.9,5.8
		c0,2.1-1.1,4-2.8,5L106,59l-7.1-12c-3-0.3-5.3-2.8-5.3-5.9c0-2.5,1.6-4.7,3.8-5.5v-7.3H100.6z M99.5,42.7c0.9,0,1.6-0.7,1.6-1.6
		c0-0.9-0.7-1.6-1.6-1.6c-0.9,0-1.6,0.7-1.6,1.6C98,42,98.7,42.7,99.5,42.7z M87.2,63.9c6.1,3.5,12.9,4.2,19.2,2.5
		c5.5-1.5,10.4-4.7,13.9-9.6h13.6l-8.4,14.6l-5.6-3.2c-10.3,7.9-24.7,9.3-36.6,2.4c-5.8-3.3-10.2-8.2-13-13.8h9
		C81.4,59.6,84,62,87.2,63.9z M138.2,62.4c0.6-0.9,1-1.7,1.1-2.2c0.1-0.4,0.1-0.7,0-0.9s-0.3-0.3-0.6-0.3c-0.3,0-0.5,0.1-0.7,0.3
		c-0.2,0.2-0.3,0.6-0.4,1.3l-0.2,1.4H134l0.1-0.5c0.1-0.8,0.3-1.5,0.5-1.9c0.2-0.5,0.5-0.9,0.9-1.4c0.4-0.5,0.9-0.8,1.5-1
		c0.6-0.2,1.2-0.4,2-0.4c1.4,0,2.5,0.4,3.1,1.1c0.6,0.7,0.8,1.6,0.6,2.7c-0.1,0.8-0.5,1.7-1.1,2.7s-2.2,2.9-4.7,6h4l-0.4,2.5h-8
		l0.4-2.1C135.7,65.7,137.5,63.3,138.2,62.4z M144,62c0.2-1.3,0.5-2.4,0.9-3c0.3-0.7,0.9-1.2,1.7-1.6c0.8-0.4,1.6-0.6,2.6-0.6
		c0.8,0,1.5,0.1,2.1,0.4c0.6,0.3,1,0.6,1.2,1c0.2,0.4,0.4,0.9,0.4,1.4c0,0.5-0.1,1.3-0.3,2.4l-0.9,4.9c-0.2,1.1-0.4,1.9-0.6,2.4
		c-0.2,0.5-0.5,1-1,1.4c-0.5,0.4-1,0.8-1.5,1c-0.6,0.2-1.2,0.3-1.8,0.3c-0.9,0-1.6-0.1-2.1-0.3c-0.5-0.2-0.9-0.5-1.2-0.9
		c-0.3-0.4-0.4-0.9-0.5-1.4c-0.1-0.5,0-1.2,0.2-2.3L144,62z M146.5,69.5c0.1,0.2,0.2,0.3,0.5,0.3c0.3,0,0.5-0.1,0.6-0.3
		c0.1-0.2,0.2-0.7,0.4-1.4l1.3-7.3c0.1-0.8,0.2-1.3,0.1-1.5c0-0.2-0.2-0.3-0.5-0.3c-0.3,0-0.5,0.1-0.6,0.3c-0.1,0.2-0.3,0.7-0.4,1.4
		l-1.3,7.2C146.5,68.8,146.4,69.3,146.5,69.5z M158.7,57h2.1l-2.6,14.7h-3.6l1.4-7.9c0.2-1.1,0.3-1.8,0.3-2c0-0.2-0.1-0.4-0.4-0.5
		c-0.2-0.1-0.8-0.2-1.6-0.2H154l0.3-1.7C156.1,59,157.6,58.2,158.7,57z M161.5,66.2h3.6l-0.2,0.9c-0.2,0.9-0.3,1.6-0.3,2
		c0,0.4,0.2,0.6,0.6,0.6c0.2,0,0.3-0.1,0.5-0.2c0.1-0.1,0.2-0.2,0.2-0.4c0-0.1,0.1-0.7,0.3-1.7l0.5-2.9c0.1-0.5,0.1-0.9,0-1.1
		c-0.1-0.2-0.3-0.3-0.5-0.3c-0.2,0-0.3,0.1-0.5,0.2c-0.1,0.1-0.2,0.2-0.3,0.3c-0.1,0.1-0.1,0.4-0.2,0.8h-3.6l1.5-7.4h7.8l-0.4,2.3
		h-4.5l-0.4,2.5c0.7-0.7,1.5-1,2.4-1c1,0,1.7,0.3,2.1,0.8c0.4,0.6,0.5,1.7,0.2,3.3l-0.4,2.1c-0.2,1-0.4,1.8-0.6,2.3
		c-0.2,0.5-0.5,0.9-0.9,1.4c-0.4,0.4-0.9,0.7-1.5,1c-0.6,0.2-1.3,0.3-2.2,0.3c-0.9,0-1.7-0.2-2.4-0.5c-0.7-0.3-1.1-0.8-1.3-1.5
		c-0.2-0.7-0.2-1.7,0.1-3L161.5,66.2z"/>
</g>
</svg>
