<?xml version="1.0" encoding="utf-8"?>
<!-- Generator: Adobe Illustrator 19.0.0, SVG Export Plug-In . SVG Version: 6.00 Build 0)  -->
<svg version="1.1" id="Layer_1" xmlns="http://www.w3.org/2000/svg" xmlns:xlink="http://www.w3.org/1999/xlink" x="0px" y="0px"
	 viewBox="0 0 501.1 181.6" style="enable-background:new 0 0 501.1 181.6;" xml:space="preserve">
<g id="XMLID_1_">
	<g id="XMLID_69_">
		<path id="XMLID_70_" d="M50.7,111.6c-1.7,6.3-3,12.5-3.8,18.6c-9.9-0.6-19.1-0.9-27.4-1c-3.8,0-10.3,0.2-19.4,0.7v-2.2h0.4
			c2.7,0,4.9-0.7,6.6-2c2-1.4,2.9-3.5,2.9-6.2V75.4c0-2.7-1-4.8-2.9-6.3c-1.9-1.4-4.3-2.1-7-2V65c5.4,0.3,10.2,0.5,14.4,0.5
			c4,0,8.5-0.2,13.5-0.5v2.2c-2.7-0.1-5,0.6-6.9,2.1c-2,1.5-3,3.6-3,6.3V120c0,4.3,4,6.5,12.1,6.5c2.3,0,4.8-0.5,7.5-1.5
			c4.5-1.6,8-6.1,10.6-13.4H50.7z"/>
		<path id="XMLID_72_" d="M78.4,129.7c-4.2,0-7.3,0-9.4,0H55.8v-2.2c2,0,3.8-0.5,5.2-1.5c1.7-1.1,2.5-2.6,2.5-4.5V96.9
			c0-2.1-1.1-3.6-3.4-4.5c-1.8-0.8-3.8-1.1-6.1-1v-1.8c7.1-0.7,12.6-2.2,16.7-4.6v36.5c0,1.9,0.8,3.4,2.5,4.5c1.4,1,3.2,1.5,5.2,1.5
			V129.7z M70.3,68.7c0,1.2-0.4,2.3-1.3,3.2c-0.9,0.9-2,1.4-3.3,1.4c-1.2,0-2.3-0.5-3.2-1.4c-0.9-0.9-1.4-2-1.4-3.2
			c0-1.3,0.5-2.4,1.4-3.3c0.9-0.9,2-1.3,3.2-1.3c1.3,0,2.4,0.4,3.3,1.3C69.8,66.3,70.3,67.3,70.3,68.7z"/>
		<path id="XMLID_75_" d="M127.8,88.6h-0.4c-2.8,0-5.1,2-6.9,5.9l-12.4,27.9c-1.9,4.2-2.9,7-3,8.2l-2.9-0.6L87.2,94
			c-1.5-3.7-3.9-5.5-7.3-5.4v-2.2c6.6,0.3,13.7,0.3,21.2,0.1v2.1h-0.2c-3.9,0-5.9,1.4-5.9,4.3c0,1.1,0.3,2.3,0.9,3.7l10.3,23.6
			c2-4.7,4.1-9.4,6.2-14.1c3.3-7.7,4.9-12.1,4.9-13.3c0-1.6-0.9-2.8-2.6-3.6c-1.4-0.6-2.9-0.8-4.7-0.7v-2.2c1.6,0.2,3.9,0.3,7,0.3
			c3.7,0,7.3-0.1,10.9-0.3V88.6z"/>
		<path id="XMLID_77_" d="M158.3,129.7c-4.2,0-7.3,0-9.4,0h-13.2v-2.2c2,0,3.8-0.5,5.2-1.5c1.7-1.1,2.5-2.6,2.5-4.5V96.9
			c0-2.1-1.1-3.6-3.4-4.5c-1.8-0.8-3.8-1.1-6.1-1v-1.8c7.1-0.7,12.6-2.2,16.7-4.6v36.5c0,1.9,0.8,3.4,2.5,4.5c1.4,1,3.2,1.5,5.2,1.5
			V129.7z M150.1,68.7c0,1.2-0.4,2.3-1.3,3.2c-0.9,0.9-2,1.4-3.3,1.4c-1.2,0-2.3-0.5-3.2-1.4c-0.9-0.9-1.4-2-1.4-3.2
			c0-1.3,0.5-2.4,1.4-3.3c0.9-0.9,2-1.3,3.2-1.3c1.3,0,2.4,0.4,3.3,1.3C149.7,66.3,150.1,67.3,150.1,68.7z"/>
		<path id="XMLID_80_" d="M216,129.7c-4.2,0-7.3,0-9.4,0h-13.2v-2.2c2,0,3.8-0.5,5.2-1.5c1.7-1.1,2.5-2.6,2.5-4.5V99.8
			c0-5.9-2.6-8.9-7.8-8.9c-4.5,0-8.8,2.4-12.9,7.3v23.4c0,1.9,0.8,3.4,2.5,4.5c1.4,1,3.2,1.5,5.2,1.5v2.2c-4.2,0-7.3,0-9.4,0h-13.2
			v-2.2c2,0,3.8-0.5,5.2-1.5c1.7-1.1,2.5-2.6,2.5-4.5V96.9c0-2.1-1.1-3.6-3.4-4.5c-1.8-0.8-3.8-1.1-6.1-1v-1.8
			c7.1-0.7,12.6-2.2,16.7-4.6V94c6.7-5.6,12.6-8.3,17.9-8.3c3,0,5.4,1.1,7.3,3.2c1.8,2.2,2.7,4.8,2.7,7.8v24.8
			c0,1.9,0.8,3.4,2.5,4.5c1.4,1,3.2,1.5,5.2,1.5V129.7z"/>
		<path id="XMLID_82_" d="M261.9,88c0,2.1-0.9,3.1-2.8,3c-1.1-0.1-1.9-0.4-2.5-1.1c0.3-0.2,0.5-0.5,0.5-1c0-0.8-0.6-1.2-1.9-1.2
			c-0.9,0-2.4,0.7-4.3,2c3.1,2.8,4.7,6.4,4.7,10.7c0,4.8-1.7,8.7-5,11.7c-2.9,2.7-6.9,4.3-12,5c-5.9,0.8-8.8,2.3-8.8,4.6
			c0,1.6,2.5,2.8,7.6,3.5c3.2,0.3,6.4,0.7,9.6,1c4.7,0.5,7.9,1.2,9.7,2.1c3.1,1.4,4.7,4,4.7,7.6c0,5.4-3.1,9.9-9.2,13.4
			c-5.2,3.1-10.7,4.6-16.6,4.6c-3.9,0-7.4-0.8-10.6-2.3c-4-2-6-4.7-6-8.2c0-2.9,1.4-5.6,4.2-8c2.4-2,5.1-3.5,8.3-4.3l-0.1-0.1
			c-5.6-1.5-8.4-3.8-8.4-7c0-3.1,3.3-5.8,10-7.9l-0.1-0.1c-3.4-0.6-6.2-2.4-8.4-5.6c-2-2.9-3-6.1-3-9.7c0-4.4,1.8-8,5.4-10.9
			c3.3-2.7,7.2-4.1,11.7-4.1c4.1,0,7.6,0.9,10.4,2.8c4-2.7,7-4.1,8.9-4.1c1,0,2,0.3,2.7,1C261.5,86.1,261.9,87,261.9,88z
			 M256.6,139.3c0-2.5-2.8-4.4-8.5-5.9c-4.2-1.1-8.2-1.7-11.9-1.7c-2.2,0-4.5,1.1-6.9,3.4s-3.5,4.5-3.5,6.7c0,2.8,1.4,5,4.1,6.7
			c2.4,1.4,5,2.1,7.9,2.1c4,0,7.9-0.9,11.7-2.6C254.2,145.7,256.6,142.8,256.6,139.3z M247.8,100.8c0-3.5-0.6-6.5-1.9-8.9
			c-1.6-3.1-4.1-4.7-7.3-4.7c-3.3,0-5.7,1.5-7.4,4.6c-1.3,2.4-2,5.4-2,9c0,9.2,3,13.8,9.1,13.8c3.4,0,5.9-1.5,7.4-4.6
			C247.2,107.6,247.8,104.5,247.8,100.8z"/>
		<path id="XMLID_86_" d="M309.6,112.2c0,5.8-2.2,10.4-6.5,13.9c-4.1,3.3-9,4.9-14.8,4.9c-3.7,0-8.1-0.6-13-1.7
			c-0.9-0.2-1.8-0.3-2.6-0.3c-2.2,0-3.5,0.5-4.1,1.6l-2.2-0.8c0.8-5.9,1.4-12.1,1.6-18.5h2.5c0.4,4.7,2.3,8.7,5.7,12
			c3.4,3.3,7.5,5,12.2,5c3.9,0,7.3-1.2,10.1-3.6c2.8-2.4,4.3-5.6,4.3-9.4c0-4.6-2.9-8.6-8.8-12c-5.5-2.8-11-5.6-16.5-8.4
			c-5.9-3.8-8.8-8.6-8.8-14.4c0-5.1,1.9-9.1,5.7-12.2c3.5-2.8,7.8-4.2,12.9-4.2c1.6,0,3.9,0.3,6.9,0.9c3,0.6,5.2,0.9,6.6,0.9
			c1.6,0,3.2-0.4,4.8-1.2c-0.2,2.4-0.3,4.7-0.3,7.1c0,2,0.2,5,0.6,8.9h-2.1c-0.3-3.5-2-6.7-5.3-9.7c-3.3-3-6.7-4.5-10.3-4.5
			c-3.4,0-6.3,0.9-8.8,2.6c-2.7,2-4.1,4.6-4.1,7.9c0,4.1,3,7.9,8.9,11.4c5.5,3,11,6,16.6,9.1C306.6,101.7,309.6,106.5,309.6,112.2z"
			/>
		<path id="XMLID_88_" d="M342.9,123.9c-6.4,4.6-11.2,6.9-14.2,6.9c-5.3,0-7.9-3.4-7.9-10.1V91.6h-7.4v-1.9c3-1,5.7-2.9,8-5.6
			c2.4-2.7,3.9-5.6,4.7-8.8h1.9V88l13.7-0.4v3.9h-13.7v26.2c0,2,0.4,3.7,1.2,5.1c0.9,1.8,2.3,2.6,4.1,2.6c1.8,0,4.6-1.1,8.4-3.2
			L342.9,123.9z"/>
		<path id="XMLID_90_" d="M396.5,88.6h-0.3c-2.9,0-5.2,2-7,5.9l-12.3,27.9c-1.6,4.1-4.1,10.1-7.3,18c-1.8,4.2-3.6,7.3-5.6,9.2
			c-2.6,2.5-5.9,3.8-9.9,3.8c-1.5,0-2.9-0.4-4.1-1.2c-1.2-0.8-1.9-1.9-1.9-3.3c0-1.2,0.5-2.2,1.4-3.1c0.9-0.9,2-1.4,3.2-1.4
			c1,0,1.9,0.3,2.6,1c-0.5,0.3-0.7,0.7-0.6,1.2c0,1.4,0.9,2.1,2.7,2.1c1.8,0,3.5-0.8,5-2.3c2.1-2.1,4.8-7.8,8-17.1L356,94
			c-1.6-4-4.1-5.8-7.3-5.4v-2.2c6.6,0.3,13.7,0.3,21.2,0.1v2.1h-0.3c-3.9,0-5.8,1.4-5.8,4.2c0,1.1,0.3,2.4,0.9,3.7l10.3,23.7
			c2-4.7,4.1-9.4,6.2-14.1c3.3-7.7,4.9-12.1,4.9-13.3c0-1.6-0.9-2.8-2.6-3.6c-1.4-0.6-2.9-0.8-4.7-0.7v-2.2c1.6,0.2,3.9,0.3,7,0.3
			c3.7,0,7.3-0.1,10.9-0.3V88.6z"/>
		<path id="XMLID_92_" d="M422.2,129.7c-4.2,0-7.3,0-9.4,0h-13.2v-2.2c2,0,3.8-0.5,5.2-1.5c1.7-1.1,2.5-2.6,2.5-4.5V71.5
			c0-2.1-1.1-3.7-3.3-4.7c-1.7-0.8-3.7-1.2-6.1-1.2v-1.8c7.1,0,12.6-1.6,16.6-4.7v62.4c0,1.9,0.8,3.4,2.5,4.5c1.4,1,3.2,1.5,5.2,1.5
			V129.7z"/>
		<path id="XMLID_94_" d="M464.3,118.2c-3.7,4.6-6.4,7.6-7.9,8.8c-3.1,2.5-6.8,3.8-11,3.8c-6.2,0-11-2.3-14.3-6.8
			c-2.9-4-4.4-9.2-4.4-15.6c0-6.3,1.7-11.6,5.1-15.9c3.7-4.7,8.7-7.1,14.8-7.1c4.6,0,8.4,1.5,11.3,4.4c2.9,2.9,4.4,6.7,4.4,11.2
			c0,1.4-1.4,2.2-4.2,2.3l-24.2,0.8c-0.1,0.8-0.1,1.9-0.1,3.4c0,4.5,1.3,8.6,3.9,12.3c2.9,4,6.5,6,10.8,6c3.3,0,6-0.8,8.2-2.5
			c1.6-1.1,3.5-3.2,5.8-6.4L464.3,118.2z M456.2,98.6c0-3-0.9-5.5-2.6-7.5c-1.7-2-4.1-3-7-3c-3.5,0-6.4,1.4-8.6,4.1
			c-1.9,2.4-3.1,5.4-3.7,9.1l17.6-1.1C454.7,100.1,456.2,99.6,456.2,98.6z"/>
		<path id="XMLID_97_" d="M501.1,118.7c0,3.7-1.5,6.7-4.5,9c-2.8,2-6.1,3-10,3c-1.4,0-3.4-0.3-6.1-1c-2.7-0.7-4.7-1-6-1
			c-0.9,0-1.7,0.4-2.5,1.2L471,129c0.4-3,0.6-5.2,0.6-6.7c0-2.5-0.2-4.9-0.5-7.4h2.1c1.5,8.8,5.7,13.2,12.6,13.2
			c2.4,0,4.5-0.7,6.3-2c1.8-1.3,2.7-3.2,2.7-5.5c0-2.8-2-5.3-6-7.4c-3.7-1.9-7.5-3.8-11.3-5.7c-4-2.7-6-6-6-10.1
			c0-3.7,1.4-6.7,4.2-8.9c2.6-2,5.8-3,9.6-3c1.3,0,3.1,0.2,5.3,0.7c2.2,0.5,3.8,0.7,4.6,0.7c0.4,0,1.2-0.2,2.5-0.7L499,87
			c-0.2,2.5-0.3,4.8-0.3,7c0,1.2,0,3.1,0,5.6h-1.9c-0.2-3.2-1.3-5.9-3.4-8.1c-2.1-2.2-4.7-3.3-7.8-3.3c-2.2,0-4.1,0.6-5.6,1.7
			c-1.8,1.3-2.6,3-2.6,5.1c0,2.5,2,4.8,6.1,7c7.4,3.8,11.2,5.8,11.4,5.9C499,110.6,501.1,114.3,501.1,118.7z"/>
	</g>
	<g id="XMLID_2_">
		<path id="XMLID_5_" d="M9.1,181.4c-1-0.1-2-0.1-2.8-0.1c-0.9,0-1.8,0-2.9,0.1V181l0.1,0c0.5,0,1-0.1,1.3-0.4
			c0.4-0.3,0.6-0.7,0.6-1.3v-9c0-0.6-0.2-1-0.6-1.3c-0.4-0.3-0.9-0.4-1.4-0.4v-0.4c1.1,0.1,2.1,0.1,2.9,0.1c0.8,0,1.7,0,2.8-0.1v0.4
			c-0.6,0-1,0.1-1.4,0.4c-0.4,0.3-0.6,0.7-0.6,1.3v9c0,0.5,0.2,1,0.6,1.3c0.4,0.3,0.8,0.4,1.4,0.4V181.4z"/>
		<path id="XMLID_7_" d="M43.5,168.6c-0.6,0-1,0.1-1.4,0.4c-0.4,0.3-0.6,0.7-0.6,1.3v8.7c0,0.9,0,1.7,0.1,2.6l-0.7-0.1
			c-0.1-0.3-0.4-0.7-0.9-1.2c-0.9-1.1-3.7-4.4-8.3-9.9l0.1,9.1c0,0.5,0.2,1,0.6,1.3c0.4,0.3,0.9,0.4,1.4,0.4l0,0.4
			c-0.9-0.1-1.7-0.1-2.4-0.1c-0.7,0-1.5,0-2.4,0.1V181c0.6,0,1-0.1,1.4-0.4c0.4-0.3,0.6-0.7,0.6-1.3v-9c0-0.5-0.1-0.8-0.2-1
			c-0.4-0.5-1.1-0.8-2-0.8v-0.4c0.5,0.1,1,0.1,1.4,0.1c0.5,0,1.1,0,1.8-0.1l8.7,10.3l-0.1-8.2c0-0.5-0.2-1-0.6-1.3s-0.9-0.4-1.4-0.4
			v-0.4c0.9,0.1,1.7,0.1,2.4,0.1s1.5,0,2.4-0.1V168.6z"/>
		<path id="XMLID_12_" d="M71.4,177.8c0,1.2-0.4,2.1-1.3,2.8c-0.8,0.7-1.8,1-3,1c-0.8,0-1.6-0.1-2.7-0.3c-0.2,0-0.4-0.1-0.5-0.1
			c-0.4,0-0.7,0.1-0.8,0.3l-0.4-0.2c0.2-1.2,0.3-2.5,0.3-3.8h0.5c0.1,1,0.5,1.8,1.2,2.4c0.7,0.7,1.5,1,2.5,1c0.8,0,1.5-0.2,2.1-0.7
			c0.6-0.5,0.9-1.1,0.9-1.9c0-0.9-0.6-1.8-1.8-2.4c-1.1-0.6-2.2-1.1-3.4-1.7c-1.2-0.8-1.8-1.8-1.8-2.9c0-1,0.4-1.9,1.2-2.5
			c0.7-0.6,1.6-0.9,2.6-0.9c0.3,0,0.8,0.1,1.4,0.2c0.6,0.1,1.1,0.2,1.3,0.2c0.3,0,0.7-0.1,1-0.2c0,0.5-0.1,1-0.1,1.4
			c0,0.4,0,1,0.1,1.8h-0.4c-0.1-0.7-0.4-1.4-1.1-2c-0.7-0.6-1.4-0.9-2.1-0.9c-0.7,0-1.3,0.2-1.8,0.5c-0.6,0.4-0.8,0.9-0.8,1.6
			c0,0.8,0.6,1.6,1.8,2.3c1.1,0.6,2.2,1.2,3.4,1.9C70.8,175.7,71.4,176.7,71.4,177.8z"/>
		<path id="XMLID_14_" d="M100.6,171.3c0,1.4-0.6,2.4-1.7,3c-0.9,0.5-2.1,0.8-3.6,0.8c-0.3,0-0.5,0-0.8,0v4.2c0,0.5,0.2,1,0.6,1.3
			c0.4,0.3,0.8,0.4,1.4,0.4v0.4c-1-0.1-1.9-0.1-2.7-0.1c-0.9,0-1.8,0-2.9,0.1V181l0.1,0c0.5,0,1-0.1,1.3-0.4
			c0.4-0.3,0.6-0.7,0.6-1.3v-9c0-0.6-0.2-1-0.6-1.3s-0.9-0.4-1.4-0.4v-0.4c1,0.1,1.9,0.1,2.6,0.1c0.3,0,0.8,0,1.5,0
			c0.6,0,1.1-0.1,1.5-0.1C99.2,168.2,100.6,169.2,100.6,171.3z M98.8,171.5c0-1.9-0.9-2.8-2.6-2.8c-0.6,0-1,0.1-1.3,0.4
			c-0.2,0.2-0.4,0.7-0.4,1.3v4.2c0.6,0.1,1,0.1,1.1,0.1c0.9,0,1.6-0.3,2.3-0.9C98.5,173.1,98.8,172.4,98.8,171.5z"/>
		<path id="XMLID_20_" d="M125.6,181.4c-1-0.1-2-0.1-2.8-0.1c-0.9,0-1.8,0-2.9,0.1V181l0.1,0c0.5,0,1-0.1,1.3-0.4
			c0.4-0.3,0.6-0.7,0.6-1.3v-9c0-0.6-0.2-1-0.6-1.3s-0.9-0.4-1.4-0.4v-0.4c1.1,0.1,2.1,0.1,2.9,0.1c0.8,0,1.7,0,2.8-0.1v0.4
			c-0.6,0-1,0.1-1.4,0.4c-0.4,0.3-0.6,0.7-0.6,1.3v9c0,0.5,0.2,1,0.6,1.3c0.4,0.3,0.8,0.4,1.4,0.4V181.4z"/>
		<path id="XMLID_22_" d="M158.7,181.4c-0.3,0.1-0.8,0.1-1.3,0.1c-1.5,0-2.6-0.5-3.2-1.5L151,175c-0.4,0-1.1,0-2,0v4.3
			c0,0.5,0.2,1,0.6,1.3c0.4,0.3,0.8,0.4,1.4,0.4v0.4c-1-0.1-1.9-0.1-2.7-0.1c-0.9,0-1.8,0-2.9,0.1V181h0.1c0.5,0,1-0.1,1.3-0.4
			c0.4-0.3,0.6-0.7,0.6-1.3v-9c0-0.6-0.2-1-0.6-1.3s-0.9-0.4-1.4-0.4v-0.4c1.1,0.1,2.1,0.1,2.9,0.1c0.3,0,0.8,0,1.5,0
			s1.2-0.1,1.5-0.1c2.7,0,4,1,4,2.9c0,0.9-0.3,1.6-0.9,2.1c-0.2,0.2-0.8,0.6-1.9,1.3l3.6,5.2c0.3,0.4,0.7,0.8,1.2,1
			c0.5,0.3,1,0.3,1.5,0.3V181.4z M153.5,171.5c0-1.9-0.9-2.9-2.7-2.9c-0.7,0-1.1,0.1-1.3,0.2c-0.2,0.2-0.4,0.7-0.4,1.4v4.2
			c0.2,0,0.6,0.1,1,0.1C152.4,174.5,153.5,173.5,153.5,171.5z"/>
		<path id="XMLID_25_" d="M189.6,177.7c-0.3,1.2-0.6,2.5-0.8,3.8c-2.3-0.1-4.4-0.2-6.3-0.2c-0.8,0-2.1,0-4,0.1V181h0.1
			c0.6,0,1-0.1,1.4-0.4c0.4-0.3,0.5-0.7,0.5-1.2v-9c0-0.6-0.2-1-0.6-1.3c-0.4-0.3-0.9-0.4-1.4-0.4v-0.4c1.4,0.1,2.6,0.1,3.7,0.1
			c3.7,0,5.8-0.1,6.3-0.3v0.8c0,1,0.1,1.9,0.2,2.7h-0.5c-0.2-1.2-0.8-2-1.7-2.3c-0.5-0.2-1.5-0.2-3-0.2c-0.1,0-0.2,0-0.4,0
			c-0.2,0-0.3,0-0.3,0c-0.5,0-0.7,0.3-0.7,0.9v4.5h2.6c0.6,0,1-0.2,1.3-0.5s0.4-0.8,0.4-1.4h0.5c0,0.5-0.1,1.2-0.1,2.2
			s0,1.7,0.1,2.2h-0.5v-0.1c0-1.2-0.6-1.8-1.7-1.8h-2.6v4.7c0,0.6,0.4,1,1.1,1.2c0.4,0.1,1,0.1,1.8,0.1c0.6,0,1.2-0.1,1.8-0.3
			c0.6-0.2,1-0.6,1.4-1.2c0.3-0.5,0.5-1.1,0.8-1.6H189.6z"/>
		<path id="XMLID_27_" d="M244.9,168.6L244.9,168.6c-0.9,0-1.7,0.5-2.3,1.6l-3.1,5.3v3.7c0,0.6,0.2,1,0.7,1.3
			c0.4,0.3,0.9,0.4,1.5,0.4v0.4c-1.1-0.1-2.1-0.1-3-0.1c-0.9,0-1.9,0-3.1,0.1V181h0.1c0.6,0,1.1-0.1,1.5-0.4
			c0.5-0.3,0.7-0.7,0.7-1.3v-3.7l-3.2-5.3c-0.3-0.5-0.6-0.9-0.9-1.1c-0.4-0.3-0.8-0.5-1.3-0.5v-0.5c0.9,0.1,1.8,0.1,2.5,0.1
			c0.8,0,1.6,0,2.6-0.1v0.5l-0.1,0c-0.8,0-1.2,0.3-1.2,0.8c0,0.3,0.1,0.6,0.3,0.9l2.7,4.4l2.5-4.5c0.1-0.3,0.2-0.5,0.2-0.7
			c0-0.3-0.2-0.6-0.6-0.8c-0.3-0.1-0.6-0.2-1-0.2v-0.5c0.9,0.1,1.8,0.1,2.5,0.1c0.8,0,1.4,0,2-0.1V168.6z"/>
		<path id="XMLID_29_" d="M276.6,174.7c0,1.9-0.6,3.5-1.8,4.9c-1.2,1.4-2.8,2.1-4.7,2.1c-2,0-3.6-0.7-4.8-2c-1.2-1.3-1.9-3-1.9-4.9
			c0-1.9,0.6-3.5,1.9-4.8c1.3-1.3,2.8-2,4.7-2c2,0,3.6,0.6,4.8,1.9C276,171.1,276.6,172.7,276.6,174.7z M274.7,174.6
			c0-1.7-0.3-3.1-1-4.2c-0.8-1.3-2-2-3.6-2c-3.1,0-4.6,2.1-4.6,6.2c0,1.8,0.3,3.3,1,4.4c0.8,1.3,2.1,2,3.8,2c1.7,0,2.9-0.7,3.6-2.1
			C274.4,177.9,274.7,176.4,274.7,174.6z"/>
		<path id="XMLID_36_" d="M310,168.6c-0.5,0-1,0.1-1.4,0.4c-0.4,0.3-0.6,0.7-0.6,1.3c0,0.4,0,2.7-0.1,6.9c0,2.9-1.7,4.4-5.1,4.4
			c-1.5,0-2.7-0.3-3.6-1c-1-0.7-1.4-1.9-1.4-3.3v-7c0-0.5-0.2-1-0.6-1.3s-0.9-0.4-1.4-0.4v-0.4c1.1,0.1,2.1,0.1,2.9,0.1
			c0.8,0,1.7,0,2.8-0.1v0.4c-0.6,0-1,0.1-1.4,0.4c-0.4,0.3-0.6,0.7-0.6,1.3v6.8c0,1.2,0.3,2.1,1,2.8s1.6,1,2.8,1
			c1.4,0,2.4-0.4,3-1.2c0.5-0.7,0.8-1.7,0.8-3.1v-6.4c0-0.6-0.2-1-0.6-1.3c-0.4-0.3-0.9-0.4-1.4-0.4v-0.4c0.9,0.1,1.8,0.1,2.5,0.1
			c0.7,0,1.6,0,2.5-0.1V168.6z"/>
		<path id="XMLID_57_" d="M343.2,181.4c-0.3,0.1-0.8,0.1-1.3,0.1c-1.5,0-2.6-0.5-3.2-1.5l-3.2-5.1c-0.4,0-1.1,0-2,0v4.3
			c0,0.5,0.2,1,0.6,1.3c0.4,0.3,0.8,0.4,1.4,0.4v0.4c-1-0.1-1.9-0.1-2.7-0.1c-0.9,0-1.8,0-2.9,0.1V181h0.1c0.5,0,1-0.1,1.3-0.4
			c0.4-0.3,0.6-0.7,0.6-1.3v-9c0-0.6-0.2-1-0.6-1.3s-0.9-0.4-1.4-0.4v-0.4c1.1,0.1,2.1,0.1,2.9,0.1c0.3,0,0.8,0,1.5,0
			s1.2-0.1,1.5-0.1c2.7,0,4,1,4,2.9c0,0.9-0.3,1.6-0.9,2.1c-0.2,0.2-0.8,0.6-1.9,1.3l3.6,5.2c0.3,0.4,0.7,0.8,1.2,1
			c0.5,0.3,1,0.3,1.5,0.3V181.4z M337.9,171.5c0-1.9-0.9-2.9-2.7-2.9c-0.7,0-1.1,0.1-1.3,0.2c-0.2,0.2-0.4,0.7-0.4,1.4v4.2
			c0.2,0,0.6,0.1,1,0.1C336.8,174.5,337.9,173.5,337.9,171.5z"/>
		<path id="XMLID_60_" d="M400.6,181.4c-1-0.1-2-0.1-2.8-0.1c-0.9,0-1.8,0-2.9,0.1V181l0.1,0c0.5,0,1-0.1,1.3-0.4
			c0.4-0.3,0.6-0.7,0.6-1.3v-4.5h-7v4.5c0,0.5,0.2,1,0.6,1.3c0.4,0.3,0.8,0.4,1.4,0.4l0,0.4c-1-0.1-1.9-0.1-2.7-0.1
			c-0.9,0-1.8,0-2.9,0.1V181l0.1,0c0.5,0,1-0.1,1.3-0.4c0.4-0.3,0.6-0.7,0.6-1.3v-9c0-0.6-0.2-1-0.6-1.3s-0.9-0.4-1.4-0.4v-0.4
			c1.1,0.1,2.1,0.1,2.9,0.1c0.8,0,1.7,0,2.8-0.1v0.4c-0.6,0-1,0.1-1.4,0.4c-0.4,0.3-0.6,0.7-0.6,1.3v3.7h7v-3.7c0-0.6-0.2-1-0.6-1.3
			s-0.9-0.4-1.4-0.4v-0.4c1.1,0.1,2.1,0.1,2.9,0.1c0.8,0,1.7,0,2.8-0.1v0.4c-0.6,0-1,0.1-1.4,0.4c-0.4,0.3-0.6,0.7-0.6,1.3v9
			c0,0.5,0.2,1,0.6,1.3c0.4,0.3,0.8,0.4,1.4,0.4V181.4z"/>
		<path id="XMLID_62_" d="M433,174.7c0,1.9-0.6,3.5-1.8,4.9c-1.2,1.4-2.8,2.1-4.7,2.1c-2,0-3.6-0.7-4.8-2c-1.2-1.3-1.9-3-1.9-4.9
			c0-1.9,0.6-3.5,1.9-4.8c1.3-1.3,2.8-2,4.7-2c2,0,3.6,0.6,4.8,1.9C432.3,171.1,433,172.7,433,174.7z M431,174.6
			c0-1.7-0.3-3.1-1-4.2c-0.8-1.3-2-2-3.6-2c-3.1,0-4.6,2.1-4.6,6.2c0,1.8,0.3,3.3,1,4.4c0.8,1.3,2.1,2,3.8,2c1.7,0,2.9-0.7,3.6-2.1
			C430.7,177.9,431,176.4,431,174.6z"/>
		<path id="XMLID_65_" d="M469.3,181.4c-1-0.1-2-0.1-2.8-0.1c-0.9,0-1.8,0-2.9,0.1V181h0.1c0.5,0,1-0.1,1.3-0.4
			c0.4-0.3,0.6-0.7,0.6-1.3l-0.1-9.8c-1.8,3.9-3.5,7.9-5,12l-0.5-0.1c-0.1-0.3-0.3-0.9-0.7-1.6c-0.3-0.5-0.5-1.1-0.8-1.6l-3.5-7.6
			l0.1,8.8c0,0.6,0.2,1,0.7,1.3c0.4,0.3,0.9,0.4,1.5,0.4v0.4c-1-0.1-1.8-0.1-2.6-0.1c-0.7,0-1.5,0-2.4,0.1V181c0.5,0,1-0.1,1.4-0.4
			c0.4-0.3,0.6-0.7,0.6-1.3c0.1-4.3,0.1-7.1,0.1-8.3c0-0.7-0.2-1.3-0.7-1.7s-1-0.6-1.7-0.6v-0.5c0.8,0.1,1.4,0.1,1.9,0.1
			c0.4,0,1,0,1.8-0.2l5,10.7l4.6-10.7c0.7,0.1,1.3,0.2,1.8,0.2c0.6,0,1.2,0,1.9-0.1v0.5c-0.5,0-1,0.1-1.3,0.4
			c-0.4,0.3-0.6,0.7-0.6,1.2l0.1,9c0,0.5,0.2,1,0.6,1.3c0.4,0.3,0.8,0.4,1.4,0.4V181.4z"/>
		<path id="XMLID_67_" d="M500.1,177.7c-0.3,1.2-0.6,2.5-0.8,3.8c-2.3-0.1-4.4-0.2-6.3-0.2c-0.8,0-2.1,0-4,0.1V181h0.1
			c0.6,0,1-0.1,1.4-0.4c0.4-0.3,0.5-0.7,0.5-1.2v-9c0-0.6-0.2-1-0.6-1.3c-0.4-0.3-0.9-0.4-1.4-0.4v-0.4c1.4,0.1,2.6,0.1,3.7,0.1
			c3.7,0,5.8-0.1,6.3-0.3v0.8c0,1,0.1,1.9,0.2,2.7h-0.5c-0.2-1.2-0.8-2-1.7-2.3c-0.5-0.2-1.5-0.2-3-0.2c-0.1,0-0.2,0-0.4,0
			c-0.2,0-0.3,0-0.3,0c-0.5,0-0.7,0.3-0.7,0.9v4.5h2.6c0.6,0,1-0.2,1.3-0.5s0.4-0.8,0.4-1.4h0.5c0,0.5-0.1,1.2-0.1,2.2
			s0,1.7,0.1,2.2H497v-0.1c0-1.2-0.6-1.8-1.7-1.8h-2.6v4.7c0,0.6,0.4,1,1.1,1.2c0.4,0.1,1,0.1,1.8,0.1c0.6,0,1.2-0.1,1.8-0.3
			c0.6-0.2,1-0.6,1.4-1.2c0.3-0.5,0.5-1.1,0.8-1.6H500.1z"/>
	</g>
	<g id="XMLID_3_">
		<g id="XMLID_41_">
			<g id="XMLID_108_">
				<path id="XMLID_110_" d="M234.2,39c-0.3-2.9-0.1-10.1,3.7-15.9c3.7-5.6,8.2-6.8,8.2-6.8c1.3,5,1.1,14.8-7.9,24.5
					c-10.4,11.1-25.9,10.5-25.9,10.5c8.2,0.7,25.8-1.7,37.3-17.2c9.8-13.2,8.8-26.8,8.8-26.8s-12.1,1-20.1,11.6
					C230.7,28.6,234.2,39,234.2,39"/>
				<path id="XMLID_109_" d="M234.2,39"/>
			</g>
		</g>
		<g id="XMLID_18_">
			<g id="XMLID_111_">
				<path id="XMLID_113_" d="M248.8,48.6c0.6-1.5,2.3-5,5.6-7c3.2-1.9,5.7-1.4,5.7-1.4c-0.6,2.8-3,7.6-9.7,10.2
					c-7.8,3-15.3-1-15.3-1c3.9,2.3,13.1,5.3,22.6,0.4c8-4.2,10.7-11.2,10.7-11.2s-6.3-2.4-12.7,0.9
					C249.5,42.6,248.8,48.6,248.8,48.6"/>
				<path id="XMLID_112_" d="M248.8,48.6"/>
			</g>
		</g>
		<g id="XMLID_11_">
			<g id="XMLID_114_">
				<path id="XMLID_116_" d="M219.5,40.4c-3.6-0.7-12.2-3.4-17.9-10.1c-5.5-6.5-5.3-12.3-5.3-12.3c6.5,0.2,18.2,3.9,26.6,18.2
					c9.7,16.5,3.4,34.9,3.4,34.9c3.8-9.6,7.2-31.6-7.5-51C206.4,3.6,189.7,0,189.7,0s-3.1,15,6.8,28.3
					C205.7,40.9,219.5,40.4,219.5,40.4"/>
				<path id="XMLID_115_" d="M219.5,40.4"/>
			</g>
		</g>
		<g id="XMLID_4_">
			<g id="XMLID_117_">
				<path id="XMLID_119_" d="M223.5,58.9c-3.8,3.4-14,10.7-26.2,11.4c-11.8,0.6-18.1-4.3-18.1-4.3c5.7-7,19.6-16.9,42.5-14.3
					c26.4,3,41.6,25.4,41.6,25.4c-7.5-12.3-29.1-34.4-62.9-34.4c-28.7,0-46.7,15.5-46.7,15.5s14.1,15.9,37.2,16.2
					C212.6,74.5,223.5,58.9,223.5,58.9"/>
				<path id="XMLID_118_" d="M223.5,58.9"/>
			</g>
		</g>
	</g>
</g>
</svg>
