<?xml version="1.0" encoding="utf-8"?>
<!-- Generator: Adobe Illustrator 19.0.0, SVG Export Plug-In . SVG Version: 6.00 Build 0)  -->
<svg version="1.1" xmlns="http://www.w3.org/2000/svg" xmlns:xlink="http://www.w3.org/1999/xlink" x="0px" y="0px"
	 viewBox="0 0 251 75" style="enable-background:new 0 0 251 75;" xml:space="preserve">
<style type="text/css">
	.st0{display:none;}
	.st1{display:inline;}
	.st2{fill:#85754E;}
	.st3{display:inline;fill-rule:evenodd;clip-rule:evenodd;fill:#85754E;}
</style>
<g id="Layer_1" class="st0">
	<g id="XMLID_2_" class="st1">
		<g id="XMLID_665_">
			<path id="XMLID_666_" class="st2" d="M141.8,10.8c0.1,0,0.3,0,0.4,0c0.3,0.1,0.4,0.2,0.4,0.6c0,0.3,0,0.6,0,2.1v1.8
				c0,0.9,0,1.7,0,2.1c0,0.3-0.1,0.5-0.3,0.6c-0.1,0-0.2,0-0.4,0c-0.1,0-0.2,0-0.2,0.1c0,0.1,0.1,0.1,0.2,0.1c0.4,0,1,0,1.2,0
				c0.1,0,0.9,0,1.5,0c0.1,0,0.2,0,0.2-0.1c0-0.1,0-0.1-0.1-0.1c-0.1,0-0.3,0-0.5,0c-0.3,0-0.4-0.3-0.4-0.6c0-0.4,0-1.2,0-2.2v-0.1
				c0-0.1,0-0.1,0.1-0.1l0.9,0c0.1,0,0.1,0,0.2,0.1c0.1,0.2,0.6,0.8,1,1.4c0.6,0.8,0.9,1.2,1.4,1.5c0.3,0.1,0.5,0.2,1.1,0.2h0.9
				c0.1,0,0.2,0,0.2-0.1c0-0.1,0-0.1-0.1-0.1c-0.1,0-0.2,0-0.3,0c-0.1,0-0.6-0.1-1.1-0.7c-0.6-0.6-1.3-1.5-2.2-2.6
				c1-0.8,1.3-1.5,1.3-2.3c0-0.7-0.4-1.2-0.7-1.4c-0.5-0.4-1.2-0.4-1.8-0.4c-0.3,0-1.1,0-1.4,0c-0.2,0-0.8,0-1.4,0
				c-0.1,0-0.2,0-0.2,0.1C141.7,10.8,141.7,10.8,141.8,10.8z M143.8,11.3c0-0.1,0-0.1,0.1-0.1c0.1,0,0.3,0,0.5,0
				c0.6,0,1.5,0.4,1.5,1.8c0,0.8-0.3,1.3-0.6,1.5c-0.2,0.1-0.3,0.2-0.7,0.2c-0.2,0-0.5,0-0.8-0.1c-0.1,0-0.1-0.1-0.1-0.2V11.3z
				 M149.3,21.3c0,0.1,0.1,0.1,0.2,0.1c0.1,0,0.3,0,0.4,0c0.3,0.1,0.4,0.2,0.4,0.6c0,0.3,0,0.6,0,2.1v1.5c0,1.5,0.4,2.2,0.9,2.7
				c0.7,0.7,1.7,0.7,2.2,0.7c0.6,0,1.4-0.1,2.1-0.7c0.8-0.7,0.9-1.9,0.9-3v-1.1c0-1.5,0-1.8,0-2.1c0-0.4,0.1-0.5,0.4-0.6
				c0.1,0,0.2,0,0.3,0c0.1,0,0.2,0,0.2-0.1c0-0.1-0.1-0.1-0.2-0.1c-0.4,0-1,0-1.1,0c0,0-0.6,0-1.1,0c-0.1,0-0.2,0-0.2,0.1
				c0,0.1,0.1,0.1,0.2,0.1c0.1,0,0.3,0,0.4,0c0.3,0.1,0.4,0.2,0.4,0.6c0,0.3,0,0.6,0,2.1v1.3c0,1,0,1.9-0.6,2.5
				c-0.4,0.4-0.9,0.5-1.4,0.5c-0.3,0-0.8,0-1.2-0.4c-0.5-0.4-0.8-1-0.8-2.5v-1.4c0-1.5,0-1.8,0-2.1c0-0.4,0.1-0.5,0.4-0.6
				c0.1,0,0.2,0,0.3,0c0.1,0,0.2,0,0.2-0.1c0-0.1-0.1-0.1-0.2-0.1c-0.4,0-1,0-1.2,0c-0.3,0-0.9,0-1.5,0
				C149.4,21.2,149.3,21.2,149.3,21.3z M152.7,18.3c0.5,0,1.1,0,1.2,0c0.3,0,0.7,0,1.1,0c0.1,0,0.2,0,0.2-0.1c0-0.1,0-0.1-0.1-0.1
				h-0.1c-0.3,0-0.4-0.1-0.4-0.3c0-0.1,0-0.4,0.1-0.6l0.5-1.4c0-0.1,0-0.1,0.1-0.1h2.2c0,0,0.1,0,0.1,0.1l0.8,2.1
				c0,0.1,0,0.2-0.1,0.2c-0.1,0-0.1,0-0.1,0.1c0,0.1,0.1,0.1,0.3,0.1c0.8,0,1.5,0,1.9,0c0.4,0,0.5,0,0.5-0.1c0-0.1,0-0.1-0.1-0.1
				c-0.1,0-0.3,0-0.4,0c-0.2-0.1-0.5-0.2-0.9-1.1c-0.6-1.5-2.2-5.6-2.5-6.1c-0.1-0.2-0.2-0.3-0.2-0.3c-0.1,0-0.2,0.1-0.3,0.4
				l-2.5,6.2c-0.2,0.5-0.4,0.8-0.8,0.9c-0.1,0-0.2,0-0.3,0c-0.1,0-0.1,0-0.1,0.1C152.5,18.2,152.6,18.3,152.7,18.3z M156.3,12.7
				C156.3,12.6,156.3,12.6,156.3,12.7c0.1-0.1,0.1,0,0.1,0l0.9,2.5c0,0,0,0.1,0,0.1h-1.8c0,0,0,0,0-0.1L156.3,12.7z M201.2,28.4
				c-0.6,0-1.2-0.3-1.4-1c0-0.2-0.1-0.4-0.1-0.5c0-0.1,0-0.2-0.1-0.2c-0.1,0-0.1,0.1-0.1,0.3c0,0.2,0,0.8,0,1.3c0,0.2,0,0.3,0.2,0.3
				c0.4,0.2,0.9,0.3,1.5,0.3c0.5,0,1.1-0.1,1.6-0.4c0.7-0.5,0.9-1.2,0.9-1.8c0-1-0.4-1.6-1.6-2.6l-0.3-0.2c-0.8-0.6-1.1-1-1.1-1.4
				c0-0.6,0.4-1,1.2-1c0.6,0,0.9,0.3,1.1,0.5c0.2,0.3,0.3,0.6,0.3,0.7c0,0.1,0,0.2,0.1,0.2c0.1,0,0.1-0.1,0.1-0.3c0-0.8,0-1.1,0-1.2
				c0-0.1,0-0.1-0.1-0.1c-0.3-0.1-0.7-0.2-1.3-0.2c-1.4,0-2.3,0.8-2.3,1.9c0,0.8,0.4,1.5,1.5,2.4l0.5,0.4c0.8,0.7,1,1.1,1,1.6
				C202.5,27.8,202.1,28.4,201.2,28.4z M192.3,28.7c0.4,0.2,0.9,0.3,1.5,0.3c0.5,0,1.1-0.1,1.6-0.4c0.7-0.5,0.9-1.2,0.9-1.8
				c0-1-0.4-1.6-1.6-2.6l-0.3-0.2c-0.8-0.6-1.1-1-1.1-1.4c0-0.6,0.4-1,1.2-1c0.6,0,0.9,0.3,1.1,0.5c0.2,0.3,0.3,0.6,0.3,0.7
				c0,0.1,0,0.2,0.1,0.2c0.1,0,0.1-0.1,0.1-0.3c0-0.8,0-1.1,0-1.2c0-0.1,0-0.1-0.1-0.1c-0.3-0.1-0.7-0.2-1.3-0.2
				c-1.4,0-2.3,0.8-2.3,1.9c0,0.8,0.4,1.5,1.5,2.4l0.5,0.4c0.8,0.7,1,1.1,1,1.6c0,0.5-0.4,1.1-1.3,1.1c-0.6,0-1.2-0.3-1.4-1
				c0-0.2-0.1-0.4-0.1-0.5c0-0.1,0-0.2-0.1-0.2c-0.1,0-0.1,0.1-0.1,0.3c0,0.2,0,0.8,0,1.3C192.1,28.5,192.1,28.6,192.3,28.7z
				 M129.6,12c0.1,0,0.1,0,0.1-0.1c0-0.1,0.1-0.2,0.2-0.4c0.1-0.2,0.4-0.3,1-0.3l1.5,0v4.1c0,0.9,0,1.7,0,2.1c0,0.3-0.1,0.5-0.3,0.6
				c-0.1,0-0.2,0-0.4,0c-0.1,0-0.2,0-0.2,0.1c0,0.1,0.1,0.1,0.2,0.1c0.4,0,1,0,1.3,0c0.3,0,0.9,0,1.6,0c0.1,0,0.2,0,0.2-0.1
				c0-0.1,0-0.1-0.2-0.1c-0.1,0-0.4,0-0.5,0c-0.3,0-0.4-0.3-0.4-0.5c0-0.4,0-1.2,0-2.2v-4.1l1.3,0c0.9,0,1.2,0.3,1.2,0.6l0,0.1
				c0,0.2,0,0.2,0.1,0.2c0.1,0,0.1-0.1,0.1-0.2c0-0.3,0-1,0-1.2c0-0.2,0-0.2-0.1-0.2c0,0-0.1,0-0.3,0.1c-0.1,0-0.4,0.1-0.7,0.1h-3.9
				c-0.3,0-0.7,0-1-0.1c-0.2,0-0.3-0.1-0.4-0.1c-0.1,0-0.1,0.1-0.1,0.2c0,0.1-0.2,1-0.2,1.2C129.5,12,129.5,12,129.6,12z
				 M203.9,61.2v-3.4c0-0.7,0-1.4,0-1.6c0-0.1,0-0.2-0.1-0.2c-0.1,0-0.2,0.1-0.3,0.2c-0.1,0.1-4,5.3-4,5.4c0,0.1-0.1,0.1-0.1,0.3
				c0,0.1,0.1,0.2,0.3,0.2h3.2c0,0.3,0,0.8,0,1.3c0,0.3-0.1,0.6-0.5,0.6c-0.2,0-0.4,0-0.5,0c-0.1,0-0.1,0-0.1,0.1
				c0,0.1,0.1,0.1,0.2,0.1c0.6,0,1.1,0,1.4,0c0.2,0,0.9,0,1.5,0c0.1,0,0.2,0,0.2-0.1c0-0.1,0-0.1-0.1-0.1c-0.1,0-0.3,0-0.5,0
				c-0.3-0.1-0.4-0.3-0.4-0.6c0-0.5,0-0.9,0-1.3h0.9c0.2,0,0.2,0,0.3-0.1c0.1-0.1,0.2-0.6,0.2-0.7c0-0.1,0-0.1-0.1-0.1
				c-0.1,0-0.2,0.1-0.5,0.1H203.9z M202.8,61.2h-2.3c0.4-0.5,2.1-2.9,2.3-3.3h0V61.2z M184.1,18.3c0.5,0,1.1,0,1.2,0
				c0.3,0,0.7,0,1.1,0c0.1,0,0.2,0,0.2-0.1c0-0.1,0-0.1-0.1-0.1h-0.1c-0.3,0-0.4-0.1-0.4-0.3c0-0.1,0-0.4,0.1-0.6l0.5-1.4
				c0-0.1,0-0.1,0.1-0.1h2.2c0,0,0.1,0,0.1,0.1l0.8,2.1c0,0.1,0,0.2-0.1,0.2c-0.1,0-0.1,0-0.1,0.1c0,0.1,0.1,0.1,0.3,0.1
				c0.8,0,1.5,0,1.9,0c0.4,0,0.5,0,0.5-0.1c0-0.1,0-0.1-0.1-0.1c-0.1,0-0.3,0-0.4,0c-0.2-0.1-0.5-0.2-0.9-1.1
				c-0.6-1.5-2.2-5.6-2.5-6.1c-0.1-0.2-0.2-0.3-0.2-0.3c-0.1,0-0.2,0.1-0.3,0.4l-2.5,6.2c-0.2,0.5-0.4,0.8-0.8,0.9
				c-0.1,0-0.2,0-0.3,0c-0.1,0-0.1,0-0.1,0.1C183.9,18.2,183.9,18.3,184.1,18.3z M187.6,12.7C187.6,12.6,187.6,12.6,187.6,12.7
				c0.1-0.1,0.1,0,0.1,0l0.9,2.5c0,0,0,0.1,0,0.1h-1.8c0,0,0,0,0-0.1L187.6,12.7z M141.3,21.3c0.1,0,0.3,0,0.4,0
				c0.3,0.1,0.4,0.2,0.4,0.6c0,0.3,0,0.6,0,2.1v1.8c0,0.9,0,1.7,0,2.1c0,0.3-0.1,0.5-0.3,0.6c-0.1,0-0.2,0-0.4,0
				c-0.1,0-0.2,0-0.2,0.1c0,0.1,0.1,0.1,0.2,0.1c0.2,0,0.5,0,0.7,0c0.2,0,0.5,0,0.6,0c0.1,0,0.4,0,0.7,0c0.3,0,0.6,0,0.7,0
				c1.8,0,2.7-1.1,2.7-2.2c0-1.2-1-1.9-1.8-2.2c0.5-0.4,1-0.9,1-1.8c0-0.5-0.3-1.5-2.1-1.5c-0.3,0-0.7,0-1.2,0c-0.2,0-0.8,0-1.4,0
				c-0.1,0-0.2,0-0.2,0.1C141.2,21.3,141.2,21.3,141.3,21.3z M143.3,21.8c0-0.1,0-0.2,0.1-0.2c0.1,0,0.2,0,0.3,0
				c0.9,0,1.2,0.9,1.2,1.6c0,0.5-0.1,0.9-0.4,1.1c-0.2,0.2-0.4,0.2-0.7,0.2c-0.2,0-0.4,0-0.5,0c0,0-0.1,0-0.1-0.1V21.8z M143.3,24.9
				C143.3,24.8,143.4,24.8,143.3,24.9c0.2-0.1,0.3-0.1,0.5-0.1c0.4,0,0.6,0.1,0.8,0.2c0.8,0.5,1,1.4,1,2c0,1-0.8,1.3-1.2,1.3
				c-0.2,0-0.5,0-0.7-0.1c-0.3-0.1-0.3-0.3-0.3-1V24.9z M129.3,21.3c0.1,0,0.2,0,0.3,0c0.3,0.1,0.4,0.2,0.4,0.6c0,0.3,0,0.6,0,2.1
				v1.8c0,0.9,0,1.7,0,2.1c0,0.3-0.1,0.5-0.3,0.6c-0.1,0-0.2,0-0.4,0c-0.1,0-0.2,0-0.2,0.1c0,0.1,0.1,0.1,0.2,0.1c0.2,0,0.5,0,0.7,0
				c0.2,0,0.5,0,0.6,0c0.4,0,0.8,0,1.2,0c0.4,0,1,0,1.7,0c0.5,0,0.6-0.1,0.6-0.3c0.1-0.3,0.1-1,0.1-1.2c0-0.1,0-0.2-0.1-0.2
				c-0.1,0-0.1,0.1-0.1,0.2c0,0.2-0.1,0.5-0.3,0.6c-0.2,0.3-0.6,0.3-1.2,0.3c-0.8,0-1-0.1-1.2-0.2c-0.2-0.2-0.2-0.9-0.2-2.2v-1.8
				c0-1.5,0-1.8,0-2.1c0-0.4,0.1-0.5,0.4-0.6c0.1,0,0.3,0,0.4,0c0.1,0,0.2,0,0.2-0.1c0-0.1-0.1-0.1-0.2-0.1c-0.4,0-1.1,0-1.4,0
				c-0.3,0-0.9,0-1.4,0c-0.1,0-0.2,0-0.2,0.1C129.2,21.3,129.2,21.3,129.3,21.3z M186.9,70.2h-1.1v6h0.6c0.9,0,1.6-0.1,2.1-0.3
				c0.5-0.2,0.8-0.5,1.1-0.9c0.3-0.5,0.4-1,0.4-1.8c0-1.1-0.2-1.8-0.7-2.3C188.8,70.5,188,70.2,186.9,70.2z M173.1,28.8
				c0.5,0,1,0,1.1,0c0.2,0,0.6,0,1.2,0c0.1,0,0.2,0,0.2-0.1c0-0.1-0.1-0.1-0.2-0.1c-0.2,0-0.3,0-0.5-0.1c-0.2-0.1-0.3-0.3-0.3-1.1
				l-0.1-4.2h0c0.2,0.2,1.3,1.4,2.4,2.5c1,1,2.3,2.4,2.9,3c0.1,0.1,0.2,0.2,0.3,0.2c0.1,0,0.1-0.1,0.1-0.3l0.1-6.3
				c0-0.6,0.1-0.8,0.4-0.9c0.1,0,0.2,0,0.3,0c0.1,0,0.2,0,0.2-0.1c0-0.1-0.1-0.1-0.2-0.1c-0.5,0-0.9,0-1,0c-0.2,0-0.7,0-1.2,0
				c-0.1,0-0.3,0-0.3,0.1c0,0.1,0,0.1,0.2,0.1c0.1,0,0.4,0,0.5,0.1c0.2,0.1,0.3,0.3,0.3,0.9l0.1,4.5h0c-0.2-0.2-1.5-1.6-2.2-2.3
				c-1.5-1.5-3-3.1-3.1-3.2c-0.2-0.2-0.3-0.3-0.4-0.3c-0.1,0-0.1,0.1-0.1,0.3l-0.1,5.9c0,0.9,0,1.2-0.3,1.2c-0.1,0-0.3,0.1-0.4,0.1
				c-0.1,0-0.2,0-0.2,0.1C172.9,28.8,173,28.8,173.1,28.8z M185,28c0,0.3-0.1,0.5-0.3,0.6c-0.1,0-0.2,0-0.4,0c-0.1,0-0.2,0-0.2,0.1
				c0,0.1,0.1,0.1,0.2,0.1c0.2,0,0.5,0,0.7,0c0.2,0,0.5,0,0.6,0c0.3,0,0.6,0,1,0c0.4,0,1,0,1.7,0c0.4,0,0.5,0,0.5-0.3
				c0-0.2,0.1-0.9,0.1-1.1c0-0.1,0-0.2-0.1-0.2c-0.1,0-0.1,0-0.1,0.2c-0.1,0.4-0.2,0.6-0.4,0.7c-0.3,0.1-0.7,0.1-0.9,0.1
				c-1,0-1.2-0.2-1.2-0.8c0-0.3,0-1.2,0-1.6v-0.8c0-0.1,0-0.1,0.1-0.1c0.2,0,1.2,0,1.4,0c0.4,0,0.5,0.2,0.6,0.4c0,0.1,0,0.3,0,0.4
				c0,0.1,0,0.1,0.1,0.1c0.1,0,0.1-0.1,0.1-0.2c0-0.1,0-0.5,0-0.7c0-0.5,0.1-0.7,0.1-0.7c0-0.1,0-0.1-0.1-0.1c0,0-0.1,0.1-0.2,0.1
				c-0.1,0.1-0.2,0.1-0.5,0.2c-0.2,0-1.4,0-1.6,0c-0.1,0-0.1,0-0.1-0.1v-2.5c0-0.1,0-0.1,0.1-0.1c0.2,0,1.2,0,1.4,0
				c0.5,0.1,0.6,0.2,0.7,0.4c0,0.1,0.1,0.3,0.1,0.4c0,0.1,0,0.1,0.1,0.1s0.1-0.1,0.1-0.1c0-0.1,0-0.6,0-0.7c0-0.5,0.1-0.6,0.1-0.7
				c0-0.1,0-0.1-0.1-0.1c0,0-0.1,0-0.2,0c-0.1,0-0.2,0-0.4,0.1c-0.2,0-2.2,0-2.5,0c-0.1,0-0.4,0-0.6,0c-0.2,0-0.5,0-0.8,0
				c-0.1,0-0.2,0-0.2,0.1c0,0.1,0.1,0.1,0.2,0.1c0.1,0,0.3,0,0.4,0c0.3,0.1,0.4,0.2,0.4,0.6c0,0.3,0,0.6,0,2.1v1.8
				C185,26.8,185,27.6,185,28z M176.3,10.8c0.1,0,0.2,0,0.4,0c0.2,0.1,0.3,0.2,0.3,0.6c0,0.3,0,0.6,0,2.1v1.8c0,1,0,1.8,0,2.2
				c0,0.3-0.1,0.5-0.3,0.5c-0.1,0-0.2,0-0.4,0c-0.1,0-0.2,0-0.2,0.1c0,0.1,0.1,0.1,0.2,0.1c0.4,0,1,0,1.3,0c0.3,0,0.9,0,1.6,0
				c0.1,0,0.2,0,0.2-0.1c0-0.1,0-0.1-0.2-0.1c-0.1,0-0.4,0-0.5,0c-0.3,0-0.4-0.2-0.4-0.5c0-0.4,0-1.2,0-2.2v-1.8c0-1.5,0-1.8,0-2.1
				c0-0.4,0.1-0.5,0.4-0.6c0.1,0,0.2,0,0.3,0c0.1,0,0.2,0,0.2-0.1c0-0.1-0.1-0.1-0.2-0.1c-0.4,0-1,0-1.2,0c-0.3,0-0.9,0-1.3,0
				c-0.2,0-0.2,0-0.2,0.1C176.1,10.8,176.2,10.8,176.3,10.8z M161.7,25.3l0.5,0.4c0.8,0.7,1,1.1,1,1.6c0,0.5-0.4,1.1-1.3,1.1
				c-0.6,0-1.2-0.3-1.4-1c0-0.2-0.1-0.4-0.1-0.5c0-0.1,0-0.2-0.1-0.2c-0.1,0-0.1,0.1-0.1,0.3c0,0.2,0,0.8,0,1.3c0,0.2,0,0.3,0.2,0.3
				c0.4,0.2,0.9,0.3,1.5,0.3c0.5,0,1.1-0.1,1.6-0.4c0.7-0.5,0.9-1.2,0.9-1.8c0-1-0.4-1.6-1.6-2.6l-0.3-0.2c-0.8-0.6-1.1-1-1.1-1.4
				c0-0.6,0.4-1,1.2-1c0.6,0,0.9,0.3,1.1,0.5c0.2,0.3,0.3,0.6,0.3,0.7c0,0.1,0,0.2,0.1,0.2c0.1,0,0.1-0.1,0.1-0.3c0-0.8,0-1.1,0-1.2
				c0-0.1,0-0.1-0.1-0.1c-0.3-0.1-0.7-0.2-1.3-0.2c-1.4,0-2.3,0.8-2.3,1.9C160.2,23.7,160.6,24.4,161.7,25.3z M94.1,67.6V85h111.4
				V67.6H94.1z M125.4,69.9c-0.3,0-0.5,0.1-0.6,0.2c-0.2,0.1-0.3,0.3-0.5,0.6c0,0.1-0.3,0.6-0.6,1.6l-4.3,11.4H119l-3.4-8.9
				l-3.7,8.9h-0.4L107,72.4c-0.5-1.1-0.8-1.8-1-2.1c-0.2-0.2-0.5-0.4-0.9-0.4v-0.4h5.9v0.4c-0.5,0-0.8,0.1-0.9,0.2
				c-0.2,0.1-0.2,0.3-0.2,0.5c0,0.3,0.2,0.8,0.5,1.6l2.7,6.7l2.1-5.2l-0.6-1.5c-0.3-0.8-0.5-1.3-0.7-1.6c-0.2-0.3-0.4-0.5-0.6-0.6
				c-0.2-0.1-0.5-0.2-1-0.2v-0.4h6.6v0.4c-0.5,0-0.8,0-1,0.1c-0.1,0-0.3,0.1-0.3,0.2c-0.1,0.1-0.1,0.2-0.1,0.4
				c0,0.2,0.2,0.6,0.5,1.4l2.5,6.5l2.2-5.9c0.2-0.6,0.4-1,0.4-1.2c0.1-0.2,0.1-0.4,0.1-0.6c0-0.3-0.1-0.5-0.3-0.7
				c-0.2-0.2-0.5-0.2-1.1-0.3v-0.4h3.5V69.9z M134,69.9h-0.5c-0.4,0-0.7,0.1-1,0.2c-0.2,0.1-0.3,0.3-0.4,0.5
				c-0.1,0.2-0.1,0.6-0.1,1.3v9.1c0,0.7,0,1.1,0.1,1.3c0.1,0.2,0.2,0.3,0.5,0.5c0.2,0.1,0.5,0.2,0.9,0.2h0.5v0.4h-7.1v-0.4h0.5
				c0.4,0,0.7-0.1,1-0.2c0.2-0.1,0.3-0.3,0.4-0.5c0.1-0.2,0.1-0.6,0.1-1.3v-9.1c0-0.7,0-1.1-0.1-1.3c-0.1-0.2-0.2-0.3-0.4-0.5
				c-0.2-0.1-0.5-0.2-0.9-0.2h-0.5v-0.4h7.1V69.9z M149.6,69.9c-0.6,0.1-1,0.2-1.2,0.3c-0.2,0.1-0.4,0.3-0.5,0.6
				c-0.1,0.3-0.2,0.7-0.2,1.4v11.5h-0.3l-9.2-11.5v8.8c0,0.8,0.2,1.3,0.5,1.6c0.4,0.3,0.8,0.4,1.2,0.4h0.3v0.4h-4.8v-0.4
				c0.7,0,1.3-0.2,1.6-0.5c0.3-0.3,0.4-0.8,0.4-1.6v-9.7l-0.3-0.4c-0.3-0.4-0.5-0.6-0.8-0.7c-0.2-0.1-0.5-0.2-1-0.2v-0.4h4.8
				l6.7,8.5v-5.9c0-0.8-0.1-1.4-0.4-1.7c-0.3-0.4-0.9-0.6-1.6-0.6v-0.4h4.5V69.9z M165.3,69.9c-0.6,0.1-1,0.2-1.2,0.3
				c-0.2,0.1-0.4,0.3-0.5,0.6c-0.1,0.3-0.2,0.7-0.2,1.4v11.5h-0.3l-9.2-11.5v8.8c0,0.8,0.2,1.3,0.5,1.6c0.4,0.3,0.8,0.4,1.2,0.4h0.3
				v0.4h-4.8v-0.4c0.7,0,1.3-0.2,1.6-0.5c0.3-0.3,0.4-0.8,0.4-1.6v-9.7l-0.3-0.4c-0.3-0.4-0.5-0.6-0.8-0.7c-0.2-0.1-0.5-0.2-1-0.2
				v-0.4h4.8l6.7,8.5v-5.9c0-0.8-0.1-1.4-0.4-1.7c-0.3-0.4-0.9-0.6-1.6-0.6v-0.4h4.5V69.9z M178.6,83.3h-11.8v-0.4h0.5
				c0.4,0,0.7-0.1,1-0.2c0.2-0.1,0.3-0.3,0.4-0.5c0.1-0.2,0.1-0.6,0.1-1.3v-9.1c0-0.6,0-1-0.1-1.1c-0.1-0.2-0.2-0.4-0.4-0.5
				c-0.3-0.2-0.6-0.3-1-0.3h-0.5v-0.4h11.4v4.1h-0.4c-0.2-1-0.5-1.7-0.8-2.1c-0.4-0.4-0.8-0.8-1.5-1c-0.4-0.1-1.1-0.2-2.1-0.2h-1.4
				v5.6h0.3c0.9,0,1.5-0.3,1.9-0.8c0.4-0.5,0.6-1.4,0.7-2.4h0.4v7.2H175c-0.1-0.8-0.2-1.4-0.5-1.9c-0.3-0.5-0.6-0.8-0.9-1
				c-0.3-0.2-0.8-0.3-1.5-0.3v3.9c0,0.8,0,1.2,0.1,1.4c0.1,0.2,0.2,0.3,0.4,0.4c0.2,0.1,0.5,0.2,0.8,0.2h0.8c1.3,0,2.3-0.3,3.1-0.9
				c0.8-0.6,1.3-1.5,1.7-2.7h0.4L178.6,83.3z M195.4,83.3h-4.3l-4.4-6.3h-0.9v3.9c0,0.7,0,1.2,0.1,1.4c0.1,0.2,0.2,0.3,0.5,0.5
				c0.2,0.1,0.7,0.2,1.3,0.2v0.4h-7v-0.4c0.6,0,1.1-0.1,1.3-0.2c0.2-0.1,0.4-0.3,0.5-0.5c0.1-0.2,0.1-0.7,0.1-1.4v-8.9
				c0-0.7,0-1.2-0.1-1.4c-0.1-0.2-0.2-0.3-0.5-0.5c-0.2-0.1-0.7-0.2-1.3-0.2v-0.4h6.3c1.6,0,2.9,0.1,3.6,0.3
				c0.8,0.2,1.4,0.7,1.9,1.3c0.5,0.6,0.7,1.3,0.7,2.2c0,1-0.4,1.9-1.1,2.5c-0.5,0.4-1.1,0.7-1.9,0.9l3.3,4.7c0.4,0.6,0.7,1,0.9,1.1
				c0.3,0.2,0.6,0.3,1,0.3V83.3z M165.6,10.8c0.1,0,0.2,0,0.3,0c0.3,0.1,0.4,0.2,0.4,0.6c0,0.3,0,0.6,0,2.1v1.8c0,0.9,0,1.7,0,2.1
				c0,0.3-0.1,0.5-0.3,0.6c-0.1,0-0.2,0-0.4,0c-0.1,0-0.2,0-0.2,0.1c0,0.1,0.1,0.1,0.2,0.1c0.2,0,0.5,0,0.7,0c0.2,0,0.5,0,0.6,0
				c0.4,0,0.8,0,1.2,0c0.4,0,1,0,1.7,0c0.5,0,0.6-0.1,0.6-0.3c0.1-0.3,0.1-1,0.1-1.2c0-0.1,0-0.2-0.1-0.2c-0.1,0-0.1,0.1-0.1,0.2
				c0,0.2-0.1,0.5-0.3,0.6c-0.2,0.3-0.6,0.3-1.2,0.3c-0.8,0-1-0.1-1.2-0.2c-0.2-0.2-0.2-0.9-0.2-2.2v-1.8c0-1.5,0-1.8,0-2.1
				c0-0.4,0.1-0.5,0.4-0.6c0.1,0,0.3,0,0.4,0c0.1,0,0.2,0,0.2-0.1c0-0.1-0.1-0.1-0.2-0.1c-0.4,0-1.1,0-1.4,0c-0.3,0-0.9,0-1.4,0
				c-0.1,0-0.2,0-0.2,0.1C165.4,10.8,165.5,10.8,165.6,10.8z M168,28c0,0.3-0.1,0.5-0.3,0.5c-0.1,0-0.2,0-0.4,0
				c-0.1,0-0.2,0-0.2,0.1c0,0.1,0.1,0.1,0.2,0.1c0.4,0,1,0,1.3,0c0.3,0,0.9,0,1.6,0c0.1,0,0.2,0,0.2-0.1c0-0.1,0-0.1-0.2-0.1
				c-0.1,0-0.4,0-0.5,0c-0.3,0-0.4-0.2-0.4-0.5c0-0.4,0-1.2,0-2.2v-1.8c0-1.5,0-1.8,0-2.1c0-0.4,0.1-0.5,0.4-0.6c0.1,0,0.2,0,0.3,0
				c0.1,0,0.2,0,0.2-0.1c0-0.1-0.1-0.1-0.2-0.1c-0.4,0-1,0-1.2,0c-0.3,0-0.9,0-1.3,0c-0.2,0-0.2,0-0.2,0.1c0,0.1,0.1,0.1,0.2,0.1
				c0.1,0,0.2,0,0.4,0c0.2,0.1,0.3,0.2,0.3,0.6c0,0.3,0,0.6,0,2.1v1.8C168,26.8,168,27.6,168,28z M132.7,60.8l0.9,0
				c0.1,0,0.1,0,0.2,0.1c0.1,0.2,0.6,0.9,1,1.5c0.6,0.8,1,1.3,1.4,1.5c0.3,0.1,0.5,0.2,1.1,0.2h1c0.1,0,0.2,0,0.2-0.1
				c0-0.1,0-0.1-0.1-0.1c-0.1,0-0.2,0-0.3,0c-0.2,0-0.6-0.1-1.2-0.7c-0.6-0.7-1.3-1.6-2.3-2.8c1-0.9,1.4-1.6,1.4-2.4
				c0-0.7-0.4-1.2-0.7-1.4c-0.6-0.4-1.3-0.5-1.9-0.5c-0.3,0-1.1,0-1.5,0c-0.2,0-0.9,0-1.4,0c-0.2,0-0.2,0-0.2,0.1
				c0,0.1,0.1,0.1,0.2,0.1c0.1,0,0.3,0,0.4,0c0.3,0.1,0.4,0.2,0.4,0.6c0,0.3,0,0.6,0,2.2v1.9c0,1,0,1.8-0.1,2.2
				c0,0.3-0.1,0.5-0.3,0.6c-0.1,0-0.2,0-0.4,0c-0.1,0-0.2,0-0.2,0.1c0,0.1,0.1,0.1,0.2,0.1c0.4,0,1.1,0,1.3,0c0.2,0,0.9,0,1.5,0
				c0.1,0,0.2,0,0.2-0.1c0-0.1,0-0.1-0.1-0.1c-0.1,0-0.4,0-0.5,0c-0.3,0-0.4-0.3-0.4-0.6c-0.1-0.4-0.1-1.3-0.1-2.3L132.7,60.8
				C132.7,60.8,132.7,60.8,132.7,60.8z M132.7,56.8c0-0.1,0-0.1,0.1-0.1c0.1,0,0.3,0,0.6,0c0.6,0,1.6,0.4,1.6,1.9
				c0,0.9-0.3,1.3-0.6,1.6c-0.2,0.1-0.3,0.2-0.7,0.2c-0.3,0-0.6,0-0.8-0.1c-0.1,0-0.1-0.1-0.1-0.2V56.8z M204.8,53.1H93.7v0.5h111.2
				V53.1z M99.5,37.4c0.7-0.5,1.4-0.7,2.2-0.7c1,0,1.8,0.3,2.6,0.9c0.8,0.6,1.3,1.5,1.5,2.7h0.4v-4.5h-0.4c0,0.3-0.1,0.6-0.3,0.7
				c-0.1,0.1-0.3,0.2-0.5,0.2c-0.2,0-0.5-0.1-1.1-0.3c-1-0.4-1.9-0.6-2.8-0.6c-1.2,0-2.4,0.3-3.4,0.9c-1.1,0.6-1.9,1.5-2.6,2.6
				c-0.6,1.1-1,2.3-1,3.5c0,1.2,0.3,2.3,0.9,3.3c0.6,1,1.4,1.8,2.4,2.4c1.1,0.6,2.3,0.8,3.6,0.8c1,0,1.9-0.2,2.7-0.5
				c0.8-0.3,1.5-0.9,2.2-1.6V46c-0.7,0.9-1.4,1.5-2.1,1.8c-0.7,0.4-1.4,0.5-2.2,0.5c-1,0-1.8-0.2-2.4-0.7c-0.6-0.5-1.1-1.2-1.4-2.1
				c-0.3-0.9-0.4-2-0.4-3.1c0-1.2,0.2-2.2,0.6-3.2C98.3,38.4,98.8,37.8,99.5,37.4z M84.5,57.8c0,0,0.6,0.3,1.2,1
				c0.5,0.6,1,1.7,1,1.7s-1-6.1-2.1-9.5c-0.6-1.8-0.7-3.1-0.7-4.3c0-1.3,0.3-4.3-0.2-6.9c-0.5-2.6-1.6-5.3-1.6-6.6
				c0-1.3,0.4-3.2,1-4.2c0.6-1.1,1.1-2,1.1-2.2c0.1-0.5-0.6-1.8-0.6-1.8s2.4-2.5,2.3-5.9c-0.1-1.4-0.8-5.4-2.5-8.1
				C81,6.8,77.1,4,74,2.3C71.5,1,67.3-0.2,62.7,0.5c-4.1,0.7-6.5,3.3-6.7,5.1c-0.3,3.4,1.6,8.1,9.9,13c1.8,1.1,5.9,1.9,8.6,1.3
				c2.6-0.6,4-2.7,4-2.7s0.1-0.4,0-0.5c-0.1,0-3.5,0.1-4.3,0.2c-0.8,0.1-1.6,0.8-1.9,0.9c-0.3,0.2-0.9,0.1-1.2,0
				c-0.2,0-3.1-0.9-6-3.5c-2.5-2.3-3.6-4.5-3.8-5.7c-0.5-2.6,0.5-4.9,3.2-5c2.8-0.2,7.6-0.1,13.3,5.9c5.3,5.6,5.2,11.6,3.6,14.2
				c-1.8,2.9-6.3,3.9-13.7-0.2c-5.4-3-10.7-10.3-12.2-15.2c-1.3-4.4-2.5-10.7,2.3-13.9c2.7-1.8,7-1.1,10.4,0.8
				c3.3,1.9,5.3,4.4,5.5,5C74,1,74.8,1.4,75.1,1.5c0.3,0.1,4,1.4,4.2,1.5c0.2,0.1,0.6,0.1,0.8,0c0.2-0.1,1.4-1.4,1.5-1.5
				c0.1-0.1,0.1-0.2-0.1-0.3C81.3,1.1,75.8-4.3,69.3-8c-2.5-1.4-4.7-1.8-6.8-1.9c-2.2-0.2-6.1-0.3-9.6,1.1c-4.6,1.9-7.3,5.6-7.5,9.7
				c-0.2,8,9,16.4,9,16.4s0.8-1.1,1-1.3c0.3-0.3,0.6-0.3,0.9-0.2c0.6,0.2,5.9,4.5,6.3,5.1c0.5,0.6,0.5,1,0.6,1.4
				c0,0.5,0.1,1.4,0.1,1.4s3.1,1.7,7,2.9c3.4,1,7.9,1.1,7.9,1.1s0.7,5,0.8,5.7c0.1,0.8,0.2,7.6,0.1,9.5c0,1.9,0.2,7.1,0.2,7.7
				c0.1,0.5,0.5,1.7,0.8,2.6c0.2,0.7,0,1.9,0,2.3c0,0.5-0.2,1.5-0.2,1.5s-1.5-1.1-1.7-2.2c-0.2-0.9,0.2-2,0.3-2.5s0.2-1.9,0.2-2.3
				c0-0.4-0.2-1.1-0.2-1.1s-0.8-0.2-1.4-0.2c-0.5,0-1,0.4-1.1,0.8c-0.2,0.5-0.4,1.1-1.4,1.7c-1.2,0.7-2.2,0.9-2.5,1.1
				c-0.1,0.1-0.1,0.1-0.1,0c0,0,0,0,0.1,0c0.3-0.2,1.1-0.7,2-1.3c0.8-0.6,1.1-1.2,1.3-1.5c0.1-0.2,0.2-0.7,0.9-1.1
				c0.6-0.4,1.8,0.1,1.8,0.1c-0.1-0.1-0.7-0.9-2.2-1.5c-1.2-0.6-2.7-0.8-3.5-0.9c-1.8-0.2-1.6-0.1-1.8,0c-0.9,0.4-2.1,2-2.1,2
				s0.3,1.4,0.4,2c0.1,0.6,0,1.6,0.3,1.9c0.3,0.3,2,1.5,2.5,1.9c0.6,0.5,1.9,2.8,1.9,2.8s-1.8-1.9-2.3-2.3c-0.5-0.4-1.8-1.2-2.3-1.5
				c-0.8-0.6-0.8-1.8-0.8-2.8c-0.1-0.9-0.4-2.2-0.6-3.1c-0.2-0.9-1.5-3.7-2-4.8c-0.5-1.1-1.1-3.4-1.2-4.6c-0.2-1.2-0.6-3.8-1-5.3
				c-0.4-1.5-1-3.4-1-3.9c0-0.5,0.2-4.8,0.1-5.4c0-0.6-0.4-1.6-1.5-2.5c-0.7-0.6-4-3.5-4.5-3.7c-0.6-0.1-0.8-0.1-1,0.1
				c-0.2,0.2-0.9,1.2-1,1.8c-0.1,0.6-0.1,1.6,0.3,2.2c0.4,0.5,2.2,2.9,3.1,3.9c0.6,0.8,1.4,2.2,1.7,3.2c0.3,1,0.1,4.4,0.1,5.4
				c0,0.9,0,3.7,0.1,5.1c0.1,1.5,0.8,4.6,0.9,5.3c0.1,0.7,1.4,7.2,1.7,8.3c0.3,1.2,1,3.1,1.4,4c0.3,0.9,1.4,4.2,1.7,5.3
				c0.2,1,1.2,4,2.1,6.4c1,2.4,3.2,6.6,3.8,8.8c0.7,2.2,1.1,5.3,0.8,6.9C72,84.9,71.9,85,71.9,85h12.9c0,0-0.3-2.2,0.7-5.8
				c0.6-2.3,2.3-10.1,2.5-11.4c0.1-0.7,0.1-2.6-1-5.4C86.1,60,84.5,57.8,84.5,57.8z M124.3,63.9c-0.1,0-0.1,0-0.1,0.1
				c0,0.1,0.1,0.1,0.3,0.1c0.8,0,1.6,0,2,0c0.4,0,0.5,0,0.5-0.1c0-0.1-0.1-0.1-0.1-0.1c-0.1,0-0.3,0-0.4,0c-0.2-0.1-0.5-0.2-0.9-1.1
				c-0.7-1.6-2.3-5.8-2.6-6.4c-0.1-0.2-0.2-0.3-0.3-0.3c-0.1,0-0.2,0.1-0.3,0.4l-2.6,6.5c-0.2,0.5-0.4,0.9-0.9,0.9
				c-0.1,0-0.2,0-0.3,0c-0.1,0-0.1,0-0.1,0.1c0,0.1,0.1,0.1,0.2,0.1c0.5,0,1.1,0,1.2,0c0.3,0,0.8,0,1.1,0c0.1,0,0.2,0,0.2-0.1
				c0-0.1,0-0.1-0.2-0.1h-0.2c-0.3,0-0.4-0.1-0.4-0.3c0-0.1,0.1-0.4,0.2-0.6l0.6-1.4c0-0.1,0-0.1,0.1-0.1h2.3c0.1,0,0.1,0,0.1,0.1
				l0.8,2.2C124.4,63.8,124.4,63.9,124.3,63.9z M123.3,60.9h-1.9c0,0-0.1,0,0-0.1l1-2.6c0,0,0-0.1,0.1-0.1c0,0,0,0.1,0.1,0.1
				L123.3,60.9C123.3,60.9,123.3,60.9,123.3,60.9z M185.2,49.3c2.3,0,4-0.8,5.3-2.5c0.9-1.2,1.4-2.7,1.4-4.3c0-1.9-0.6-3.5-1.9-4.8
				c-1.3-1.3-2.9-1.9-4.9-1.8c-1.9-0.1-3.5,0.5-4.7,1.8c-1.3,1.3-1.9,2.9-1.9,4.8c0,1.7,0.5,3.2,1.5,4.4
				C181.1,48.5,182.9,49.3,185.2,49.3z M182.5,38.3c0.6-1.2,1.5-1.8,2.7-1.8c0.6,0,1.2,0.2,1.7,0.5c0.5,0.3,0.9,0.9,1.2,1.8
				c0.3,0.8,0.5,2.1,0.5,3.8c0,1.4-0.2,2.6-0.5,3.5c-0.3,0.9-0.7,1.5-1.3,1.9c-0.4,0.3-1,0.5-1.6,0.5c-1,0-1.7-0.4-2.2-1.1
				c-0.8-1.1-1.1-2.7-1.1-4.9C181.8,40.7,182,39.3,182.5,38.3z M180.3,60.4c0,1.5,0.6,3.9,2.6,3.9c1.8,0,2.8-1.8,2.8-4.4
				c0-1.7-0.6-3.9-2.6-3.9C181.1,56,180.3,57.9,180.3,60.4z M184.5,60.3c0,2-0.5,3.5-1.4,3.5c-1.1,0-1.6-2-1.6-3.8
				c0-2.4,0.6-3.5,1.3-3.5C184,56.5,184.5,58.5,184.5,60.3z M157,63.7c-0.6,0-1.3-0.3-1.5-1.1c-0.1-0.2-0.1-0.4-0.1-0.5
				c0-0.1,0-0.2-0.1-0.2c-0.1,0-0.1,0.1-0.1,0.3c0,0.2-0.1,0.8-0.1,1.4c0,0.2,0,0.3,0.2,0.4c0.4,0.2,0.9,0.3,1.5,0.3
				c0.6,0,1.1-0.1,1.7-0.4c0.7-0.5,1-1.2,1-1.8c0-1-0.4-1.7-1.7-2.7l-0.3-0.2c-0.9-0.7-1.1-1-1.1-1.5c0-0.6,0.5-1.1,1.2-1.1
				c0.7,0,1,0.3,1.1,0.5c0.2,0.3,0.3,0.6,0.3,0.7c0,0.1,0,0.2,0.1,0.2c0.1,0,0.1-0.1,0.1-0.3c0-0.8,0-1.1,0-1.3
				c0-0.1-0.1-0.1-0.1-0.1c-0.3-0.1-0.7-0.2-1.4-0.2c-1.4,0-2.4,0.8-2.4,2c0,0.9,0.4,1.6,1.5,2.5l0.5,0.4c0.9,0.7,1,1.2,1,1.7
				C158.3,63.1,157.9,63.7,157,63.7z M170.8,63.7c-0.1,0.1-0.2,0.2-0.2,0.3c0,0.1,0.1,0.1,0.1,0.1h4.1c0.7,0,0.8,0,0.9-0.3
				c0.1-0.4,0.3-1.3,0.3-1.5c0-0.1,0-0.2-0.1-0.2c-0.1,0-0.1,0-0.1,0.2c-0.1,0.5-0.5,0.9-1.2,0.9c-0.4,0.1-1.6,0.1-1.8,0.1h-0.7
				c-0.1,0-0.1,0,0-0.1c1.3-1.1,3.6-2.9,3.6-4.9c0-1.2-0.8-2.2-2.6-2.2c-0.9,0-1.5,0.2-1.9,0.4c-0.1,0.1-0.1,0.1-0.1,0.2
				c0,0.3,0.1,1.2,0.1,1.3c0,0.1,0,0.2,0.1,0.2c0.1,0,0.1-0.1,0.1-0.2c0-0.3,0.2-0.8,0.4-1c0.3-0.3,0.7-0.4,1.1-0.4
				c0.5,0,1.4,0.3,1.4,2C174.3,60.7,172.3,62.4,170.8,63.7z M174,48c-0.1,0.2-0.2,0.4-0.4,0.5c-0.2,0.1-0.5,0.2-0.9,0.2h-0.4V49h6.6
				v-0.4h-0.4c-0.4,0-0.6-0.1-0.8-0.2c-0.2-0.1-0.4-0.3-0.4-0.4c-0.1-0.2-0.1-0.6-0.1-1.2v-8.5c0-0.6,0-1,0.1-1.2
				c0.1-0.2,0.2-0.4,0.4-0.5c0.2-0.1,0.5-0.2,0.9-0.2h0.4v-0.4h-18v3.3c0-0.9-0.4-1.7-1.2-2.3c-0.8-0.7-2.1-1-3.9-1h-10.5l-3.5,8.5
				l-3.6-8.5h-5.2v0.4h0.4c0.4,0,0.6,0.1,0.9,0.2c0.2,0.1,0.4,0.3,0.4,0.4c0.1,0.2,0.1,0.6,0.1,1.2v8.1c0,0.6,0,0.9,0,1
				c-0.1,0.3-0.2,0.5-0.3,0.7c-0.1,0.2-0.3,0.3-0.6,0.4c-0.2,0.1-0.4,0.1-0.6,0.1c-0.4,0-0.6-0.1-0.8-0.3c-0.3-0.3-0.6-0.9-1.1-1.9
				L127,35.8h-0.2l-4.5,10.3c-0.4,1-0.8,1.6-1.1,1.9c-0.3,0.3-0.7,0.5-1.1,0.6h0c-0.4,0-0.6-0.1-0.9-0.2c-0.2-0.1-0.4-0.3-0.4-0.4
				c-0.1-0.2-0.1-0.6-0.1-1.2v-8.5c0-0.6,0-1,0.1-1.2c0.1-0.2,0.2-0.4,0.4-0.5c0.2-0.1,0.5-0.2,0.9-0.2h0.4v-0.4h-6.6v0.4h0.4
				c0.4,0,0.6,0.1,0.9,0.2c0.2,0.1,0.4,0.3,0.4,0.4c0.1,0.2,0.1,0.6,0.1,1.2V42H111v-3.6c0-0.6,0-1,0.1-1.2c0.1-0.2,0.2-0.4,0.4-0.5
				c0.2-0.1,0.5-0.2,0.9-0.2h0.4v-0.4h-6.6v0.4h0.4c0.4,0,0.6,0.1,0.8,0.2c0.2,0.1,0.3,0.3,0.4,0.4c0.1,0.2,0.1,0.6,0.1,1.2v8.5
				c0,0.6,0,1-0.1,1.2c-0.1,0.2-0.2,0.4-0.4,0.5c-0.2,0.1-0.5,0.2-0.9,0.2h-0.4V49h6.6v-0.4h-0.4c-0.4,0-0.6-0.1-0.8-0.2
				c-0.2-0.1-0.4-0.3-0.4-0.4c-0.1-0.2-0.1-0.6-0.1-1.2v-4h4.5v4c0,0.6,0,1-0.1,1.2c-0.1,0.2-0.2,0.4-0.4,0.5
				c-0.2,0.1-0.5,0.2-0.9,0.2h-0.4V49h10.5v-0.4c-0.7-0.1-1.1-0.1-1.2-0.2c-0.3-0.2-0.4-0.4-0.4-0.8c0-0.3,0.1-0.6,0.3-1l0.5-1.3
				h4.5l0.7,1.6c0.2,0.4,0.3,0.7,0.3,0.7c0,0.1,0.1,0.2,0.1,0.4c0,0.2-0.1,0.3-0.2,0.4c-0.2,0.1-0.5,0.2-1,0.2h-0.3V49h10.2v-0.4
				c-0.6,0-1-0.1-1.3-0.3c-0.3-0.2-0.4-0.5-0.5-0.8c0-0.1,0-0.5,0-1.2v-9.1l5,11.7h0.2l4.9-11.7v9.5c0,0.6,0,1-0.1,1.2
				c-0.1,0.2-0.2,0.4-0.4,0.5c-0.2,0.1-0.5,0.2-0.9,0.2H144V49h12.9v-0.4c-0.6,0-1-0.1-1.2-0.2c-0.2-0.1-0.4-0.3-0.5-0.4
				c-0.1-0.2-0.1-0.6-0.1-1.3v-3.6c1.4,0,2.5-0.1,3.1-0.2c0.9-0.2,1.6-0.6,2.1-1.2c0.5-0.6,0.8-1.3,0.8-2.1h0.3
				c0.1-0.9,0.5-1.7,1-2.2c0.4-0.4,1-0.6,1.9-0.6h0.9v9.9c0,0.6,0,1-0.1,1.2c-0.1,0.2-0.2,0.4-0.4,0.5c-0.2,0.1-0.5,0.2-0.9,0.2
				h-0.4V49h6.7v-0.4h-0.4c-0.4,0-0.6-0.1-0.9-0.2c-0.2-0.1-0.4-0.3-0.4-0.4c-0.1-0.2-0.1-0.6-0.1-1.2v-9.9h0.9c0.6,0,1,0.1,1.2,0.2
				c0.4,0.2,0.8,0.5,1,0.8c0.2,0.4,0.5,0.9,0.7,1.7h0.3v-3.1h0.3c0.4,0,0.6,0.1,0.8,0.2c0.2,0.1,0.3,0.3,0.4,0.4
				c0.1,0.2,0.1,0.6,0.1,1.2v8.5C174.1,47.4,174.1,47.8,174,48z M123.7,44.6l2-4.4l1.9,4.4H123.7z M152.1,46.7c0,0.7,0,1.1-0.1,1.3
				c-0.1,0.2-0.2,0.3-0.4,0.4c-0.2,0.1-0.6,0.2-1.2,0.2h-0.2c-0.4,0-0.6-0.1-0.9-0.2c-0.2-0.1-0.4-0.3-0.4-0.4
				c-0.1-0.2-0.1-0.6-0.1-1.2v-8.5c0-0.6,0-1,0.1-1.2c0.1-0.2,0.2-0.4,0.4-0.4c0.2-0.1,0.5-0.2,0.9-0.2h0.2c0.6,0,1,0.1,1.2,0.2
				c0.2,0.1,0.4,0.3,0.4,0.4c0.1,0.2,0.1,0.6,0.1,1.3V46.7z M157.3,41.7c-0.4,0.5-1,0.7-1.8,0.7c-0.1,0-0.3,0-0.5,0v-5.6h0.4
				c0.8,0,1.4,0.2,1.8,0.7c0.4,0.4,0.6,1.1,0.6,2.1C157.9,40.6,157.7,41.3,157.3,41.7z M142.7,63.3c0,0.3-0.1,0.5-0.3,0.6
				c-0.1,0-0.2,0-0.4,0c-0.1,0-0.2,0-0.2,0.1c0,0.1,0.1,0.1,0.2,0.1c0.2,0,0.5,0,0.7,0c0.2,0,0.5,0,0.6,0c0.3,0,0.6,0,1,0.1
				c0.4,0,0.8,0.1,1.2,0.1c1.9,0,3-0.7,3.5-1.2c0.6-0.6,1.1-1.6,1.1-2.9c0-1.3-0.5-2.1-1-2.7c-1.1-1.2-2.9-1.2-4.2-1.2
				c-0.6,0-1.3,0-1.6,0c-0.3,0-0.9,0-1.5,0c-0.2,0-0.2,0-0.2,0.1c0,0.1,0.1,0.1,0.2,0.1c0.1,0,0.3,0,0.4,0c0.3,0.1,0.4,0.2,0.4,0.6
				c0,0.3,0,0.6,0,2.2v1.9C142.7,62,142.7,62.9,142.7,63.3z M144,59c0-0.8,0-1.7,0-2.1c0-0.1,0-0.2,0.1-0.2c0.1,0,0.5-0.1,0.7-0.1
				c0.8,0,2,0.1,3,1.1c0.4,0.4,1,1.3,1,2.6c0,1.1-0.2,2-0.9,2.6c-0.6,0.5-1.3,0.8-2.4,0.8c-0.8,0-1.2-0.2-1.4-0.4
				c-0.1-0.1-0.1-0.5-0.1-0.8c0-0.2,0-1,0-2.1V59z M191.7,63.8c-0.2,0-0.7,0.1-0.8,0.1c0,0-0.1,0-0.1,0.1c0,0.1,0.1,0.1,0.2,0.1
				c0.7,0,1.5,0,1.8,0c0.3,0,0.9,0,1.7,0c0.1,0,0.2,0,0.2-0.1c0-0.1-0.1-0.1-0.1-0.1c-0.1,0-0.5,0-0.7-0.1c-0.3-0.1-0.4-0.2-0.4-0.6
				c0-0.5,0-1.4,0-2.4V59c0-1.6,0.1-2.7,0.1-2.7c0-0.1,0-0.2-0.1-0.2c-0.1,0-0.2,0.1-0.3,0.1c-0.4,0.3-2.4,1.6-2.4,1.6
				c-0.1,0-0.1,0.1-0.1,0.1c0,0.1,0.1,0.1,0.1,0.1c0,0,0.1,0,0.1,0c0.2-0.1,1-0.5,1.2-0.5c0.2,0,0.2,0.1,0.2,0.4v1.4l0,1.7
				c0,1,0,1.9-0.1,2.4C192.1,63.6,192.1,63.8,191.7,63.8z M96.3,64.1c0.1,0,0.2,0,0.2-0.1c0-0.1,0-0.1-0.2-0.1h-0.2
				c-0.3,0-0.4-0.1-0.4-0.3c0-0.1,0.1-0.4,0.2-0.6l0.6-1.4c0-0.1,0-0.1,0.1-0.1h2.3c0.1,0,0.1,0,0.1,0.1l0.8,2.2
				c0.1,0.1,0,0.2-0.1,0.2c-0.1,0-0.1,0-0.1,0.1c0,0.1,0.1,0.1,0.3,0.1c0.8,0,1.6,0,2,0c0.4,0,0.5,0,0.5-0.1c0-0.1-0.1-0.1-0.1-0.1
				c-0.1,0-0.3,0-0.4,0c-0.2-0.1-0.5-0.2-0.9-1.1c-0.7-1.6-2.3-5.8-2.6-6.4C98.2,56.1,98.1,56,98,56c-0.1,0-0.2,0.1-0.3,0.4
				l-2.6,6.5c-0.2,0.5-0.4,0.9-0.9,0.9c-0.1,0-0.2,0-0.3,0c-0.1,0-0.1,0-0.1,0.1c0,0.1,0.1,0.1,0.2,0.1c0.5,0,1.1,0,1.2,0
				C95.5,64.1,96,64.1,96.3,64.1z M97.7,58.2C97.7,58.2,97.7,58.2,97.7,58.2c0.1-0.1,0.1,0,0.1,0l0.9,2.6c0,0,0,0.1-0.1,0.1h-1.9
				c0,0-0.1,0,0-0.1L97.7,58.2z M106.8,56.4c0.1,0,0.2,0,0.3,0c0.1,0,0.2,0,0.2-0.1c0-0.1-0.1-0.1-0.2-0.1c-0.6,0-1.1,0-1.2,0
				c-0.1,0-0.7,0-1.2,0c-0.1,0-0.2,0-0.2,0.1c0,0.1,0.1,0.1,0.2,0.1c0.1,0,0.3,0,0.4,0.1c0.1,0.1,0.3,0.4,0.4,0.7l2.2,6.7
				c0.1,0.3,0.1,0.4,0.2,0.4c0.1,0,0.2-0.1,0.4-0.6c0.4-1,1.8-4.7,2-5.2h0l2.2,5.3c0.2,0.4,0.2,0.5,0.3,0.5c0.1,0,0.2-0.1,0.3-0.5
				c0.5-1.6,1.6-4.9,2.1-6.2c0.2-0.6,0.3-1,0.6-1.1c0.1,0,0.3-0.1,0.4-0.1c0.1,0,0.1,0,0.1-0.1c0-0.1-0.1-0.1-0.2-0.1
				c-0.3,0-0.8,0-0.9,0c-0.1,0-0.5,0-1.1,0c-0.2,0-0.2,0-0.2,0.1c0,0.1,0.1,0.1,0.2,0.1c0.4,0,0.5,0.1,0.5,0.3c0,0.1,0,0.4-0.1,0.6
				c-0.4,1.2-1.2,4-1.4,4.7h0l-2.2-5.3c-0.1-0.3-0.2-0.5-0.3-0.5c-0.1,0-0.2,0.1-0.3,0.4l-2,5.5h0c-0.2-0.6-1.2-3.8-1.3-4.5
				c-0.1-0.5-0.2-0.8-0.2-1C106.7,56.5,106.7,56.4,106.8,56.4z M106.2,10.8c0.1,0,0.3,0,0.4,0c0.3,0.1,0.4,0.2,0.4,0.6
				c0,0.3,0,0.6,0,2.1V15c0,1.5,0.4,2.2,0.9,2.7c0.7,0.7,1.7,0.7,2.2,0.7c0.6,0,1.4-0.1,2.1-0.7c0.8-0.7,0.9-1.9,0.9-3v-1.1
				c0-1.5,0-1.8,0-2.1c0-0.4,0.1-0.5,0.4-0.6c0.1,0,0.2,0,0.3,0c0.1,0,0.2,0,0.2-0.1c0-0.1-0.1-0.1-0.2-0.1c-0.4,0-1,0-1.1,0
				c0,0-0.6,0-1.1,0c-0.1,0-0.2,0-0.2,0.1c0,0.1,0.1,0.1,0.2,0.1c0.1,0,0.3,0,0.4,0c0.3,0.1,0.4,0.2,0.4,0.6c0,0.3,0,0.6,0,2.1v1.3
				c0,1,0,1.9-0.6,2.5c-0.4,0.4-0.9,0.5-1.4,0.5c-0.3,0-0.8,0-1.2-0.4c-0.5-0.4-0.8-1-0.8-2.5v-1.4c0-1.5,0-1.8,0-2.1
				c0-0.4,0.1-0.5,0.4-0.6c0.1,0,0.2,0,0.3,0c0.1,0,0.2,0,0.2-0.1c0-0.1-0.1-0.1-0.2-0.1c-0.4,0-1,0-1.2,0c-0.3,0-0.9,0-1.5,0
				c-0.1,0-0.2,0-0.2,0.1C106,10.8,106.1,10.8,106.2,10.8z M112.2,28.6c-0.1,0-0.2,0-0.3,0c-0.1,0-0.1,0-0.1,0.1
				c0,0.1,0.1,0.1,0.2,0.1c0.5,0,1.1,0,1.2,0c0.3,0,0.7,0,1.1,0c0.1,0,0.2,0,0.2-0.1c0-0.1,0-0.1-0.1-0.1h-0.1
				c-0.3,0-0.4-0.1-0.4-0.3c0-0.1,0-0.4,0.1-0.6l0.5-1.4c0-0.1,0-0.1,0.1-0.1h2.2c0,0,0.1,0,0.1,0.1l0.8,2.1c0,0.1,0,0.2-0.1,0.2
				c-0.1,0-0.1,0-0.1,0.1c0,0.1,0.1,0.1,0.3,0.1c0.8,0,1.5,0,1.9,0c0.4,0,0.5,0,0.5-0.1c0-0.1,0-0.1-0.1-0.1c-0.1,0-0.3,0-0.4,0
				c-0.2-0.1-0.5-0.2-0.9-1.1c-0.6-1.5-2.2-5.6-2.5-6.1c-0.1-0.2-0.2-0.3-0.2-0.3c-0.1,0-0.2,0.1-0.3,0.4l-2.5,6.2
				C112.9,28.2,112.7,28.5,112.2,28.6z M115.5,23.2C115.5,23.1,115.6,23.1,115.5,23.2c0.1-0.1,0.1,0,0.1,0l0.9,2.5c0,0,0,0.1,0,0.1
				h-1.8c0,0,0,0,0-0.1L115.5,23.2z M120,18.1c0.4,0.2,0.9,0.3,1.5,0.3c0.5,0,1.1-0.1,1.6-0.4c0.7-0.5,0.9-1.2,0.9-1.8
				c0-1-0.4-1.7-1.6-2.6l-0.3-0.2c-0.8-0.6-1.1-1-1.1-1.4c0-0.6,0.4-1,1.2-1c0.6,0,0.9,0.3,1.1,0.5c0.2,0.3,0.3,0.6,0.3,0.7
				c0,0.1,0,0.2,0.1,0.2c0.1,0,0.1-0.1,0.1-0.3c0-0.8,0-1.1,0-1.2c0-0.1,0-0.1-0.1-0.1c-0.3-0.1-0.7-0.2-1.3-0.2
				c-1.4,0-2.3,0.8-2.3,1.9c0,0.8,0.4,1.5,1.5,2.4l0.5,0.4c0.8,0.7,1,1.1,1,1.6c0,0.5-0.4,1.1-1.3,1.1c-0.6,0-1.2-0.3-1.4-1
				c0-0.2-0.1-0.4-0.1-0.5c0-0.1,0-0.2-0.1-0.2c-0.1,0-0.1,0.1-0.1,0.3c0,0.2,0,0.8,0,1.3C119.8,18,119.9,18.1,120,18.1z M93.9,18.3
				c0.5,0,1.1,0,1.2,0c0.3,0,0.7,0,1.1,0c0.1,0,0.2,0,0.2-0.1c0-0.1,0-0.1-0.1-0.1H96c-0.3,0-0.4-0.1-0.4-0.3c0-0.1,0-0.4,0.1-0.6
				l0.5-1.4c0-0.1,0-0.1,0.1-0.1h2.2c0,0,0.1,0,0.1,0.1l0.8,2.1c0,0.1,0,0.2-0.1,0.2c-0.1,0-0.1,0-0.1,0.1c0,0.1,0.1,0.1,0.3,0.1
				c0.8,0,1.5,0,1.9,0c0.4,0,0.5,0,0.5-0.1c0-0.1,0-0.1-0.1-0.1c-0.1,0-0.3,0-0.4,0c-0.2-0.1-0.5-0.2-0.9-1.1
				c-0.6-1.5-2.2-5.6-2.5-6.1c-0.1-0.2-0.2-0.3-0.2-0.3c-0.1,0-0.2,0.1-0.3,0.4L95,17.1c-0.2,0.5-0.4,0.8-0.8,0.9
				c-0.1,0-0.2,0-0.3,0c-0.1,0-0.1,0-0.1,0.1C93.7,18.2,93.7,18.3,93.9,18.3z M97.4,12.7C97.4,12.6,97.4,12.6,97.4,12.7
				c0.1-0.1,0.1,0,0.1,0l0.9,2.5c0,0,0,0.1,0,0.1h-1.8c0,0,0,0,0-0.1L97.4,12.7z M101,28.6c-0.1,0-0.2,0-0.3,0c-0.1,0-0.2,0-0.2,0.1
				c0,0.1,0.1,0.1,0.2,0.1c0.3,0,0.8,0,1,0c0.2,0,0.6,0,1,0c0.1,0,0.2,0,0.2-0.1c0-0.1-0.1-0.1-0.1-0.1c-0.1,0-0.2,0-0.4-0.1
				c-0.2,0-0.3-0.1-0.3-0.3c0-0.2,0-0.3,0-0.5l0.5-3.9h0c0.3,0.8,0.9,1.9,1,2.2c0.1,0.3,0.9,1.8,1.1,2.3c0.2,0.3,0.3,0.5,0.3,0.5
				c0.1,0,0.1-0.1,0.4-0.6l2.2-4.5h0l0.6,4.4c0,0.3,0,0.4,0,0.4c-0.1,0-0.1,0.1-0.1,0.1c0,0.1,0.1,0.1,0.3,0.1c0.4,0,1.8,0.1,2,0.1
				c0.1,0,0.3,0,0.3-0.1c0-0.1-0.1-0.1-0.2-0.1c-0.1,0-0.3,0-0.6-0.1c-0.3-0.1-0.4-0.4-0.5-1l-0.9-6.2c0-0.2-0.1-0.3-0.2-0.3
				c-0.1,0-0.1,0.1-0.2,0.2l-2.7,5.7l-2.7-5.6c-0.1-0.3-0.2-0.3-0.3-0.3c-0.1,0-0.1,0.1-0.2,0.3l-1,6.5
				C101.4,28.1,101.3,28.5,101,28.6z M121.8,21.2c-0.1,0-0.2,0-0.2,0.1c0,0.1,0.1,0.1,0.2,0.1c0.1,0,0.2,0,0.3,0
				c0.3,0.1,0.4,0.2,0.4,0.6c0,0.3,0,0.6,0,2.1v1.8c0,0.9,0,1.7,0,2.1c0,0.3-0.1,0.5-0.3,0.6c-0.1,0-0.2,0-0.4,0
				c-0.1,0-0.2,0-0.2,0.1c0,0.1,0.1,0.1,0.2,0.1c0.2,0,0.5,0,0.7,0c0.2,0,0.5,0,0.6,0c0.4,0,0.8,0,1.2,0c0.4,0,1,0,1.7,0
				c0.5,0,0.6-0.1,0.6-0.3c0.1-0.3,0.1-1,0.1-1.2c0-0.1,0-0.2-0.1-0.2c-0.1,0-0.1,0.1-0.1,0.2c0,0.2-0.1,0.5-0.3,0.6
				c-0.2,0.3-0.6,0.3-1.2,0.3c-0.8,0-1-0.1-1.2-0.2c-0.2-0.2-0.2-0.9-0.2-2.2v-1.8c0-1.5,0-1.8,0-2.1c0-0.4,0.1-0.5,0.4-0.6
				c0.1,0,0.3,0,0.4,0c0.1,0,0.2,0,0.2-0.1c0-0.1-0.1-0.1-0.2-0.1c-0.4,0-1.1,0-1.4,0C122.9,21.2,122.3,21.2,121.8,21.2z
				 M202.3,49.3h0.3V38.6c0-0.6,0.1-1,0.2-1.3c0.1-0.2,0.2-0.4,0.4-0.5c0.2-0.1,0.5-0.2,1.1-0.3v-0.4h-4.2v0.4
				c0.7,0,1.2,0.2,1.5,0.5c0.2,0.3,0.3,0.8,0.3,1.6v5.5l-6.3-8h-4.5v0.4c0.4,0,0.7,0.1,0.9,0.2c0.2,0.1,0.4,0.3,0.7,0.7l0.3,0.3v9.1
				c0,0.7-0.1,1.2-0.4,1.5c-0.3,0.3-0.8,0.4-1.5,0.4V49h4.5v-0.4h-0.3c-0.4,0-0.8-0.1-1.1-0.4c-0.3-0.3-0.5-0.8-0.5-1.5v-8.2
				L202.3,49.3z M204.8,32.5H93.7V33h111.2V32.5z M95.9,28.4c-0.6,0-1.2-0.3-1.4-1c0-0.2-0.1-0.4-0.1-0.5c0-0.1,0-0.2-0.1-0.2
				c-0.1,0-0.1,0.1-0.1,0.3c0,0.2,0,0.8,0,1.3c0,0.2,0,0.3,0.2,0.3c0.4,0.2,0.9,0.3,1.5,0.3c0.5,0,1.1-0.1,1.6-0.4
				c0.7-0.5,0.9-1.2,0.9-1.8c0-1-0.4-1.6-1.6-2.6L96.3,24c-0.8-0.6-1.1-1-1.1-1.4c0-0.6,0.4-1,1.2-1c0.6,0,0.9,0.3,1.1,0.5
				c0.2,0.3,0.3,0.6,0.3,0.7c0,0.1,0,0.2,0.1,0.2c0.1,0,0.1-0.1,0.1-0.3c0-0.8,0-1.1,0-1.2c0-0.1,0-0.1-0.1-0.1
				c-0.3-0.1-0.7-0.2-1.3-0.2c-1.4,0-2.3,0.8-2.3,1.9c0,0.8,0.4,1.5,1.5,2.4l0.5,0.4c0.8,0.7,1,1.1,1,1.6
				C97.2,27.8,96.8,28.4,95.9,28.4z M196.8,18.3c0.5,0,1,0,1.1,0c0.2,0,0.6,0,1.2,0c0.1,0,0.2,0,0.2-0.1c0-0.1-0.1-0.1-0.2-0.1
				c-0.2,0-0.3,0-0.5-0.1c-0.2-0.1-0.3-0.3-0.3-1.1l-0.1-4.2h0c0.2,0.2,1.3,1.4,2.4,2.5c1,1,2.3,2.4,2.9,3c0.1,0.1,0.2,0.2,0.3,0.2
				c0.1,0,0.1-0.1,0.1-0.3l0.1-6.3c0-0.6,0.1-0.8,0.4-0.9c0.1,0,0.2,0,0.3,0c0.1,0,0.2,0,0.2-0.1c0-0.1-0.1-0.1-0.2-0.1
				c-0.5,0-0.9,0-1,0c-0.2,0-0.7,0-1.2,0c-0.1,0-0.3,0-0.3,0.1c0,0.1,0,0.1,0.2,0.1c0.1,0,0.4,0,0.5,0.1c0.2,0.1,0.3,0.3,0.3,0.9
				l0.1,4.5h0c-0.2-0.2-1.5-1.6-2.2-2.3c-1.5-1.5-3-3.1-3.1-3.2c-0.2-0.2-0.3-0.3-0.4-0.3c-0.1,0-0.1,0.1-0.1,0.3l-0.1,5.9
				c0,0.9,0,1.2-0.3,1.2c-0.1,0-0.3,0.1-0.4,0.1c-0.1,0-0.2,0-0.2,0.1C196.6,18.2,196.7,18.3,196.8,18.3z"/>
		</g>
	</g>
</g>
<g id="Layer_2" class="st0">
	<path id="XMLID_55_" class="st3" d="M213.8,33.4l-0.5,2.1h-4.6l0.4-1.8c0.1-0.4,0.1-0.8,0.1-1.1c0-1-0.6-1.5-1.8-1.5
		c-0.9,0-1.5,0.3-1.9,1.1c-0.5,0.8-0.7,1.9-0.7,2.7c0,0.9,0.2,1.5,0.9,2l2.9,2.5c1.1,0.9,1.7,1.6,2.1,2.3c0.4,0.8,0.6,1.7,0.6,2.8
		c0,1.2-0.4,3.2-1,4.9c-1.1,3.1-3.3,4.5-7,4.5c-4.1,0-6.5-1.7-6.5-4.6c0-0.6,0-1.1,0.4-2.6l0.5-2.2h4.6l-0.5,2
		c-0.2,1-0.4,1.9-0.4,2.3c0,1,0.8,1.6,2.1,1.6c0.8,0,1.5-0.3,1.9-0.9c0.2-0.3,0.4-0.8,0.5-1.3c0.4-1.3,0.6-2.3,0.6-2.9
		c0-1-0.5-1.9-1.5-2.6l-2.5-2c-0.4-0.3-0.6-0.5-0.9-0.7c-0.4-0.4-0.8-1-1.1-1.5c-0.4-0.7-0.5-1.5-0.5-2.4c0-2.1,0.6-4.2,1.8-5.8
		c1.2-1.8,3.1-2.6,5.9-2.6c4.1,0,6.2,1.4,6.2,4.1C214,32.3,213.9,32.8,213.8,33.4z M197.6,37.3c-0.6,2.8-1.6,3.8-4.1,4.3l1.8,11.8
		h-4.7l-1.5-11.3h-1.7l-2.6,11.3h-4.6l5.8-25.2h6.2c1.2,0,2,0,2.6,0c1.1,0,2.1,0.4,2.8,1c0.8,0.7,1.2,1.7,1.2,3
		c0,0.5-0.1,1.1-0.2,1.6L197.6,37.3z M191.8,31.8h-2.1l-1.5,6.6h1.9c1.4,0,2-0.2,2.4-0.6c0.1-0.1,0.3-0.4,0.4-0.6
		c0.2-0.5,0.3-0.7,0.6-1.8l0.4-1.5c0-0.2,0.1-0.5,0.1-0.7C193.9,32.2,193.3,31.8,191.8,31.8z M175.4,32l-1.4,5.9h7.1l-0.9,3.8h-7.1
		l-1.8,7.8h7.9l-0.9,3.9h-12.6l5.8-25.2h12.2L183,32H175.4z M165,31.8l-5,21.6h-4.7l5-21.6h-4.6l0.8-3.6h14l-0.8,3.6H165z
		 M123.5,16.4c0.3,1.2,0.1,1.7-1.1,2.1c-0.6,0.2-1.1,0.3-1.1,0.3l-0.9-3.3l1-0.3C122.5,14.9,123.2,15.4,123.5,16.4z M119.4,12.1
		c0,0,0.5-0.1,0.6-0.2c1.2-0.3,1.7-0.1,2,0.9c0.4,1.3-0.2,1.8-1.2,2.1l-0.5,0.1L119.4,12.1z M131.5,8.5l1.5-0.4l-0.2,2.4L131.5,8.5z
		 M158.7,11.7l-2.2,3.8c4.2,3.2,7.5,7.2,9.7,11.7h-9c-2-2.8-4.7-5.3-7.9-7.1c-6.1-3.5-12.9-4.2-19.2-2.5c-5.5,1.5-10.5,4.8-14,9.7
		h-9c0.3-0.6,0.6-1.2,0.9-1.7c2.6-4.5,6.1-8.1,10.1-10.9c-0.1-0.2-0.2-0.4-0.3-0.7l-0.2-0.8c0,0-0.1-0.3-0.1-0.6
		c0.1,0,0.3-0.1,0.7-0.2l1.9,6.8c-0.6,0.2-0.7,0.2-0.8,0.2c-0.1,0-0.2,0.1-0.1,0.3c0,0.1,0.1,0.2,0.2,0.1c0.1,0,0.2-0.1,1.2-0.4
		c0.5-0.2,1-0.2,1.7-0.4c1.7-0.5,2.3-1.5,2-2.8c-0.3-1-1.3-1.6-2.4-1.5c0.6-0.4,1.1-1.2,0.9-2c-0.3-1-1.3-1.6-3-1.1
		c-0.4,0.1-0.8,0.3-1.2,0.4c-0.5,0.2-0.8,0.2-1,0.2c0.1-0.8,0.5-1.7,1.9-2.1l14.1-3.8c0,0,1.5-0.4,2.5,0.6c-0.1,0-0.2,0.1-0.3,0.1
		l-0.1,0c-0.8,0.2-0.8,0.2-0.9,0.2c-0.1,0-0.2,0.1-0.1,0.2c0,0.1,0.2,0.2,0.2,0.2c0.1,0,0.1-0.1,0.6-0.2l0.1,0l-0.5,6.5l-2-2.8
		l0.2-3.1l0.1,0c0.5-0.1,0.5-0.1,0.6-0.2c0.1,0,0.2-0.1,0.1-0.3c0-0.1-0.1-0.2-0.2-0.1c-0.1,0-0.1,0.1-0.9,0.3L131,8.4
		c-0.7,0.2-0.8,0.2-0.9,0.2c-0.1,0-0.2,0.1-0.1,0.2c0,0.1,0.1,0.2,0.2,0.2c0.1,0,0.2-0.1,0.5-0.1l2.2,3.1l-0.2,2.7l-3.7-5.3
		c0.2-0.1,0.4-0.1,0.5-0.1c0.1,0,0.2-0.1,0.1-0.3c0-0.1-0.1-0.2-0.2-0.1c-0.1,0-0.1,0.1-0.9,0.3l-0.1,0c-1,0.3-1.1,0.2-1.2,0.3
		c-0.1,0-0.2,0.1-0.1,0.2c0,0.1,0.2,0.2,0.2,0.2c0.1,0,0.2-0.1,0.8-0.2l4.6,6.5c0,0.1,0.1,0.1,0.2,0.1c0.1,0,0.2-0.1,0.2-0.2
		l0.2-3.5l2,2.8c0.1,0.1,0.1,0.1,0.2,0.1c0.1,0,0.2-0.1,0.2-0.2l0.6-8l0.1,0c0.1,0,0.1,0,0.2-0.1c0.2,0.2,0.3,0.5,0.4,0.9l0.2,0.8
		c0,0,0,0.1,0,0.2c4.7,0,9.5,1.1,14,3.3l2.1-3.6l-6-3.5l3-5.1l17.1,9.9l-3,5.1L158.7,11.7z M130.7,15.9c0-0.1-0.1-0.2-0.2-0.1
		c-0.1,0-0.2,0.1-0.1,0.3c0.1,0.2-0.1,0.4-0.3,0.4c-0.2,0.1-0.3-0.1-0.4-0.4c-0.1-0.3-0.1-0.7-0.3-1.4c-0.2-0.8-1.1-1.6-2.2-1.5
		c0.6-0.3,1.2-1.2,1-2.1c-0.3-1-1.3-1.5-3-1.1c-0.5,0.1-0.8,0.2-1.2,0.4c-1,0.3-1.1,0.2-1.2,0.3c-0.1,0-0.2,0.1-0.1,0.2
		c0,0.1,0.2,0.2,0.2,0.2c0.1,0,0.2-0.1,0.8-0.2l1.9,6.8c-0.6,0.2-0.7,0.2-0.8,0.2c-0.1,0-0.2,0.1-0.1,0.3c0,0.1,0.1,0.2,0.2,0.1
		c0.1,0,0.2-0.1,1.2-0.4l0.1,0c1-0.3,1.1-0.3,1.2-0.3c0.1,0,0.2-0.1,0.1-0.2c0-0.1-0.2-0.2-0.2-0.2c-0.1,0-0.2,0.1-0.8,0.2l-1-3.3
		l0.9-0.3c1.1-0.3,1.6,0.3,1.9,1.3c0.4,1.5,0.9,2,1.8,1.8C130.5,16.7,130.8,16.3,130.7,15.9z M138.3,14c-0.1-0.3-0.4-0.5-0.8-0.4
		c-0.3,0.1-0.5,0.4-0.4,0.8c0.1,0.3,0.4,0.5,0.8,0.4C138.2,14.6,138.4,14.3,138.3,14z M126.1,13.4l-0.7,0.2l-0.8-2.9
		c0,0,0.4-0.1,0.7-0.2c1.2-0.3,1.6,0,1.9,0.9C127.3,12.4,127.1,13.1,126.1,13.4z M111.4,31.8c0,0.5-0.1,1-0.2,1.6l-0.5,2.1h-4.6
		l0.4-1.8c0.1-0.4,0.1-0.8,0.1-1.1c0-1-0.6-1.5-1.8-1.5c-0.9,0-1.5,0.3-1.9,1.1c-0.5,0.8-0.7,1.9-0.7,2.7c0,0.9,0.2,1.5,0.9,2
		l2.9,2.5c1.1,0.9,1.7,1.6,2.1,2.3c0.4,0.8,0.6,1.7,0.6,2.8c0,1.2-0.4,3.2-1,4.9c-1.1,3.1-3.3,4.5-7,4.5c-4.1,0-6.5-1.7-6.5-4.6
		c0-0.6,0-1.1,0.4-2.6l0.5-2.2h4.6l-0.5,2c-0.2,1-0.4,1.9-0.4,2.3c0,1,0.8,1.6,2.1,1.6c0.8,0,1.5-0.3,1.9-0.9
		c0.2-0.3,0.4-0.8,0.5-1.3c0.4-1.3,0.6-2.3,0.6-2.9c0-1-0.5-1.9-1.5-2.6l-2.5-2c-0.4-0.3-0.6-0.5-0.9-0.7c-0.4-0.4-0.8-1-1.1-1.5
		c-0.4-0.7-0.5-1.5-0.5-2.4c0-2.1,0.6-4.2,1.8-5.8c1.2-1.8,3.1-2.6,5.9-2.6C109.3,27.7,111.4,29.1,111.4,31.8z M92.3,31.8l-5,21.6
		h-4.7l5-21.6H83l0.8-3.6h14L97,31.8H92.3z M81.3,35.6h-4.6l0.4-1.8c0.1-0.4,0.1-0.8,0.1-1.1c0-1-0.6-1.5-1.8-1.5
		c-0.9,0-1.5,0.3-1.9,1.1c-0.5,0.8-0.7,1.9-0.7,2.7c0,0.9,0.2,1.5,0.9,2l2.9,2.5c1.1,0.9,1.7,1.6,2.1,2.3c0.4,0.8,0.6,1.7,0.6,2.8
		c0,1.2-0.4,3.2-1,4.9c-1.1,3.1-3.3,4.5-7,4.5c-4.1,0-6.5-1.7-6.5-4.6c0-0.6,0-1.1,0.4-2.6l0.5-2.2h4.6l-0.5,2
		c-0.2,1-0.4,1.9-0.4,2.3c0,1,0.8,1.6,2.1,1.6c0.8,0,1.5-0.3,1.9-0.9c0.2-0.3,0.4-0.8,0.5-1.3c0.4-1.3,0.6-2.3,0.6-2.9
		c0-1-0.5-1.9-1.5-2.6l-2.5-2c-0.4-0.3-0.6-0.5-0.9-0.7c-0.4-0.4-0.8-1-1.1-1.5c-0.4-0.7-0.5-1.5-0.5-2.4c0-2.1,0.6-4.2,1.8-5.8
		c1.2-1.8,3.1-2.6,5.9-2.6c4.1,0,6.2,1.4,6.2,4.1c0,0.5-0.1,1-0.2,1.6L81.3,35.6z M59,53.4l0.3-4.1h-4.3l-1.6,4.1h-4.8L59,28.2h5.3
		l-0.7,25.2H59z M56.4,45.4h3.2l0.8-10.8L56.4,45.4z M46.6,32.1l-1.5,6.3h7.2l-0.9,3.8h-7.2l-2.6,11.3H37l5.8-25.2h12.3l-0.9,3.9
		H46.6z M148,28.2c1.2,0,2,0,2.6,0c1.1,0,2.1,0.4,2.8,1c0.8,0.7,1.2,1.7,1.2,3c0,0.5-0.1,1.1-0.2,1.6l-0.8,3.6
		c-0.6,2.8-1.6,3.8-4.1,4.3l1.8,11.8h-4.7L145,42.2h-1.7l-1.9,8l-1-3.8c1.7-1.2,2.7-3.2,2.7-5.3c0-2.3-1.2-4.3-3-5.5l1.7-7.4H148z
		 M146,38.4c1.4,0,2-0.2,2.4-0.6c0.1-0.1,0.3-0.4,0.4-0.6c0.2-0.5,0.3-0.7,0.6-1.8l0.4-1.5c0-0.2,0.1-0.5,0.1-0.7c0-1-0.6-1.4-2-1.4
		h-2.1l-1.5,6.6H146z M136,53.4l0.8-3.5l2.1,3.5H136z M133.7,28.2v6.9c-1,0.5-1.8,1.2-2.5,2l0.2-2.6l-4,10.8h3.2l0.1-1.1
		c0.8,1.5,2.3,2.7,4,3.2l-0.2,5.9h-4.6l0.3-4.1h-4.3l-1.6,4.1h-4.8L130,28.2H133.7z M113.2,28.2h14l-0.8,3.6h-4.7l-5,21.6h-4.7
		l5-21.6h-4.6L113.2,28.2z M137.6,28.3v7c2.8,0.5,4.9,2.9,4.9,5.8c0,2.1-1.1,4-2.8,5L143,59l-7.1-12c-3-0.3-5.3-2.8-5.3-5.9
		c0-2.5,1.6-4.7,3.8-5.5v-7.3H137.6z M136.5,42.7c0.9,0,1.6-0.7,1.6-1.6c0-0.9-0.7-1.6-1.6-1.6c-0.9,0-1.6,0.7-1.6,1.6
		C135,42,135.7,42.7,136.5,42.7z M124.2,63.9c6.1,3.5,12.9,4.2,19.2,2.5c5.5-1.5,10.4-4.7,13.9-9.6h13.6l-8.4,14.6l-5.6-3.2
		c-10.3,7.9-24.7,9.3-36.6,2.4c-5.8-3.3-10.2-8.2-13-13.8h9C118.4,59.6,121,62,124.2,63.9z M175.2,62.4c0.6-0.9,1-1.7,1.1-2.2
		c0.1-0.4,0.1-0.7,0-0.9c-0.1-0.2-0.3-0.3-0.6-0.3c-0.3,0-0.5,0.1-0.7,0.3c-0.2,0.2-0.3,0.6-0.4,1.3l-0.2,1.4H171l0.1-0.5
		c0.1-0.8,0.3-1.5,0.5-1.9c0.2-0.5,0.5-0.9,0.9-1.4c0.4-0.5,0.9-0.8,1.5-1c0.6-0.2,1.2-0.4,2-0.4c1.4,0,2.5,0.4,3.1,1.1
		c0.6,0.7,0.8,1.6,0.6,2.7c-0.1,0.8-0.5,1.7-1.1,2.7c-0.6,0.9-2.2,2.9-4.7,6h4l-0.4,2.5h-8l0.4-2.1
		C172.7,65.7,174.5,63.3,175.2,62.4z M181,62c0.2-1.3,0.5-2.4,0.9-3c0.3-0.7,0.9-1.2,1.7-1.6c0.8-0.4,1.6-0.6,2.6-0.6
		c0.8,0,1.5,0.1,2.1,0.4c0.6,0.3,1,0.6,1.2,1c0.2,0.4,0.4,0.9,0.4,1.4c0,0.5-0.1,1.3-0.3,2.4l-0.9,4.9c-0.2,1.1-0.4,1.9-0.6,2.4
		c-0.2,0.5-0.5,1-1,1.4c-0.5,0.4-1,0.8-1.5,1c-0.6,0.2-1.2,0.3-1.8,0.3c-0.9,0-1.6-0.1-2.1-0.3c-0.5-0.2-0.9-0.5-1.2-0.9
		c-0.3-0.4-0.4-0.9-0.5-1.4c-0.1-0.5,0-1.2,0.2-2.3L181,62z M183.5,69.5c0.1,0.2,0.2,0.3,0.5,0.3s0.5-0.1,0.6-0.3
		c0.1-0.2,0.2-0.7,0.4-1.4l1.3-7.3c0.1-0.8,0.2-1.3,0.1-1.5c0-0.2-0.2-0.3-0.5-0.3c-0.3,0-0.5,0.1-0.6,0.3c-0.1,0.2-0.3,0.7-0.4,1.4
		l-1.3,7.2C183.5,68.8,183.4,69.3,183.5,69.5z M195.7,57h2.1l-2.6,14.7h-3.6l1.4-7.9c0.2-1.1,0.3-1.8,0.3-2c0-0.2-0.1-0.4-0.4-0.5
		c-0.2-0.1-0.8-0.2-1.6-0.2H191l0.3-1.7C193.1,59,194.6,58.2,195.7,57z M197.8,66.6l4.8-9.6h4.8l-1.7,9.6h1l-0.4,2.5h-1l-0.5,2.6
		h-3.6l0.5-2.6h-4.3L197.8,66.6z M202.2,66.6l1.1-6.2l-2.7,6.2H202.2z"/>
</g>
<g id="Layer_3" class="st0">
	<path id="XMLID_262_" class="st3" d="M213.8,33.4l-0.5,2.1h-4.6l0.4-1.8c0.1-0.4,0.1-0.8,0.1-1.1c0-1-0.6-1.5-1.8-1.5
		c-0.9,0-1.5,0.3-1.9,1.1c-0.5,0.8-0.7,1.9-0.7,2.7c0,0.9,0.2,1.5,0.9,2l2.9,2.5c1.1,0.9,1.7,1.6,2.1,2.3c0.4,0.8,0.6,1.7,0.6,2.8
		c0,1.2-0.4,3.2-1,4.9c-1.1,3.1-3.3,4.5-7,4.5c-4.1,0-6.5-1.7-6.5-4.6c0-0.6,0-1.1,0.4-2.6l0.5-2.2h4.6l-0.5,2
		c-0.2,1-0.4,1.9-0.4,2.3c0,1,0.8,1.6,2.1,1.6c0.8,0,1.5-0.3,1.9-0.9c0.2-0.3,0.4-0.8,0.5-1.3c0.4-1.3,0.6-2.3,0.6-2.9
		c0-1-0.5-1.9-1.5-2.6l-2.5-2c-0.4-0.3-0.6-0.5-0.9-0.7c-0.4-0.4-0.8-1-1.1-1.5c-0.4-0.7-0.5-1.5-0.5-2.4c0-2.1,0.6-4.2,1.8-5.8
		c1.2-1.8,3.1-2.6,5.9-2.6c4.1,0,6.2,1.4,6.2,4.1C214,32.3,213.9,32.8,213.8,33.4z M197.6,37.3c-0.6,2.8-1.6,3.8-4.1,4.3l1.8,11.8
		h-4.7l-1.5-11.3h-1.7l-2.6,11.3h-4.6l5.8-25.2h6.2c1.2,0,2,0,2.6,0c1.1,0,2.1,0.4,2.8,1c0.8,0.7,1.2,1.7,1.2,3
		c0,0.5-0.1,1.1-0.2,1.6L197.6,37.3z M191.8,31.8h-2.1l-1.5,6.6h1.9c1.4,0,2-0.2,2.4-0.6c0.1-0.1,0.3-0.4,0.4-0.6
		c0.2-0.5,0.3-0.7,0.6-1.8l0.4-1.5c0-0.2,0.1-0.5,0.1-0.7C193.9,32.2,193.3,31.8,191.8,31.8z M175.4,32l-1.4,5.9h7.1l-0.9,3.8h-7.1
		l-1.8,7.8h7.9l-0.9,3.9h-12.6l5.8-25.2h12.2L183,32H175.4z M165,31.8l-5,21.6h-4.7l5-21.6h-4.6l0.8-3.6h14l-0.8,3.6H165z
		 M123.5,16.4c0.3,1.2,0.1,1.7-1.1,2.1c-0.6,0.2-1.1,0.3-1.1,0.3l-0.9-3.3l1-0.3C122.5,14.9,123.2,15.4,123.5,16.4z M119.4,12.1
		c0,0,0.5-0.1,0.6-0.2c1.2-0.3,1.7-0.1,2,0.9c0.4,1.3-0.2,1.8-1.2,2.1l-0.5,0.1L119.4,12.1z M131.5,8.5l1.5-0.4l-0.2,2.4L131.5,8.5z
		 M158.7,11.7l-2.2,3.8c4.2,3.2,7.5,7.2,9.7,11.7h-9c-2-2.8-4.7-5.3-7.9-7.1c-6.1-3.5-12.9-4.2-19.2-2.5c-5.5,1.5-10.5,4.8-14,9.7
		h-9c0.3-0.6,0.6-1.2,0.9-1.7c2.6-4.5,6.1-8.1,10.1-10.9c-0.1-0.2-0.2-0.4-0.3-0.7l-0.2-0.8c0,0-0.1-0.3-0.1-0.6
		c0.1,0,0.3-0.1,0.7-0.2l1.9,6.8c-0.6,0.2-0.7,0.2-0.8,0.2c-0.1,0-0.2,0.1-0.1,0.3c0,0.1,0.1,0.2,0.2,0.1c0.1,0,0.2-0.1,1.2-0.4
		c0.5-0.2,1-0.2,1.7-0.4c1.7-0.5,2.3-1.5,2-2.8c-0.3-1-1.3-1.6-2.4-1.5c0.6-0.4,1.1-1.2,0.9-2.1c-0.3-1-1.3-1.6-3-1.1
		c-0.4,0.1-0.8,0.3-1.2,0.4c-0.5,0.2-0.8,0.2-1,0.2c0.1-0.8,0.5-1.7,1.9-2.1l14.1-3.8c0,0,1.5-0.4,2.5,0.6c-0.1,0-0.2,0.1-0.3,0.1
		l-0.1,0c-0.8,0.2-0.8,0.2-0.9,0.2c-0.1,0-0.2,0.1-0.1,0.2c0,0.1,0.2,0.2,0.2,0.2c0.1,0,0.1-0.1,0.6-0.2l0.1,0l-0.5,6.5l-2-2.8
		l0.2-3.1l0.1,0c0.5-0.1,0.5-0.1,0.6-0.2c0.1,0,0.2-0.1,0.1-0.3c0-0.1-0.1-0.2-0.2-0.1c-0.1,0-0.1,0.1-0.9,0.3L131,8.4
		c-0.7,0.2-0.8,0.2-0.9,0.2c-0.1,0-0.2,0.1-0.1,0.2c0,0.1,0.1,0.2,0.2,0.2c0.1,0,0.2-0.1,0.5-0.1l2.2,3.1l-0.2,2.7l-3.7-5.3
		c0.2-0.1,0.4-0.1,0.5-0.1c0.1,0,0.2-0.1,0.1-0.3c0-0.1-0.1-0.2-0.2-0.1c-0.1,0-0.1,0.1-0.9,0.3l-0.1,0c-1,0.3-1.1,0.2-1.2,0.3
		c-0.1,0-0.2,0.1-0.1,0.2c0,0.1,0.2,0.2,0.2,0.2c0.1,0,0.2-0.1,0.8-0.2l4.6,6.5c0,0.1,0.1,0.1,0.2,0.1c0.1,0,0.2-0.1,0.2-0.2
		l0.2-3.5l2,2.8c0.1,0.1,0.1,0.1,0.2,0.1c0.1,0,0.2-0.1,0.2-0.2l0.6-8l0.1,0c0.1,0,0.1,0,0.2-0.1c0.2,0.2,0.3,0.5,0.4,0.9l0.2,0.8
		c0,0,0,0.1,0,0.2c4.7,0,9.5,1.1,14,3.3l2.1-3.6l-6-3.5l3-5.1l17.1,9.9l-3,5.1L158.7,11.7z M130.7,15.9c0-0.1-0.1-0.2-0.2-0.1
		c-0.1,0-0.2,0.1-0.1,0.3c0.1,0.2-0.1,0.4-0.3,0.4c-0.2,0.1-0.3-0.1-0.4-0.4c-0.1-0.3-0.1-0.7-0.3-1.4c-0.2-0.8-1.1-1.6-2.2-1.5
		c0.6-0.3,1.2-1.2,1-2.1c-0.3-1-1.3-1.5-3-1.1c-0.5,0.1-0.8,0.2-1.2,0.4c-1,0.3-1.1,0.2-1.2,0.3c-0.1,0-0.2,0.1-0.1,0.2
		c0,0.1,0.2,0.2,0.2,0.2c0.1,0,0.2-0.1,0.8-0.2l1.9,6.8c-0.6,0.2-0.7,0.2-0.8,0.2c-0.1,0-0.2,0.1-0.1,0.3c0,0.1,0.1,0.2,0.2,0.1
		c0.1,0,0.2-0.1,1.2-0.4l0.1,0c1-0.3,1.1-0.3,1.2-0.3c0.1,0,0.2-0.1,0.1-0.2c0-0.1-0.2-0.2-0.2-0.2c-0.1,0-0.2,0.1-0.8,0.2l-1-3.3
		l0.9-0.3c1.1-0.3,1.6,0.3,1.9,1.3c0.4,1.5,0.9,2,1.8,1.8C130.5,16.7,130.8,16.3,130.7,15.9z M138.3,14c-0.1-0.3-0.4-0.5-0.8-0.4
		c-0.3,0.1-0.5,0.4-0.4,0.8c0.1,0.3,0.4,0.5,0.8,0.4C138.2,14.6,138.4,14.3,138.3,14z M126.1,13.4l-0.7,0.2l-0.8-2.9
		c0,0,0.4-0.1,0.7-0.2c1.2-0.3,1.6,0,1.9,0.9C127.3,12.4,127.1,13.1,126.1,13.4z M111.4,31.8c0,0.5-0.1,1-0.2,1.6l-0.5,2.1h-4.6
		l0.4-1.8c0.1-0.4,0.1-0.8,0.1-1.1c0-1-0.6-1.5-1.8-1.5c-0.9,0-1.5,0.3-1.9,1.1c-0.5,0.8-0.7,1.9-0.7,2.7c0,0.9,0.2,1.5,0.9,2
		l2.9,2.5c1.1,0.9,1.7,1.6,2.1,2.3c0.4,0.8,0.6,1.7,0.6,2.8c0,1.2-0.4,3.2-1,4.9c-1.1,3.1-3.3,4.5-7,4.5c-4.1,0-6.5-1.7-6.5-4.6
		c0-0.6,0-1.1,0.4-2.6l0.5-2.2h4.6l-0.5,2c-0.2,1-0.4,1.9-0.4,2.3c0,1,0.8,1.6,2.1,1.6c0.8,0,1.5-0.3,1.9-0.9
		c0.2-0.3,0.4-0.8,0.5-1.3c0.4-1.3,0.6-2.3,0.6-2.9c0-1-0.5-1.9-1.5-2.6l-2.5-2c-0.4-0.3-0.6-0.5-0.9-0.7c-0.4-0.4-0.8-1-1.1-1.5
		c-0.4-0.7-0.5-1.5-0.5-2.4c0-2.1,0.6-4.2,1.8-5.8c1.2-1.8,3.1-2.6,5.9-2.6C109.3,27.7,111.4,29.1,111.4,31.8z M92.3,31.8l-5,21.6
		h-4.7l5-21.6H83l0.8-3.6h14L97,31.8H92.3z M81.3,35.6h-4.6l0.4-1.8c0.1-0.4,0.1-0.8,0.1-1.1c0-1-0.6-1.5-1.8-1.5
		c-0.9,0-1.5,0.3-1.9,1.1c-0.5,0.8-0.7,1.9-0.7,2.7c0,0.9,0.2,1.5,0.9,2l2.9,2.5c1.1,0.9,1.7,1.6,2.1,2.3c0.4,0.8,0.6,1.7,0.6,2.8
		c0,1.2-0.4,3.2-1,4.9c-1.1,3.1-3.3,4.5-7,4.5c-4.1,0-6.5-1.7-6.5-4.6c0-0.6,0-1.1,0.4-2.6l0.5-2.2h4.6l-0.5,2
		c-0.2,1-0.4,1.9-0.4,2.3c0,1,0.8,1.6,2.1,1.6c0.8,0,1.5-0.3,1.9-0.9c0.2-0.3,0.4-0.8,0.5-1.3c0.4-1.3,0.6-2.3,0.6-2.9
		c0-1-0.5-1.9-1.5-2.6l-2.5-2c-0.4-0.3-0.6-0.5-0.9-0.7c-0.4-0.4-0.8-1-1.1-1.5c-0.4-0.7-0.5-1.5-0.5-2.4c0-2.1,0.6-4.2,1.8-5.8
		c1.2-1.8,3.1-2.6,5.9-2.6c4.1,0,6.2,1.4,6.2,4.1c0,0.5-0.1,1-0.2,1.6L81.3,35.6z M59,53.4l0.3-4.1h-4.3l-1.6,4.1h-4.8L59,28.2h5.3
		l-0.7,25.2H59z M56.4,45.4h3.2l0.8-10.8L56.4,45.4z M46.6,32.1l-1.5,6.3h7.2l-0.9,3.8h-7.2l-2.6,11.3H37l5.8-25.2h12.3l-0.9,3.9
		H46.6z M148,28.2c1.2,0,2,0,2.6,0c1.1,0,2.1,0.4,2.8,1c0.8,0.7,1.2,1.7,1.2,3c0,0.5-0.1,1.1-0.2,1.6l-0.8,3.6
		c-0.6,2.8-1.6,3.8-4.1,4.3l1.8,11.8h-4.7L145,42.2h-1.7l-1.9,8l-1-3.8c1.7-1.2,2.7-3.2,2.7-5.3c0-2.3-1.2-4.3-3-5.5l1.7-7.4H148z
		 M146,38.4c1.4,0,2-0.2,2.4-0.6c0.1-0.1,0.3-0.4,0.4-0.6c0.2-0.5,0.3-0.7,0.6-1.8l0.4-1.5c0-0.2,0.1-0.5,0.1-0.7c0-1-0.6-1.4-2-1.4
		h-2.1l-1.5,6.6H146z M136,53.4l0.8-3.5l2.1,3.5H136z M133.7,28.2v6.9c-1,0.5-1.8,1.2-2.5,2l0.2-2.6l-4,10.8h3.2l0.1-1.1
		c0.8,1.5,2.3,2.7,4,3.2l-0.2,5.9h-4.6l0.3-4.1h-4.3l-1.6,4.1h-4.8L130,28.2H133.7z M113.2,28.2h14l-0.8,3.6h-4.7l-5,21.6h-4.7
		l5-21.6h-4.6L113.2,28.2z M137.6,28.3v7c2.8,0.5,4.9,2.9,4.9,5.8c0,2.1-1.1,4-2.8,5L143,59l-7.1-12c-3-0.3-5.3-2.8-5.3-5.9
		c0-2.5,1.6-4.7,3.8-5.5v-7.3H137.6z M136.5,42.7c0.9,0,1.6-0.7,1.6-1.6c0-0.9-0.7-1.6-1.6-1.6c-0.9,0-1.6,0.7-1.6,1.6
		C135,42,135.7,42.7,136.5,42.7z M124.2,63.9c6.1,3.5,12.9,4.2,19.2,2.5c5.5-1.5,10.4-4.7,13.9-9.6h13.6l-8.4,14.6l-5.6-3.2
		c-10.3,7.9-24.7,9.3-36.6,2.4c-5.8-3.3-10.2-8.2-13-13.8h9C118.4,59.6,121,62,124.2,63.9z M175.2,62.4c0.6-0.9,1-1.7,1.1-2.2
		c0.1-0.4,0.1-0.7,0-0.9s-0.3-0.3-0.6-0.3c-0.3,0-0.5,0.1-0.7,0.3c-0.2,0.2-0.3,0.6-0.4,1.3l-0.2,1.4H171l0.1-0.5
		c0.1-0.8,0.3-1.5,0.5-1.9c0.2-0.5,0.5-0.9,0.9-1.4c0.4-0.5,0.9-0.8,1.5-1c0.6-0.2,1.2-0.4,2-0.4c1.4,0,2.5,0.4,3.1,1.1
		c0.6,0.7,0.8,1.6,0.6,2.7c-0.1,0.8-0.5,1.7-1.1,2.7s-2.2,2.9-4.7,6h4l-0.4,2.5h-8l0.4-2.1C172.7,65.7,174.5,63.3,175.2,62.4z
		 M181,62c0.2-1.3,0.5-2.4,0.9-3c0.3-0.7,0.9-1.2,1.7-1.6c0.8-0.4,1.6-0.6,2.6-0.6c0.8,0,1.5,0.1,2.1,0.4c0.6,0.3,1,0.6,1.2,1
		c0.2,0.4,0.4,0.9,0.4,1.4c0,0.5-0.1,1.3-0.3,2.4l-0.9,4.9c-0.2,1.1-0.4,1.9-0.6,2.4c-0.2,0.5-0.5,1-1,1.4c-0.5,0.4-1,0.8-1.5,1
		c-0.6,0.2-1.2,0.3-1.8,0.3c-0.9,0-1.6-0.1-2.1-0.3c-0.5-0.2-0.9-0.5-1.2-0.9c-0.3-0.4-0.4-0.9-0.5-1.4c-0.1-0.5,0-1.2,0.2-2.3
		L181,62z M183.5,69.5c0.1,0.2,0.2,0.3,0.5,0.3c0.3,0,0.5-0.1,0.6-0.3c0.1-0.2,0.2-0.7,0.4-1.4l1.3-7.3c0.1-0.8,0.2-1.3,0.1-1.5
		c0-0.2-0.2-0.3-0.5-0.3c-0.3,0-0.5,0.1-0.6,0.3c-0.1,0.2-0.3,0.7-0.4,1.4l-1.3,7.2C183.5,68.8,183.4,69.3,183.5,69.5z M195.7,57
		h2.1l-2.6,14.7h-3.6l1.4-7.9c0.2-1.1,0.3-1.8,0.3-2c0-0.2-0.1-0.4-0.4-0.5c-0.2-0.1-0.8-0.2-1.6-0.2H191l0.3-1.7
		C193.1,59,194.6,58.2,195.7,57z M198.5,66.2h3.6l-0.2,0.9c-0.2,0.9-0.3,1.6-0.3,2c0,0.4,0.2,0.6,0.6,0.6c0.2,0,0.3-0.1,0.5-0.2
		c0.1-0.1,0.2-0.2,0.2-0.4c0-0.1,0.1-0.7,0.3-1.7l0.5-2.9c0.1-0.5,0.1-0.9,0-1.1c-0.1-0.2-0.3-0.3-0.5-0.3c-0.2,0-0.3,0.1-0.5,0.2
		c-0.1,0.1-0.2,0.2-0.3,0.3c-0.1,0.1-0.1,0.4-0.2,0.8h-3.6l1.5-7.4h7.8l-0.4,2.3h-4.5l-0.4,2.5c0.7-0.7,1.5-1,2.4-1
		c1,0,1.7,0.3,2.1,0.8c0.4,0.6,0.5,1.7,0.2,3.3l-0.4,2.1c-0.2,1-0.4,1.8-0.6,2.3c-0.2,0.5-0.5,0.9-0.9,1.4c-0.4,0.4-0.9,0.7-1.5,1
		c-0.6,0.2-1.3,0.3-2.2,0.3c-0.9,0-1.7-0.2-2.4-0.5c-0.7-0.3-1.1-0.8-1.3-1.5c-0.2-0.7-0.2-1.7,0.1-3L198.5,66.2z"/>
</g>
<g id="Layer_4">
	<g id="XMLID_263_">
		<g id="XMLID_908_">
			<path id="XMLID_909_" class="st2" d="M45,34l-3,16.5c-0.5,2.7-2.9,4.8-5.5,4.8H21.3l6-33C16.7,17.7,7,17.5,2.5,22.8
				c-6.7,7.8,0.6,24.8,16.4,38c15.7,13.1,33.9,17.4,40.6,9.6C65.8,62.8,59.4,46.9,45,34z M15.4,4.3l-0.8,4.1l-0.5,2.4l-0.7,3.8h16.8
				l-7.2,39.2h13.5c1.8,0,3.6-1.6,4-3.6L47,14.7h11.5c2.2,0,4.4-1.7,4.8-3.8l2-10.4H20.2C17.9,0.5,15.8,2.2,15.4,4.3z M115.7,2.9
				c1,0.6,4.7,1.9,5.9,1.4c1.3-0.5,1.4-1.7,1.2-2.5c-0.2-0.6-1-1.2-2.5-1.5c-3.3-0.6-5.6,0.2-5.7,1.2C114.5,2,115,2.5,115.7,2.9z
				 M111.2,19.7c0.3,0.5,0.6,1.5,0.9,2.7c0-0.7,0.4-1.5,1-2c0.5-0.4,2-1,3.9-1.4c0.1-0.6,0.2-1.1,0.2-1.5c0.5-3.7,0.5-6.7-0.4-8.1
				c-1-1.5-3.3-2.7-3.3-2.7s5.8,1.7,9.1,5.5c2.3,2.6,3.4,5.2,3.7,8.1c1.5,0.6,3.2,1.4,4.8,2.3c-0.6-2.7-2-6.2-5.6-10.6
				C118.7,3.7,103,0.6,96.7,0.6c-6.3,0-11.3,3.7-12.1,4.6C83.8,6,83.5,7.7,84.9,8c1.5,0.3,6-0.2,10.7-0.6c5.4-0.6,12-0.8,12-0.8
				s-4.6,0.8-6.3,2.5c-0.8,0.9-0.5,1.7,0.7,2.4C103.2,12.2,108.4,14.8,111.2,19.7z M127.4,39.9c0.7-2.5,0.7-5.1,0.4-5.7
				c-0.6-1.8-1.7-3.3-2.7-4.3c-1.5,4.4-4.1,9.2-6.9,13.4c-3.6,5.5-5.7,8.5-7.1,8.9c-0.9,0.3-1.5-0.6-1.2-2.1c0.4-1.5,2.4-9.2,3-11.5
				c0.4-1.5,1.9-8.2,3-13.9c-1.3-0.3-2.4-0.5-2.9-0.8c-0.4-0.2-0.8-0.5-0.9-0.9c0.3,1.8,0.6,4.1,0.4,6.4c-0.4,7.5-2.7,17-4.2,23.2
				c-2.5,10.2-5.8,18.8-6,19.9c-0.5,2.1,1.1,2.6,2.4,1.2c1.5-1.5,12.3-14,18.6-23.6C124.8,47,126.5,43.1,127.4,39.9z M133.2,22.5
				c0.8,0.7,4,2.4,5.2,2.2c1.2-0.3,1.6-1.4,1.5-2.1c-0.1-0.6-0.7-1.3-2-1.7c-2.9-1-5.2-0.7-5.4,0.2C132.2,21.5,132.6,22,133.2,22.5z
				 M122.1,19.9c-4-0.8-7.8,0.8-8.4,1.3c-0.6,0.5-1.1,1.4-0.2,1.9c0.9,0.4,3.9,1,6.9,1.3c3.6,0.4,7.8,0.8,7.8,0.8s-3.1-0.1-4.4,0.8
				c-0.7,0.4-0.6,1,0.1,1.6c0.6,0.6,3.6,2.9,4.7,6.4c0.3,0.9,0.3,3.6-0.4,6.2c-1.3,4.7-4.1,10.3-5.9,14c-3,6.1-6.3,11.1-6.6,11.8
				c-0.6,1.3,0.3,1.8,1.4,1.1c1.4-0.9,11.7-8.3,18.1-15.6c6.1-6.8,7.2-13.9,3.7-20.4C135.6,24.8,126.1,20.8,122.1,19.9z M137.3,39.4
				c-1.2,3-4.3,6.9-7.4,10.2c-2.9,3.1-4.7,4.6-5.5,4.3c-0.5-0.2-0.2-1.2,0.3-2.1c0.5-0.9,1.6-3.4,2.9-5.8c0.7-1.3,4.3-9.1,5.4-12.7
				c0.7-2.3,1.2-4.1,0.9-5.1c-0.4-1.1-1.7-2.1-1.7-2.1s3.4,1.9,5.1,4.6C138.5,33.3,138.4,36.6,137.3,39.4z M75.7,0
				c-0.5,0-0.9,0.4-0.9,0.9v73.2c0,0.5,0.4,0.9,0.9,0.9c0.5,0,0.9-0.4,0.9-0.9V0.9C76.7,0.4,76.2,0,75.7,0z M163.9,23.1
				c0-0.4-0.1-0.8-0.2-1.2c-0.1-0.4-0.2-0.7-0.4-1c-0.2-0.3-0.4-0.6-0.7-0.8c-0.3-0.2-0.6-0.4-1-0.5c-0.4-0.1-0.8-0.1-1.3-0.1h-3.5
				c-0.5,0-0.8,0.1-1,0.4c-0.2,0.3-0.3,0.7-0.3,1.3v10.6c0,0.6,0.1,1.1,0.3,1.3c0.2,0.3,0.5,0.4,1,0.4h3.3c0.6,0,1.1,0,1.5-0.1
				c0.4-0.1,0.8-0.2,1.1-0.4c0.5-0.3,0.9-0.8,1.2-1.4c0.3-0.6,0.5-1.3,0.5-2.1c0-1.7-0.7-2.8-2.1-3.4
				C163.4,25.5,163.9,24.5,163.9,23.1z M157.7,21.7h1.8c0.8,0,1.4,0.1,1.8,0.4c0.4,0.2,0.6,0.7,0.6,1.4c0,0.3-0.1,0.6-0.2,0.9
				c-0.2,0.4-0.4,0.6-0.7,0.8c-0.3,0.1-0.7,0.2-1.2,0.2h-2V21.7z M160.1,31.4h-2.3v-4.1h2.2c0.8,0,1.3,0.2,1.7,0.5
				c0.4,0.3,0.6,0.8,0.6,1.5C162.2,30.7,161.5,31.4,160.1,31.4z M166.8,32.4c0.4,0.5,0.9,0.9,1.4,1.1c0.6,0.2,1.3,0.4,2.1,0.4
				c0.7,0,1.3-0.1,1.8-0.3c0.5-0.2,1-0.6,1.4-1c0.5-0.6,0.8-1.2,0.9-1.9c0.2-0.7,0.2-1.7,0.2-2.8V21c0-0.6-0.1-1-0.3-1.3
				s-0.5-0.4-0.8-0.4c-0.3,0-0.6,0.1-0.8,0.4c-0.2,0.3-0.3,0.7-0.3,1.3v7c0,1.2-0.2,2.1-0.5,2.7c-0.3,0.6-0.9,0.9-1.8,0.9
				c-0.6,0-1.1-0.1-1.4-0.4c-0.3-0.3-0.6-0.7-0.7-1.2c-0.1-0.5-0.2-1.2-0.2-2V21c0-0.6-0.1-1-0.3-1.3c-0.2-0.3-0.5-0.4-0.8-0.4
				c-0.3,0-0.6,0.1-0.8,0.4c-0.2,0.3-0.3,0.7-0.3,1.3v6.8c0,1.1,0.1,2,0.3,2.7C166.2,31.3,166.5,31.9,166.8,32.4z M178.3,33
				c0.7,0.5,1.6,0.8,2.6,0.8c0.9,0,1.6-0.2,2.3-0.6c0.6-0.4,1.1-0.9,1.5-1.6c0.3-0.7,0.5-1.4,0.5-2.3c0-0.7-0.1-1.3-0.3-1.8
				c-0.2-0.5-0.5-0.9-0.8-1.2c-0.3-0.3-0.8-0.6-1.2-0.8c-0.5-0.2-1-0.4-1.6-0.6c-0.5-0.2-0.8-0.3-1-0.4c-0.2-0.1-0.4-0.2-0.6-0.3
				c-0.2-0.1-0.4-0.3-0.5-0.5c-0.1-0.2-0.2-0.4-0.2-0.7c0-0.5,0.2-0.8,0.5-1.2c0.3-0.3,0.8-0.5,1.3-0.5c0.6,0,1,0.1,1.3,0.4
				c0.3,0.3,0.5,0.7,0.7,1.2c0.2,0.4,0.3,0.6,0.4,0.8c0.1,0.2,0.3,0.2,0.6,0.2c0.3,0,0.5-0.1,0.7-0.4c0.2-0.3,0.3-0.6,0.3-0.9
				c0-0.4-0.1-0.8-0.2-1.1c-0.1-0.4-0.4-0.8-0.7-1.1c-0.3-0.4-0.7-0.6-1.2-0.9c-0.5-0.2-1-0.3-1.7-0.3c-0.8,0-1.5,0.2-2.1,0.5
				c-0.6,0.3-1.1,0.8-1.4,1.4c-0.3,0.6-0.5,1.3-0.5,2.1c0,0.8,0.2,1.5,0.5,2c0.3,0.5,0.7,1,1.2,1.3c0.5,0.3,1.2,0.6,1.9,0.8
				c0.6,0.2,1,0.3,1.4,0.5c0.3,0.2,0.6,0.4,0.8,0.7c0.2,0.3,0.3,0.7,0.3,1.1c0,0.6-0.2,1.1-0.6,1.5c-0.4,0.4-0.9,0.6-1.6,0.6
				c-0.5,0-0.8-0.1-1.1-0.3c-0.3-0.2-0.5-0.4-0.7-0.7c-0.2-0.3-0.3-0.7-0.4-1.1c-0.1-0.4-0.2-0.7-0.4-0.9c-0.2-0.2-0.4-0.3-0.6-0.3
				c-0.3,0-0.5,0.1-0.7,0.4c-0.2,0.2-0.3,0.5-0.3,0.9c0,0.6,0.2,1.2,0.5,1.8C177.4,32.2,177.8,32.7,178.3,33z M188.9,33.4
				c0.2-0.3,0.3-0.7,0.3-1.3V21c0-0.6-0.1-1-0.3-1.3c-0.2-0.3-0.5-0.4-0.8-0.4c-0.3,0-0.6,0.1-0.8,0.4c-0.2,0.3-0.3,0.7-0.3,1.3
				v11.1c0,0.6,0.1,1,0.3,1.3c0.2,0.3,0.5,0.4,0.8,0.4C188.5,33.8,188.7,33.7,188.9,33.4z M199.6,19.3c-0.3,0-0.5,0.1-0.7,0.4
				c-0.2,0.3-0.3,0.7-0.3,1.2v8.4l-4.2-8.3c-0.1-0.2-0.2-0.5-0.3-0.7c-0.1-0.2-0.2-0.4-0.3-0.5c-0.1-0.1-0.2-0.3-0.4-0.3
				c-0.1-0.1-0.3-0.1-0.5-0.1c-0.2,0-0.5,0.1-0.7,0.3c-0.2,0.2-0.4,0.4-0.5,0.7c-0.1,0.3-0.1,0.6-0.1,1.1v10.8
				c0,0.5,0.1,0.9,0.3,1.2c0.2,0.3,0.4,0.4,0.7,0.4c0.3,0,0.5-0.1,0.7-0.4c0.2-0.3,0.3-0.7,0.3-1.2V24l4,8.2
				c0.1,0.2,0.2,0.4,0.3,0.7c0.1,0.2,0.2,0.4,0.4,0.6c0.1,0.2,0.3,0.3,0.4,0.4c0.2,0.1,0.3,0.1,0.5,0.1c0.8,0,1.2-0.6,1.2-1.9V20.9
				c0-0.5-0.1-1-0.3-1.2C200.1,19.4,199.9,19.3,199.6,19.3z M210,21.7c0.3,0,0.6-0.1,0.8-0.3c0.2-0.2,0.3-0.5,0.3-0.8
				c0-0.3-0.1-0.6-0.3-0.8c-0.2-0.2-0.4-0.3-0.8-0.3h-5.7c-0.3,0-0.6,0.1-0.8,0.2c-0.2,0.1-0.3,0.3-0.4,0.6c-0.1,0.3-0.1,0.6-0.1,1
				v10.6c0,0.6,0.1,1.1,0.3,1.3c0.2,0.3,0.5,0.4,1,0.4h5.9c0.3,0,0.6-0.1,0.8-0.3c0.2-0.2,0.3-0.5,0.3-0.8c0-0.3-0.1-0.6-0.3-0.8
				c-0.2-0.2-0.4-0.3-0.8-0.3h-5v-4h4.5c0.3,0,0.6-0.1,0.7-0.3c0.2-0.2,0.2-0.5,0.2-0.8c0-0.3-0.1-0.6-0.2-0.8
				c-0.2-0.2-0.4-0.3-0.7-0.3h-4.5v-3.5H210z M213.2,21.2c-0.3,0.6-0.5,1.3-0.5,2.1c0,0.8,0.2,1.5,0.5,2c0.3,0.5,0.7,1,1.2,1.3
				c0.5,0.3,1.2,0.6,1.9,0.8c0.6,0.2,1,0.3,1.4,0.5c0.3,0.2,0.6,0.4,0.8,0.7c0.2,0.3,0.3,0.7,0.3,1.1c0,0.6-0.2,1.1-0.6,1.5
				c-0.4,0.4-0.9,0.6-1.6,0.6c-0.5,0-0.8-0.1-1.1-0.3c-0.3-0.2-0.5-0.4-0.7-0.7c-0.2-0.3-0.3-0.7-0.4-1.1c-0.1-0.4-0.2-0.7-0.4-0.9
				c-0.2-0.2-0.4-0.3-0.6-0.3c-0.3,0-0.5,0.1-0.7,0.4c-0.2,0.2-0.3,0.5-0.3,0.9c0,0.6,0.2,1.2,0.5,1.8c0.3,0.6,0.7,1.1,1.2,1.5
				c0.7,0.5,1.6,0.8,2.6,0.8c0.9,0,1.6-0.2,2.3-0.6c0.6-0.4,1.1-0.9,1.5-1.6c0.3-0.7,0.5-1.4,0.5-2.3c0-0.7-0.1-1.3-0.3-1.8
				c-0.2-0.5-0.5-0.9-0.8-1.2c-0.3-0.3-0.8-0.6-1.2-0.8c-0.5-0.2-1-0.4-1.6-0.6c-0.5-0.2-0.8-0.3-1-0.4c-0.2-0.1-0.4-0.2-0.6-0.3
				c-0.2-0.1-0.4-0.3-0.5-0.5c-0.1-0.2-0.2-0.4-0.2-0.7c0-0.5,0.2-0.8,0.5-1.2c0.3-0.3,0.8-0.5,1.3-0.5c0.6,0,1,0.1,1.3,0.4
				c0.3,0.3,0.5,0.7,0.7,1.2c0.2,0.4,0.3,0.6,0.4,0.8c0.1,0.2,0.3,0.2,0.6,0.2c0.3,0,0.5-0.1,0.7-0.4c0.2-0.3,0.3-0.6,0.3-0.9
				c0-0.4-0.1-0.8-0.2-1.1c-0.1-0.4-0.4-0.8-0.7-1.1c-0.3-0.4-0.7-0.6-1.2-0.9c-0.5-0.2-1-0.3-1.7-0.3c-0.8,0-1.5,0.2-2.1,0.5
				C214,20.1,213.5,20.6,213.2,21.2z M228.9,33.2c0.6-0.4,1.1-0.9,1.5-1.6c0.3-0.7,0.5-1.4,0.5-2.3c0-0.7-0.1-1.3-0.3-1.8
				c-0.2-0.5-0.5-0.9-0.8-1.2c-0.3-0.3-0.8-0.6-1.2-0.8c-0.5-0.2-1-0.4-1.6-0.6c-0.5-0.2-0.8-0.3-1-0.4c-0.2-0.1-0.4-0.2-0.6-0.3
				c-0.2-0.1-0.4-0.3-0.5-0.5c-0.1-0.2-0.2-0.4-0.2-0.7c0-0.5,0.2-0.8,0.5-1.2c0.3-0.3,0.8-0.5,1.3-0.5c0.6,0,1,0.1,1.3,0.4
				c0.3,0.3,0.5,0.7,0.7,1.2c0.2,0.4,0.3,0.6,0.4,0.8c0.1,0.2,0.3,0.2,0.6,0.2c0.3,0,0.5-0.1,0.7-0.4c0.2-0.3,0.3-0.6,0.3-0.9
				c0-0.4-0.1-0.8-0.2-1.1c-0.1-0.4-0.4-0.8-0.7-1.1c-0.3-0.4-0.7-0.6-1.2-0.9c-0.5-0.2-1-0.3-1.7-0.3c-0.8,0-1.5,0.2-2.1,0.5
				c-0.6,0.3-1.1,0.8-1.4,1.4c-0.3,0.6-0.5,1.3-0.5,2.1c0,0.8,0.2,1.5,0.5,2c0.3,0.5,0.7,1,1.2,1.3c0.5,0.3,1.2,0.6,1.9,0.8
				c0.6,0.2,1,0.3,1.4,0.5c0.3,0.2,0.6,0.4,0.8,0.7c0.2,0.3,0.3,0.7,0.3,1.1c0,0.6-0.2,1.1-0.6,1.5c-0.4,0.4-0.9,0.6-1.6,0.6
				c-0.5,0-0.8-0.1-1.1-0.3c-0.3-0.2-0.5-0.4-0.7-0.7c-0.2-0.3-0.3-0.7-0.4-1.1c-0.1-0.4-0.2-0.7-0.4-0.9c-0.2-0.2-0.4-0.3-0.6-0.3
				c-0.3,0-0.5,0.1-0.7,0.4c-0.2,0.2-0.3,0.5-0.3,0.9c0,0.6,0.2,1.2,0.5,1.8c0.3,0.6,0.7,1.1,1.2,1.5c0.7,0.5,1.6,0.8,2.6,0.8
				C227.5,33.8,228.3,33.6,228.9,33.2z M155.9,15.4c0.3,0,0.5-0.1,0.7-0.4c0.1-0.2,0.3-0.7,0.5-1.4l0.5-1.8h4.3l0.5,1.8
				c0.1,0.2,0.1,0.5,0.2,0.8c0.1,0.3,0.2,0.5,0.3,0.6c0.1,0.1,0.2,0.2,0.3,0.3c0.1,0.1,0.3,0.1,0.4,0.1c0.3,0,0.5-0.1,0.7-0.4
				c0.2-0.3,0.3-0.6,0.3-0.9c0-0.3-0.1-0.8-0.3-1.5l-2.8-9.1c-0.1-0.5-0.2-0.8-0.3-1.1c-0.1-0.3-0.2-0.5-0.3-0.8
				c-0.1-0.2-0.3-0.4-0.5-0.6c-0.2-0.2-0.5-0.2-0.8-0.2c-0.3,0-0.5,0.1-0.7,0.2c-0.2,0.2-0.4,0.3-0.5,0.6c-0.1,0.2-0.2,0.5-0.3,0.9
				c-0.1,0.4-0.2,0.7-0.3,0.9l-2.7,9.1c-0.1,0.4-0.2,0.6-0.2,0.9c0,0.2-0.1,0.4-0.1,0.6c0,0.3,0.1,0.6,0.3,0.9
				C155.3,15.2,155.6,15.4,155.9,15.4z M159.7,3.8l1.6,5.8h-3.2L159.7,3.8z M166.8,13.9c0.4,0.5,0.9,0.9,1.4,1.1s1.3,0.4,2.1,0.4
				c0.7,0,1.3-0.1,1.8-0.3c0.5-0.2,1-0.6,1.4-1c0.5-0.6,0.8-1.2,0.9-1.9c0.2-0.7,0.2-1.7,0.2-2.8V2.6c0-0.6-0.1-1-0.3-1.3
				c-0.2-0.3-0.5-0.4-0.8-0.4c-0.3,0-0.6,0.1-0.8,0.4c-0.2,0.3-0.3,0.7-0.3,1.3v7c0,1.2-0.2,2.1-0.5,2.7c-0.3,0.6-0.9,0.9-1.8,0.9
				c-0.6,0-1.1-0.1-1.4-0.4c-0.3-0.3-0.6-0.7-0.7-1.2c-0.1-0.5-0.2-1.2-0.2-2V2.6c0-0.6-0.1-1-0.3-1.3c-0.2-0.3-0.5-0.4-0.8-0.4
				c-0.3,0-0.6,0.1-0.8,0.4c-0.2,0.3-0.3,0.7-0.3,1.3v6.8c0,1.1,0.1,2,0.3,2.7C166.2,12.8,166.5,13.4,166.8,13.9z M180.8,13.3
				c-0.5,0-0.8-0.1-1.1-0.3c-0.3-0.2-0.5-0.4-0.7-0.7c-0.2-0.3-0.3-0.7-0.4-1.1c-0.1-0.4-0.2-0.7-0.4-0.9c-0.2-0.2-0.4-0.3-0.6-0.3
				c-0.3,0-0.5,0.1-0.7,0.4c-0.2,0.2-0.3,0.5-0.3,0.9c0,0.6,0.2,1.2,0.5,1.8c0.3,0.6,0.7,1.1,1.2,1.5c0.7,0.5,1.6,0.8,2.6,0.8
				c0.9,0,1.6-0.2,2.3-0.6c0.6-0.4,1.1-0.9,1.5-1.6c0.3-0.7,0.5-1.4,0.5-2.3c0-0.7-0.1-1.3-0.3-1.8c-0.2-0.5-0.5-0.9-0.8-1.2
				c-0.3-0.3-0.8-0.6-1.2-0.8c-0.5-0.2-1-0.4-1.6-0.6c-0.5-0.2-0.8-0.3-1-0.4c-0.2-0.1-0.4-0.2-0.6-0.3c-0.2-0.1-0.4-0.3-0.5-0.5
				c-0.1-0.2-0.2-0.4-0.2-0.7c0-0.5,0.2-0.8,0.5-1.2c0.3-0.3,0.8-0.5,1.3-0.5c0.6,0,1,0.1,1.3,0.4c0.3,0.3,0.5,0.7,0.7,1.2
				c0.2,0.4,0.3,0.6,0.4,0.8c0.1,0.2,0.3,0.2,0.6,0.2c0.3,0,0.5-0.1,0.7-0.4c0.2-0.3,0.3-0.6,0.3-0.9c0-0.4-0.1-0.8-0.2-1.1
				c-0.1-0.4-0.4-0.8-0.7-1.1c-0.3-0.4-0.7-0.6-1.2-0.9c-0.5-0.2-1-0.3-1.7-0.3c-0.8,0-1.5,0.2-2.1,0.5c-0.6,0.3-1.1,0.8-1.4,1.4
				c-0.3,0.6-0.5,1.3-0.5,2.1c0,0.8,0.2,1.5,0.5,2c0.3,0.5,0.7,1,1.2,1.3c0.5,0.3,1.2,0.6,1.9,0.8c0.6,0.2,1,0.3,1.4,0.5
				c0.3,0.2,0.6,0.4,0.8,0.7c0.2,0.3,0.3,0.7,0.3,1.1c0,0.6-0.2,1.1-0.6,1.5C182,13.1,181.5,13.3,180.8,13.3z M191.5,13.6V3.4h2.4
				c0.4,0,0.6-0.1,0.8-0.3c0.2-0.2,0.3-0.5,0.3-0.8c0-0.4-0.1-0.6-0.3-0.9c-0.2-0.2-0.5-0.3-0.8-0.3H187c-0.4,0-0.6,0.1-0.8,0.3
				c-0.2,0.2-0.3,0.5-0.3,0.9c0,0.4,0.1,0.6,0.3,0.8c0.2,0.2,0.5,0.3,0.8,0.3h2.4v10.2c0,0.6,0.1,1,0.3,1.3c0.2,0.3,0.5,0.4,0.8,0.4
				c0.3,0,0.6-0.1,0.8-0.4C191.4,14.7,191.5,14.2,191.5,13.6z M197.3,15.4c0.3,0,0.6-0.1,0.8-0.4c0.2-0.3,0.3-0.7,0.3-1.3V9.1h0.8
				c0.4,0,0.7,0.1,1,0.2c0.3,0.1,0.5,0.4,0.7,0.7c0.2,0.4,0.5,0.9,0.8,1.6l0.9,1.9c0.2,0.4,0.4,0.8,0.5,1c0.1,0.2,0.3,0.4,0.4,0.6
				c0.2,0.1,0.4,0.2,0.6,0.2c0.2,0,0.4-0.1,0.5-0.2c0.2-0.1,0.3-0.2,0.4-0.4c0.1-0.2,0.1-0.4,0.1-0.6c0-0.2-0.1-0.5-0.2-1
				c-0.2-0.5-0.4-1-0.6-1.6c-0.3-0.6-0.6-1.1-0.9-1.7c-0.3-0.5-0.7-0.9-1.1-1.2c0.9-0.3,1.6-0.7,2-1.3c0.4-0.6,0.7-1.5,0.7-2.5
				c0-0.5-0.1-1-0.2-1.5c-0.1-0.5-0.3-0.9-0.6-1.2c-0.3-0.3-0.6-0.6-0.9-0.8c-0.3-0.2-0.6-0.3-0.9-0.3c-0.3-0.1-0.8-0.1-1.2-0.1
				h-3.5c-0.5,0-0.8,0.1-1,0.4c-0.2,0.3-0.3,0.7-0.3,1.3v10.8c0,0.6,0.1,1,0.3,1.3C196.7,15.2,197,15.4,197.3,15.4z M198.4,3.2h2
				c0.7,0,1.2,0.1,1.5,0.2c0.3,0.1,0.5,0.4,0.6,0.7c0.2,0.3,0.2,0.6,0.2,1c0,0.5-0.1,0.9-0.3,1.2c-0.2,0.3-0.5,0.5-0.8,0.6
				c-0.4,0.1-0.8,0.2-1.3,0.2h-1.9V3.2z M207.3,15.4c0.3,0,0.5-0.1,0.7-0.4c0.1-0.2,0.3-0.7,0.5-1.4l0.5-1.8h4.3l0.5,1.8
				c0.1,0.2,0.1,0.5,0.2,0.8c0.1,0.3,0.2,0.5,0.3,0.6c0.1,0.1,0.2,0.2,0.3,0.3c0.1,0.1,0.3,0.1,0.4,0.1c0.3,0,0.5-0.1,0.7-0.4
				c0.2-0.3,0.3-0.6,0.3-0.9c0-0.3-0.1-0.8-0.3-1.5L213,3.5c-0.1-0.5-0.2-0.8-0.3-1.1c-0.1-0.3-0.2-0.5-0.3-0.8
				c-0.1-0.2-0.3-0.4-0.5-0.6c-0.2-0.2-0.5-0.2-0.8-0.2c-0.3,0-0.5,0.1-0.7,0.2c-0.2,0.2-0.4,0.3-0.5,0.6c-0.1,0.2-0.2,0.5-0.3,0.9
				c-0.1,0.4-0.2,0.7-0.3,0.9l-2.7,9.1c-0.1,0.4-0.2,0.6-0.2,0.9c0,0.2-0.1,0.4-0.1,0.6c0,0.3,0.1,0.6,0.3,0.9
				C206.7,15.2,207,15.4,207.3,15.4z M211.1,3.8l1.6,5.8h-3.2L211.1,3.8z M219,15.1h5.2c0.4,0,0.6-0.1,0.8-0.3
				c0.2-0.2,0.3-0.5,0.3-0.8c0-0.3-0.1-0.6-0.3-0.8c-0.2-0.2-0.5-0.3-0.8-0.3h-4.4V2.6c0-0.6-0.1-1-0.3-1.3
				c-0.2-0.3-0.5-0.4-0.8-0.4c-0.3,0-0.6,0.1-0.8,0.4c-0.2,0.3-0.3,0.7-0.3,1.3v10.8c0,0.6,0.1,1.1,0.3,1.3
				C218.2,15,218.5,15.1,219,15.1z M227.8,15.4c0.3,0,0.6-0.1,0.8-0.4c0.2-0.3,0.3-0.7,0.3-1.3V2.6c0-0.6-0.1-1-0.3-1.3
				c-0.2-0.3-0.5-0.4-0.8-0.4c-0.3,0-0.6,0.1-0.8,0.4c-0.2,0.3-0.3,0.7-0.3,1.3v11.1c0,0.6,0.1,1,0.3,1.3
				C227.3,15.2,227.5,15.4,227.8,15.4z M237.4,3.5c-0.1-0.5-0.2-0.8-0.3-1.1c-0.1-0.3-0.2-0.5-0.3-0.8c-0.1-0.2-0.3-0.4-0.5-0.6
				c-0.2-0.2-0.5-0.2-0.8-0.2c-0.3,0-0.5,0.1-0.7,0.2c-0.2,0.2-0.4,0.3-0.5,0.6c-0.1,0.2-0.2,0.5-0.3,0.9c-0.1,0.4-0.2,0.7-0.3,0.9
				l-2.7,9.1c-0.1,0.4-0.2,0.6-0.2,0.9c0,0.2-0.1,0.4-0.1,0.6c0,0.3,0.1,0.6,0.3,0.9c0.2,0.3,0.4,0.4,0.7,0.4c0.3,0,0.5-0.1,0.7-0.4
				c0.1-0.2,0.3-0.7,0.5-1.4l0.5-1.8h4.3l0.5,1.8c0.1,0.2,0.1,0.5,0.2,0.8c0.1,0.3,0.2,0.5,0.3,0.6c0.1,0.1,0.2,0.2,0.3,0.3
				c0.1,0.1,0.3,0.1,0.4,0.1c0.3,0,0.5-0.1,0.7-0.4c0.2-0.3,0.3-0.6,0.3-0.9c0-0.3-0.1-0.8-0.3-1.5L237.4,3.5z M233.9,9.6l1.6-5.8
				l1.6,5.8H233.9z M250.7,1.2c-0.2-0.3-0.4-0.4-0.7-0.4c-0.3,0-0.5,0.1-0.7,0.4c-0.2,0.3-0.3,0.7-0.3,1.2v8.4l-4.2-8.3
				c-0.1-0.2-0.2-0.5-0.3-0.7c-0.1-0.2-0.2-0.4-0.3-0.5C244.1,1.2,244,1,243.8,1c-0.1-0.1-0.3-0.1-0.5-0.1c-0.2,0-0.5,0.1-0.7,0.3
				c-0.2,0.2-0.4,0.4-0.5,0.7c-0.1,0.3-0.1,0.6-0.1,1.1v10.8c0,0.5,0.1,0.9,0.3,1.2c0.2,0.3,0.4,0.4,0.7,0.4c0.3,0,0.5-0.1,0.7-0.4
				c0.2-0.3,0.3-0.7,0.3-1.2V5.5l4,8.2c0.1,0.2,0.2,0.4,0.3,0.7c0.1,0.2,0.2,0.4,0.4,0.6c0.1,0.2,0.3,0.3,0.4,0.4
				c0.2,0.1,0.3,0.1,0.5,0.1c0.8,0,1.2-0.6,1.2-1.9V2.5C251,1.9,250.9,1.5,250.7,1.2z M163.7,52c0.3,0,0.5-0.1,0.7-0.4
				c0.2-0.3,0.3-0.6,0.3-0.9c0-0.3-0.1-0.8-0.3-1.5l-2.8-9.1c-0.1-0.5-0.2-0.8-0.3-1.1c-0.1-0.3-0.2-0.5-0.3-0.8
				c-0.1-0.2-0.3-0.4-0.5-0.6c-0.2-0.1-0.5-0.2-0.8-0.2c-0.3,0-0.5,0.1-0.7,0.2c-0.2,0.2-0.4,0.3-0.5,0.6c-0.1,0.2-0.2,0.5-0.3,0.9
				c-0.1,0.4-0.2,0.7-0.3,0.9l-2.7,9.1c-0.1,0.4-0.2,0.6-0.2,0.9c0,0.2-0.1,0.4-0.1,0.6c0,0.3,0.1,0.6,0.3,0.9
				c0.2,0.3,0.4,0.4,0.7,0.4c0.3,0,0.5-0.1,0.7-0.4c0.1-0.2,0.3-0.7,0.5-1.4l0.5-1.8h4.3l0.5,1.8c0.1,0.2,0.1,0.5,0.2,0.8
				c0.1,0.3,0.2,0.5,0.3,0.6c0.1,0.1,0.2,0.2,0.3,0.3C163.3,51.9,163.5,52,163.7,52z M158.1,46.2l1.6-5.8l1.6,5.8H158.1z
				 M177.8,37.4c-0.3,0-0.5,0.1-0.6,0.3c-0.1,0.2-0.3,0.4-0.3,0.7c-0.1,0.2-0.1,0.6-0.2,1l-1.4,8.2l-1.6-7.7
				c-0.1-0.6-0.2-1.1-0.3-1.4c-0.1-0.3-0.2-0.5-0.4-0.8c-0.2-0.2-0.5-0.3-0.8-0.3c-0.4,0-0.6,0.1-0.9,0.3c-0.2,0.2-0.4,0.5-0.5,0.8
				c-0.1,0.3-0.2,0.8-0.3,1.3l-1.6,7.7l-1.4-8.2c-0.1-0.6-0.2-1.1-0.4-1.4c-0.1-0.3-0.4-0.5-0.8-0.5c-0.3,0-0.5,0.1-0.7,0.4
				c-0.2,0.2-0.3,0.6-0.3,0.9c0,0.3,0.1,0.7,0.2,1.3l1.8,9.5c0.1,0.3,0.1,0.6,0.2,0.9c0.1,0.3,0.2,0.6,0.3,0.9
				c0.1,0.2,0.2,0.4,0.4,0.6c0.2,0.1,0.4,0.2,0.7,0.2c0.3,0,0.6-0.1,0.8-0.3c0.2-0.2,0.3-0.5,0.4-0.7c0.1-0.3,0.2-0.7,0.3-1.4
				l1.7-8.4l1.7,8.4c0.1,0.7,0.2,1.1,0.3,1.4c0.1,0.3,0.2,0.5,0.4,0.7c0.2,0.2,0.5,0.3,0.8,0.3c0.3,0,0.6-0.1,0.8-0.3
				c0.2-0.2,0.3-0.5,0.4-0.8c0.1-0.3,0.2-0.8,0.3-1.4l1.8-9.5c0.1-0.6,0.2-1,0.2-1.3c0-0.4-0.1-0.7-0.3-0.9
				C178.3,37.6,178.1,37.4,177.8,37.4z M187.1,50.1c0.1,0.2,0.1,0.5,0.2,0.8c0.1,0.3,0.2,0.5,0.3,0.6c0.1,0.1,0.2,0.2,0.3,0.3
				c0.1,0.1,0.3,0.1,0.4,0.1c0.3,0,0.5-0.1,0.7-0.4c0.2-0.3,0.3-0.6,0.3-0.9c0-0.3-0.1-0.8-0.3-1.5l-2.8-9.1
				c-0.1-0.5-0.2-0.8-0.3-1.1c-0.1-0.3-0.2-0.5-0.3-0.8c-0.1-0.2-0.3-0.4-0.5-0.6c-0.2-0.1-0.5-0.2-0.8-0.2c-0.3,0-0.5,0.1-0.7,0.2
				c-0.2,0.2-0.4,0.3-0.5,0.6c-0.1,0.2-0.2,0.5-0.3,0.9c-0.1,0.4-0.2,0.7-0.3,0.9l-2.7,9.1c-0.1,0.4-0.2,0.6-0.2,0.9
				c0,0.2-0.1,0.4-0.1,0.6c0,0.3,0.1,0.6,0.3,0.9c0.2,0.3,0.4,0.4,0.7,0.4c0.3,0,0.5-0.1,0.7-0.4c0.1-0.2,0.3-0.7,0.5-1.4l0.5-1.8
				h4.3L187.1,50.1z M182.8,46.2l1.6-5.8l1.6,5.8H182.8z M199.3,51.8c0.2-0.1,0.3-0.2,0.4-0.4c0.1-0.2,0.1-0.4,0.1-0.6
				c0-0.2-0.1-0.5-0.2-1c-0.2-0.5-0.4-1-0.6-1.6c-0.3-0.6-0.6-1.1-0.9-1.7c-0.3-0.5-0.7-0.9-1.1-1.2c0.9-0.3,1.6-0.7,2-1.3
				c0.4-0.6,0.7-1.5,0.7-2.5c0-0.5-0.1-1-0.2-1.5c-0.1-0.5-0.3-0.9-0.6-1.2c-0.3-0.3-0.6-0.6-0.9-0.8c-0.3-0.2-0.6-0.3-0.9-0.3
				c-0.3-0.1-0.8-0.1-1.2-0.1h-3.5c-0.5,0-0.8,0.1-1,0.4c-0.2,0.3-0.3,0.7-0.3,1.3v10.8c0,0.6,0.1,1,0.3,1.3
				c0.2,0.3,0.5,0.4,0.8,0.4c0.3,0,0.6-0.1,0.8-0.4c0.2-0.3,0.3-0.7,0.3-1.3v-4.5h0.8c0.4,0,0.7,0.1,1,0.2c0.3,0.1,0.5,0.4,0.7,0.7
				c0.2,0.4,0.5,0.9,0.8,1.6l0.9,1.9c0.2,0.4,0.4,0.8,0.5,1c0.1,0.2,0.3,0.4,0.4,0.6c0.2,0.2,0.4,0.2,0.6,0.2
				C199,52,199.2,51.9,199.3,51.8z M196.4,43.5c-0.4,0.1-0.8,0.2-1.3,0.2h-1.9v-3.9h2c0.7,0,1.2,0.1,1.5,0.2
				c0.3,0.1,0.5,0.4,0.6,0.7c0.2,0.3,0.2,0.6,0.2,1c0,0.5-0.1,0.9-0.3,1.2C197,43.2,196.7,43.4,196.4,43.5z M209.2,50.4
				c0.4-0.4,0.7-0.9,0.9-1.5c0.2-0.6,0.4-1.2,0.5-1.9c0.1-0.7,0.2-1.5,0.2-2.3c0-2.6-0.6-4.5-1.7-5.7c-0.4-0.5-0.9-0.8-1.4-1
				c-0.5-0.2-1.2-0.3-1.9-0.3H203c-0.5,0-0.8,0.1-1,0.4c-0.2,0.3-0.3,0.7-0.3,1.3v10.3c0,0.5,0,0.8,0.1,1.1c0.1,0.3,0.2,0.5,0.4,0.7
				c0.2,0.2,0.5,0.2,0.9,0.2h2.8c0.5,0,0.9,0,1.3-0.1c0.4-0.1,0.8-0.2,1.1-0.4C208.6,51,208.9,50.7,209.2,50.4z M207,49.2
				c-0.2,0.1-0.4,0.2-0.6,0.2c-0.2,0-0.5,0-0.8,0h-1.6v-9.5h1.4c0.7,0,1.2,0.1,1.7,0.3c0.5,0.2,0.9,0.6,1.2,1.3
				c0.3,0.7,0.5,1.7,0.5,3.1c0,2-0.4,3.4-1.1,4.2C207.4,49,207.2,49.1,207,49.2z M220.8,47.5c0-0.7-0.1-1.3-0.3-1.8
				c-0.2-0.5-0.5-0.9-0.8-1.2c-0.3-0.3-0.8-0.6-1.2-0.8c-0.5-0.2-1-0.4-1.6-0.6c-0.5-0.2-0.8-0.3-1-0.4c-0.2-0.1-0.4-0.2-0.6-0.3
				c-0.2-0.1-0.4-0.3-0.5-0.5c-0.1-0.2-0.2-0.4-0.2-0.7c0-0.5,0.2-0.8,0.5-1.2c0.3-0.3,0.8-0.5,1.3-0.5c0.6,0,1,0.1,1.3,0.4
				c0.3,0.3,0.5,0.7,0.7,1.2c0.2,0.4,0.3,0.6,0.4,0.8c0.1,0.2,0.3,0.2,0.6,0.2c0.3,0,0.5-0.1,0.7-0.4c0.2-0.3,0.3-0.6,0.3-0.9
				c0-0.4-0.1-0.8-0.2-1.1c-0.1-0.4-0.4-0.8-0.7-1.1c-0.3-0.4-0.7-0.6-1.2-0.9c-0.5-0.2-1-0.3-1.7-0.3c-0.8,0-1.5,0.2-2.1,0.5
				c-0.6,0.3-1.1,0.8-1.4,1.4c-0.3,0.6-0.5,1.3-0.5,2.1c0,0.8,0.2,1.5,0.5,2c0.3,0.5,0.7,1,1.2,1.3c0.5,0.3,1.2,0.6,1.9,0.8
				c0.6,0.2,1,0.3,1.4,0.5c0.3,0.2,0.6,0.4,0.8,0.7c0.2,0.3,0.3,0.7,0.3,1.1c0,0.6-0.2,1.1-0.6,1.5c-0.4,0.4-0.9,0.6-1.6,0.6
				c-0.5,0-0.8-0.1-1.1-0.3c-0.3-0.2-0.5-0.4-0.7-0.7c-0.2-0.3-0.3-0.7-0.4-1.1c-0.1-0.4-0.2-0.7-0.4-0.9c-0.2-0.2-0.3-0.3-0.6-0.3
				c-0.3,0-0.5,0.1-0.7,0.4c-0.2,0.2-0.3,0.5-0.3,0.9c0,0.6,0.2,1.2,0.5,1.8c0.3,0.6,0.7,1.1,1.2,1.5c0.7,0.5,1.6,0.8,2.6,0.8
				c0.9,0,1.6-0.2,2.3-0.6c0.6-0.4,1.1-0.9,1.5-1.6C220.6,49.1,220.8,48.4,220.8,47.5z M161,55.9c-0.2,0-0.4,0.1-0.5,0.3
				c-0.1,0.2-0.2,0.5-0.2,0.9v6l-2.9-5.9c-0.1-0.2-0.2-0.3-0.2-0.5c-0.1-0.2-0.2-0.3-0.2-0.4c-0.1-0.1-0.2-0.2-0.3-0.2
				c-0.1-0.1-0.2-0.1-0.3-0.1c-0.2,0-0.3,0.1-0.5,0.2c-0.1,0.1-0.3,0.3-0.3,0.5c-0.1,0.2-0.1,0.4-0.1,0.8v7.7c0,0.4,0.1,0.7,0.2,0.9
				c0.1,0.2,0.3,0.3,0.5,0.3c0.2,0,0.4-0.1,0.5-0.3c0.1-0.2,0.2-0.5,0.2-0.9v-5.9l2.8,5.8c0.1,0.2,0.2,0.3,0.2,0.5
				c0.1,0.2,0.2,0.3,0.3,0.4c0.1,0.1,0.2,0.2,0.3,0.2c0.1,0.1,0.2,0.1,0.4,0.1c0.5,0,0.8-0.4,0.8-1.3V57c0-0.4-0.1-0.7-0.2-0.9
				C161.4,55.9,161.2,55.9,161,55.9z M168.6,56.5c-0.6-0.4-1.2-0.6-2-0.6c-0.6,0-1.1,0.1-1.5,0.4c-0.4,0.2-0.8,0.6-1.1,1
				c-0.3,0.5-0.5,1-0.7,1.6c-0.2,0.6-0.2,1.4-0.2,2.1c0,0.8,0.1,1.5,0.2,2.1c0.2,0.6,0.4,1.2,0.7,1.7c0.3,0.5,0.7,0.8,1.2,1.1
				c0.5,0.3,1,0.4,1.6,0.4c0.6,0,1.1-0.1,1.6-0.4c0.5-0.2,0.8-0.6,1.1-1.1c0.3-0.5,0.5-1,0.7-1.6c0.2-0.6,0.2-1.3,0.2-2.1
				c0-1-0.1-2-0.4-2.7C169.6,57.5,169.2,56.9,168.6,56.5z M168.5,63c-0.2,0.5-0.4,0.9-0.8,1.2c-0.3,0.3-0.7,0.4-1.1,0.4
				c-0.3,0-0.6-0.1-0.8-0.2c-0.3-0.2-0.5-0.4-0.7-0.7c-0.2-0.3-0.3-0.7-0.5-1.1c-0.1-0.5-0.2-1-0.2-1.5c0-0.6,0.1-1.1,0.2-1.5
				c0.1-0.5,0.3-0.8,0.4-1.1c0.2-0.3,0.4-0.5,0.7-0.7c0.3-0.2,0.5-0.2,0.8-0.2c0.4,0,0.8,0.1,1.1,0.4c0.3,0.3,0.6,0.7,0.8,1.2
				c0.2,0.5,0.3,1.2,0.3,1.9C168.8,61.8,168.7,62.5,168.5,63z M177.7,56h-0.5c-0.3,0-0.5,0-0.6,0.1c-0.1,0.1-0.2,0.2-0.3,0.4
				c-0.1,0.2-0.1,0.5-0.2,0.9l-1.1,5.5l-1.1-5.5c-0.1-0.4-0.1-0.7-0.2-0.9c-0.1-0.2-0.2-0.3-0.3-0.4c-0.1-0.1-0.3-0.1-0.6-0.1h-0.5
				c-0.3,0-0.5,0.1-0.7,0.2c-0.2,0.2-0.3,0.4-0.3,0.9v7.9c0,0.4,0.1,0.7,0.2,0.9c0.1,0.2,0.3,0.3,0.5,0.3c0.2,0,0.4-0.1,0.5-0.3
				c0.1-0.2,0.2-0.5,0.2-0.9v-6.9l1.2,6.4c0,0.2,0.1,0.4,0.1,0.6c0,0.2,0.1,0.4,0.2,0.5c0.1,0.2,0.2,0.3,0.3,0.4
				c0.1,0.1,0.3,0.2,0.4,0.2c0.2,0,0.4-0.1,0.5-0.2c0.1-0.2,0.2-0.3,0.3-0.5c0-0.2,0.1-0.5,0.2-0.9l1.2-6.4v6.9
				c0,0.4,0.1,0.7,0.2,0.9c0.1,0.2,0.3,0.3,0.5,0.3c0.2,0,0.4-0.1,0.5-0.3c0.1-0.2,0.2-0.5,0.2-0.9v-7.9c0-0.4-0.1-0.7-0.3-0.9
				C178.3,56.1,178,56,177.7,56z M181,55.9c-0.2,0-0.4,0.1-0.5,0.3c-0.1,0.2-0.2,0.5-0.2,0.9V65c0,0.4,0.1,0.7,0.2,0.9
				c0.1,0.2,0.3,0.3,0.5,0.3c0.2,0,0.4-0.1,0.6-0.3c0.1-0.2,0.2-0.5,0.2-0.9v-7.9c0-0.4-0.1-0.7-0.2-0.9
				C181.5,56,181.3,55.9,181,55.9z M189,55.9c-0.2,0-0.4,0.1-0.5,0.3c-0.1,0.2-0.2,0.5-0.2,0.9v6l-2.9-5.9c-0.1-0.2-0.2-0.3-0.2-0.5
				c-0.1-0.2-0.2-0.3-0.2-0.4s-0.2-0.2-0.3-0.2c-0.1-0.1-0.2-0.1-0.3-0.1c-0.2,0-0.3,0.1-0.5,0.2c-0.1,0.1-0.3,0.3-0.3,0.5
				c-0.1,0.2-0.1,0.4-0.1,0.8v7.7c0,0.4,0.1,0.7,0.2,0.9c0.1,0.2,0.3,0.3,0.5,0.3c0.2,0,0.4-0.1,0.5-0.3c0.1-0.2,0.2-0.5,0.2-0.9
				v-5.9l2.8,5.8c0.1,0.2,0.2,0.3,0.2,0.5c0.1,0.2,0.2,0.3,0.3,0.4c0.1,0.1,0.2,0.2,0.3,0.2c0.1,0.1,0.2,0.1,0.4,0.1
				c0.5,0,0.8-0.4,0.8-1.3V57c0-0.4-0.1-0.7-0.2-0.9C189.4,55.9,189.3,55.9,189,55.9z M196.4,64.4h-3.5v-2.9h3.1
				c0.2,0,0.4-0.1,0.5-0.2c0.1-0.1,0.2-0.3,0.2-0.6s-0.1-0.4-0.2-0.6c-0.1-0.1-0.3-0.2-0.5-0.2h-3.1v-2.5h3.4c0.2,0,0.4-0.1,0.5-0.2
				c0.1-0.1,0.2-0.3,0.2-0.6c0-0.2-0.1-0.4-0.2-0.6c-0.1-0.1-0.3-0.2-0.5-0.2h-4c-0.2,0-0.4,0-0.5,0.1c-0.1,0.1-0.2,0.2-0.3,0.4
				c-0.1,0.2-0.1,0.4-0.1,0.7v7.5c0,0.4,0.1,0.8,0.2,1c0.1,0.2,0.4,0.3,0.7,0.3h4.1c0.2,0,0.4-0.1,0.5-0.2c0.1-0.1,0.2-0.3,0.2-0.6
				c0-0.2-0.1-0.4-0.2-0.6C196.8,64.5,196.6,64.4,196.4,64.4z M203.3,64.4h-3.5v-2.9h3.1c0.2,0,0.4-0.1,0.5-0.2
				c0.1-0.1,0.2-0.3,0.2-0.6s-0.1-0.4-0.2-0.6c-0.1-0.1-0.3-0.2-0.5-0.2h-3.1v-2.5h3.4c0.2,0,0.4-0.1,0.5-0.2
				c0.1-0.1,0.2-0.3,0.2-0.6c0-0.2-0.1-0.4-0.2-0.6c-0.1-0.1-0.3-0.2-0.5-0.2h-4c-0.2,0-0.4,0-0.5,0.1c-0.1,0.1-0.2,0.2-0.3,0.4
				c-0.1,0.2-0.1,0.4-0.1,0.7v7.5c0,0.4,0.1,0.8,0.2,1c0.1,0.2,0.4,0.3,0.7,0.3h4.1c0.2,0,0.4-0.1,0.5-0.2c0.1-0.1,0.2-0.3,0.2-0.6
				c0-0.2-0.1-0.4-0.2-0.6C203.8,64.5,203.6,64.4,203.3,64.4z M212,64.4h-2.6c0.1-0.2,0.2-0.3,0.2-0.4c0.2-0.3,0.5-0.7,1-1.3
				c0.5-0.6,0.9-1,1.1-1.2c0.2-0.3,0.4-0.6,0.6-1.1c0.2-0.5,0.3-1,0.3-1.5c0-0.4-0.1-0.7-0.1-1c-0.1-0.3-0.2-0.6-0.4-0.9
				c-0.2-0.3-0.4-0.5-0.6-0.6c-0.4-0.2-0.8-0.3-1.3-0.3c-0.4,0-0.8,0.1-1.1,0.3c-0.3,0.2-0.6,0.4-0.8,0.7c-0.2,0.3-0.4,0.6-0.5,0.9
				c-0.1,0.3-0.2,0.7-0.2,1c0,0.3,0.1,0.5,0.2,0.6c0.1,0.2,0.3,0.2,0.4,0.2c0.2,0,0.3-0.1,0.4-0.2c0.1-0.2,0.2-0.4,0.3-0.7
				c0.1-0.3,0.1-0.5,0.2-0.6c0.3-0.5,0.6-0.8,1-0.8c0.2,0,0.4,0.1,0.6,0.2c0.2,0.1,0.3,0.3,0.4,0.5c0.1,0.2,0.2,0.5,0.2,0.8
				c0,0.3,0,0.5-0.1,0.8c-0.1,0.3-0.2,0.6-0.4,0.8c-0.2,0.3-0.4,0.5-0.7,0.8c-0.2,0.1-0.4,0.4-0.8,0.9c-0.4,0.4-0.8,1-1.2,1.6
				c-0.1,0.2-0.2,0.4-0.3,0.6c-0.1,0.3-0.1,0.5-0.1,0.7c0,0.3,0.1,0.5,0.2,0.7c0.1,0.2,0.3,0.3,0.6,0.3h3.7c0.2,0,0.4-0.1,0.5-0.2
				c0.1-0.2,0.2-0.3,0.2-0.6c0-0.3-0.1-0.4-0.2-0.6C212.5,64.5,212.3,64.4,212,64.4z M218,56.8c-0.2-0.3-0.5-0.5-0.7-0.7
				c-0.3-0.2-0.6-0.2-0.9-0.2c-0.5,0-1,0.2-1.4,0.5c-0.4,0.3-0.7,0.8-0.9,1.5c-0.1,0.4-0.2,0.9-0.3,1.4c-0.1,0.6-0.1,1.2-0.1,1.9
				c0,0.5,0,1,0.1,1.5c0,0.5,0.1,0.9,0.2,1.3c0.2,0.7,0.5,1.2,0.9,1.6c0.4,0.4,0.9,0.6,1.4,0.6c0.4,0,0.9-0.1,1.2-0.4
				c0.4-0.3,0.7-0.7,0.9-1.2c0.2-0.4,0.3-0.9,0.4-1.5c0.1-0.5,0.1-1.2,0.1-1.9c0-1.4-0.1-2.4-0.4-3.2
				C218.4,57.5,218.2,57.1,218,56.8z M217.4,63.1c-0.1,0.5-0.2,1-0.4,1.3c-0.2,0.3-0.4,0.4-0.7,0.4c-0.3,0-0.5-0.1-0.7-0.4
				c-0.2-0.3-0.3-0.7-0.4-1.2c-0.1-0.5-0.1-1.3-0.1-2.1c0-1.3,0.1-2.2,0.3-2.8c0.2-0.6,0.5-0.9,0.9-0.9c0.3,0,0.6,0.1,0.7,0.4
				c0.2,0.3,0.3,0.7,0.4,1.2c0.1,0.5,0.1,1.2,0.1,2C217.5,61.9,217.5,62.6,217.4,63.1z M223.1,56c-0.2,0-0.3,0-0.3,0.1
				c-0.1,0.1-0.2,0.3-0.4,0.7c-0.2,0.4-0.4,0.7-0.7,1c-0.2,0.3-0.6,0.6-1,0.8c-0.3,0.2-0.5,0.3-0.6,0.4c-0.1,0.1-0.2,0.3-0.2,0.5
				c0,0.2,0.1,0.4,0.2,0.5c0.1,0.2,0.2,0.2,0.4,0.2c0.3,0,0.9-0.4,1.7-1.3v6.2c0,0.4,0.1,0.6,0.2,0.8c0.1,0.2,0.3,0.3,0.5,0.3
				c0.5,0,0.7-0.5,0.7-1.4V57c0-0.3-0.1-0.6-0.2-0.8C223.4,56.1,223.3,56,223.1,56z M230.7,62.4h-0.2v-5.3c0-0.8-0.3-1.2-0.8-1.2
				c-0.2,0-0.3,0.1-0.4,0.2c-0.1,0.1-0.3,0.4-0.4,0.7l-2.7,4.9c-0.1,0.1-0.1,0.2-0.2,0.3c-0.1,0.1-0.1,0.2-0.1,0.3
				c0,0.1-0.1,0.2-0.1,0.3c0,0.1,0,0.2,0,0.3c0,0.3,0.1,0.6,0.2,0.8c0.2,0.2,0.4,0.3,0.7,0.3h2.5v1.3c0,0.3,0.1,0.6,0.2,0.8
				c0.1,0.2,0.3,0.3,0.5,0.3c0.2,0,0.3-0.1,0.5-0.3c0.1-0.2,0.2-0.4,0.2-0.8v-1.3h0.3c0.3,0,0.4-0.1,0.6-0.2
				c0.1-0.1,0.2-0.3,0.2-0.6c0-0.3-0.1-0.5-0.2-0.6C231.2,62.4,231,62.4,230.7,62.4z M229.2,62.4H227l2.2-4V62.4z"/>
		</g>
	</g>
</g>
</svg>
