<?xml version="1.0" encoding="utf-8"?>
<!-- Generator: Adobe Illustrator 19.0.0, SVG Export Plug-In . SVG Version: 6.00 Build 0)  -->
<svg version="1.1" id="Layer_1" xmlns="http://www.w3.org/2000/svg" xmlns:xlink="http://www.w3.org/1999/xlink" x="0px" y="0px"
	 viewBox="0 0 160 95" style="enable-background:new 0 0 160 95;" xml:space="preserve">
<style type="text/css">
	.st0{fill:#85754E;}
</style>
<g id="XMLID_2_">
	<g id="XMLID_665_">
		<path id="XMLID_666_" class="st0" d="M96.3,20.8c0.1,0,0.3,0,0.4,0c0.3,0.1,0.4,0.2,0.4,0.6c0,0.3,0,0.6,0,2.1v1.8
			c0,0.9,0,1.7,0,2.1c0,0.3-0.1,0.5-0.3,0.6c-0.1,0-0.2,0-0.4,0c-0.1,0-0.2,0-0.2,0.1c0,0.1,0.1,0.1,0.2,0.1c0.4,0,1,0,1.2,0
			c0.1,0,0.9,0,1.5,0c0.1,0,0.2,0,0.2-0.1c0-0.1,0-0.1-0.1-0.1c-0.1,0-0.3,0-0.5,0c-0.3,0-0.4-0.3-0.4-0.6c0-0.4,0-1.2,0-2.2v-0.1
			c0-0.1,0-0.1,0.1-0.1l0.9,0c0.1,0,0.1,0,0.2,0.1c0.1,0.2,0.6,0.8,1,1.4c0.6,0.8,0.9,1.2,1.4,1.5c0.3,0.1,0.5,0.2,1.1,0.2h0.9
			c0.1,0,0.2,0,0.2-0.1c0-0.1,0-0.1-0.1-0.1c-0.1,0-0.2,0-0.3,0c-0.1,0-0.6-0.1-1.1-0.7c-0.6-0.6-1.3-1.5-2.2-2.6
			c1-0.8,1.3-1.5,1.3-2.3c0-0.7-0.4-1.2-0.7-1.4c-0.5-0.4-1.2-0.4-1.8-0.4c-0.3,0-1.1,0-1.4,0c-0.2,0-0.8,0-1.4,0
			c-0.1,0-0.2,0-0.2,0.1C96.2,20.8,96.2,20.8,96.3,20.8z M98.3,21.3c0-0.1,0-0.1,0.1-0.1c0.1,0,0.3,0,0.5,0c0.6,0,1.5,0.4,1.5,1.8
			c0,0.8-0.3,1.3-0.6,1.5c-0.2,0.1-0.3,0.2-0.7,0.2c-0.2,0-0.5,0-0.8-0.1c-0.1,0-0.1-0.1-0.1-0.2V21.3z M103.8,31.3
			c0,0.1,0.1,0.1,0.2,0.1c0.1,0,0.3,0,0.4,0c0.3,0.1,0.4,0.2,0.4,0.6c0,0.3,0,0.6,0,2.1v1.5c0,1.5,0.4,2.2,0.9,2.7
			c0.7,0.7,1.7,0.7,2.2,0.7c0.6,0,1.4-0.1,2.1-0.7c0.8-0.7,0.9-1.9,0.9-3v-1.1c0-1.5,0-1.8,0-2.1c0-0.4,0.1-0.5,0.4-0.6
			c0.1,0,0.2,0,0.3,0c0.1,0,0.2,0,0.2-0.1c0-0.1-0.1-0.1-0.2-0.1c-0.4,0-1,0-1.1,0c0,0-0.6,0-1.1,0c-0.1,0-0.2,0-0.2,0.1
			c0,0.1,0.1,0.1,0.2,0.1c0.1,0,0.3,0,0.4,0c0.3,0.1,0.4,0.2,0.4,0.6c0,0.3,0,0.6,0,2.1v1.3c0,1,0,1.9-0.6,2.5
			c-0.4,0.4-0.9,0.5-1.4,0.5c-0.3,0-0.8,0-1.2-0.4c-0.5-0.4-0.8-1-0.8-2.5v-1.4c0-1.5,0-1.8,0-2.1c0-0.4,0.1-0.5,0.4-0.6
			c0.1,0,0.2,0,0.3,0c0.1,0,0.2,0,0.2-0.1c0-0.1-0.1-0.1-0.2-0.1c-0.4,0-1,0-1.2,0c-0.3,0-0.9,0-1.5,0
			C103.9,31.2,103.8,31.2,103.8,31.3z M107.2,28.3c0.5,0,1.1,0,1.2,0c0.3,0,0.7,0,1.1,0c0.1,0,0.2,0,0.2-0.1c0-0.1,0-0.1-0.1-0.1
			h-0.1c-0.3,0-0.4-0.1-0.4-0.3c0-0.1,0-0.4,0.1-0.6l0.5-1.4c0-0.1,0-0.1,0.1-0.1h2.2c0,0,0.1,0,0.1,0.1l0.8,2.1
			c0,0.1,0,0.2-0.1,0.2c-0.1,0-0.1,0-0.1,0.1c0,0.1,0.1,0.1,0.3,0.1c0.8,0,1.5,0,1.9,0c0.4,0,0.5,0,0.5-0.1c0-0.1,0-0.1-0.1-0.1
			c-0.1,0-0.3,0-0.4,0c-0.2-0.1-0.5-0.2-0.9-1.1c-0.6-1.5-2.2-5.6-2.5-6.1c-0.1-0.2-0.2-0.3-0.2-0.3c-0.1,0-0.2,0.1-0.3,0.4
			l-2.5,6.2c-0.2,0.5-0.4,0.8-0.8,0.9c-0.1,0-0.2,0-0.3,0c-0.1,0-0.1,0-0.1,0.1C107,28.2,107.1,28.3,107.2,28.3z M110.8,22.6
			C110.8,22.6,110.8,22.6,110.8,22.6c0.1-0.1,0.1,0,0.1,0l0.9,2.5c0,0,0,0.1,0,0.1h-1.8c0,0,0,0,0-0.1L110.8,22.6z M155.7,38.4
			c-0.6,0-1.2-0.3-1.4-1c0-0.2-0.1-0.4-0.1-0.5c0-0.1,0-0.2-0.1-0.2c-0.1,0-0.1,0.1-0.1,0.3c0,0.2,0,0.8,0,1.3c0,0.2,0,0.3,0.2,0.3
			c0.4,0.2,0.9,0.3,1.5,0.3c0.5,0,1.1-0.1,1.6-0.4c0.7-0.5,0.9-1.2,0.9-1.8c0-1-0.4-1.6-1.6-2.6l-0.3-0.2c-0.8-0.6-1.1-1-1.1-1.4
			c0-0.6,0.4-1,1.2-1c0.6,0,0.9,0.3,1.1,0.5c0.2,0.3,0.3,0.6,0.3,0.7c0,0.1,0,0.2,0.1,0.2c0.1,0,0.1-0.1,0.1-0.3c0-0.8,0-1.1,0-1.2
			c0-0.1,0-0.1-0.1-0.1c-0.3-0.1-0.7-0.2-1.3-0.2c-1.4,0-2.3,0.8-2.3,1.9c0,0.8,0.4,1.5,1.5,2.4l0.5,0.4c0.8,0.7,1,1.1,1,1.6
			C157,37.8,156.6,38.4,155.7,38.4z M146.8,38.7c0.4,0.2,0.9,0.3,1.5,0.3c0.5,0,1.1-0.1,1.6-0.4c0.7-0.5,0.9-1.2,0.9-1.8
			c0-1-0.4-1.6-1.6-2.6l-0.3-0.2c-0.8-0.6-1.1-1-1.1-1.4c0-0.6,0.4-1,1.2-1c0.6,0,0.9,0.3,1.1,0.5c0.2,0.3,0.3,0.6,0.3,0.7
			c0,0.1,0,0.2,0.1,0.2c0.1,0,0.1-0.1,0.1-0.3c0-0.8,0-1.1,0-1.2c0-0.1,0-0.1-0.1-0.1c-0.3-0.1-0.7-0.2-1.3-0.2
			c-1.4,0-2.3,0.8-2.3,1.9c0,0.8,0.4,1.5,1.5,2.4l0.5,0.4c0.8,0.7,1,1.1,1,1.6c0,0.5-0.4,1.1-1.3,1.1c-0.6,0-1.2-0.3-1.4-1
			c0-0.2-0.1-0.4-0.1-0.5c0-0.1,0-0.2-0.1-0.2c-0.1,0-0.1,0.1-0.1,0.3c0,0.2,0,0.8,0,1.3C146.6,38.5,146.6,38.6,146.8,38.7z
			 M84.1,22c0.1,0,0.1,0,0.1-0.1c0-0.1,0.1-0.2,0.2-0.4c0.1-0.2,0.4-0.3,1-0.3l1.5,0v4.1c0,0.9,0,1.7,0,2.1c0,0.3-0.1,0.5-0.3,0.6
			c-0.1,0-0.2,0-0.4,0c-0.1,0-0.2,0-0.2,0.1c0,0.1,0.1,0.1,0.2,0.1c0.4,0,1,0,1.3,0c0.3,0,0.9,0,1.6,0c0.1,0,0.2,0,0.2-0.1
			c0-0.1,0-0.1-0.2-0.1c-0.1,0-0.4,0-0.5,0c-0.3,0-0.4-0.3-0.4-0.5c0-0.4,0-1.2,0-2.2v-4.1l1.3,0c0.9,0,1.2,0.3,1.2,0.6l0,0.1
			c0,0.2,0,0.2,0.1,0.2c0.1,0,0.1-0.1,0.1-0.2c0-0.3,0-1,0-1.2c0-0.2,0-0.2-0.1-0.2c0,0-0.1,0-0.3,0.1c-0.1,0-0.4,0.1-0.7,0.1h-3.9
			c-0.3,0-0.7,0-1-0.1c-0.2,0-0.3-0.1-0.4-0.1c-0.1,0-0.1,0.1-0.1,0.2c0,0.1-0.2,1-0.2,1.2C84,22,84,22,84.1,22z M158.4,71.2v-3.4
			c0-0.7,0-1.4,0-1.6c0-0.1,0-0.2-0.1-0.2c-0.1,0-0.2,0.1-0.3,0.2c-0.1,0.1-4,5.3-4,5.4c0,0.1-0.1,0.1-0.1,0.3
			c0,0.1,0.1,0.2,0.3,0.2h3.2c0,0.3,0,0.8,0,1.3c0,0.3-0.1,0.6-0.5,0.6c-0.2,0-0.4,0-0.5,0c-0.1,0-0.1,0-0.1,0.1
			c0,0.1,0.1,0.1,0.2,0.1c0.6,0,1.1,0,1.4,0c0.2,0,0.9,0,1.5,0c0.1,0,0.2,0,0.2-0.1c0-0.1,0-0.1-0.1-0.1c-0.1,0-0.3,0-0.5,0
			c-0.3-0.1-0.4-0.3-0.4-0.6c0-0.5,0-0.9,0-1.3h0.9c0.2,0,0.2,0,0.3-0.1c0.1-0.1,0.2-0.6,0.2-0.7c0-0.1,0-0.1-0.1-0.1
			c-0.1,0-0.2,0.1-0.5,0.1H158.4z M157.3,71.2h-2.3c0.4-0.5,2.1-2.9,2.3-3.3h0V71.2z M138.6,28.3c0.5,0,1.1,0,1.2,0
			c0.3,0,0.7,0,1.1,0c0.1,0,0.2,0,0.2-0.1c0-0.1,0-0.1-0.1-0.1h-0.1c-0.3,0-0.4-0.1-0.4-0.3c0-0.1,0-0.4,0.1-0.6l0.5-1.4
			c0-0.1,0-0.1,0.1-0.1h2.2c0,0,0.1,0,0.1,0.1l0.8,2.1c0,0.1,0,0.2-0.1,0.2c-0.1,0-0.1,0-0.1,0.1c0,0.1,0.1,0.1,0.3,0.1
			c0.8,0,1.5,0,1.9,0c0.4,0,0.5,0,0.5-0.1c0-0.1,0-0.1-0.1-0.1c-0.1,0-0.3,0-0.4,0c-0.2-0.1-0.5-0.2-0.9-1.1
			c-0.6-1.5-2.2-5.6-2.5-6.1c-0.1-0.2-0.2-0.3-0.2-0.3c-0.1,0-0.2,0.1-0.3,0.4l-2.5,6.2c-0.2,0.5-0.4,0.8-0.8,0.9
			c-0.1,0-0.2,0-0.3,0c-0.1,0-0.1,0-0.1,0.1C138.4,28.2,138.4,28.3,138.6,28.3z M142.1,22.6C142.1,22.6,142.1,22.6,142.1,22.6
			c0.1-0.1,0.1,0,0.1,0l0.9,2.5c0,0,0,0.1,0,0.1h-1.8c0,0,0,0,0-0.1L142.1,22.6z M95.8,31.3c0.1,0,0.3,0,0.4,0
			c0.3,0.1,0.4,0.2,0.4,0.6c0,0.3,0,0.6,0,2.1v1.8c0,0.9,0,1.7,0,2.1c0,0.3-0.1,0.5-0.3,0.6c-0.1,0-0.2,0-0.4,0
			c-0.1,0-0.2,0-0.2,0.1c0,0.1,0.1,0.1,0.2,0.1c0.2,0,0.5,0,0.7,0c0.2,0,0.5,0,0.6,0c0.1,0,0.4,0,0.7,0c0.3,0,0.6,0,0.7,0
			c1.8,0,2.7-1.1,2.7-2.2c0-1.2-1-1.9-1.8-2.2c0.5-0.4,1-0.9,1-1.8c0-0.5-0.3-1.5-2.1-1.5c-0.3,0-0.7,0-1.2,0c-0.2,0-0.8,0-1.4,0
			c-0.1,0-0.2,0-0.2,0.1C95.7,31.3,95.7,31.3,95.8,31.3z M97.8,31.8c0-0.1,0-0.2,0.1-0.2c0.1,0,0.2,0,0.3,0c0.9,0,1.2,0.9,1.2,1.6
			c0,0.5-0.1,0.9-0.4,1.1c-0.2,0.2-0.4,0.2-0.7,0.2c-0.2,0-0.4,0-0.5,0c0,0-0.1,0-0.1-0.1V31.8z M97.8,34.9
			C97.8,34.8,97.9,34.8,97.8,34.9c0.2-0.1,0.3-0.1,0.5-0.1c0.4,0,0.6,0.1,0.8,0.2c0.8,0.5,1,1.4,1,2c0,1-0.8,1.3-1.2,1.3
			c-0.2,0-0.5,0-0.7-0.1c-0.3-0.1-0.3-0.3-0.3-1V34.9z M83.8,31.3c0.1,0,0.2,0,0.3,0c0.3,0.1,0.4,0.2,0.4,0.6c0,0.3,0,0.6,0,2.1v1.8
			c0,0.9,0,1.7,0,2.1c0,0.3-0.1,0.5-0.3,0.6c-0.1,0-0.2,0-0.4,0c-0.1,0-0.2,0-0.2,0.1c0,0.1,0.1,0.1,0.2,0.1c0.2,0,0.5,0,0.7,0
			c0.2,0,0.5,0,0.6,0c0.4,0,0.8,0,1.2,0c0.4,0,1,0,1.7,0c0.5,0,0.6-0.1,0.6-0.3c0.1-0.3,0.1-1,0.1-1.2c0-0.1,0-0.2-0.1-0.2
			c-0.1,0-0.1,0.1-0.1,0.2c0,0.2-0.1,0.5-0.3,0.6c-0.2,0.3-0.6,0.3-1.2,0.3c-0.8,0-1-0.1-1.2-0.2c-0.2-0.2-0.2-0.9-0.2-2.2v-1.8
			c0-1.5,0-1.8,0-2.1c0-0.4,0.1-0.5,0.4-0.6c0.1,0,0.3,0,0.4,0c0.1,0,0.2,0,0.2-0.1c0-0.1-0.1-0.1-0.2-0.1c-0.4,0-1.1,0-1.4,0
			c-0.3,0-0.9,0-1.4,0c-0.1,0-0.2,0-0.2,0.1C83.7,31.3,83.7,31.3,83.8,31.3z M141.4,80.2h-1.1v6h0.6c0.9,0,1.6-0.1,2.1-0.3
			c0.5-0.2,0.8-0.5,1.1-0.9c0.3-0.5,0.4-1,0.4-1.8c0-1.1-0.2-1.8-0.7-2.3C143.3,80.5,142.5,80.2,141.4,80.2z M127.6,38.8
			c0.5,0,1,0,1.1,0c0.2,0,0.6,0,1.2,0c0.1,0,0.2,0,0.2-0.1c0-0.1-0.1-0.1-0.2-0.1c-0.2,0-0.3,0-0.5-0.1c-0.2-0.1-0.3-0.3-0.3-1.1
			l-0.1-4.2h0c0.2,0.2,1.3,1.4,2.4,2.5c1,1,2.3,2.4,2.9,3c0.1,0.1,0.2,0.2,0.3,0.2c0.1,0,0.1-0.1,0.1-0.3l0.1-6.3
			c0-0.6,0.1-0.8,0.4-0.9c0.1,0,0.2,0,0.3,0c0.1,0,0.2,0,0.2-0.1c0-0.1-0.1-0.1-0.2-0.1c-0.5,0-0.9,0-1,0c-0.2,0-0.7,0-1.2,0
			c-0.1,0-0.3,0-0.3,0.1c0,0.1,0,0.1,0.2,0.1c0.1,0,0.4,0,0.5,0.1c0.2,0.1,0.3,0.3,0.3,0.9l0.1,4.5h0c-0.2-0.2-1.5-1.6-2.2-2.3
			c-1.5-1.5-3-3.1-3.1-3.2c-0.2-0.2-0.3-0.3-0.4-0.3c-0.1,0-0.1,0.1-0.1,0.3l-0.1,5.9c0,0.9,0,1.2-0.3,1.2c-0.1,0-0.3,0.1-0.4,0.1
			c-0.1,0-0.2,0-0.2,0.1C127.4,38.8,127.5,38.8,127.6,38.8z M139.5,38c0,0.3-0.1,0.5-0.3,0.6c-0.1,0-0.2,0-0.4,0
			c-0.1,0-0.2,0-0.2,0.1c0,0.1,0.1,0.1,0.2,0.1c0.2,0,0.5,0,0.7,0c0.2,0,0.5,0,0.6,0c0.3,0,0.6,0,1,0c0.4,0,1,0,1.7,0
			c0.4,0,0.5,0,0.5-0.3c0-0.2,0.1-0.9,0.1-1.1c0-0.1,0-0.2-0.1-0.2c-0.1,0-0.1,0-0.1,0.2c-0.1,0.4-0.2,0.6-0.4,0.7
			c-0.3,0.1-0.7,0.1-0.9,0.1c-1,0-1.2-0.2-1.2-0.8c0-0.3,0-1.2,0-1.6v-0.8c0-0.1,0-0.1,0.1-0.1c0.2,0,1.2,0,1.4,0
			c0.4,0,0.5,0.2,0.6,0.4c0,0.1,0,0.3,0,0.4c0,0.1,0,0.1,0.1,0.1c0.1,0,0.1-0.1,0.1-0.2c0-0.1,0-0.5,0-0.7c0-0.5,0.1-0.7,0.1-0.7
			c0-0.1,0-0.1-0.1-0.1c0,0-0.1,0.1-0.2,0.1c-0.1,0.1-0.2,0.1-0.5,0.2c-0.2,0-1.4,0-1.6,0c-0.1,0-0.1,0-0.1-0.1v-2.5
			c0-0.1,0-0.1,0.1-0.1c0.2,0,1.2,0,1.4,0c0.5,0.1,0.6,0.2,0.7,0.4c0,0.1,0.1,0.3,0.1,0.4c0,0.1,0,0.1,0.1,0.1s0.1-0.1,0.1-0.1
			c0-0.1,0-0.6,0-0.7c0-0.5,0.1-0.6,0.1-0.7c0-0.1,0-0.1-0.1-0.1c0,0-0.1,0-0.2,0c-0.1,0-0.2,0-0.4,0.1c-0.2,0-2.2,0-2.5,0
			c-0.1,0-0.4,0-0.6,0c-0.2,0-0.5,0-0.8,0c-0.1,0-0.2,0-0.2,0.1c0,0.1,0.1,0.1,0.2,0.1c0.1,0,0.3,0,0.4,0c0.3,0.1,0.4,0.2,0.4,0.6
			c0,0.3,0,0.6,0,2.1v1.8C139.5,36.8,139.5,37.6,139.5,38z M130.8,20.8c0.1,0,0.2,0,0.4,0c0.2,0.1,0.3,0.2,0.3,0.6
			c0,0.3,0,0.6,0,2.1v1.8c0,1,0,1.8,0,2.2c0,0.3-0.1,0.5-0.3,0.5c-0.1,0-0.2,0-0.4,0c-0.1,0-0.2,0-0.2,0.1c0,0.1,0.1,0.1,0.2,0.1
			c0.4,0,1,0,1.3,0c0.3,0,0.9,0,1.6,0c0.1,0,0.2,0,0.2-0.1c0-0.1,0-0.1-0.2-0.1c-0.1,0-0.4,0-0.5,0c-0.3,0-0.4-0.2-0.4-0.5
			c0-0.4,0-1.2,0-2.2v-1.8c0-1.5,0-1.8,0-2.1c0-0.4,0.1-0.5,0.4-0.6c0.1,0,0.2,0,0.3,0c0.1,0,0.2,0,0.2-0.1c0-0.1-0.1-0.1-0.2-0.1
			c-0.4,0-1,0-1.2,0c-0.3,0-0.9,0-1.3,0c-0.2,0-0.2,0-0.2,0.1C130.6,20.8,130.7,20.8,130.8,20.8z M116.2,35.3l0.5,0.4
			c0.8,0.7,1,1.1,1,1.6c0,0.5-0.4,1.1-1.3,1.1c-0.6,0-1.2-0.3-1.4-1c0-0.2-0.1-0.4-0.1-0.5c0-0.1,0-0.2-0.1-0.2
			c-0.1,0-0.1,0.1-0.1,0.3c0,0.2,0,0.8,0,1.3c0,0.2,0,0.3,0.2,0.3c0.4,0.2,0.9,0.3,1.5,0.3c0.5,0,1.1-0.1,1.6-0.4
			c0.7-0.5,0.9-1.2,0.9-1.8c0-1-0.4-1.6-1.6-2.6l-0.3-0.2c-0.8-0.6-1.1-1-1.1-1.4c0-0.6,0.4-1,1.2-1c0.6,0,0.9,0.3,1.1,0.5
			c0.2,0.3,0.3,0.6,0.3,0.7c0,0.1,0,0.2,0.1,0.2c0.1,0,0.1-0.1,0.1-0.3c0-0.8,0-1.1,0-1.2c0-0.1,0-0.1-0.1-0.1
			c-0.3-0.1-0.7-0.2-1.3-0.2c-1.4,0-2.3,0.8-2.3,1.9C114.7,33.7,115.1,34.4,116.2,35.3z M48.6,77.6V95H160V77.6H48.6z M79.9,79.9
			c-0.3,0-0.5,0.1-0.6,0.2c-0.2,0.1-0.3,0.3-0.5,0.6c0,0.1-0.3,0.6-0.6,1.6l-4.3,11.4h-0.4l-3.4-8.9l-3.7,8.9H66l-4.5-11.2
			c-0.5-1.1-0.8-1.8-1-2.1c-0.2-0.2-0.5-0.4-0.9-0.4v-0.4h5.9v0.4c-0.5,0-0.8,0.1-0.9,0.2c-0.2,0.1-0.2,0.3-0.2,0.5
			c0,0.3,0.2,0.8,0.5,1.6l2.7,6.7l2.1-5.2l-0.6-1.5c-0.3-0.8-0.5-1.3-0.7-1.6c-0.2-0.3-0.4-0.5-0.6-0.6c-0.2-0.1-0.5-0.2-1-0.2v-0.4
			h6.6v0.4c-0.5,0-0.8,0-1,0.1c-0.1,0-0.3,0.1-0.3,0.2c-0.1,0.1-0.1,0.2-0.1,0.4c0,0.2,0.2,0.6,0.5,1.4l2.5,6.5l2.2-5.9
			c0.2-0.6,0.4-1,0.4-1.2c0.1-0.2,0.1-0.4,0.1-0.6c0-0.3-0.1-0.5-0.3-0.7c-0.2-0.2-0.5-0.2-1.1-0.3v-0.4h3.5V79.9z M88.5,79.9H88
			c-0.4,0-0.7,0.1-1,0.2c-0.2,0.1-0.3,0.3-0.4,0.5c-0.1,0.2-0.1,0.6-0.1,1.3v9.1c0,0.7,0,1.1,0.1,1.3c0.1,0.2,0.2,0.3,0.5,0.5
			c0.2,0.1,0.5,0.2,0.9,0.2h0.5v0.4h-7.1v-0.4h0.5c0.4,0,0.7-0.1,1-0.2c0.2-0.1,0.3-0.3,0.4-0.5c0.1-0.2,0.1-0.6,0.1-1.3v-9.1
			c0-0.7,0-1.1-0.1-1.3c-0.1-0.2-0.2-0.3-0.4-0.5c-0.2-0.1-0.5-0.2-0.9-0.2h-0.5v-0.4h7.1V79.9z M104.1,79.9c-0.6,0.1-1,0.2-1.2,0.3
			c-0.2,0.1-0.4,0.3-0.5,0.6c-0.1,0.3-0.2,0.7-0.2,1.4v11.5H102l-9.2-11.5v8.8c0,0.8,0.2,1.3,0.5,1.6c0.4,0.3,0.8,0.4,1.2,0.4h0.3
			v0.4H90v-0.4c0.7,0,1.3-0.2,1.6-0.5c0.3-0.3,0.4-0.8,0.4-1.6v-9.7l-0.3-0.4c-0.3-0.4-0.5-0.6-0.8-0.7c-0.2-0.1-0.5-0.2-1-0.2v-0.4
			h4.8l6.7,8.5v-5.9c0-0.8-0.1-1.4-0.4-1.7c-0.3-0.4-0.9-0.6-1.6-0.6v-0.4h4.5V79.9z M119.8,79.9c-0.6,0.1-1,0.2-1.2,0.3
			c-0.2,0.1-0.4,0.3-0.5,0.6c-0.1,0.3-0.2,0.7-0.2,1.4v11.5h-0.3l-9.2-11.5v8.8c0,0.8,0.2,1.3,0.5,1.6c0.4,0.3,0.8,0.4,1.2,0.4h0.3
			v0.4h-4.8v-0.4c0.7,0,1.3-0.2,1.6-0.5c0.3-0.3,0.4-0.8,0.4-1.6v-9.7l-0.3-0.4c-0.3-0.4-0.5-0.6-0.8-0.7c-0.2-0.1-0.5-0.2-1-0.2
			v-0.4h4.8l6.7,8.5v-5.9c0-0.8-0.1-1.4-0.4-1.7c-0.3-0.4-0.9-0.6-1.6-0.6v-0.4h4.5V79.9z M133.1,93.3h-11.8v-0.4h0.5
			c0.4,0,0.7-0.1,1-0.2c0.2-0.1,0.3-0.3,0.4-0.5c0.1-0.2,0.1-0.6,0.1-1.3v-9.1c0-0.6,0-1-0.1-1.1c-0.1-0.2-0.2-0.4-0.4-0.5
			c-0.3-0.2-0.6-0.3-1-0.3h-0.5v-0.4h11.4v4.1h-0.4c-0.2-1-0.5-1.7-0.8-2.1c-0.4-0.4-0.8-0.8-1.5-1c-0.4-0.1-1.1-0.2-2.1-0.2h-1.4
			v5.6h0.3c0.9,0,1.5-0.3,1.9-0.8c0.4-0.5,0.6-1.4,0.7-2.4h0.4v7.2h-0.4c-0.1-0.8-0.2-1.4-0.5-1.9c-0.3-0.5-0.6-0.8-0.9-1
			c-0.3-0.2-0.8-0.3-1.5-0.3v3.9c0,0.8,0,1.2,0.1,1.4c0.1,0.2,0.2,0.3,0.4,0.4c0.2,0.1,0.5,0.2,0.8,0.2h0.8c1.3,0,2.3-0.3,3.1-0.9
			c0.8-0.6,1.3-1.5,1.7-2.7h0.4L133.1,93.3z M149.9,93.3h-4.3l-4.4-6.3h-0.9v3.9c0,0.7,0,1.2,0.1,1.4c0.1,0.2,0.2,0.3,0.5,0.5
			c0.2,0.1,0.7,0.2,1.3,0.2v0.4h-7v-0.4c0.6,0,1.1-0.1,1.3-0.2c0.2-0.1,0.4-0.3,0.5-0.5c0.1-0.2,0.1-0.7,0.1-1.4v-8.9
			c0-0.7,0-1.2-0.1-1.4c-0.1-0.2-0.2-0.3-0.5-0.5c-0.2-0.1-0.7-0.2-1.3-0.2v-0.4h6.3c1.6,0,2.9,0.1,3.6,0.3c0.8,0.2,1.4,0.7,1.9,1.3
			c0.5,0.6,0.7,1.3,0.7,2.2c0,1-0.4,1.9-1.1,2.5c-0.5,0.4-1.1,0.7-1.9,0.9l3.3,4.7c0.4,0.6,0.7,1,0.9,1.1c0.3,0.2,0.6,0.3,1,0.3
			V93.3z M120.1,20.8c0.1,0,0.2,0,0.3,0c0.3,0.1,0.4,0.2,0.4,0.6c0,0.3,0,0.6,0,2.1v1.8c0,0.9,0,1.7,0,2.1c0,0.3-0.1,0.5-0.3,0.6
			c-0.1,0-0.2,0-0.4,0c-0.1,0-0.2,0-0.2,0.1c0,0.1,0.1,0.1,0.2,0.1c0.2,0,0.5,0,0.7,0c0.2,0,0.5,0,0.6,0c0.4,0,0.8,0,1.2,0
			c0.4,0,1,0,1.7,0c0.5,0,0.6-0.1,0.6-0.3c0.1-0.3,0.1-1,0.1-1.2c0-0.1,0-0.2-0.1-0.2c-0.1,0-0.1,0.1-0.1,0.2c0,0.2-0.1,0.5-0.3,0.6
			c-0.2,0.3-0.6,0.3-1.2,0.3c-0.8,0-1-0.1-1.2-0.2c-0.2-0.2-0.2-0.9-0.2-2.2v-1.8c0-1.5,0-1.8,0-2.1c0-0.4,0.1-0.5,0.4-0.6
			c0.1,0,0.3,0,0.4,0c0.1,0,0.2,0,0.2-0.1c0-0.1-0.1-0.1-0.2-0.1c-0.4,0-1.1,0-1.4,0c-0.3,0-0.9,0-1.4,0c-0.1,0-0.2,0-0.2,0.1
			C119.9,20.8,120,20.8,120.1,20.8z M122.5,38c0,0.3-0.1,0.5-0.3,0.5c-0.1,0-0.2,0-0.4,0c-0.1,0-0.2,0-0.2,0.1
			c0,0.1,0.1,0.1,0.2,0.1c0.4,0,1,0,1.3,0c0.3,0,0.9,0,1.6,0c0.1,0,0.2,0,0.2-0.1c0-0.1,0-0.1-0.2-0.1c-0.1,0-0.4,0-0.5,0
			c-0.3,0-0.4-0.2-0.4-0.5c0-0.4,0-1.2,0-2.2v-1.8c0-1.5,0-1.8,0-2.1c0-0.4,0.1-0.5,0.4-0.6c0.1,0,0.2,0,0.3,0c0.1,0,0.2,0,0.2-0.1
			c0-0.1-0.1-0.1-0.2-0.1c-0.4,0-1,0-1.2,0c-0.3,0-0.9,0-1.3,0c-0.2,0-0.2,0-0.2,0.1c0,0.1,0.1,0.1,0.2,0.1c0.1,0,0.2,0,0.4,0
			c0.2,0.1,0.3,0.2,0.3,0.6c0,0.3,0,0.6,0,2.1v1.8C122.5,36.8,122.5,37.6,122.5,38z M87.2,70.8l0.9,0c0.1,0,0.1,0,0.2,0.1
			c0.1,0.2,0.6,0.9,1,1.5c0.6,0.8,1,1.3,1.4,1.5c0.3,0.1,0.5,0.2,1.1,0.2h1c0.1,0,0.2,0,0.2-0.1c0-0.1,0-0.1-0.1-0.1
			c-0.1,0-0.2,0-0.3,0c-0.2,0-0.6-0.1-1.2-0.7c-0.6-0.7-1.3-1.6-2.3-2.8c1-0.9,1.4-1.6,1.4-2.4c0-0.7-0.4-1.2-0.7-1.4
			c-0.6-0.4-1.3-0.5-1.9-0.5c-0.3,0-1.1,0-1.5,0c-0.2,0-0.9,0-1.4,0c-0.2,0-0.2,0-0.2,0.1c0,0.1,0.1,0.1,0.2,0.1c0.1,0,0.3,0,0.4,0
			c0.3,0.1,0.4,0.2,0.4,0.6c0,0.3,0,0.6,0,2.2v1.9c0,1,0,1.8-0.1,2.2c0,0.3-0.1,0.5-0.3,0.6c-0.1,0-0.2,0-0.4,0
			c-0.1,0-0.2,0-0.2,0.1c0,0.1,0.1,0.1,0.2,0.1c0.4,0,1.1,0,1.3,0c0.2,0,0.9,0,1.5,0c0.1,0,0.2,0,0.2-0.1c0-0.1,0-0.1-0.1-0.1
			c-0.1,0-0.4,0-0.5,0c-0.3,0-0.4-0.3-0.4-0.6c-0.1-0.4-0.1-1.3-0.1-2.3L87.2,70.8C87.2,70.8,87.2,70.8,87.2,70.8z M87.2,66.8
			c0-0.1,0-0.1,0.1-0.1c0.1,0,0.3,0,0.6,0c0.6,0,1.6,0.4,1.6,1.9c0,0.9-0.3,1.3-0.6,1.6c-0.2,0.1-0.3,0.2-0.7,0.2
			c-0.3,0-0.6,0-0.8-0.1c-0.1,0-0.1-0.1-0.1-0.2V66.8z M159.3,63.1H48.2v0.5h111.2V63.1z M54,47.4c0.7-0.5,1.4-0.7,2.2-0.7
			c1,0,1.8,0.3,2.6,0.9c0.8,0.6,1.3,1.5,1.5,2.7h0.4v-4.5h-0.4c0,0.3-0.1,0.6-0.3,0.7c-0.1,0.1-0.3,0.2-0.5,0.2
			c-0.2,0-0.5-0.1-1.1-0.3c-1-0.4-1.9-0.6-2.8-0.6c-1.2,0-2.4,0.3-3.4,0.9c-1.1,0.6-1.9,1.5-2.6,2.6c-0.6,1.1-1,2.3-1,3.5
			c0,1.2,0.3,2.3,0.9,3.3c0.6,1,1.4,1.8,2.4,2.4c1.1,0.6,2.3,0.8,3.6,0.8c1,0,1.9-0.2,2.7-0.5c0.8-0.3,1.5-0.9,2.2-1.6V56
			c-0.7,0.9-1.4,1.5-2.1,1.8c-0.7,0.4-1.4,0.5-2.2,0.5c-1,0-1.8-0.2-2.4-0.7c-0.6-0.5-1.1-1.2-1.4-2.1c-0.3-0.9-0.4-2-0.4-3.1
			c0-1.2,0.2-2.2,0.6-3.2C52.8,48.4,53.3,47.8,54,47.4z M39,67.8c0,0,0.6,0.3,1.2,1c0.5,0.6,1,1.7,1,1.7s-1-6.1-2.1-9.5
			c-0.6-1.8-0.7-3.1-0.7-4.3c0-1.3,0.3-4.3-0.2-6.9c-0.5-2.6-1.6-5.3-1.6-6.6c0-1.3,0.4-3.2,1-4.2c0.6-1.1,1.1-2,1.1-2.2
			c0.1-0.5-0.6-1.8-0.6-1.8s2.4-2.5,2.3-5.9c-0.1-1.4-0.8-5.4-2.5-8.1c-2.4-4-6.4-6.8-9.5-8.5C26,11,21.8,9.8,17.2,10.5
			c-4.1,0.7-6.5,3.3-6.7,5.1c-0.3,3.4,1.6,8.1,9.9,13c1.8,1.1,5.9,1.9,8.6,1.3c2.6-0.6,4-2.7,4-2.7s0.1-0.4,0-0.5
			c-0.1,0-3.5,0.1-4.3,0.2c-0.8,0.1-1.6,0.8-1.9,0.9c-0.3,0.2-0.9,0.1-1.2,0c-0.2,0-3.1-0.9-6-3.5c-2.5-2.3-3.6-4.5-3.8-5.7
			c-0.5-2.6,0.5-4.9,3.2-5c2.8-0.2,7.6-0.1,13.3,5.9c5.3,5.6,5.2,11.6,3.6,14.2c-1.8,2.9-6.3,3.9-13.7-0.2
			c-5.4-3-10.7-10.3-12.2-15.2C8.6,13.9,7.4,7.5,12.2,4.3c2.7-1.8,7-1.1,10.4,0.8c3.3,1.9,5.3,4.4,5.5,5c0.3,0.9,1.2,1.3,1.5,1.4
			c0.3,0.1,4,1.4,4.2,1.5c0.2,0.1,0.6,0.1,0.8,0c0.2-0.1,1.4-1.4,1.5-1.5c0.1-0.1,0.1-0.2-0.1-0.3c-0.1-0.1-5.6-5.5-12.1-9.2
			c-2.5-1.4-4.7-1.8-6.8-1.9C14.9-0.1,11-0.2,7.5,1.2C2.8,3.1,0.1,6.8,0,11c-0.2,8,9,16.4,9,16.4s0.8-1.1,1-1.3
			c0.3-0.3,0.6-0.3,0.9-0.2c0.6,0.2,5.9,4.5,6.3,5.1c0.5,0.6,0.5,1,0.6,1.4c0,0.5,0.1,1.4,0.1,1.4s3.1,1.7,7,2.9
			c3.4,1,7.9,1.1,7.9,1.1s0.7,5,0.8,5.7c0.1,0.8,0.2,7.6,0.1,9.5c0,1.9,0.2,7.1,0.2,7.7c0.1,0.5,0.5,1.7,0.8,2.6
			c0.2,0.7,0,1.9,0,2.3c0,0.5-0.2,1.5-0.2,1.5s-1.5-1.1-1.7-2.2c-0.2-0.9,0.2-2,0.3-2.5s0.2-1.9,0.2-2.3c0-0.4-0.2-1.1-0.2-1.1
			s-0.8-0.2-1.4-0.2c-0.5,0-1,0.4-1.1,0.8c-0.2,0.5-0.4,1.1-1.4,1.7c-1.2,0.7-2.2,0.9-2.5,1.1c-0.1,0.1-0.1,0.1-0.1,0c0,0,0,0,0.1,0
			c0.3-0.2,1.1-0.7,2-1.3c0.8-0.6,1.1-1.2,1.3-1.5c0.1-0.2,0.2-0.7,0.9-1.1c0.6-0.4,1.8,0.1,1.8,0.1c-0.1-0.1-0.7-0.9-2.2-1.5
			c-1.2-0.6-2.7-0.8-3.5-0.9c-1.8-0.2-1.6-0.1-1.8,0c-0.9,0.4-2.1,2-2.1,2s0.3,1.4,0.4,2c0.1,0.6,0,1.6,0.3,1.9
			c0.3,0.3,2,1.5,2.5,1.9c0.6,0.5,1.9,2.8,1.9,2.8s-1.8-1.9-2.3-2.3c-0.5-0.4-1.8-1.2-2.3-1.5c-0.8-0.6-0.8-1.8-0.8-2.8
			c-0.1-0.9-0.4-2.2-0.6-3.1c-0.2-0.9-1.5-3.7-2-4.8c-0.5-1.1-1.1-3.4-1.2-4.6c-0.2-1.2-0.6-3.8-1-5.3c-0.4-1.5-1-3.4-1-3.9
			c0-0.5,0.2-4.8,0.1-5.4c0-0.6-0.4-1.6-1.5-2.5c-0.7-0.6-4-3.5-4.5-3.7c-0.6-0.1-0.8-0.1-1,0.1c-0.2,0.2-0.9,1.2-1,1.8
			c-0.1,0.6-0.1,1.6,0.3,2.2c0.4,0.5,2.2,2.9,3.1,3.9c0.6,0.8,1.4,2.2,1.7,3.2c0.3,1,0.1,4.4,0.1,5.4c0,0.9,0,3.7,0.1,5.1
			c0.1,1.5,0.8,4.6,0.9,5.3c0.1,0.7,1.4,7.2,1.7,8.3c0.3,1.2,1,3.1,1.4,4s1.4,4.2,1.7,5.3c0.2,1,1.2,4,2.1,6.4
			c1,2.4,3.2,6.6,3.8,8.8c0.7,2.2,1.1,5.3,0.8,6.9c-0.3,1.5-0.3,1.6-0.3,1.6h12.9c0,0-0.3-2.2,0.7-5.8c0.6-2.3,2.3-10.1,2.5-11.4
			c0.1-0.7,0.1-2.6-1-5.4C40.6,70,39,67.8,39,67.8z M78.8,73.9c-0.1,0-0.1,0-0.1,0.1c0,0.1,0.1,0.1,0.3,0.1c0.8,0,1.6,0,2,0
			c0.4,0,0.5,0,0.5-0.1c0-0.1-0.1-0.1-0.1-0.1c-0.1,0-0.3,0-0.4,0c-0.2-0.1-0.5-0.2-0.9-1.1c-0.7-1.6-2.3-5.8-2.6-6.4
			c-0.1-0.2-0.2-0.3-0.3-0.3c-0.1,0-0.2,0.1-0.3,0.4l-2.6,6.5c-0.2,0.5-0.4,0.9-0.9,0.9c-0.1,0-0.2,0-0.3,0c-0.1,0-0.1,0-0.1,0.1
			c0,0.1,0.1,0.1,0.2,0.1c0.5,0,1.1,0,1.2,0c0.3,0,0.8,0,1.1,0c0.1,0,0.2,0,0.2-0.1c0-0.1,0-0.1-0.2-0.1h-0.2
			c-0.3,0-0.4-0.1-0.4-0.3c0-0.1,0.1-0.4,0.2-0.6l0.6-1.4c0-0.1,0-0.1,0.1-0.1H78c0.1,0,0.1,0,0.1,0.1l0.8,2.2
			C78.9,73.8,78.9,73.9,78.8,73.9z M77.8,70.9h-1.9c0,0-0.1,0,0-0.1l1-2.6c0,0,0-0.1,0.1-0.1c0,0,0,0.1,0.1,0.1L77.8,70.9
			C77.8,70.9,77.8,70.9,77.8,70.9z M139.7,59.3c2.3,0,4-0.8,5.3-2.5c0.9-1.2,1.4-2.7,1.4-4.3c0-1.9-0.6-3.5-1.9-4.8
			c-1.3-1.3-2.9-1.9-4.9-1.8c-1.9-0.1-3.5,0.5-4.7,1.8c-1.3,1.3-1.9,2.9-1.9,4.8c0,1.7,0.5,3.2,1.5,4.4
			C135.6,58.5,137.4,59.3,139.7,59.3z M137,48.3c0.6-1.2,1.5-1.8,2.7-1.8c0.6,0,1.2,0.2,1.7,0.5c0.5,0.3,0.9,0.9,1.2,1.8
			c0.3,0.8,0.5,2.1,0.5,3.8c0,1.4-0.2,2.6-0.5,3.5c-0.3,0.9-0.7,1.5-1.3,1.9c-0.4,0.3-1,0.5-1.6,0.5c-1,0-1.7-0.4-2.2-1.1
			c-0.8-1.1-1.1-2.7-1.1-4.9C136.3,50.7,136.5,49.3,137,48.3z M134.8,70.4c0,1.5,0.6,3.9,2.6,3.9c1.8,0,2.8-1.8,2.8-4.4
			c0-1.7-0.6-3.9-2.6-3.9C135.6,66,134.8,67.9,134.8,70.4z M139,70.3c0,2-0.5,3.5-1.4,3.5c-1.1,0-1.6-2-1.6-3.8
			c0-2.4,0.6-3.5,1.3-3.5C138.5,66.5,139,68.5,139,70.3z M111.5,73.7c-0.6,0-1.3-0.3-1.5-1.1c-0.1-0.2-0.1-0.4-0.1-0.5
			c0-0.1,0-0.2-0.1-0.2c-0.1,0-0.1,0.1-0.1,0.3c0,0.2-0.1,0.8-0.1,1.4c0,0.2,0,0.3,0.2,0.4c0.4,0.2,0.9,0.3,1.5,0.3
			c0.6,0,1.1-0.1,1.7-0.4c0.7-0.5,1-1.2,1-1.8c0-1-0.4-1.7-1.7-2.7l-0.3-0.2c-0.9-0.7-1.1-1-1.1-1.5c0-0.6,0.5-1.1,1.2-1.1
			c0.7,0,1,0.3,1.1,0.5c0.2,0.3,0.3,0.6,0.3,0.7c0,0.1,0,0.2,0.1,0.2c0.1,0,0.1-0.1,0.1-0.3c0-0.8,0-1.1,0-1.3
			c0-0.1-0.1-0.1-0.1-0.1c-0.3-0.1-0.7-0.2-1.4-0.2c-1.4,0-2.4,0.8-2.4,2c0,0.9,0.4,1.6,1.5,2.5l0.5,0.4c0.9,0.7,1,1.2,1,1.7
			C112.8,73.1,112.4,73.7,111.5,73.7z M125.3,73.7c-0.1,0.1-0.2,0.2-0.2,0.3c0,0.1,0.1,0.1,0.1,0.1h4.1c0.7,0,0.8,0,0.9-0.3
			c0.1-0.4,0.3-1.3,0.3-1.5c0-0.1,0-0.2-0.1-0.2c-0.1,0-0.1,0-0.1,0.2c-0.1,0.5-0.5,0.9-1.2,0.9c-0.4,0.1-1.6,0.1-1.8,0.1h-0.7
			c-0.1,0-0.1,0,0-0.1c1.3-1.1,3.6-2.9,3.6-4.9c0-1.2-0.8-2.2-2.6-2.2c-0.9,0-1.5,0.2-1.9,0.4c-0.1,0.1-0.1,0.1-0.1,0.2
			c0,0.3,0.1,1.2,0.1,1.3c0,0.1,0,0.2,0.1,0.2c0.1,0,0.1-0.1,0.1-0.2c0-0.3,0.2-0.8,0.4-1c0.3-0.3,0.7-0.4,1.1-0.4
			c0.5,0,1.4,0.3,1.4,2C128.8,70.7,126.8,72.4,125.3,73.7z M128.5,58c-0.1,0.2-0.2,0.4-0.4,0.5c-0.2,0.1-0.5,0.2-0.9,0.2h-0.4V59
			h6.6v-0.4h-0.4c-0.4,0-0.6-0.1-0.8-0.2c-0.2-0.1-0.4-0.3-0.4-0.4c-0.1-0.2-0.1-0.6-0.1-1.2v-8.5c0-0.6,0-1,0.1-1.2
			c0.1-0.2,0.2-0.4,0.4-0.5c0.2-0.1,0.5-0.2,0.9-0.2h0.4v-0.4h-18v3.3c0-0.9-0.4-1.7-1.2-2.3c-0.8-0.7-2.1-1-3.9-1H99.9l-3.5,8.5
			l-3.6-8.5h-5.2v0.4h0.4c0.4,0,0.6,0.1,0.9,0.2c0.2,0.1,0.4,0.3,0.4,0.4c0.1,0.2,0.1,0.6,0.1,1.2v8.1c0,0.6,0,0.9,0,1
			c-0.1,0.3-0.2,0.5-0.3,0.7c-0.1,0.2-0.3,0.3-0.6,0.4c-0.2,0.1-0.4,0.1-0.6,0.1c-0.4,0-0.6-0.1-0.8-0.3c-0.3-0.3-0.6-0.9-1.1-1.9
			l-4.6-10.6h-0.2l-4.5,10.3c-0.4,1-0.8,1.6-1.1,1.9c-0.3,0.3-0.7,0.5-1.1,0.6h0c-0.4,0-0.6-0.1-0.9-0.2c-0.2-0.1-0.4-0.3-0.4-0.4
			c-0.1-0.2-0.1-0.6-0.1-1.2v-8.5c0-0.6,0-1,0.1-1.2c0.1-0.2,0.2-0.4,0.4-0.5c0.2-0.1,0.5-0.2,0.9-0.2h0.4v-0.4h-6.6v0.4h0.4
			c0.4,0,0.6,0.1,0.9,0.2c0.2,0.1,0.4,0.3,0.4,0.4c0.1,0.2,0.1,0.6,0.1,1.2V52h-4.5v-3.6c0-0.6,0-1,0.1-1.2c0.1-0.2,0.2-0.4,0.4-0.5
			c0.2-0.1,0.5-0.2,0.9-0.2h0.4v-0.4h-6.6v0.4h0.4c0.4,0,0.6,0.1,0.8,0.2c0.2,0.1,0.3,0.3,0.4,0.4c0.1,0.2,0.1,0.6,0.1,1.2v8.5
			c0,0.6,0,1-0.1,1.2c-0.1,0.2-0.2,0.4-0.4,0.5c-0.2,0.1-0.5,0.2-0.9,0.2h-0.4V59h6.6v-0.4h-0.4c-0.4,0-0.6-0.1-0.8-0.2
			c-0.2-0.1-0.4-0.3-0.4-0.4c-0.1-0.2-0.1-0.6-0.1-1.2v-4H70v4c0,0.6,0,1-0.1,1.2c-0.1,0.2-0.2,0.4-0.4,0.5
			c-0.2,0.1-0.5,0.2-0.9,0.2h-0.4V59h10.5v-0.4c-0.7-0.1-1.1-0.1-1.2-0.2c-0.3-0.2-0.4-0.4-0.4-0.8c0-0.3,0.1-0.6,0.3-1l0.5-1.3h4.5
			l0.7,1.6c0.2,0.4,0.3,0.7,0.3,0.7c0,0.1,0.1,0.2,0.1,0.4c0,0.2-0.1,0.3-0.2,0.4c-0.2,0.1-0.5,0.2-1,0.2h-0.3V59H92v-0.4
			c-0.6,0-1-0.1-1.3-0.3c-0.3-0.2-0.4-0.5-0.5-0.8c0-0.1,0-0.5,0-1.2v-9.1l5,11.7h0.2l4.9-11.7v9.5c0,0.6,0,1-0.1,1.2
			c-0.1,0.2-0.2,0.4-0.4,0.5c-0.2,0.1-0.5,0.2-0.9,0.2h-0.4V59h12.9v-0.4c-0.6,0-1-0.1-1.2-0.2c-0.2-0.1-0.4-0.3-0.5-0.4
			c-0.1-0.2-0.1-0.6-0.1-1.3v-3.6c1.4,0,2.5-0.1,3.1-0.2c0.9-0.2,1.6-0.6,2.1-1.2c0.5-0.6,0.8-1.3,0.8-2.1h0.3
			c0.1-0.9,0.5-1.7,1-2.2c0.4-0.4,1-0.6,1.9-0.6h0.9v9.9c0,0.6,0,1-0.1,1.2c-0.1,0.2-0.2,0.4-0.4,0.5c-0.2,0.1-0.5,0.2-0.9,0.2h-0.4
			V59h6.7v-0.4h-0.4c-0.4,0-0.6-0.1-0.9-0.2c-0.2-0.1-0.4-0.3-0.4-0.4c-0.1-0.2-0.1-0.6-0.1-1.2v-9.9h0.9c0.6,0,1,0.1,1.2,0.2
			c0.4,0.2,0.8,0.5,1,0.8c0.2,0.4,0.5,0.9,0.7,1.7h0.3v-3.1h0.3c0.4,0,0.6,0.1,0.8,0.2c0.2,0.1,0.3,0.3,0.4,0.4
			c0.1,0.2,0.1,0.6,0.1,1.2v8.5C128.6,57.4,128.6,57.8,128.5,58z M78.2,54.6l2-4.4l1.9,4.4H78.2z M106.6,56.7c0,0.7,0,1.1-0.1,1.3
			c-0.1,0.2-0.2,0.3-0.4,0.4c-0.2,0.1-0.6,0.2-1.2,0.2h-0.2c-0.4,0-0.6-0.1-0.9-0.2c-0.2-0.1-0.4-0.3-0.4-0.4
			c-0.1-0.2-0.1-0.6-0.1-1.2v-8.5c0-0.6,0-1,0.1-1.2c0.1-0.2,0.2-0.4,0.4-0.4c0.2-0.1,0.5-0.2,0.9-0.2h0.2c0.6,0,1,0.1,1.2,0.2
			c0.2,0.1,0.4,0.3,0.4,0.4c0.1,0.2,0.1,0.6,0.1,1.3V56.7z M111.8,51.7c-0.4,0.5-1,0.7-1.8,0.7c-0.1,0-0.3,0-0.5,0v-5.6h0.4
			c0.8,0,1.4,0.2,1.8,0.7c0.4,0.4,0.6,1.1,0.6,2.1C112.4,50.6,112.2,51.3,111.8,51.7z M97.2,73.3c0,0.3-0.1,0.5-0.3,0.6
			c-0.1,0-0.2,0-0.4,0c-0.1,0-0.2,0-0.2,0.1c0,0.1,0.1,0.1,0.2,0.1c0.2,0,0.5,0,0.7,0c0.2,0,0.5,0,0.6,0c0.3,0,0.6,0,1,0.1
			c0.4,0,0.8,0.1,1.2,0.1c1.9,0,3-0.7,3.5-1.2c0.6-0.6,1.1-1.6,1.1-2.9c0-1.3-0.5-2.1-1-2.7c-1.1-1.2-2.9-1.2-4.2-1.2
			c-0.6,0-1.3,0-1.6,0c-0.3,0-0.9,0-1.5,0c-0.2,0-0.2,0-0.2,0.1c0,0.1,0.1,0.1,0.2,0.1c0.1,0,0.3,0,0.4,0c0.3,0.1,0.4,0.2,0.4,0.6
			c0,0.3,0,0.6,0,2.2v1.9C97.2,72,97.2,72.9,97.2,73.3z M98.5,69c0-0.8,0-1.7,0-2.1c0-0.1,0-0.2,0.1-0.2c0.1,0,0.5-0.1,0.7-0.1
			c0.8,0,2,0.1,3,1.1c0.4,0.4,1,1.3,1,2.6c0,1.1-0.2,2-0.9,2.6c-0.6,0.5-1.3,0.8-2.4,0.8c-0.8,0-1.2-0.2-1.4-0.4
			c-0.1-0.1-0.1-0.5-0.1-0.8c0-0.2,0-1,0-2.1V69z M146.2,73.8c-0.2,0-0.7,0.1-0.8,0.1c0,0-0.1,0-0.1,0.1c0,0.1,0.1,0.1,0.2,0.1
			c0.7,0,1.5,0,1.8,0c0.3,0,0.9,0,1.7,0c0.1,0,0.2,0,0.2-0.1c0-0.1-0.1-0.1-0.1-0.1c-0.1,0-0.5,0-0.7-0.1c-0.3-0.1-0.4-0.2-0.4-0.6
			c0-0.5,0-1.4,0-2.4V69c0-1.6,0.1-2.7,0.1-2.7c0-0.1,0-0.2-0.1-0.2c-0.1,0-0.2,0.1-0.3,0.1c-0.4,0.3-2.4,1.6-2.4,1.6
			c-0.1,0-0.1,0.1-0.1,0.1c0,0.1,0.1,0.1,0.1,0.1c0,0,0.1,0,0.1,0c0.2-0.1,1-0.5,1.2-0.5c0.2,0,0.2,0.1,0.2,0.4v1.4l0,1.7
			c0,1,0,1.9-0.1,2.4C146.6,73.6,146.6,73.8,146.2,73.8z M50.8,74.1c0.1,0,0.2,0,0.2-0.1c0-0.1,0-0.1-0.2-0.1h-0.2
			c-0.3,0-0.4-0.1-0.4-0.3c0-0.1,0.1-0.4,0.2-0.6l0.6-1.4c0-0.1,0-0.1,0.1-0.1h2.3c0.1,0,0.1,0,0.1,0.1l0.8,2.2
			c0.1,0.1,0,0.2-0.1,0.2c-0.1,0-0.1,0-0.1,0.1c0,0.1,0.1,0.1,0.3,0.1c0.8,0,1.6,0,2,0c0.4,0,0.5,0,0.5-0.1c0-0.1-0.1-0.1-0.1-0.1
			c-0.1,0-0.3,0-0.4,0c-0.2-0.1-0.5-0.2-0.9-1.1c-0.7-1.6-2.3-5.8-2.6-6.4c-0.1-0.2-0.2-0.3-0.3-0.3c-0.1,0-0.2,0.1-0.3,0.4
			l-2.6,6.5c-0.2,0.5-0.4,0.9-0.9,0.9c-0.1,0-0.2,0-0.3,0c-0.1,0-0.1,0-0.1,0.1c0,0.1,0.1,0.1,0.2,0.1c0.5,0,1.1,0,1.2,0
			C50,74.1,50.5,74.1,50.8,74.1z M52.2,68.2C52.2,68.2,52.2,68.2,52.2,68.2c0.1-0.1,0.1,0,0.1,0l0.9,2.6c0,0,0,0.1-0.1,0.1h-1.9
			c0,0-0.1,0,0-0.1L52.2,68.2z M61.3,66.4c0.1,0,0.2,0,0.3,0c0.1,0,0.2,0,0.2-0.1c0-0.1-0.1-0.1-0.2-0.1c-0.6,0-1.1,0-1.2,0
			c-0.1,0-0.7,0-1.2,0c-0.1,0-0.2,0-0.2,0.1c0,0.1,0.1,0.1,0.2,0.1c0.1,0,0.3,0,0.4,0.1c0.1,0.1,0.3,0.4,0.4,0.7l2.2,6.7
			c0.1,0.3,0.1,0.4,0.2,0.4c0.1,0,0.2-0.1,0.4-0.6c0.4-1,1.8-4.7,2-5.2h0l2.2,5.3c0.2,0.4,0.2,0.5,0.3,0.5c0.1,0,0.2-0.1,0.3-0.5
			c0.5-1.6,1.6-4.9,2.1-6.2c0.2-0.6,0.3-1,0.6-1.1c0.1,0,0.3-0.1,0.4-0.1c0.1,0,0.1,0,0.1-0.1c0-0.1-0.1-0.1-0.2-0.1
			c-0.3,0-0.8,0-0.9,0c-0.1,0-0.5,0-1.1,0c-0.2,0-0.2,0-0.2,0.1c0,0.1,0.1,0.1,0.2,0.1c0.4,0,0.5,0.1,0.5,0.3c0,0.1,0,0.4-0.1,0.6
			c-0.4,1.2-1.2,4-1.4,4.7h0l-2.2-5.3c-0.1-0.3-0.2-0.5-0.3-0.5c-0.1,0-0.2,0.1-0.3,0.4l-2,5.5h0c-0.2-0.6-1.2-3.8-1.3-4.5
			c-0.1-0.5-0.2-0.8-0.2-1C61.2,66.5,61.2,66.4,61.3,66.4z M60.7,20.8c0.1,0,0.3,0,0.4,0c0.3,0.1,0.4,0.2,0.4,0.6c0,0.3,0,0.6,0,2.1
			V25c0,1.5,0.4,2.2,0.9,2.7c0.7,0.7,1.7,0.7,2.2,0.7c0.6,0,1.4-0.1,2.1-0.7c0.8-0.7,0.9-1.9,0.9-3v-1.1c0-1.5,0-1.8,0-2.1
			c0-0.4,0.1-0.5,0.4-0.6c0.1,0,0.2,0,0.3,0c0.1,0,0.2,0,0.2-0.1c0-0.1-0.1-0.1-0.2-0.1c-0.4,0-1,0-1.1,0c0,0-0.6,0-1.1,0
			c-0.1,0-0.2,0-0.2,0.1c0,0.1,0.1,0.1,0.2,0.1c0.1,0,0.3,0,0.4,0c0.3,0.1,0.4,0.2,0.4,0.6c0,0.3,0,0.6,0,2.1v1.3c0,1,0,1.9-0.6,2.5
			c-0.4,0.4-0.9,0.5-1.4,0.5c-0.3,0-0.8,0-1.2-0.4c-0.5-0.4-0.8-1-0.8-2.5v-1.4c0-1.5,0-1.8,0-2.1c0-0.4,0.1-0.5,0.4-0.6
			c0.1,0,0.2,0,0.3,0c0.1,0,0.2,0,0.2-0.1c0-0.1-0.1-0.1-0.2-0.1c-0.4,0-1,0-1.2,0c-0.3,0-0.9,0-1.5,0c-0.1,0-0.2,0-0.2,0.1
			C60.5,20.8,60.6,20.8,60.7,20.8z M66.7,38.6c-0.1,0-0.2,0-0.3,0c-0.1,0-0.1,0-0.1,0.1c0,0.1,0.1,0.1,0.2,0.1c0.5,0,1.1,0,1.2,0
			c0.3,0,0.7,0,1.1,0c0.1,0,0.2,0,0.2-0.1c0-0.1,0-0.1-0.1-0.1h-0.1c-0.3,0-0.4-0.1-0.4-0.3c0-0.1,0-0.4,0.1-0.6l0.5-1.4
			c0-0.1,0-0.1,0.1-0.1h2.2c0,0,0.1,0,0.1,0.1l0.8,2.1c0,0.1,0,0.2-0.1,0.2c-0.1,0-0.1,0-0.1,0.1c0,0.1,0.1,0.1,0.3,0.1
			c0.8,0,1.5,0,1.9,0c0.4,0,0.5,0,0.5-0.1c0-0.1,0-0.1-0.1-0.1c-0.1,0-0.3,0-0.4,0c-0.2-0.1-0.5-0.2-0.9-1.1
			c-0.6-1.5-2.2-5.6-2.5-6.1c-0.1-0.2-0.2-0.3-0.2-0.3c-0.1,0-0.2,0.1-0.3,0.4l-2.5,6.2C67.4,38.2,67.2,38.5,66.7,38.6z M70,33.2
			C70,33.1,70.1,33.1,70,33.2c0.1-0.1,0.1,0,0.1,0l0.9,2.5c0,0,0,0.1,0,0.1h-1.8c0,0,0,0,0-0.1L70,33.2z M74.5,28.1
			c0.4,0.2,0.9,0.3,1.5,0.3c0.5,0,1.1-0.1,1.6-0.4c0.7-0.5,0.9-1.2,0.9-1.8c0-1-0.4-1.7-1.6-2.6l-0.3-0.2c-0.8-0.6-1.1-1-1.1-1.4
			c0-0.6,0.4-1,1.2-1c0.6,0,0.9,0.3,1.1,0.5c0.2,0.3,0.3,0.6,0.3,0.7c0,0.1,0,0.2,0.1,0.2c0.1,0,0.1-0.1,0.1-0.3c0-0.8,0-1.1,0-1.2
			c0-0.1,0-0.1-0.1-0.1c-0.3-0.1-0.7-0.2-1.3-0.2c-1.4,0-2.3,0.8-2.3,1.9c0,0.8,0.4,1.5,1.5,2.4l0.5,0.4c0.8,0.7,1,1.1,1,1.6
			c0,0.5-0.4,1.1-1.3,1.1c-0.6,0-1.2-0.3-1.4-1c0-0.2-0.1-0.4-0.1-0.5c0-0.1,0-0.2-0.1-0.2c-0.1,0-0.1,0.1-0.1,0.3
			c0,0.2,0,0.8,0,1.3C74.3,28,74.4,28.1,74.5,28.1z M48.4,28.3c0.5,0,1.1,0,1.2,0c0.3,0,0.7,0,1.1,0c0.1,0,0.2,0,0.2-0.1
			c0-0.1,0-0.1-0.1-0.1h-0.1c-0.3,0-0.4-0.1-0.4-0.3c0-0.1,0-0.4,0.1-0.6l0.5-1.4c0-0.1,0-0.1,0.1-0.1h2.2c0,0,0.1,0,0.1,0.1
			l0.8,2.1c0,0.1,0,0.2-0.1,0.2c-0.1,0-0.1,0-0.1,0.1c0,0.1,0.1,0.1,0.3,0.1c0.8,0,1.5,0,1.9,0c0.4,0,0.5,0,0.5-0.1
			c0-0.1,0-0.1-0.1-0.1c-0.1,0-0.3,0-0.4,0c-0.2-0.1-0.5-0.2-0.9-1.1c-0.6-1.5-2.2-5.6-2.5-6.1c-0.1-0.2-0.2-0.3-0.2-0.3
			c-0.1,0-0.2,0.1-0.3,0.4l-2.5,6.2c-0.2,0.5-0.4,0.8-0.8,0.9c-0.1,0-0.2,0-0.3,0c-0.1,0-0.1,0-0.1,0.1
			C48.2,28.2,48.2,28.3,48.4,28.3z M51.9,22.6C51.9,22.6,51.9,22.6,51.9,22.6c0.1-0.1,0.1,0,0.1,0l0.9,2.5c0,0,0,0.1,0,0.1H51
			c0,0,0,0,0-0.1L51.9,22.6z M55.5,38.6c-0.1,0-0.2,0-0.3,0c-0.1,0-0.2,0-0.2,0.1c0,0.1,0.1,0.1,0.2,0.1c0.3,0,0.8,0,1,0
			c0.2,0,0.6,0,1,0c0.1,0,0.2,0,0.2-0.1c0-0.1-0.1-0.1-0.1-0.1c-0.1,0-0.2,0-0.4-0.1c-0.2,0-0.3-0.1-0.3-0.3c0-0.2,0-0.3,0-0.5
			l0.5-3.9h0c0.3,0.8,0.9,1.9,1,2.2c0.1,0.3,0.9,1.8,1.1,2.3c0.2,0.3,0.3,0.5,0.3,0.5c0.1,0,0.1-0.1,0.4-0.6l2.2-4.5h0l0.6,4.4
			c0,0.3,0,0.4,0,0.4c-0.1,0-0.1,0.1-0.1,0.1c0,0.1,0.1,0.1,0.3,0.1c0.4,0,1.8,0.1,2,0.1c0.1,0,0.3,0,0.3-0.1c0-0.1-0.1-0.1-0.2-0.1
			c-0.1,0-0.3,0-0.6-0.1c-0.3-0.1-0.4-0.4-0.5-1l-0.9-6.2c0-0.2-0.1-0.3-0.2-0.3c-0.1,0-0.1,0.1-0.2,0.2l-2.7,5.7l-2.7-5.6
			c-0.1-0.3-0.2-0.3-0.3-0.3c-0.1,0-0.1,0.1-0.2,0.3l-1,6.5C55.9,38.1,55.8,38.5,55.5,38.6z M76.3,31.2c-0.1,0-0.2,0-0.2,0.1
			c0,0.1,0.1,0.1,0.2,0.1c0.1,0,0.2,0,0.3,0c0.3,0.1,0.4,0.2,0.4,0.6c0,0.3,0,0.6,0,2.1v1.8c0,0.9,0,1.7,0,2.1
			c0,0.3-0.1,0.5-0.3,0.6c-0.1,0-0.2,0-0.4,0c-0.1,0-0.2,0-0.2,0.1c0,0.1,0.1,0.1,0.2,0.1c0.2,0,0.5,0,0.7,0c0.2,0,0.5,0,0.6,0
			c0.4,0,0.8,0,1.2,0c0.4,0,1,0,1.7,0c0.5,0,0.6-0.1,0.6-0.3c0.1-0.3,0.1-1,0.1-1.2c0-0.1,0-0.2-0.1-0.2c-0.1,0-0.1,0.1-0.1,0.2
			c0,0.2-0.1,0.5-0.3,0.6c-0.2,0.3-0.6,0.3-1.2,0.3c-0.8,0-1-0.1-1.2-0.2c-0.2-0.2-0.2-0.9-0.2-2.2v-1.8c0-1.5,0-1.8,0-2.1
			c0-0.4,0.1-0.5,0.4-0.6c0.1,0,0.3,0,0.4,0c0.1,0,0.2,0,0.2-0.1c0-0.1-0.1-0.1-0.2-0.1c-0.4,0-1.1,0-1.4,0
			C77.4,31.2,76.8,31.2,76.3,31.2z M156.8,59.3h0.3V48.6c0-0.6,0.1-1,0.2-1.3c0.1-0.2,0.2-0.4,0.4-0.5c0.2-0.1,0.5-0.2,1.1-0.3v-0.4
			h-4.2v0.4c0.7,0,1.2,0.2,1.5,0.5c0.2,0.3,0.3,0.8,0.3,1.6v5.5l-6.3-8h-4.5v0.4c0.4,0,0.7,0.1,0.9,0.2c0.2,0.1,0.4,0.3,0.7,0.7
			l0.3,0.3v9.1c0,0.7-0.1,1.2-0.4,1.5c-0.3,0.3-0.8,0.4-1.5,0.4V59h4.5v-0.4h-0.3c-0.4,0-0.8-0.1-1.1-0.4c-0.3-0.3-0.5-0.8-0.5-1.5
			v-8.2L156.8,59.3z M159.3,42.5H48.2V43h111.2V42.5z M50.4,38.4c-0.6,0-1.2-0.3-1.4-1c0-0.2-0.1-0.4-0.1-0.5c0-0.1,0-0.2-0.1-0.2
			c-0.1,0-0.1,0.1-0.1,0.3c0,0.2,0,0.8,0,1.3c0,0.2,0,0.3,0.2,0.3c0.4,0.2,0.9,0.3,1.5,0.3c0.5,0,1.1-0.1,1.6-0.4
			c0.7-0.5,0.9-1.2,0.9-1.8c0-1-0.4-1.6-1.6-2.6L50.8,34c-0.8-0.6-1.1-1-1.1-1.4c0-0.6,0.4-1,1.2-1c0.6,0,0.9,0.3,1.1,0.5
			c0.2,0.3,0.3,0.6,0.3,0.7c0,0.1,0,0.2,0.1,0.2c0.1,0,0.1-0.1,0.1-0.3c0-0.8,0-1.1,0-1.2c0-0.1,0-0.1-0.1-0.1
			c-0.3-0.1-0.7-0.2-1.3-0.2c-1.4,0-2.3,0.8-2.3,1.9c0,0.8,0.4,1.5,1.5,2.4l0.5,0.4c0.8,0.7,1,1.1,1,1.6
			C51.7,37.8,51.3,38.4,50.4,38.4z M151.3,28.3c0.5,0,1,0,1.1,0c0.2,0,0.6,0,1.2,0c0.1,0,0.2,0,0.2-0.1c0-0.1-0.1-0.1-0.2-0.1
			c-0.2,0-0.3,0-0.5-0.1c-0.2-0.1-0.3-0.3-0.3-1.1l-0.1-4.2h0c0.2,0.2,1.3,1.4,2.4,2.5c1,1,2.3,2.4,2.9,3c0.1,0.1,0.2,0.2,0.3,0.2
			c0.1,0,0.1-0.1,0.1-0.3l0.1-6.3c0-0.6,0.1-0.8,0.4-0.9c0.1,0,0.2,0,0.3,0c0.1,0,0.2,0,0.2-0.1c0-0.1-0.1-0.1-0.2-0.1
			c-0.5,0-0.9,0-1,0c-0.2,0-0.7,0-1.2,0c-0.1,0-0.3,0-0.3,0.1c0,0.1,0,0.1,0.2,0.1c0.1,0,0.4,0,0.5,0.1c0.2,0.1,0.3,0.3,0.3,0.9
			l0.1,4.5h0c-0.2-0.2-1.5-1.6-2.2-2.3c-1.5-1.5-3-3.1-3.1-3.2c-0.2-0.2-0.3-0.3-0.4-0.3c-0.1,0-0.1,0.1-0.1,0.3l-0.1,5.9
			c0,0.9,0,1.2-0.3,1.2c-0.1,0-0.3,0.1-0.4,0.1c-0.1,0-0.2,0-0.2,0.1C151.1,28.2,151.2,28.3,151.3,28.3z"/>
	</g>
</g>
</svg>
