<?xml version="1.0" encoding="UTF-8" standalone="no"?>
<svg width="48px" height="24px" viewBox="0 0 48 24" version="1.1" xmlns="http://www.w3.org/2000/svg" xmlns:xlink="http://www.w3.org/1999/xlink">
    <!-- Generator: Sketch 39.1 (31720) - http://www.bohemiancoding.com/sketch -->
    <title>payment-visa</title>
    <desc>Created with Sketch.</desc>
    <defs></defs>
    <g id="Page-3" stroke="none" stroke-width="1" fill="none" fill-rule="evenodd">
        <g id="footer-desktop" transform="translate(-708.000000, -701.000000)">
            <g id="Footer" transform="translate(-1.000000, 282.000000)">
                <g id="middle-footer"></g>
            </g>
            <g id="visa" transform="translate(708.000000, 705.000000)" fill="#B1BEC7">
                <path d="M7.9195,1.504 C7.7315,0.564 7.0265,0.2585 6.204,0.2585 L0.047,0.2585 L0,0.564 C4.23,1.645 7.6845,3.9245 9.259,8.272 L7.9195,1.504 L7.9195,1.504 Z M9.635,10.3165 L9.259,8.272 C8.4365,6.1335 6.486,4.1595 4.3005,3.2665 L7.379,14.9695 L11.3975,14.9695 L17.39,0.2585 L13.348,0.2585 L9.635,10.3165 L9.635,10.3165 Z M20.351,14.993 L22.748,0.2585 L18.941,0.2585 L16.544,14.993 L20.351,14.993 L20.351,14.993 Z M30.7615,6.52256027e-16 C26.978,6.52256027e-16 24.346,1.9975 24.3225,4.8645 C24.299,6.9795 26.2025,8.1545 27.6595,8.8595 C29.14,9.5645 29.6335,10.058 29.6335,10.6925 C29.6335,11.6795 28.435,12.126 27.354,12.126 C25.8265,12.126 25.004,11.938 23.782,11.374 L23.265,11.1155 L22.748,14.4055 C23.641,14.8285 25.2625,15.2045 26.978,15.2045 C30.973,15.228 33.5815,13.2305 33.6285,10.1755 C33.6285,8.507 32.5945,7.238 30.409,6.1805 C29.0695,5.5225 28.2705,5.029 28.2705,4.3475 C28.2705,3.713 28.952,3.0785 30.456,3.0785 C31.7015,3.055 32.618,3.3135 33.2995,3.6425 L33.652,3.807 L34.169,0.6345 C33.417,0.329 32.2185,0 30.7615,0 L30.7615,6.52256027e-16 Z M40.984,0.2585 C40.0675,0.2585 39.386,0.5405 38.9865,1.504 L33.3465,14.993 L37.3415,14.993 C37.976,13.1835 38.1405,12.784 38.1405,12.784 L43.005,12.784 C43.005,12.784 43.1225,13.301 43.475,14.993 L47,14.993 L43.9215,0.2585 L40.984,0.2585 L40.984,0.2585 Z M39.2215,9.7525 C39.2215,9.7525 39.5505,8.9065 40.7255,5.64 C40.702,5.6635 41.0545,4.794 41.2425,4.2535 L41.5245,5.5225 C42.2295,9.024 42.394,9.7525 42.394,9.7525 L39.2215,9.7525 L39.2215,9.7525 Z" id="Shape"></path>
            </g>
        </g>
    </g>
</svg>