<?xml version="1.0" encoding="UTF-8" standalone="no"?>
<svg width="40px" height="24px" viewBox="0 0 40 24" version="1.1" xmlns="http://www.w3.org/2000/svg" xmlns:xlink="http://www.w3.org/1999/xlink">
    <!-- Generator: Sketch 39.1 (31720) - http://www.bohemiancoding.com/sketch -->
    <title>payment-mc</title>
    <desc>Created with Sketch.</desc>
    <defs></defs>
    <g id="Page-3" stroke="none" stroke-width="1" fill="none" fill-rule="evenodd">
        <g id="footer-desktop" transform="translate(-648.000000, -701.000000)" fill="#B1BEC7">
            <g id="Footer" transform="translate(-1.000000, 282.000000)">
                <g id="middle-footer">
                    <g id="master-card" transform="translate(650.000000, 420.000000)">
                        <path d="M38,11.3772455 C38,9.32934132 37.4994012,7.41796407 36.4982036,5.64311377 C35.4287425,3.95928144 34.0407186,2.57125749 32.3568862,1.5245509 C30.4682635,0.523353293 28.5568862,3.15781998e-16 26.6227545,3.15781998e-16 C24.051497,3.15781998e-16 21.7532934,0.796407186 19.7508982,2.36646707 C21.5712575,3.98203593 22.754491,5.96167665 23.3233533,8.28263473 L22.2994012,8.28263473 C21.7988024,6.28023952 20.6838323,4.48263473 19,2.93532934 C17.3161677,4.48263473 16.2011976,6.28023952 15.7005988,8.28263473 L14.6766467,8.28263473 C15.245509,5.96167665 16.4287425,3.98203593 18.2491018,2.36646707 C16.2467066,0.796407186 13.948503,0 11.3772455,0 C9.44311377,0 7.53173653,0.523353293 5.64311377,1.5245509 C3.95928144,2.57125749 2.57125749,3.95928144 1.50179641,5.64311377 C0.500598802,7.41796407 0,9.32934132 0,11.3772455 C0,13.4251497 0.500598802,15.3592814 1.50179641,17.1341317 C2.57125749,18.8179641 3.95928144,20.205988 5.64311377,21.2526946 C7.53173653,22.2766467 9.44311377,22.7772455 11.3772455,22.7772455 C13.948503,22.7772455 16.2467066,21.9808383 18.2491018,20.4107784 C16.6107784,18.9772455 15.4502994,17.1568862 14.7676647,14.9497006 L15.8143713,14.9497006 C16.4287425,16.8383234 17.4982036,18.4766467 19,19.8419162 C20.5017964,18.4766467 21.5712575,16.8383234 22.2083832,14.9497006 L23.2323353,14.9497006 C22.5497006,17.1568862 21.3892216,18.9772455 19.7508982,20.4107784 C21.7532934,21.9808383 24.051497,22.7772455 26.6227545,22.7772455 C28.5568862,22.7772455 30.4682635,22.2766467 32.3568862,21.2526946 C34.0407186,20.205988 35.4287425,18.8179641 36.4982036,17.1341317 C37.4994012,15.3592814 38,13.4479042 38,11.3772455 L38,11.3772455 Z M4.98323353,8.66946108 L6.78083832,8.66946108 L5.84790419,14.1077844 L4.71017964,14.1077844 L5.37005988,9.96646707 L3.86826347,14.1077844 L3.02634731,14.1077844 L3.02634731,9.96646707 L2.2754491,14.1077844 L1.13772455,14.1077844 L2.07065868,8.66946108 L3.77724551,8.66946108 L3.77724551,12.0371257 L4.98323353,8.66946108 L4.98323353,8.66946108 Z M10.2622754,10.9221557 C10.2622754,11.1724551 10.2167665,11.445509 10.1712575,11.7640719 C10.102994,12.1964072 10.0347305,12.605988 9.96646707,12.9928144 C9.92095808,13.3568862 9.85269461,13.6526946 9.78443114,13.8347305 L9.78443114,14.1077844 L8.85149701,14.1077844 L8.85149701,13.6526946 C8.6011976,14.0167665 8.19161677,14.1988024 7.62275449,14.1988024 C7.30419162,14.1988024 7.05389222,14.1077844 6.87185629,13.9257485 C6.68982036,13.6754491 6.5988024,13.3568862 6.5988024,12.9928144 C6.5988024,12.4239521 6.73532934,12.0143713 7.05389222,11.7640719 C7.48622754,11.445509 8.03233533,11.2862275 8.64670659,11.2862275 L9.1245509,11.2862275 L9.1245509,11.0131737 C9.1245509,10.7628743 8.8742515,10.6263473 8.37365269,10.6263473 C8.05508982,10.6263473 7.64550898,10.6946108 7.14491018,10.8311377 C7.21317365,10.5808383 7.28143713,10.2622754 7.3497006,9.8754491 C7.8502994,9.69341317 8.28263473,9.60239521 8.64670659,9.60239521 C9.71616766,9.60239521 10.2622754,10.0347305 10.2622754,10.9221557 L10.2622754,10.9221557 Z M8.94251497,12.1508982 L8.66946108,12.1508982 C8.03233533,12.1508982 7.71377246,12.3556886 7.71377246,12.788024 C7.71377246,13.1065868 7.8502994,13.2658683 8.1005988,13.2658683 C8.3508982,13.2658683 8.53293413,13.1748503 8.66946108,12.9928144 C8.85149701,12.788024 8.94251497,12.5149701 8.94251497,12.1508982 L8.94251497,12.1508982 Z M13.5389222,9.69341317 L13.3568862,10.7401198 C13.1748503,10.6718563 12.8790419,10.6263473 12.5149701,10.6263473 C12.1508982,10.6263473 11.9461078,10.7628743 11.9461078,11.0131737 C11.9461078,11.1269461 11.9688623,11.2407186 12.0371257,11.2862275 L12.4239521,11.491018 C12.9928144,11.7868263 13.2658683,12.1964072 13.2658683,12.697006 C13.2658683,13.6982036 12.6742515,14.1988024 11.4682635,14.1988024 C10.9221557,14.1988024 10.5125749,14.1760479 10.2622754,14.1077844 C10.3077844,13.857485 10.3760479,13.5161677 10.4443114,13.0838323 C10.9449102,13.1976048 11.2862275,13.2658683 11.4682635,13.2658683 C11.9233533,13.2658683 12.1281437,13.1520958 12.1281437,12.9017964 C12.1281437,12.7652695 12.1053892,12.6742515 12.0371257,12.605988 C11.9233533,12.4922156 11.7640719,12.4011976 11.5820359,12.3329341 C11.0131737,12.0826347 10.7173653,11.6730539 10.7173653,11.1041916 C10.7173653,10.102994 11.2862275,9.60239521 12.4239521,9.60239521 C12.9928144,9.60239521 13.3568862,9.6251497 13.5389222,9.69341317 L13.5389222,9.69341317 Z M15.3365269,9.69341317 L15.9053892,9.69341317 L15.8143713,10.8311377 L15.154491,10.8311377 C15.154491,11.1269461 15.108982,11.4227545 15.0407186,11.6730539 C15.0407186,11.7413174 15.0407186,11.8550898 14.9952096,12.0371257 C14.9724551,12.2419162 14.9269461,12.3556886 14.8586826,12.4239521 L14.8586826,12.788024 C14.8586826,13.0383234 14.9952096,13.1748503 15.245509,13.1748503 C15.3592814,13.1748503 15.4958084,13.1520958 15.6095808,13.0838323 L15.4275449,14.1077844 C15.245509,14.1760479 14.9497006,14.1988024 14.5856287,14.1988024 C13.948503,14.1988024 13.6299401,13.902994 13.6299401,13.2658683 C13.6299401,12.9017964 13.6982036,12.4922156 13.8347305,12.0371257 L14.2898204,9.03353293 L15.4275449,9.03353293 L15.3365269,9.69341317 L15.3365269,9.69341317 Z M19.5688623,11.1952096 C19.5688623,11.6275449 19.5233533,12.0143713 19.4778443,12.3329341 L17.1113772,12.3329341 C17.1113772,12.651497 17.1796407,12.8562874 17.3161677,12.9928144 C17.4982036,13.1748503 17.7712575,13.2658683 18.1580838,13.2658683 C18.5449102,13.2658683 18.9317365,13.1520958 19.3868263,12.9017964 L19.1820359,14.0167665 C18.8634731,14.1532934 18.4766467,14.1988024 17.9760479,14.1988024 C16.6562874,14.1988024 15.9964072,13.5389222 15.9964072,12.2419162 C15.9964072,11.4227545 16.1784431,10.7856287 16.5652695,10.3532934 C16.9293413,9.85269461 17.4071856,9.60239521 17.9760479,9.60239521 C18.4766467,9.60239521 18.8634731,9.76167665 19.1820359,10.0802395 C19.4323353,10.3305389 19.5688623,10.6946108 19.5688623,11.1952096 L19.5688623,11.1952096 Z M17.2251497,11.3772455 L18.5221557,11.3772455 L18.5221557,11.1041916 L18.4311377,10.9221557 C18.4311377,10.8538922 18.4083832,10.7856287 18.3401198,10.7401198 C18.2718563,10.7401198 18.2263473,10.6946108 18.1580838,10.6263473 L17.9760479,10.6263473 C17.5892216,10.6263473 17.3389222,10.8766467 17.2251497,11.3772455 L17.2251497,11.3772455 Z M22.4814371,9.69341317 C22.4131737,9.76167665 22.2538922,10.194012 22.0035928,11.0131737 C21.7532934,10.9449102 21.548503,11.1041916 21.3437126,11.491018 C21.1616766,12.1736527 21.0023952,13.0383234 20.8886228,14.1077844 L19.6598802,14.1077844 L19.7508982,13.8347305 C20.0011976,12.0826347 20.1832335,10.6946108 20.3197605,9.69341317 L21.457485,9.69341317 L21.3437126,10.3532934 C21.548503,10.0347305 21.7305389,9.85269461 21.9125749,9.78443114 C22.0946108,9.60239521 22.2994012,9.57964072 22.4814371,9.69341317 L22.4814371,9.69341317 Z M26.4179641,8.85149701 L26.2359281,9.96646707 C25.8718563,9.78443114 25.5305389,9.69341317 25.211976,9.69341317 C24.7113772,9.69341317 24.3245509,9.8754491 24.0742515,10.2622754 C23.8239521,10.5808383 23.7101796,11.0814371 23.7101796,11.7640719 C23.7101796,12.1964072 23.8011976,12.5149701 23.9832335,12.697006 C24.1652695,12.9473054 24.4155689,13.0838323 24.7341317,13.0838323 C25.0526946,13.0838323 25.394012,12.9928144 25.7808383,12.788024 L25.5760479,14.0167665 C25.3257485,14.1532934 24.9844311,14.1988024 24.5520958,14.1988024 C23.9149701,14.1988024 23.4143713,13.994012 23.0502994,13.5389222 C22.6634731,13.1748503 22.4814371,12.605988 22.4814371,11.8550898 C22.4814371,10.9221557 22.7317365,10.1257485 23.2323353,9.51137725 C23.6646707,8.8742515 24.3017964,8.55568862 25.1209581,8.55568862 C25.4167665,8.55568862 25.8718563,8.66946108 26.4179641,8.85149701 L26.4179641,8.85149701 Z M29.8083832,10.9221557 C29.8083832,10.9904192 29.8083832,11.1041916 29.7628743,11.2862275 C29.7401198,11.491018 29.7173653,11.6275449 29.7173653,11.7640719 C29.6491018,12.0826347 29.6035928,12.4922156 29.5353293,13.0383234 C29.4670659,13.5616766 29.3988024,13.9257485 29.3532934,14.1077844 L28.3976048,14.1077844 L28.3976048,13.6526946 C28.1473054,14.0167665 27.7377246,14.1988024 27.1916168,14.1988024 C26.8730539,14.1988024 26.6227545,14.1077844 26.4407186,13.9257485 C26.2359281,13.6754491 26.1449102,13.3568862 26.1449102,12.9928144 C26.1449102,12.4239521 26.3041916,12.0143713 26.6227545,11.7640719 C27.0550898,11.445509 27.5556886,11.2862275 28.1245509,11.2862275 L28.6023952,11.2862275 C28.6479042,11.2407186 28.6934132,11.1269461 28.6934132,11.0131737 C28.6934132,10.7628743 28.4431138,10.6263473 27.942515,10.6263473 C27.6239521,10.6263473 27.2143713,10.6946108 26.7137725,10.8311377 C26.7137725,10.5808383 26.7820359,10.2622754 26.8958084,9.8754491 C27.3964072,9.69341317 27.8287425,9.60239521 28.2155689,9.60239521 C29.2850299,9.60239521 29.8083832,10.0347305 29.8083832,10.9221557 L29.8083832,10.9221557 Z M28.4886228,12.1508982 L28.2155689,12.1508982 C27.5784431,12.1508982 27.2826347,12.3556886 27.2826347,12.788024 C27.2826347,13.1065868 27.3964072,13.2658683 27.6467066,13.2658683 C27.897006,13.2658683 28.0790419,13.1748503 28.2155689,12.9928144 C28.3976048,12.788024 28.4886228,12.5149701 28.4886228,12.1508982 L28.4886228,12.1508982 Z M32.7209581,9.69341317 C32.4706587,10.011976 32.3113772,10.4443114 32.2658683,11.0131737 C32.0155689,10.9449102 31.788024,11.1041916 31.605988,11.491018 C31.4694611,11.8550898 31.3101796,12.742515 31.1281437,14.1077844 L29.8994012,14.1077844 L30.0131737,13.8347305 C30.2407186,12.4467066 30.445509,11.0814371 30.5592814,9.69341317 L31.697006,9.69341317 C31.697006,9.94371257 31.651497,10.1712575 31.605988,10.3532934 C31.788024,10.0347305 31.9700599,9.85269461 32.1748503,9.78443114 C32.4251497,9.67065868 32.6071856,9.6251497 32.7209581,9.69341317 L32.7209581,9.69341317 Z M35.6335329,8.66946108 L36.8622754,8.66946108 L35.9293413,14.1077844 L34.7916168,14.1077844 L34.8826347,13.7437126 C34.6323353,14.0622754 34.291018,14.1988024 33.8586826,14.1988024 C33.3580838,14.1988024 33.0167665,14.0622754 32.811976,13.7437126 C32.5161677,13.3113772 32.3568862,12.8562874 32.3568862,12.4239521 C32.3568862,11.6047904 32.5616766,10.9449102 33.0167665,10.4443114 C33.3353293,9.94371257 33.7676647,9.69341317 34.3365269,9.69341317 C34.7005988,9.69341317 35.0874251,9.8754491 35.451497,10.2622754 L35.6335329,8.66946108 L35.6335329,8.66946108 Z M35.1784431,11.5820359 C35.1784431,11.0131737 34.9508982,10.7401198 34.5185629,10.7401198 C34.2682635,10.7401198 34.0407186,10.8766467 33.8586826,11.1952096 C33.7221557,11.3772455 33.6766467,11.7413174 33.6766467,12.2419162 C33.6766467,12.788024 33.8586826,13.0838323 34.2227545,13.0838323 C34.4730539,13.0838323 34.7005988,12.9473054 34.8826347,12.697006 C35.0874251,12.4467066 35.1784431,12.0826347 35.1784431,11.5820359 L35.1784431,11.5820359 Z" id="Shape"></path>
                    </g>
                </g>
            </g>
        </g>
    </g>
</svg>