<?xml version="1.0" encoding="UTF-8" standalone="no"?>
<svg width="68px" height="24px" viewBox="0 0 68 24" version="1.1" xmlns="http://www.w3.org/2000/svg" xmlns:xlink="http://www.w3.org/1999/xlink">
    <!-- Generator: Sketch 39.1 (31720) - http://www.bohemiancoding.com/sketch -->
    <title>payment-paypal</title>
    <desc>Created with Sketch.</desc>
    <defs></defs>
    <g id="Page-3" stroke="none" stroke-width="1" fill="none" fill-rule="evenodd">
        <g id="footer-desktop" transform="translate(-853.000000, -701.000000)">
            <g id="Footer" transform="translate(-1.000000, 282.000000)">
                <g id="middle-footer"></g>
            </g>
            <g id="visa" transform="translate(708.000000, 705.000000)" fill="#B1BEC7">
                <g id="paypal" transform="translate(145.000000, 0.000000)">
                    <path d="M37.4676219,4.89546621 L34.9178999,4.89546621 C34.6799259,4.89546621 34.4419518,4.99745508 34.3059666,5.20143284 L30.8043484,10.3688694 L29.3085116,5.4054106 C29.2065227,5.09944396 28.9345523,4.89546621 28.5945894,4.89546621 L26.11286,4.89546621 C25.8068934,4.89546621 25.5689193,5.20143284 25.6709082,5.47340319 L28.4926005,13.7005061 L25.8408897,17.4061021 C25.6369119,17.7120687 25.8408897,18.1200242 26.2148489,18.1200242 L28.7645709,18.1200242 C29.0025449,18.1200242 29.2065227,17.984039 29.3425078,17.8140576 L37.8075848,5.57539207 C38.0115626,5.30342172 37.8075848,4.89546621 37.4676219,4.89546621 L37.4676219,4.89546621 Z M20.4354791,9.8249287 C20.197505,11.252773 19.041631,12.2386655 17.5797904,12.2386655 C16.8658683,12.2386655 16.253935,12.0006915 15.8799758,11.5587397 C15.5060166,11.1167878 15.3700314,10.4708583 15.4720203,9.79093241 C15.7099943,8.32909181 16.8658683,7.34319931 18.3277089,7.34319931 C19.041631,7.34319931 19.619568,7.58117336 20.0275235,8.02312517 C20.4014828,8.49907327 20.5374679,9.11100655 20.4354791,9.8249287 L20.4354791,9.8249287 Z M23.9710935,4.89546621 L21.4553678,4.89546621 C21.2173938,4.89546621 21.0474123,5.06544767 21.013416,5.26942543 L20.8774309,5.98334758 L20.7074494,5.71137724 C20.1635087,4.9294625 18.9396422,4.65749215 17.7157756,4.65749215 C14.9280796,4.65749215 12.5483391,6.76526233 12.072391,9.75693612 C11.8344169,11.2187767 12.1743798,12.646621 13.0242872,13.6325135 C13.7722056,14.5504134 14.8940833,14.9243727 16.1859424,14.9243727 C18.4636941,14.9243727 19.7215569,13.4625321 19.7215569,13.4625321 L19.5855717,14.1764542 C19.5515754,14.4484246 19.7555532,14.6863986 20.0275235,14.6863986 L22.3052752,14.6863986 C22.6792344,14.6863986 22.985201,14.4144283 23.0531936,14.0744653 L24.4130453,5.4054106 C24.4470416,5.13344026 24.2430639,4.89546621 23.9710935,4.89546621 L23.9710935,4.89546621 Z M8.77475052,4.96345879 C8.46878389,6.86725121 7.04093958,6.86725121 5.64709156,6.86725121 L4.83118053,6.86725121 L5.40911751,3.29764043 C5.4431138,3.09366267 5.61309527,2.92368121 5.81707302,2.92368121 L6.19103225,2.92368121 C7.14292846,2.92368121 8.06082837,2.92368121 8.50278018,3.4676219 C8.80874682,3.80758483 8.8767394,4.28353293 8.77475052,4.96345879 L8.77475052,4.96345879 Z M8.16281725,0 L2.85939553,0 C2.51943259,0 2.21346596,0.271970345 2.14547337,0.611933276 L0.00370690562,14.1764542 C-0.0302893875,14.4484246 0.173688371,14.6863986 0.445658716,14.6863986 L2.9613844,14.6863986 C3.33534363,14.6863986 3.64131027,14.4144283 3.70930285,14.0744653 L4.28723984,10.4028657 C4.32123613,10.0629028 4.62720277,9.79093241 5.00116199,9.79093241 L6.66698035,9.79093241 C10.1685985,9.79093241 12.1743798,8.09111776 12.6843242,4.75948103 C12.9222983,3.29764043 12.7183205,2.14176646 12.0043984,1.35985172 C11.2564799,0.475948103 9.93062449,0 8.16281725,0 L8.16281725,0 Z M64.6646564,0.373959224 L62.5228899,14.1764542 C62.4548973,14.4484246 62.6588751,14.6863986 62.9308454,14.6863986 L65.1406045,14.6863986 C65.4805674,14.6863986 65.786534,14.4144283 65.8545266,14.0744653 L67.9962931,0.509944396 C68.0302894,0.237974052 67.8263116,0 67.5543413,0 L65.1066082,0 C64.9026304,0 64.6986527,0.169981465 64.6646564,0.373959224 L64.6646564,0.373959224 Z M58.1713644,9.8249287 C57.9333903,11.252773 56.7775164,12.2386655 55.3156758,12.2386655 C54.5677573,12.2386655 53.9898203,12.0006915 53.6158611,11.5587397 C53.2419019,11.1167878 53.1059167,10.4708583 53.2079056,9.79093241 C53.4458796,8.32909181 54.6017536,7.34319931 56.0295979,7.34319931 C56.7775164,7.34319931 57.3554534,7.58117336 57.7294126,8.02312517 C58.1373681,8.49907327 58.2733533,9.11100655 58.1713644,9.8249287 L58.1713644,9.8249287 Z M61.7069789,4.89546621 L59.1572569,4.89546621 C58.9532791,4.89546621 58.7493014,5.06544767 58.7153051,5.26942543 L58.6133162,5.98334758 L58.4433347,5.71137724 C57.899394,4.9294625 56.6755275,4.65749215 55.4516609,4.65749215 C52.6639649,4.65749215 50.2502281,6.76526233 49.8082763,9.75693612 C49.5363059,11.2187767 49.9102652,12.646621 50.7261762,13.6325135 C51.5080909,14.5504134 52.5959723,14.9243727 53.9218278,14.9243727 C56.1655831,14.9243727 57.4234459,13.4625321 57.4234459,13.4625321 L57.3214571,14.1764542 C57.2874608,14.4484246 57.4914385,14.6863986 57.7634089,14.6863986 L60.0411605,14.6863986 C60.3811234,14.6863986 60.6870901,14.4144283 60.7550827,14.0744653 L62.1149344,5.4054106 C62.182927,5.13344026 61.9789492,4.89546621 61.7069789,4.89546621 L61.7069789,4.89546621 Z M46.5106359,4.96345879 C46.2046692,6.86725121 44.7428286,6.86725121 43.3489806,6.86725121 L42.5670659,6.86725121 L43.1110065,3.29764043 C43.1450028,3.09366267 43.3489806,2.92368121 43.5529584,2.92368121 L43.9269176,2.92368121 C44.8788138,2.92368121 45.7627174,2.92368121 46.2386655,3.4676219 C46.5106359,3.80758483 46.6126247,4.28353293 46.5106359,4.96345879 L46.5106359,4.96345879 Z M45.8987026,0 L40.5952809,0 C40.2213216,0 39.915355,0.271970345 39.8813587,0.611933276 L37.7395922,14.1764542 C37.7055959,14.4484246 37.9095737,14.6863986 38.1815441,14.6863986 L40.8672512,14.6863986 C41.1392215,14.6863986 41.3431993,14.5164172 41.3771956,14.2444468 L41.9891289,10.4028657 C42.0571215,10.0629028 42.3630881,9.79093241 42.7370473,9.79093241 L44.4028657,9.79093241 C47.8704876,9.79093241 49.8762689,8.09111776 50.4202096,4.75948103 C50.6581836,3.29764043 50.4202096,2.14176646 49.7402837,1.35985172 C48.9923653,0.475948103 47.6665098,0 45.8987026,0 L45.8987026,0 Z" id="payment-paypal"></path>
                </g>
            </g>
        </g>
    </g>
</svg>