<?xml version="1.0" encoding="UTF-8" standalone="no"?>
<svg width="32px" height="32px" viewBox="0 0 32 32" version="1.1" xmlns="http://www.w3.org/2000/svg" xmlns:xlink="http://www.w3.org/1999/xlink">
    <!-- Generator: Sketch 39.1 (31720) - http://www.bohemiancoding.com/sketch -->
    <title>social-googleplus</title>
    <desc>Created with Sketch.</desc>
    <defs></defs>
    <g id="Page-3" stroke="none" stroke-width="1" fill="none" fill-rule="evenodd">
        <g id="footer-desktop" transform="translate(-738.000000, -501.000000)" fill="#516B7C">
            <g id="Footer" transform="translate(-1.000000, 282.000000)">
                <g id="middle-footer">
                    <g id="social-block" transform="translate(529.000000, 219.000000)">
                        <g id="icons">
                            <path d="M226,32 C217.163444,32 210,24.836556 210,16 C210,7.163444 217.163444,-7.10542736e-15 226,-7.10542736e-15 C234.836556,-7.10542736e-15 242,7.163444 242,16 C242,24.836556 234.836556,32 226,32 Z M226,30.8148148 C234.181996,30.8148148 240.814815,24.1819963 240.814815,16 C240.814815,7.81800371 234.181996,1.18518519 226,1.18518519 C217.818004,1.18518519 211.185185,7.81800371 211.185185,16 C211.185185,24.1819963 217.818004,30.8148148 226,30.8148148 Z M227.246269,10.0740741 L223.524878,10.0740741 C221.856407,10.0740741 220.286383,11.3363407 220.286383,12.798333 C220.286383,14.2925034 221.423734,15.4984029 223.120872,15.4984029 C223.238874,15.4984029 223.353542,15.4959618 223.465988,15.4879728 C223.355764,15.6985725 223.277096,15.9358023 223.277096,16.1821307 C223.277096,16.5973383 223.500655,16.9339871 223.783549,17.2089428 C223.569768,17.2089428 223.363542,17.2151565 223.138428,17.2151565 C221.071951,17.2151565 219.481481,18.5293518 219.481481,19.892369 C219.481481,21.2347478 221.225064,22.0742616 223.291763,22.0742616 C225.6478,22.0742616 226.948931,20.739428 226.948931,19.3970491 C226.948931,18.3207494 226.630927,17.6760791 225.6478,16.9819213 C225.31135,16.7440257 224.668229,16.1659307 224.668229,15.8259531 C224.668229,15.4276113 224.782009,15.2314362 225.382463,14.7629684 C225.998028,14.282739 226.43359,13.607666 226.43359,12.8223001 C226.43359,11.8873618 226.016695,10.9761686 225.234016,10.6756924 L226.414034,10.6756924 L227.246936,10.0745179 L227.246269,10.0740741 Z M225.946471,19.1651454 C225.976027,19.2896411 225.992028,19.4176875 225.992028,19.5483969 C225.992028,20.6331295 225.292239,21.4806323 223.283985,21.4806323 C221.855519,21.4806323 220.823947,20.5776501 220.823947,19.4931394 C220.823947,18.4301547 222.103522,17.5451478 223.531767,17.560682 C223.865106,17.5642327 224.175777,17.6177148 224.457781,17.7089229 C225.233127,18.2475166 225.789358,18.5517655 225.946249,19.1653673 L225.946471,19.1651454 Z M223.659325,15.1195898 C222.700421,15.0909624 221.789295,14.0483941 221.623959,12.7914536 C221.458401,11.5338472 222.1013,10.5716131 223.059982,10.6002404 C224.018441,10.6290897 224.930011,11.6379265 225.095569,12.895089 C225.261127,14.1522515 224.618006,15.1484391 223.659547,15.1195898 L223.659325,15.1195898 Z M231.036995,12.7370838 L231.036995,10.0740741 L230.148093,10.0740741 L230.148093,12.7370838 L227.481384,12.7370838 L227.481384,13.6247537 L230.148093,13.6247537 L230.148093,16.2877634 L231.036995,16.2877634 L231.036995,13.6247537 L233.703704,13.6247537 L233.703704,12.7370838 L231.036995,12.7370838 Z" id="google-plus-circle"></path>
                        </g>
                    </g>
                </g>
            </g>
        </g>
    </g>
</svg>