<?xml version="1.0" encoding="UTF-8" standalone="no"?>
<svg width="32px" height="32px" viewBox="0 0 32 32" version="1.1" xmlns="http://www.w3.org/2000/svg" xmlns:xlink="http://www.w3.org/1999/xlink">
    <!-- Generator: Sketch 39.1 (31720) - http://www.bohemiancoding.com/sketch -->
    <title>social-twitter</title>
    <desc>Created with Sketch.</desc>
    <defs></defs>
    <g id="Page-3" stroke="none" stroke-width="1" fill="none" fill-rule="evenodd">
        <g id="footer-desktop" transform="translate(-612.000000, -501.000000)" fill="#516B7C">
            <g id="Footer" transform="translate(-1.000000, 282.000000)">
                <g id="middle-footer">
                    <g id="social-block" transform="translate(529.000000, 219.000000)">
                        <g id="icons">
                            <path d="M100,32 C91.163444,32 84,24.836556 84,16 C84,7.163444 91.163444,0 100,0 C108.836556,0 116,7.163444 116,16 C116,24.836556 108.836556,32 100,32 Z M100,30.8148148 C108.181996,30.8148148 114.814815,24.1819963 114.814815,16 C114.814815,7.81800371 108.181996,1.18518519 100,1.18518519 C91.8180037,1.18518519 85.1851852,7.81800371 85.1851852,16 C85.1851852,24.1819963 91.8180037,30.8148148 100,30.8148148 Z M107.703259,12.0345995 C107.179926,12.2665505 106.617704,12.4234062 106.027481,12.4938357 C106.629926,12.132801 107.092593,11.5611441 107.31037,10.8799549 C106.746593,11.2143286 106.122148,11.4569439 105.457481,11.5878051 C104.925259,11.020814 104.166815,10.6666667 103.327704,10.6666667 C101.71637,10.6666667 100.409926,11.9728348 100.409926,13.5838274 C100.409926,13.8124457 100.435704,14.0350652 100.485481,14.2485756 C98.0605926,14.1268236 95.9103704,12.9655137 94.4712593,11.2005537 C94.2201481,11.6313515 94.0761481,12.1325788 94.0761481,12.6671324 C94.0761481,13.6793627 94.5912593,14.5722849 95.3741481,15.0952854 C94.8959259,15.0801775 94.4459259,14.9488719 94.0525926,14.7304737 C94.0523704,14.7426933 94.0523704,14.754913 94.0523704,14.7671326 C94.0523704,16.1806114 95.0581481,17.3594731 96.393037,17.6276386 C96.1481481,17.6942912 95.8903704,17.7300614 95.6243704,17.7300614 C95.4363704,17.7300614 95.2534815,17.7116208 95.0754815,17.677628 C95.4468148,18.836494 96.5243704,19.6800933 97.8012593,19.7034217 C96.8025926,20.4859228 95.5445926,20.9522686 94.1774815,20.9522686 C93.9419259,20.9522686 93.7097037,20.9384938 93.4814815,20.9113884 C94.7728148,21.7392133 96.3065926,22.2222222 97.9543704,22.2222222 C103.321259,22.2222222 106.256148,17.7769403 106.256148,13.921978 C106.256148,13.7955603 106.253259,13.669587 106.247704,13.5445023 C106.817926,13.133256 107.312593,12.6193647 107.703704,12.0343773 L107.703259,12.0345995 Z" id="twitter-circle"></path>
                        </g>
                    </g>
                </g>
            </g>
        </g>
    </g>
</svg>