<?xml version="1.0" encoding="UTF-8" standalone="no"?>
<svg width="32px" height="32px" viewBox="0 0 32 32" version="1.1" xmlns="http://www.w3.org/2000/svg" xmlns:xlink="http://www.w3.org/1999/xlink">
    <!-- Generator: Sketch 39.1 (31720) - http://www.bohemiancoding.com/sketch -->
    <title>social-pinterest</title>
    <desc>Created with Sketch.</desc>
    <defs></defs>
    <g id="Page-3" stroke="none" stroke-width="1" fill="none" fill-rule="evenodd">
        <g id="footer-desktop" transform="translate(-654.000000, -501.000000)" fill="#516B7C">
            <g id="Footer" transform="translate(-1.000000, 282.000000)">
                <g id="middle-footer">
                    <g id="social-block" transform="translate(529.000000, 219.000000)">
                        <g id="icons">
                            <path d="M142,32 C133.163444,32 126,24.836556 126,16 C126,7.163444 133.163444,7.10542736e-15 142,7.10542736e-15 C150.836556,7.10542736e-15 158,7.163444 158,16 C158,24.836556 150.836556,32 142,32 Z M142,30.8148148 C150.181996,30.8148148 156.814815,24.1819963 156.814815,16 C156.814815,7.81800371 150.181996,1.18518519 142,1.18518519 C133.818004,1.18518519 127.185185,7.81800371 127.185185,16 C127.185185,24.1819963 133.818004,30.8148148 142,30.8148148 Z M141.015977,18.2954602 C140.642537,20.2534312 140.186413,22.1306264 138.835304,23.1111111 C138.418251,20.1517573 139.44771,17.9291981 139.925641,15.56962 C139.110614,14.1975229 140.02368,11.4363377 141.742867,12.1168892 C143.858119,12.9536312 139.911103,17.2177538 142.56071,17.7502921 C145.327347,18.3062727 146.456754,12.9500876 144.741382,11.2082758 C142.262594,8.69314306 137.525993,11.1509423 138.108414,14.751868 C138.250067,15.6323143 139.159679,15.8993558 138.471859,17.1142628 C136.885329,16.7625385 136.411942,15.5113779 136.47291,13.8432546 C136.570949,11.1127805 138.926166,9.2011488 141.288561,8.93674231 C144.276081,8.60228172 147.079971,10.0333478 147.467223,12.8437799 C147.903175,16.0157492 146.118659,19.4511255 142.924156,19.2040736 C142.058156,19.1368362 141.694711,18.7078798 141.015977,18.2954602 Z" id="pinterest-circle"></path>
                        </g>
                    </g>
                </g>
            </g>
        </g>
    </g>
</svg>