<?xml version="1.0" encoding="UTF-8" standalone="no"?>
<svg width="32px" height="32px" viewBox="0 0 32 32" version="1.1" xmlns="http://www.w3.org/2000/svg" xmlns:xlink="http://www.w3.org/1999/xlink">
    <!-- Generator: Sketch 39.1 (31720) - http://www.bohemiancoding.com/sketch -->
    <title>social-facebook</title>
    <desc>Created with Sketch.</desc>
    <defs></defs>
    <g id="Page-3" stroke="none" stroke-width="1" fill="none" fill-rule="evenodd">
        <g id="footer-desktop" transform="translate(-570.000000, -501.000000)" fill="#516B7C">
            <g id="Footer" transform="translate(-1.000000, 282.000000)">
                <g id="middle-footer">
                    <g id="social-block" transform="translate(529.000000, 219.000000)">
                        <g id="icons">
                            <path d="M58,32 C49.163444,32 42,24.836556 42,16 C42,7.163444 49.163444,0 58,0 C66.836556,0 74,7.163444 74,16 C74,24.836556 66.836556,32 58,32 Z M58,30.8148148 C66.1819963,30.8148148 72.8148148,24.1819963 72.8148148,16 C72.8148148,7.81800371 66.1819963,1.18518519 58,1.18518519 C49.8180037,1.18518519 43.1851852,7.81800371 43.1851852,16 C43.1851852,24.1819963 49.8180037,30.8148148 58,30.8148148 Z M56.039886,11.6239316 L56.039886,13.2649573 L53.8518519,13.2649573 L53.8518519,15.4529915 L56.039886,15.4529915 L56.039886,23.1111111 L58.2279202,23.1111111 L58.2279202,15.4529915 L60.6894587,15.4529915 L61.2364672,13.2649573 L58.2279202,13.2649573 L58.2279202,11.6239316 C58.2279202,11.3217094 58.4727066,11.0769231 58.7749288,11.0769231 L61.5099715,11.0769231 L61.5099715,8.88888889 L58.7749288,8.88888889 C57.2643647,8.88888889 56.039886,10.1133675 56.039886,11.6239316 Z" id="facebook-circle"></path>
                        </g>
                    </g>
                </g>
            </g>
        </g>
    </g>
</svg>