<?xml version="1.0" encoding="UTF-8" standalone="no"?>
<svg width="32px" height="32px" viewBox="0 0 32 32" version="1.1" xmlns="http://www.w3.org/2000/svg" xmlns:xlink="http://www.w3.org/1999/xlink">
    <!-- Generator: Sketch 39.1 (31720) - http://www.bohemiancoding.com/sketch -->
    <title>social-instagram</title>
    <desc>Created with Sketch.</desc>
    <defs></defs>
    <g id="Page-3" stroke="none" stroke-width="1" fill="none" fill-rule="evenodd">
        <g id="footer-desktop" transform="translate(-696.000000, -501.000000)" fill="#516B7C">
            <g id="Footer" transform="translate(-1.000000, 282.000000)">
                <g id="middle-footer">
                    <g id="social-block" transform="translate(529.000000, 219.000000)">
                        <g id="icons">
                            <path d="M184,32 C175.163444,32 168,24.836556 168,16 C168,7.163444 175.163444,0 184,0 C192.836556,0 200,7.163444 200,16 C200,24.836556 192.836556,32 184,32 Z M184,30.8148148 C192.181996,30.8148148 198.814815,24.1819963 198.814815,16 C198.814815,7.81800371 192.181996,1.18518519 184,1.18518519 C175.818004,1.18518519 169.185185,7.81800371 169.185185,16 C169.185185,24.1819963 175.818004,30.8148148 184,30.8148148 Z M184,9.00219444 C182.0995,9.00219444 181.861222,9.01025 181.114833,9.04430556 C180.369972,9.07830556 179.861306,9.19658333 179.416167,9.36958333 C178.956,9.54841667 178.56575,9.78769444 178.176722,10.1767222 C177.787694,10.56575 177.548417,10.956 177.369583,11.4161667 C177.196583,11.8613056 177.078306,12.3699722 177.044306,13.1148333 C177.01025,13.8611944 177.002222,14.0995 177.002222,16 C177.002222,17.9005 177.01025,18.1388056 177.044306,18.8851667 C177.078306,19.6300278 177.196583,20.1386944 177.369583,20.5838333 C177.548417,21.0439722 177.787694,21.43425 178.176722,21.8232778 C178.56575,22.2123056 178.956,22.4515833 179.416167,22.6304167 C179.861306,22.8034167 180.369972,22.9216944 181.114833,22.9556944 C181.861222,22.98975 182.0995,22.9977778 184,22.9977778 C185.9005,22.9977778 186.138806,22.98975 186.885167,22.9556944 C187.630028,22.9216944 188.138694,22.8034167 188.583833,22.6304167 C189.044,22.4515833 189.43425,22.2123056 189.823278,21.8232778 C190.212306,21.43425 190.451583,21.044 190.630417,20.5838333 C190.803417,20.1386944 190.921694,19.6300278 190.955694,18.8851667 C190.98975,18.1388056 190.997806,17.9005 190.997806,16 C190.997806,14.0995 190.98975,13.8611944 190.955694,13.1148333 C190.921694,12.3699722 190.803417,11.8613056 190.630417,11.4161667 C190.451583,10.956 190.212306,10.56575 189.823278,10.1767222 C189.43425,9.78769444 189.044,9.54841667 188.583833,9.36958333 C188.138694,9.19658333 187.630028,9.07830556 186.885167,9.04430556 C186.138806,9.01025 185.9005,9.00219444 184,9.00219444 Z M184,10.2630833 C185.8685,10.2630833 186.089806,10.2701944 186.827694,10.3038611 C187.509972,10.335 187.8805,10.449 188.127111,10.5448056 C188.453722,10.67175 188.686861,10.8234167 188.931722,11.0682778 C189.176583,11.3131389 189.32825,11.5462778 189.455167,11.8728889 C189.551,12.1195 189.665,12.4900278 189.696139,13.1722778 C189.729806,13.9101944 189.736917,14.1315 189.736917,16 C189.736917,17.8685 189.729806,18.0898056 189.696139,18.8276944 C189.665,19.5099722 189.551,19.8805 189.455167,20.1271111 C189.32825,20.4537222 189.176583,20.6868611 188.931722,20.9317222 C188.686861,21.1765833 188.453722,21.32825 188.127111,21.4551667 C187.8805,21.551 187.509972,21.665 186.827694,21.6961389 C186.089917,21.7298056 185.868611,21.7369167 184,21.7369167 C182.131389,21.7369167 181.910083,21.7298056 181.172306,21.6961389 C180.490028,21.665 180.1195,21.551 179.872917,21.4551667 C179.546278,21.32825 179.313139,21.1765833 179.068278,20.9317222 C178.823417,20.6868611 178.67175,20.4537222 178.544833,20.1271111 C178.449,19.8805 178.335,19.5099722 178.303861,18.8277222 C178.270194,18.0898056 178.263083,17.8685 178.263083,16 C178.263083,14.1315 178.270194,13.9101944 178.303861,13.1723056 C178.335,12.4900278 178.449,12.1195 178.544833,11.8728889 C178.67175,11.5462778 178.823417,11.3131389 179.068278,11.0682778 C179.313139,10.8234167 179.546278,10.67175 179.872917,10.5448056 C180.1195,10.449 180.490028,10.335 181.172278,10.3038611 C181.910194,10.2701944 182.1315,10.2630833 184,10.2630833 Z M184,12.4065278 C182.015389,12.4065278 180.406528,14.0153889 180.406528,16 C180.406528,17.9846111 182.015389,19.5934722 184,19.5934722 C185.984611,19.5934722 187.593472,17.9846111 187.593472,16 C187.593472,14.0153889 185.984611,12.4065278 184,12.4065278 L184,12.4065278 Z M184,18.3326111 C182.71175,18.3326111 181.667389,17.28825 181.667389,16 C181.667389,14.71175 182.71175,13.6673889 184,13.6673889 C185.28825,13.6673889 186.332611,14.71175 186.332611,16 C186.332611,17.28825 185.28825,18.3326111 184,18.3326111 L184,18.3326111 Z M188.575167,12.2645556 C188.575167,12.7283333 188.199222,13.1043056 187.735444,13.1043056 C187.271667,13.1043056 186.895694,12.7283333 186.895694,12.2645556 C186.895694,11.8007778 187.271667,11.4248333 187.735444,11.4248333 C188.199222,11.4248333 188.575167,11.8007778 188.575167,12.2645556" id="Combined-Shape"></path>
                        </g>
                    </g>
                </g>
            </g>
        </g>
    </g>
</svg>