<?xml version="1.0" encoding="utf-8"?>
<!-- Generator: Adobe Illustrator 19.0.0, SVG Export Plug-In . SVG Version: 6.00 Build 0)  -->
<svg version="1.1" id="Layer_1" xmlns="http://www.w3.org/2000/svg" xmlns:xlink="http://www.w3.org/1999/xlink" x="0px" y="0px"
	 viewBox="0 0 128 80" style="enable-background:new 0 0 128 80;" xml:space="preserve">
<g id="Layer_49">
	<g id="XMLID_594_">
		<path id="XMLID_600_" d="M122.5,1.3h-1.8c-2.9,0-5.3,2.6-5.4,5.9L110.7,36v0.4c0,3.4,2.4,6.2,5.4,6.2h6.5h0.1V80h5.3
			V36.5V8V7.5C127.9,4.1,125.5,1.3,122.5,1.3z M122.6,8v28.5c0,0.4-0.1,0.7-0.2,0.8h-6.2c-0.1-0.1-0.2-0.3-0.2-0.7l4.6-28.8V7.4
			c0-0.4,0.1-0.7,0.2-0.8h1.6c0.1,0.1,0.2,0.4,0.2,0.8V8z"/>
		<path id="XMLID_609_" class="st0" d="M18.7,21.9c0,1.8-1.2,3.4-2.5,3.4h-1.5v-24H9.3v24H7.9c-1.4,0-2.5-1.6-2.5-3.4V1.3H0v20.6
			c0,4.8,3.5,8.7,7.9,8.7h1.5V80h5.3V30.7h1.5c4.3,0,7.9-3.9,7.9-8.7V1.3h-5.3L18.7,21.9L18.7,21.9z"/>
		<path id="XMLID_614_" class="st0" d="M66.6,9.3C49.8,9.3,36,23.1,36,40s13.8,30.7,30.7,30.7S97.2,56.9,97.2,40S83.5,9.3,66.6,9.3z
			 M66.6,68c-15.4,0-28-12.6-28-28s12.6-28,28-28s28,12.6,28,28S82,68,66.6,68z"/>
		<path id="XMLID_617_" class="st0" d="M66.6,0c-22.1,0-40,17.9-40,40s17.9,40,40,40s40-17.9,40-40S88.6,0,66.6,0z M66.6,74.7
			C47.6,74.7,32,59.1,32,40S47.6,5.3,66.6,5.3s34.7,15.6,34.7,34.7S85.7,74.7,66.6,74.7z"/>
	</g>
</g>
</svg>
