<?xml version="1.0" encoding="utf-8"?>
<!-- Generator: Adobe Illustrator 19.0.0, SVG Export Plug-In . SVG Version: 6.00 Build 0)  -->
<svg version="1.1" id="Layer_1" xmlns="http://www.w3.org/2000/svg" xmlns:xlink="http://www.w3.org/1999/xlink" x="0px" y="0px"
	 viewBox="0 0 128 89" style="enable-background:new 0 0 128 89;" xml:space="preserve">
<g id="XMLID_6_">
	<circle id="XMLID_7_" cx="102" cy="60.8" r="3.2"/>
	<circle id="XMLID_12_" cx="26.2" cy="60.8" r="3.2"/>
	<path id="XMLID_15_" d="M41.1,38.4h20.5v1.3H51.3v2.6h25.6v-2.6H66.7v-1.3h20.4c3.5,0,6.4-2.9,6.4-6.4V6.4c0-3.5-2.8-6.4-6.4-6.4
		H41.1c-3.5,0-6.4,2.9-6.4,6.4V32C34.7,35.5,37.5,38.4,41.1,38.4z M39.8,6.4c0-0.7,0.6-1.3,1.3-1.3h46.1c0.7,0,1.3,0.6,1.3,1.3V32
		c0,0.7-0.6,1.3-1.3,1.3H66.7v-0.1h-5.1v0.1H41.1c-0.7,0-1.3-0.6-1.3-1.3V6.4z"/>
	<path id="XMLID_18_" d="M121.8,43.5H6.4c-3.5,0-6.4,2.9-6.4,6.4v23c0,3.5,2.9,6.4,6.4,6.4h3.8l-2.5,8.2l4.9,1.5l2.9-9.7h96.9
		l2.9,9.7l4.9-1.5l-2.5-8.2h3.8c3.5,0,6.4-2.9,6.4-6.4v-23C128.2,46.4,125.3,43.5,121.8,43.5z M39.8,48.6h48.7v9.6H39.8V48.6z
		 M88.4,63.3v10.9H39.8V63.3H88.4z M6.4,74.2c-0.7,0-1.3-0.6-1.3-1.3v-23c0-0.7,0.6-1.3,1.3-1.3h28.2v25.6H6.4z M123.1,72.9
		c0,0.7-0.6,1.3-1.3,1.3H93.5V48.6h28.2c0.7,0,1.3,0.6,1.3,1.3V72.9z"/>
</g>
</svg>
