<?xml version="1.0" encoding="utf-8"?>
<!-- Generator: Adobe Illustrator 19.0.0, SVG Export Plug-In . SVG Version: 6.00 Build 0)  -->
<svg version="1.1" id="Layer_1" xmlns="http://www.w3.org/2000/svg" xmlns:xlink="http://www.w3.org/1999/xlink" x="0px" y="0px"
	 viewBox="0 0 128 105" style="enable-background:new 0 0 128 105;" xml:space="preserve">
<g id="Layer_50">
	<path id="XMLID_67_" d="M71.3,92.5H128l-0.5-3.6c-1.3-9.2-10.2-16.1-20.8-16.1h-0.1l-7.8-8.5H70.3l-6.6,8.5
		c-9.2,0.1-17.1,5.5-19.7,13.1l-6.1-3.7l22.4-15.4l-9.4-13.4h14.2c2.2,0,3.9-1.8,3.9-3.9c0-2.2-1.7-3.9-3.9-3.9H43.2
		c-2.2,0-3.9,1.8-3.9,3.9c0,1.8,1.2,3.2,2.8,3.7L42,53.3c-1.8,1.2-4.2,0.8-5.4-1l-6.4-9.1c-5.4-7.8-15.5-10.4-24-6.9v-4.8
		c7.4,0,13.4-7,13.4-15.7S13.6,0,6.2,0H0v40l32.2,46l10.5,6.4H65v6.3H46.3v6.3H90v-6.3H71.3V92.5z M6.2,6.3c3.9,0,7.1,4.2,7.1,9.4
		s-3.2,9.4-7.1,9.4C6.2,25.1,6.2,6.3,6.2,6.3z M8.9,41.9c5.7-2.2,12.5-0.4,16.1,4.9l6.4,9.1c3.2,4.5,9.5,5.7,14,2.5l0,0
		c0.3-0.2,0.6-0.4,0.9-0.7l5.2,7.4L33.8,77.4L8.9,41.9z M50.6,86.2c2.3-4.2,7.5-7.1,13.4-7.1c0.3,0,0.5,0,1,0l1.6,0.1l6.8-8.7h22.7
		l7.9,8.7l1.5-0.1c0.4,0,0.8-0.1,1.2-0.1c5.9,0,11.1,2.9,13.4,7.1L50.6,86.2L50.6,86.2z"/>
</g>
</svg>
