<?xml version="1.0" encoding="utf-8"?>
<!-- Generator: Adobe Illustrator 19.0.0, SVG Export Plug-In . SVG Version: 6.00 Build 0)  -->
<svg version="1.1" id="Layer_1" xmlns="http://www.w3.org/2000/svg" xmlns:xlink="http://www.w3.org/1999/xlink" x="0px" y="0px"
	 viewBox="0 0 128 71.5" style="enable-background:new 0 0 128 71.5;" xml:space="preserve">
<g id="Layer_36">
	<path id="XMLID_62_" d="M123.2,29.5c3-3.1,4.8-7.3,4.8-12C128,7.8,120.1,0,110.5,0S93,7.8,93,17.5c0,4.4,1.6,8.3,4.3,11.4H30.8
		c2.7-3.1,4.3-7,4.3-11.4C35,7.8,27.2,0,17.5,0S0,7.8,0,17.5c0,4.6,1.8,8.8,4.8,12C2,30.6,0,33.3,0,36.5v15.2c0,4.2,3.4,7.6,7.6,7.6
		h2.3v12.2H16V59.3h96v12.2h6.1V59.3h2.3c4.2,0,7.6-3.4,7.6-7.6V36.5C128,33.3,126,30.6,123.2,29.5z M99,17.5
		c0-6.3,5.1-11.4,11.4-11.4s11.4,5.1,11.4,11.4s-5.1,11.4-11.4,11.4C104.2,28.9,99,23.8,99,17.5z M17.5,6.1
		c6.3,0,11.4,5.1,11.4,11.4s-5.1,11.4-11.4,11.4S6.1,23.8,6.1,17.5S11.2,6.1,17.5,6.1z M121.9,51.7c0,0.8-0.7,1.5-1.5,1.5H7.6
		c-0.8,0-1.5-0.7-1.5-1.5V36.5c0-0.8,0.7-1.5,1.5-1.5h112.8c0.8,0,1.5,0.7,1.5,1.5V51.7z"/>
</g>
</svg>
