<?xml version="1.0" encoding="utf-8"?>
<!-- Generator: Adobe Illustrator 19.0.0, SVG Export Plug-In . SVG Version: 6.00 Build 0)  -->
<svg version="1.1" id="Layer_1" xmlns="http://www.w3.org/2000/svg" xmlns:xlink="http://www.w3.org/1999/xlink" x="0px" y="0px"
	 viewBox="0 0 128 78" style="enable-background:new 0 0 128 78;" xml:space="preserve">
<g id="Layer_38">
	<path id="XMLID_244_" d="M120.4,35.7V0h-6.1v4.6H13.7V0H7.6v35.7C3.1,38.4,0,43.3,0,48.9V78h6.1v-9.2h115.8V78h6.1
		V48.9C128,43.3,124.9,38.4,120.4,35.7z M13.7,10.7h100.6v23c-0.5-0.1-1-0.1-1.5-0.1h-1.5V26c0-5.9-4.8-10.7-10.7-10.7h-29
		c-3,0-5.7,1.2-7.6,3.2c-1.9-2-4.6-3.2-7.6-3.2h-29c-5.9,0-10.7,4.8-10.7,10.7v7.6h-1.5c-0.5,0-1,0-1.5,0.1
		C13.7,33.7,13.7,10.7,13.7,10.7z M61,33.6H22.9V26c0-2.5,2.1-4.6,4.6-4.6h29c2.5,0,4.6,2.1,4.6,4.6L61,33.6L61,33.6z M105.1,33.6
		H67V26c0-2.5,2.1-4.6,4.6-4.6h29c2.5,0,4.6,2.1,4.6,4.6L105.1,33.6L105.1,33.6z M6.1,62.7V48.9c0-5.1,4.1-9.2,9.1-9.2h97.5
		c5,0,9.1,4.1,9.1,9.2v13.8H6.1z"/>
</g>
</svg>
