<?xml version="1.0" encoding="utf-8"?>
<!-- Generator: Adobe Illustrator 19.0.0, SVG Export Plug-In . SVG Version: 6.00 Build 0)  -->
<svg version="1.1" id="Layer_1" xmlns="http://www.w3.org/2000/svg" xmlns:xlink="http://www.w3.org/1999/xlink" x="0px" y="0px"
	 viewBox="0 0 128 91" style="enable-background:new 0 0 128 91;" xml:space="preserve">
<g id="Layer_47">
	<path id="XMLID_525_" d="M125.7,78c-0.1,0-4.1,1.5-12.8,3.1l-2-13.2c8.9-0.3,16-7.6,16-16.5V0h-6.6v9.9H7.7V0H1.1v51.3
		c0,9.1,7.4,16.5,16.5,16.5h6.1l-2.1,13.9C8.2,80,2.3,78,2.2,77.9L1.1,81L0,84.2c0.7,0.3,18.4,6.4,63.9,6.8c1.3,0,2.5,0,3.7,0
		c42.1,0,59.6-6.6,60.3-6.9L125.7,78z M30.9,61.2V16.5h13.2v44.7H30.9z M50.7,16.5h13.3v44.7H50.7V16.5z M70.7,16.5h13.2v44.7H70.7
		V16.5z M90.5,16.5h13.2v44.7H90.5V16.5z M120.3,51.3c0,5.5-4.5,9.9-9.9,9.9V16.5h9.9V51.3z M7.7,51.3V16.5h16.5v44.7h-6.6
		C12.2,61.2,7.7,56.8,7.7,51.3z M64.1,84.4c-14.9-0.1-26.7-0.9-35.8-1.9l2.3-14.7h73.8l2.2,14.2C96.6,83.4,82.7,84.5,64.1,84.4z"/>
</g>
</svg>
