<?xml version="1.0" encoding="utf-8"?>
<!-- Generator: Adobe Illustrator 19.0.0, SVG Export Plug-In . SVG Version: 6.00 Build 0)  -->
<svg version="1.1" id="Layer_1" xmlns="http://www.w3.org/2000/svg" xmlns:xlink="http://www.w3.org/1999/xlink" x="0px" y="0px"
	 viewBox="0 0 128 120" style="enable-background:new 0 0 128 120;" xml:space="preserve">
<g id="Layer_43">
	<g id="XMLID_201_">
		<path id="XMLID_261_" d="M53.3,71.3c8.2,0,14.9-6.6,14.9-14.8s-6.7-14.8-14.9-14.8s-14.9,6.6-14.9,14.8S45.1,71.3,53.3,71.3z
			 M53.3,50.1c3.5,0,6.4,2.8,6.4,6.4c0,3.5-2.9,6.4-6.4,6.4s-6.4-2.8-6.4-6.4C46.9,53,49.8,50.1,53.3,50.1z"/>
		<path id="XMLID_272_" d="M99.1,22.6L63.2,0L28.7,22.6H0V120h128V22.6H99.1z M63.3,5l27.9,17.6H36.5L63.3,5z M119.5,31.1v47.6
			L93.7,62L56.3,88.1l-22-18.2L8.5,89.3V31.1H119.5z M8.5,111.5V99.9L34,80.7l21.8,18l38-26.6l25.6,16.6v22.7H8.5V111.5z"/>
	</g>
</g>
</svg>
