<?xml version="1.0" encoding="utf-8"?>
<!-- Generator: Adobe Illustrator 19.0.0, SVG Export Plug-In . SVG Version: 6.00 Build 0)  -->
<svg version="1.1" id="Layer_1" xmlns="http://www.w3.org/2000/svg" xmlns:xlink="http://www.w3.org/1999/xlink" x="0px" y="0px"
	 viewBox="0 0 102 128" style="enable-background:new 0 0 102 128;" xml:space="preserve">
<g id="Layer_44">
	<path id="XMLID_465_" d="M95.7,54.9L80.6,0H19.7L6.2,54.9H0v7.3h33.2v10.4c-5,5.1-7.9,12.2-7.9,19.7c0,4.8,1.2,9.5,3.5,13.7
		c-3.1,5-5.1,11.9-5.1,18.4v3.7h54.6v-3.7c0-6.5-1.9-13.4-5.1-18.4c2.3-4.2,3.5-8.8,3.5-13.7c0-7.4-2.9-14.5-7.9-19.7V62.2h10.4v9.1
		h7.3v-9.1H102v-7.3C102,54.9,95.7,54.9,95.7,54.9z M69.5,92.2c0,4.2-1.2,8.3-3.6,11.8l-1.5,2.3l1.7,2.1c2.3,2.9,4.1,7.6,4.7,12.3
		H31.2c0.6-4.7,2.4-9.4,4.7-12.3l1.7-2.1l-1.5-2.3c-2.3-3.5-3.6-7.5-3.6-11.8c0-5.9,2.4-11.5,6.7-15.4l1.2-1.1V62.2h21.1v13.6
		l1.2,1.1C67,80.6,69.5,86.2,69.5,92.2z M68.8,54.9H33.2H13.8L25.4,7.3H75l13.1,47.5L68.8,54.9L68.8,54.9z"/>
</g>
</svg>
