<?xml version="1.0" encoding="utf-8"?>
<!-- Generator: Adobe Illustrator 19.0.0, SVG Export Plug-In . SVG Version: 6.00 Build 0)  -->
<svg version="1.1" id="Layer_1" xmlns="http://www.w3.org/2000/svg" xmlns:xlink="http://www.w3.org/1999/xlink" x="0px" y="0px"
	 viewBox="0 0 105 128" style="enable-background:new 0 0 105 128;" xml:space="preserve">
<g id="Layer_39">
	<g id="XMLID_270_">
		<path id="XMLID_305_" d="M31.9,22.6h-3.8v-3.8c0-1-0.8-1.9-1.9-1.9c-1,0-1.9,0.8-1.9,1.9v3.8h-3.7c-1,0-1.9,0.8-1.9,1.9
			c0,1,0.8,1.9,1.9,1.9h3.7v3.8c0,1,0.8,1.9,1.9,1.9c1,0,1.9-0.8,1.9-1.9v-3.8h3.8c1,0,1.9-0.8,1.9-1.9S32.9,22.6,31.9,22.6z"/>
		<path id="XMLID_307_" d="M58,22.6h-3.7v-3.8c0-1-0.8-1.9-1.9-1.9c-1,0-1.9,0.8-1.9,1.9v3.8h-3.8c-1,0-1.9,0.8-1.9,1.9
			c0,1,0.8,1.9,1.9,1.9h3.8v3.8c0,1,0.8,1.9,1.9,1.9c1,0,1.9-0.8,1.9-1.9v-3.8H58c1,0,1.9-0.8,1.9-1.9S59.1,22.6,58,22.6z"/>
		<path id="XMLID_309_" d="M84.3,22.6h-3.8v-3.8c0-1-0.8-1.9-1.9-1.9c-1,0-1.9,0.8-1.9,1.9v3.8h-3.8c-1,0-1.9,0.8-1.9,1.9
			c0,1,0.8,1.9,1.9,1.9h3.8v3.8c0,1,0.8,1.9,1.9,1.9c1,0,1.9-0.8,1.9-1.9v-3.8h3.8c1,0,1.9-0.8,1.9-1.9S85.3,22.6,84.3,22.6z"/>
		<path id="XMLID_312_" d="M31.9,48.9h-3.8v-3.8c0-1-0.8-1.9-1.9-1.9c-1,0-1.9,0.8-1.9,1.9v3.8h-3.7c-1,0-1.9,0.8-1.9,1.9
			c0,1,0.8,1.9,1.9,1.9h3.7v3.8c0,1,0.8,1.9,1.9,1.9c1,0,1.9-0.8,1.9-1.9v-3.8h3.8c1,0,1.9-0.8,1.9-1.9
			C33.8,49.8,32.9,48.9,31.9,48.9z"/>
		<path id="XMLID_387_" d="M58,48.9h-3.7v-3.8c0-1-0.8-1.9-1.9-1.9c-1,0-1.9,0.8-1.9,1.9v3.8h-3.8c-1,0-1.9,0.8-1.9,1.9
			c0,1,0.8,1.9,1.9,1.9h3.8v3.8c0,1,0.8,1.9,1.9,1.9c1,0,1.9-0.8,1.9-1.9v-3.8H58c1,0,1.9-0.8,1.9-1.9C59.9,49.8,59.1,48.9,58,48.9z
			"/>
		<path id="XMLID_389_" d="M84.3,48.9h-3.8v-3.8c0-1-0.8-1.9-1.9-1.9c-1,0-1.9,0.8-1.9,1.9v3.8h-3.8c-1,0-1.9,0.8-1.9,1.9
			c0,1,0.8,1.9,1.9,1.9h3.8v3.8c0,1,0.8,1.9,1.9,1.9c1,0,1.9-0.8,1.9-1.9v-3.8h3.8c1,0,1.9-0.8,1.9-1.9
			C86.2,49.8,85.3,48.9,84.3,48.9z"/>
		<path id="XMLID_390_" d="M31.9,75.3h-3.8v-3.8c0-1-0.8-1.9-1.9-1.9c-1,0-1.9,0.8-1.9,1.9v3.8h-3.7c-1,0-1.9,0.8-1.9,1.9
			c0,1,0.8,1.9,1.9,1.9h3.7v3.8c0,1,0.8,1.9,1.9,1.9c1,0,1.9-0.8,1.9-1.9v-3.8h3.8c1,0,1.9-0.8,1.9-1.9
			C33.8,76.1,32.9,75.3,31.9,75.3z"/>
		<path id="XMLID_399_" d="M58,75.3h-3.7v-3.8c0-1-0.8-1.9-1.9-1.9c-1,0-1.9,0.8-1.9,1.9v3.8h-3.8c-1,0-1.9,0.8-1.9,1.9
			c0,1,0.8,1.9,1.9,1.9h3.8v3.8c0,1,0.8,1.9,1.9,1.9c1,0,1.9-0.8,1.9-1.9v-3.8H58c1,0,1.9-0.8,1.9-1.9C59.9,76.1,59.1,75.3,58,75.3z
			"/>
		<path id="XMLID_400_" d="M84.3,75.3h-3.8v-3.8c0-1-0.8-1.9-1.9-1.9c-1,0-1.9,0.8-1.9,1.9v3.8h-3.8c-1,0-1.9,0.8-1.9,1.9
			c0,1,0.8,1.9,1.9,1.9h3.8v3.8c0,1,0.8,1.9,1.9,1.9c1,0,1.9-0.8,1.9-1.9v-3.8h3.8c1,0,1.9-0.8,1.9-1.9
			C86.2,76.1,85.3,75.3,84.3,75.3z"/>
		<path id="XMLID_402_" d="M31.9,101.6h-3.8v-3.8c0-1-0.8-1.9-1.9-1.9c-1,0-1.9,0.8-1.9,1.9v3.8h-3.7c-1,0-1.9,0.8-1.9,1.9
			c0,1,0.8,1.9,1.9,1.9h3.7v3.8c0,1,0.8,1.9,1.9,1.9c1,0,1.9-0.8,1.9-1.9v-3.8h3.8c1,0,1.9-0.8,1.9-1.9
			C33.8,102.5,32.9,101.6,31.9,101.6z"/>
		<path id="XMLID_403_" d="M58,101.6h-3.7v-3.8c0-1-0.8-1.9-1.9-1.9c-1,0-1.9,0.8-1.9,1.9v3.8h-3.8c-1,0-1.9,0.8-1.9,1.9
			c0,1,0.8,1.9,1.9,1.9h3.8v3.8c0,1,0.8,1.9,1.9,1.9c1,0,1.9-0.8,1.9-1.9v-3.8H58c1,0,1.9-0.8,1.9-1.9
			C59.9,102.5,59.1,101.6,58,101.6z"/>
		<path id="XMLID_404_" d="M84.3,101.6h-3.8v-3.8c0-1-0.8-1.9-1.9-1.9c-1,0-1.9,0.8-1.9,1.9v3.8h-3.8c-1,0-1.9,0.8-1.9,1.9
			c0,1,0.8,1.9,1.9,1.9h3.8v3.8c0,1,0.8,1.9,1.9,1.9c1,0,1.9-0.8,1.9-1.9v-3.8h3.8c1,0,1.9-0.8,1.9-1.9
			C86.2,102.5,85.3,101.6,84.3,101.6z"/>
		<path id="XMLID_408_" d="M92.4,0H12.5C5.6,0,0,5.7,0,12.6v102.8c0,7,5.6,12.6,12.5,12.6h80c6.9,0,12.5-5.7,12.5-12.6V12.6
			C104.9,5.7,99.3,0,92.4,0z M97.4,115.4c0,2.8-2.2,5.1-5,5.1H12.5c-2.7,0-5-2.3-5-5.1V12.6c0-2.8,2.2-5.1,5-5.1h80
			c2.7,0,5,2.3,5,5.1L97.4,115.4L97.4,115.4z"/>
	</g>
</g>
</svg>
