<?xml version="1.0" encoding="utf-8"?>
<!-- Generator: Adobe Illustrator 19.0.0, SVG Export Plug-In . SVG Version: 6.00 Build 0)  -->
<svg version="1.1" id="Layer_1" xmlns="http://www.w3.org/2000/svg" xmlns:xlink="http://www.w3.org/1999/xlink" x="0px" y="0px"
	 viewBox="0 0 86 128" style="enable-background:new 0 0 86 128;" xml:space="preserve">
<g id="Layer_42">
	<path id="XMLID_535_" d="M77.9,0H8.3C3.7,0,0,3.8,0,8.4v111.2c0,4.7,3.7,8.4,8.2,8.4h69.7c4.5,0,8.2-3.8,8.2-8.4V8.4
		C86.1,3.8,82.4,0,77.9,0z M8.2,6.9h69.7c0.7,0,1.3,0.7,1.3,1.5v28.8H48.9l-7.8-20.3l-6.5,2.5l6.8,17.8h-8.8v-19h-6.8v19h-5.2v-19
		h-6.9v19h-7V8.4C6.9,7.6,7.5,6.9,8.2,6.9z M65.4,54.5v22.5h-5.2V65h-6.9v12.1h-5.2V65h-6.9v12.1H6.9V44.1h72.4v32.9h-6.9V54.5H65.4
		z M77.9,121.2H58.5v-14.7h-6.9v14.7h-3.5V99.6h-6.9v21.6h-5.2V99.6h-6.9v21.6h-8.5l6.5-16.9l-6.5-2.5l-7.5,19.4H8.2
		c-0.7,0-1.3-0.7-1.3-1.5V84h72.4v35.7C79.2,120.5,78.6,121.2,77.9,121.2z"/>
</g>
</svg>
