<?xml version="1.0" encoding="utf-8"?>
<!-- Generator: Adobe Illustrator 19.0.0, SVG Export Plug-In . SVG Version: 6.00 Build 0)  -->
<svg version="1.1" id="Layer_1" xmlns="http://www.w3.org/2000/svg" xmlns:xlink="http://www.w3.org/1999/xlink" x="0px" y="0px"
	 viewBox="0 0 128 126" style="enable-background:new 0 0 128 126;" xml:space="preserve">
<g id="Layer_40">
	<g id="XMLID_456_">
		<path id="XMLID_483_" d="M36,24h12c2.2,0,4-1.8,4-4s-1.8-4-4-4H36c-2.2,0-4,1.8-4,4S33.8,24,36,24z"/>
		<path id="XMLID_499_" d="M80,24h12c2.2,0,4-1.8,4-4s-1.8-4-4-4H80c-2.2,0-4,1.8-4,4S77.8,24,80,24z"/>
		<path id="XMLID_500_" d="M36,54h12c2.2,0,4-1.8,4-4s-1.8-4-4-4H36c-2.2,0-4,1.8-4,4S33.8,54,36,54z"/>
		<path id="XMLID_501_" d="M80,54h12c2.2,0,4-1.8,4-4s-1.8-4-4-4H80c-2.2,0-4,1.8-4,4S77.8,54,80,54z"/>
		<path id="XMLID_502_" d="M36,84h12c2.2,0,4-1.8,4-4s-1.8-4-4-4H36c-2.2,0-4,1.8-4,4S33.8,84,36,84z"/>
		<path id="XMLID_503_" d="M80,84h12c2.2,0,4-1.8,4-4s-1.8-4-4-4H80c-2.2,0-4,1.8-4,4S77.8,84,80,84z"/>
		<path id="XMLID_506_" d="M0,0v8h10v118h8v-14h92v14h8V8h10V0H0z M110,104H18v-6h92V104z M110,90H18V68h92V90z M110,60H18V38h92V60
			z M110,30H18V8h92V30z"/>
	</g>
</g>
</svg>
