<?xml version="1.0" encoding="utf-8"?>
<!-- Generator: Adobe Illustrator 19.0.0, SVG Export Plug-In . SVG Version: 6.00 Build 0)  -->
<svg version="1.1" id="Layer_1" xmlns="http://www.w3.org/2000/svg" xmlns:xlink="http://www.w3.org/1999/xlink" x="0px" y="0px"
	 viewBox="0 0 128 91" style="enable-background:new 0 0 128 91;" xml:space="preserve">
<g id="XMLID_36_">
	<ellipse id="XMLID_52_" cx="79.5" cy="39.3" rx="3.7" ry="3.7"/>
	<ellipse id="XMLID_57_" cx="48.4" cy="39.3" rx="3.7" ry="3.7"/>
	<path id="XMLID_433_" d="M120.7,0H7.2C3.2,0,0,3.2,0,7.1v63c0,3.9,3.2,7.1,7.2,7.1h4.1L9,89.9l5.9,1.1l2.5-13.9h93.2l2.5,13.9
		l5.9-1.1l-2.3-12.8h4.1c4,0,7.2-3.2,7.2-7.1V7C127.9,3.2,124.7,0,120.7,0z M61,71.2H7.2C6.5,71.2,6,70.7,6,70V7
		c0-0.6,0.6-1.1,1.3-1.1H61V71.2z M121.9,70c0,0.6-0.6,1.1-1.3,1.1H66.9V5.9h53.8c0.7,0,1.3,0.5,1.3,1.1L121.9,70L121.9,70z"/>
</g>
</svg>
