<?xml version="1.0" encoding="utf-8"?>
<!-- Generator: Adobe Illustrator 19.0.0, SVG Export Plug-In . SVG Version: 6.00 Build 0)  -->
<svg version="1.1" id="Layer_1" xmlns="http://www.w3.org/2000/svg" xmlns:xlink="http://www.w3.org/1999/xlink" x="0px" y="0px"
	 viewBox="0 0 128 114" style="enable-background:new 0 0 128 114;" xml:space="preserve">
<g id="Layer_46">
	<g id="XMLID_294_">
		<path id="XMLID_310_" d="M25.3,84.1c-0.2-0.6-3.7-15.4-3.7-28.5c0-13,3.6-23.8,3.8-24.2l6.8,2.3c0,0.1-3.4,10.2-3.4,21.9
			c0,12.2,3.5,26.6,3.5,26.7L25.3,84.1z"/>
		<path id="XMLID_432_" d="M114.2,114c-3.7,0-7.3-1.5-9.8-4.1c-8.2,1.5-25.2,4.1-42.1,4.1c-15.3,0-30.3-2.2-39-3.8
			c-2.6,2.4-5.9,3.8-9.5,3.8C6.2,114,0,107.8,0,100.2c0-3.4,1.3-6.7,3.6-9.2C2.1,84.1,0,71.9,0,57s2.1-27.1,3.6-34
			C1.3,20.4,0,17.2,0,13.8C0,6.2,6.2,0,13.8,0c3.6,0,6.9,1.4,9.5,3.8C31.7,2.2,46.4,0,61.3,0c17.1,0,34.6,2.6,43,4.1
			c2.6-2.6,6.1-4.1,9.9-4.1c7.6,0,13.8,6.2,13.8,13.8c0,4.1-1.8,7.9-5,10.5c1.6,7.7,3.3,19,3.3,32.5c0,13.7-1.7,25.1-3.3,32.8
			c3.1,2.6,5,6.4,5,10.5C128,107.8,121.8,114,114.2,114z M107.4,102l1.3,1.9c1.2,1.8,3.3,2.9,5.5,2.9c3.6,0,6.6-2.9,6.6-6.5
			c0-2.4-1.3-4.6-3.5-5.7l-2.4-1.3l0.6-2.7c1.4-6,3.6-18.4,3.6-33.6s-2.3-27.4-3.6-33.4l-0.6-2.7l2.4-1.3c2.2-1.2,3.5-3.3,3.5-5.7
			c0-3.6-3-6.5-6.6-6.5c-2.2,0-4.2,1.1-5.5,2.9l-1.3,1.9l-2.3-0.4C98,10.3,79.4,7.2,61.3,7.2c-15.6,0-30.9,2.5-38.7,4l-2.2,0.4
			L19,9.8c-1.3-1.7-3.2-2.7-5.3-2.7c-3.6,0-6.6,2.9-6.6,6.5c0,2,0.9,3.8,2.5,5.1l1.8,1.4L11,22.6C9.6,28.7,7.2,41.3,7.2,57
			S9.6,85.3,11,91.4l0.5,2.3l-1.8,1.4c-1.6,1.3-2.5,3.1-2.5,5.1c0,3.6,3,6.5,6.6,6.5c2.1,0,4-1,5.3-2.7l1.3-1.8l2.2,0.4
			c8,1.5,23.7,4.1,39.7,4.1c17.8,0,35.9-3.1,42.8-4.4L107.4,102z"/>
	</g>
</g>
</svg>
