<?xml version="1.0" encoding="utf-8"?>
<!-- Generator: Adobe Illustrator 19.0.0, SVG Export Plug-In . SVG Version: 6.00 Build 0)  -->
<svg version="1.1" id="Layer_1" xmlns="http://www.w3.org/2000/svg" xmlns:xlink="http://www.w3.org/1999/xlink" x="0px" y="0px"
	 viewBox="0 0 90 128" style="enable-background:new 0 0 90 128;" xml:space="preserve">
<g id="Layer_33">
	<g id="XMLID_170_">
		<path id="XMLID_214_" d="M82.9,128l7.1-1.4L79.8,75.8c5.1-1.3,8.4-2.4,8.7-2.5l-2.3-6.8c-0.1,0-2.7,0.9-7,2V16
			c-0.1-1.6-1.6-16-33.6-16C15.7,0,11.1,14.5,10.9,15.1l-0.1,0.5v53c-4.3-1.1-6.9-2-6.9-2l-2.4,6.8c0.3,0.1,3.6,1.2,8.8,2.6L0,126.6
			l7.1,1.4l10.2-50.5c1.9,0.4,4,0.8,6.1,1.2v39.7h7.2V79.7c4.8,0.6,10,1,15.3,1c4.5,0,9.1-0.4,13.5-0.9v38.6h7.2V78.7
			c2.1-0.4,4.2-0.8,6.1-1.2L82.9,128z M18,70.3V16.9c1-1.8,6.3-9.7,27.6-9.7c23.9,0,26.3,8.4,26.4,9.2v53.9
			c-7.6,1.7-17.2,3.3-26.1,3.3C35.6,73.5,25.6,71.9,18,70.3z"/>
		<path id="XMLID_215_" d="M45.6,59.2c-10.9,0-17.7-1.7-17.7-1.7l-1.8,7c0.3,0.1,7.6,1.9,19.5,1.9c10.3,0,18-1.8,18.3-1.9l-1.7-7
			C62.1,57.5,55,59.2,45.6,59.2z"/>
	</g>
</g>
</svg>
