<?xml version="1.0" encoding="utf-8"?>
<!-- Generator: Adobe Illustrator 19.0.0, SVG Export Plug-In . SVG Version: 6.00 Build 0)  -->
<svg version="1.1" id="Layer_1" xmlns="http://www.w3.org/2000/svg" xmlns:xlink="http://www.w3.org/1999/xlink" x="0px" y="0px"
	 viewBox="0 0 124 128" style="enable-background:new 0 0 124 128;" xml:space="preserve">
<g id="Layer_48">
</g>
<g id="XMLID_550_">
	<path id="XMLID_554_" d="M55.5,26c3.1,0,5.6-2.5,5.6-5.6s-2.5-5.6-5.6-5.6S50,17.3,50,20.4S52.5,26,55.5,26z M55.5,18.6
		c1,0,1.9,0.8,1.9,1.9c0,1-0.8,1.9-1.9,1.9c-1.1,0-1.9-0.8-1.9-1.9C53.7,19.4,54.5,18.6,55.5,18.6z"/>
	<path id="XMLID_573_" d="M124,67.7V53.1c0-4.7-3.9-8.6-8.7-8.6H89.8v-3.9H115V17.7C115,7.9,107.1,0,97.4,0h-78
		C9.7,0,1.8,7.9,1.8,17.7v5.2C1.8,31.1,7.3,38,14.9,40L3.6,86.8c-0.2,0.8-0.4,1.7-0.6,2.6c-2.3,9.2-5.8,23.2,1,31.8
		c3.5,4.5,9.2,6.8,17,6.8c0.1,0,0.1,0,0.2,0h88.4c4.9,0,8.9-4,8.9-9v-7c0-4.9-4-9-8.9-9h-4v-6C116.6,91.2,124,80.2,124,67.7z
		 M115.3,51.9c0.7,0,1.3,0.5,1.3,1.1v6.3H55.5V53c0-0.6,0.6-1.1,1.3-1.1H115.3z M66.6,97.2v6H48.8c-1.3,0-3-0.2-3.8-0.9
		c-1.3-1.3-1.2-5.2-1.2-9.3c0-0.8,0-1.6,0-2.4V40.6h38.5v3.9H56.8c-4.8,0-8.7,3.8-8.7,8.6v14.5C48.1,80.2,55.6,91.2,66.6,97.2z
		 M109.5,110.6c0.8,0,1.5,0.7,1.5,1.5v7c0,0.8-0.7,1.5-1.5,1.5H21.1c-5.4,0.1-9.2-1.3-11.3-4c-4.5-5.8-1.6-17.6,0.4-25.5
		c0.2-1,0.5-1.9,0.7-2.7L23,37.8l1-4.6h-4.7c-5.6,0-10.2-4.6-10.2-10.3v-5.2c0-5.7,4.6-10.3,10.2-10.3h78c5.3,0,9.6,4.1,10.1,9.3
		h-37c-2.2,0-3.9,1.7-3.9,3.7s1.7,3.7,3.9,3.7h37v9.1H36.5v57.3c0,0.8,0,1.6,0,2.3c-0.1,6-0.1,11.1,3.3,14.6c2.1,2.1,5,3.1,9.1,3.1
		H109.5z M74,103.2v-2.9c3.8,1.2,7.8,1.8,12,1.8c4.2,0,8.2-0.7,12-1.8v2.9H74z M86.1,94.7c-16.8,0-30.5-12.1-30.5-27v-0.8h61.1v0.8
		C116.6,82.6,102.9,94.7,86.1,94.7z"/>
</g>
</svg>
