<?xml version="1.0" encoding="utf-8"?>
<!-- Generator: Adobe Illustrator 19.0.0, SVG Export Plug-In . SVG Version: 6.00 Build 0)  -->
<svg version="1.1" id="Layer_1" xmlns="http://www.w3.org/2000/svg" xmlns:xlink="http://www.w3.org/1999/xlink" x="0px" y="0px"
	 viewBox="0 0 128 89" style="enable-background:new 0 0 128 89;" xml:space="preserve">
<g id="Layer_35">
</g>
<path id="XMLID_371_" d="M120.7,25.2h-7.4V10.4c0-5.7-4.7-10.4-10.4-10.4H25.3c-5.7,0-10.4,4.7-10.4,10.4v14.8H7.4
	c-4.1,0-7.4,3.3-7.4,7.4v41.5c0,4.1,3.3,7.4,7.4,7.4h7.4V89h6v-7.4h86.4V89h6v-7.4h7.4c4.1,0,7.4-3.3,7.4-7.4V32.6
	C128.1,28.5,124.8,25.2,120.7,25.2z M20.8,10.4c0-2.5,2-4.4,4.5-4.4h77.5c2.5,0,4.5,2,4.5,4.4v34.1H20.8V10.4z M6,32.6
	c0-0.8,0.7-1.5,1.5-1.5h7.4v13.4H6V32.6z M122.1,74.2c0,0.8-0.7,1.5-1.5,1.5H7.4C6.6,75.7,6,75,6,74.2V50.4h116.1V74.2z M122.1,44.5
	h-8.9V31.1h7.4c0.8,0,1.5,0.7,1.5,1.5V44.5z M42.4,13.4c2,0,3.7,1.7,3.7,3.7s-1.7,3.7-3.7,3.7c-2,0-3.7-1.7-3.7-3.7
	S40.4,13.4,42.4,13.4z M63.3,13.4c2,0,3.7,1.7,3.7,3.7s-1.7,3.7-3.7,3.7s-3.7-1.7-3.7-3.7S61.3,13.4,63.3,13.4z M85.7,13.4
	c2,0,3.7,1.7,3.7,3.7s-1.7,3.7-3.7,3.7S82,19.1,82,17.1S83.6,13.4,85.7,13.4z M42.4,29.7c2,0,3.7,1.7,3.7,3.7s-1.7,3.7-3.7,3.7
	c-2,0-3.7-1.7-3.7-3.7S40.4,29.7,42.4,29.7z M63.3,29.7c2,0,3.7,1.7,3.7,3.7s-1.7,3.7-3.7,3.7s-3.7-1.7-3.7-3.7S61.3,29.7,63.3,29.7
	z M85.7,29.7c2,0,3.7,1.7,3.7,3.7s-1.7,3.7-3.7,3.7S82,35.4,82,33.4S83.6,29.7,85.7,29.7z"/>
</svg>
