<?xml version="1.0" encoding="utf-8"?>
<!-- Generator: Adobe Illustrator 19.0.0, SVG Export Plug-In . SVG Version: 6.00 Build 0)  -->
<svg version="1.1" id="Layer_1" xmlns="http://www.w3.org/2000/svg" xmlns:xlink="http://www.w3.org/1999/xlink" x="0px" y="0px"
	 viewBox="0 0 128 80" style="enable-background:new 0 0 128 80;" xml:space="preserve">
<g id="Layer_45">
	<path id="XMLID_237_" d="M128,16.3v-5.4h-10.8l0,0H76.8V0H9.9l0,0H0v5.4h8.1v8.1H0V19h8.1v6.8H0v5.4h8.1V38H0v5.4h8.1v6.8H0v5.4
		h8.1v8.1H0v5.4h8.1l0,0h43.1V80h68.7l0,0h8.1v-5.4h-8.1v-8.1h8.1V61h-8.1v-6.8h8.1v-5.4h-8.1V42h8.1v-5.4h-8.1v-6.8h8.1v-5.4h-8.1
		v-8.1H128z M13.5,5.4h57.9v58.3H13.5V5.4z M64.1,69.2L56.6,73v-3.8H64.1z M114.5,74.6H65.4l11.4-5.4V16.3h37.7V74.6z"/>
</g>
</svg>
